<svg width="350" height="107" viewBox="0 0 350 107" fill="none" xmlns="http://www.w3.org/2000/svg">
<path opacity="0.5" d="M45 78L47.2477 61.4603C49.2685 46.5896 61.9671 35.5 76.9744 35.5H140C156.569 35.5 170 22.0685 170 5.5V0" stroke="url(#paint0_linear_1701_4190)" stroke-width="5"/>
<path opacity="0.5" d="M295 78L292.752 61.4603C290.731 46.5896 278.033 35.5 263.026 35.5H200C183.431 35.5 170 22.0685 170 5.5V0" stroke="url(#paint1_linear_1701_4190)" stroke-width="5"/>
<rect y="75" width="112.267" height="31.6136" rx="1.8267" fill="white"/>
<rect x="0.18267" y="75.1827" width="111.902" height="31.2482" rx="1.64403" stroke="black" stroke-opacity="0.15" stroke-width="0.36534"/>
<path d="M17.0493 95.4707C14.2808 95.4707 12.5308 93.5156 12.5308 90.3711C12.5308 87.2471 14.2944 85.2783 17.0493 85.2783C19.2847 85.2783 20.9731 86.6523 21.2329 88.71H19.7153C19.4419 87.4453 18.3892 86.6182 17.0493 86.6182C15.2583 86.6182 14.0962 88.0879 14.0962 90.3711C14.0962 92.6748 15.2446 94.1309 17.0562 94.1309C18.4302 94.1309 19.4077 93.4268 19.7153 92.2373H21.2397C20.8638 94.2744 19.3188 95.4707 17.0493 95.4707ZM25.5327 95.4434C23.4751 95.4434 22.1216 94.0283 22.1216 91.7109C22.1216 89.4004 23.4819 87.9854 25.5327 87.9854C27.5835 87.9854 28.9438 89.4004 28.9438 91.7109C28.9438 94.0283 27.5903 95.4434 25.5327 95.4434ZM25.5327 94.2266C26.6948 94.2266 27.4399 93.3105 27.4399 91.7109C27.4399 90.1182 26.688 89.2021 25.5327 89.2021C24.3774 89.2021 23.6255 90.1182 23.6255 91.7109C23.6255 93.3105 24.3774 94.2266 25.5327 94.2266ZM30.0854 95.3066V88.1152H31.4937V89.3184H31.5278C31.9175 88.498 32.6831 87.9922 33.7905 87.9922C35.3765 87.9922 36.2856 89.0039 36.2856 90.6514V95.3066H34.8022V90.9385C34.8022 89.8584 34.2964 89.2637 33.271 89.2637C32.2319 89.2637 31.562 90.002 31.562 91.1162V95.3066H30.0854ZM43.8872 90.5898H42.479C42.3286 89.8242 41.7544 89.2158 40.7905 89.2158C39.6489 89.2158 38.897 90.166 38.897 91.7109C38.897 93.29 39.6558 94.2061 40.8042 94.2061C41.7134 94.2061 42.3081 93.707 42.479 92.873H43.9009C43.7437 94.4043 42.52 95.4434 40.7905 95.4434C38.7329 95.4434 37.3931 94.0352 37.3931 91.7109C37.3931 89.4277 38.7329 87.9854 40.7769 87.9854C42.6294 87.9854 43.7573 89.1748 43.8872 90.5898ZM47.9546 89.1748C46.9224 89.1748 46.1978 89.9609 46.1226 91.0479H49.7183C49.6841 89.9473 48.9868 89.1748 47.9546 89.1748ZM49.7114 93.1943H51.1128C50.9077 94.5068 49.6636 95.4434 48.0161 95.4434C45.9038 95.4434 44.6255 94.0146 44.6255 91.7451C44.6255 89.4893 45.9243 87.9854 47.9546 87.9854C49.9507 87.9854 51.1948 89.3936 51.1948 91.5742V92.0801H46.1157V92.1689C46.1157 93.4199 46.8677 94.2471 48.0503 94.2471C48.8911 94.2471 49.5132 93.8232 49.7114 93.1943ZM56.0894 87.999C57.9146 87.999 59.1177 89.4346 59.1177 91.7109C59.1177 93.9873 57.9214 95.4297 56.1167 95.4297C55.0845 95.4297 54.2642 94.9238 53.854 94.124H53.8198V97.6855H52.3433V88.1152H53.772V89.3525H53.7993C54.2231 88.5254 55.0503 87.999 56.0894 87.999ZM55.6997 94.1787C56.8687 94.1787 57.6001 93.2217 57.6001 91.7109C57.6001 90.207 56.8687 89.2432 55.6997 89.2432C54.5718 89.2432 53.813 90.2275 53.813 91.7109C53.813 93.208 54.5649 94.1787 55.6997 94.1787ZM60.6899 86.4131H62.1733V88.1152H63.5405V89.2842H62.1733V93.249C62.1733 93.8711 62.4468 94.1514 63.0483 94.1514C63.1987 94.1514 63.438 94.1377 63.5337 94.1172V95.2861C63.3696 95.3271 63.0415 95.3545 62.7134 95.3545C61.2573 95.3545 60.6899 94.8008 60.6899 93.4131V89.2842H59.644V88.1152H60.6899V86.4131ZM67.7788 85.4424H71.2583C74.1909 85.4424 75.9272 87.2471 75.9272 90.3574C75.9272 93.4746 74.1978 95.3066 71.2583 95.3066H67.7788V85.4424ZM69.3101 86.7617V93.9805H71.1147C73.2065 93.9805 74.3618 92.7021 74.3618 90.3711C74.3618 88.0469 73.1997 86.7617 71.1147 86.7617H69.3101ZM80.2202 89.1748C79.188 89.1748 78.4634 89.9609 78.3882 91.0479H81.9839C81.9497 89.9473 81.2524 89.1748 80.2202 89.1748ZM81.9771 93.1943H83.3784C83.1733 94.5068 81.9292 95.4434 80.2817 95.4434C78.1694 95.4434 76.8911 94.0146 76.8911 91.7451C76.8911 89.4893 78.1899 87.9854 80.2202 87.9854C82.2163 87.9854 83.4604 89.3936 83.4604 91.5742V92.0801H78.3813V92.1689C78.3813 93.4199 79.1333 94.2471 80.3159 94.2471C81.1567 94.2471 81.7788 93.8232 81.9771 93.1943ZM84.6089 95.3066V88.1152H86.0171V89.3252H86.0513C86.3726 88.5254 87.1245 87.9922 88.0952 87.9922C89.0933 87.9922 89.8179 88.5049 90.105 89.4004H90.1392C90.5083 88.5254 91.356 87.9922 92.3813 87.9922C93.8032 87.9922 94.7329 88.9355 94.7329 90.3643V95.3066H93.2495V90.7197C93.2495 89.79 92.7505 89.2568 91.8755 89.2568C91.0005 89.2568 90.3921 89.9062 90.3921 90.8154V95.3066H88.9429V90.6104C88.9429 89.7832 88.4165 89.2568 87.5825 89.2568C86.7075 89.2568 86.0854 89.9404 86.0854 90.8633V95.3066H84.6089ZM99.2515 95.4434C97.1938 95.4434 95.8403 94.0283 95.8403 91.7109C95.8403 89.4004 97.2007 87.9854 99.2515 87.9854C101.302 87.9854 102.663 89.4004 102.663 91.7109C102.663 94.0283 101.309 95.4434 99.2515 95.4434ZM99.2515 94.2266C100.414 94.2266 101.159 93.3105 101.159 91.7109C101.159 90.1182 100.407 89.2021 99.2515 89.2021C98.0962 89.2021 97.3442 90.1182 97.3442 91.7109C97.3442 93.3105 98.0962 94.2266 99.2515 94.2266Z" fill="#828282"/>
<rect x="208" y="75" width="141.267" height="31.6136" rx="1.8267" fill="white"/>
<rect x="208.183" y="75.1827" width="140.902" height="31.2482" rx="1.64403" stroke="black" stroke-opacity="0.15" stroke-width="0.36534"/>
<path d="M222.506 95.3066H220.832L217.311 85.4424H218.972L221.659 93.584H221.7L224.393 85.4424H226.027L222.506 95.3066ZM228.994 89.1748C227.961 89.1748 227.237 89.9609 227.162 91.0479H230.757C230.723 89.9473 230.026 89.1748 228.994 89.1748ZM230.75 93.1943H232.152C231.947 94.5068 230.703 95.4434 229.055 95.4434C226.943 95.4434 225.665 94.0146 225.665 91.7451C225.665 89.4893 226.963 87.9854 228.994 87.9854C230.99 87.9854 232.234 89.3936 232.234 91.5742V92.0801H227.155V92.1689C227.155 93.4199 227.907 94.2471 229.089 94.2471C229.93 94.2471 230.552 93.8232 230.75 93.1943ZM233.382 95.3066V88.1152H234.791V89.3389H234.825C235.064 88.498 235.707 87.999 236.554 87.999C236.766 87.999 236.951 88.0332 237.06 88.0537V89.4277C236.944 89.3799 236.684 89.3457 236.397 89.3457C235.447 89.3457 234.859 89.9814 234.859 91V95.3066H233.382ZM238.024 95.3066V88.1152H239.5V95.3066H238.024ZM238.762 87.0625C238.291 87.0625 237.908 86.6865 237.908 86.2217C237.908 85.75 238.291 85.374 238.762 85.374C239.241 85.374 239.624 85.75 239.624 86.2217C239.624 86.6865 239.241 87.0625 238.762 87.0625ZM241.442 95.3066V89.2842H240.451V88.1289H241.442V87.4248C241.442 86.0303 242.098 85.374 243.561 85.374C243.862 85.374 244.197 85.4082 244.388 85.4424V86.5361C244.245 86.5088 244.046 86.4951 243.848 86.4951C243.206 86.4951 242.905 86.8164 242.905 87.4521V88.1289H244.361V89.2842H242.925V95.3066H241.442ZM245.571 95.3066V88.1152H247.047V95.3066H245.571ZM246.309 87.0625C245.837 87.0625 245.455 86.6865 245.455 86.2217C245.455 85.75 245.837 85.374 246.309 85.374C246.788 85.374 247.17 85.75 247.17 86.2217C247.17 86.6865 246.788 87.0625 246.309 87.0625ZM251.074 94.2607C252.106 94.2607 252.913 93.5498 252.913 92.6133V92.0459L251.142 92.1553C250.26 92.2168 249.761 92.6064 249.761 93.2217C249.761 93.8506 250.281 94.2607 251.074 94.2607ZM250.664 95.4297C249.255 95.4297 248.271 94.5547 248.271 93.2627C248.271 92.0049 249.235 91.2324 250.944 91.1367L252.913 91.0205V90.4668C252.913 89.667 252.373 89.1885 251.47 89.1885C250.616 89.1885 250.083 89.5986 249.953 90.2412H248.558C248.64 88.9424 249.748 87.9854 251.525 87.9854C253.268 87.9854 254.382 88.9082 254.382 90.3506V95.3066H252.967V94.124H252.933C252.516 94.9238 251.607 95.4297 250.664 95.4297ZM259.646 95.4297C258.593 95.4297 257.78 94.917 257.335 94.083H257.308V95.3066H255.873V85.4424H257.349V89.3389H257.383C257.814 88.5049 258.634 87.999 259.653 87.999C261.464 87.999 262.647 89.4346 262.647 91.7109C262.647 93.9941 261.471 95.4297 259.646 95.4297ZM259.25 89.2432C258.128 89.2432 257.342 90.2275 257.342 91.7109C257.342 93.208 258.128 94.1787 259.25 94.1787C260.412 94.1787 261.129 93.2354 261.129 91.7109C261.129 90.2002 260.412 89.2432 259.25 89.2432ZM263.857 95.3066V85.4424H265.333V95.3066H263.857ZM269.859 89.1748C268.827 89.1748 268.102 89.9609 268.027 91.0479H271.623C271.588 89.9473 270.891 89.1748 269.859 89.1748ZM271.616 93.1943H273.017C272.812 94.5068 271.568 95.4434 269.92 95.4434C267.808 95.4434 266.53 94.0146 266.53 91.7451C266.53 89.4893 267.829 87.9854 269.859 87.9854C271.855 87.9854 273.099 89.3936 273.099 91.5742V92.0801H268.02V92.1689C268.02 93.4199 268.772 94.2471 269.955 94.2471C270.795 94.2471 271.417 93.8232 271.616 93.1943ZM281.535 85.2783C284.372 85.2783 286.156 87.2402 286.156 90.3779C286.156 93.5156 284.372 95.4707 281.535 95.4707C278.691 95.4707 276.914 93.5156 276.914 90.3779C276.914 87.2402 278.691 85.2783 281.535 85.2783ZM281.535 86.625C279.662 86.625 278.479 88.0742 278.479 90.3779C278.479 92.6748 279.662 94.124 281.535 94.124C283.408 94.124 284.583 92.6748 284.583 90.3779C284.583 88.0742 283.408 86.625 281.535 86.625ZM293.607 88.1152V95.3066H292.192V94.0898H292.158C291.761 94.9512 291.03 95.4365 289.929 95.4365C288.364 95.4365 287.407 94.418 287.407 92.7705V88.1152H288.883V92.4834C288.883 93.5771 289.403 94.165 290.421 94.165C291.488 94.165 292.13 93.4268 292.13 92.3057V88.1152H293.607ZM295.5 86.4131H296.984V88.1152H298.351V89.2842H296.984V93.249C296.984 93.8711 297.257 94.1514 297.859 94.1514C298.009 94.1514 298.249 94.1377 298.344 94.1172V95.2861C298.18 95.3271 297.852 95.3545 297.524 95.3545C296.068 95.3545 295.5 94.8008 295.5 93.4131V89.2842H294.455V88.1152H295.5V86.4131ZM305.563 90.5898H304.155C304.004 89.8242 303.43 89.2158 302.466 89.2158C301.325 89.2158 300.573 90.166 300.573 91.7109C300.573 93.29 301.332 94.2061 302.48 94.2061C303.389 94.2061 303.984 93.707 304.155 92.873H305.577C305.419 94.4043 304.196 95.4434 302.466 95.4434C300.409 95.4434 299.069 94.0352 299.069 91.7109C299.069 89.4277 300.409 87.9854 302.453 87.9854C304.305 87.9854 305.433 89.1748 305.563 90.5898ZM309.712 95.4434C307.655 95.4434 306.301 94.0283 306.301 91.7109C306.301 89.4004 307.662 87.9854 309.712 87.9854C311.763 87.9854 313.124 89.4004 313.124 91.7109C313.124 94.0283 311.77 95.4434 309.712 95.4434ZM309.712 94.2266C310.875 94.2266 311.62 93.3105 311.62 91.7109C311.62 90.1182 310.868 89.2021 309.712 89.2021C308.557 89.2021 307.805 90.1182 307.805 91.7109C307.805 93.3105 308.557 94.2266 309.712 94.2266ZM314.265 95.3066V88.1152H315.673V89.3252H315.708C316.029 88.5254 316.781 87.9922 317.751 87.9922C318.75 87.9922 319.474 88.5049 319.761 89.4004H319.795C320.165 88.5254 321.012 87.9922 322.038 87.9922C323.459 87.9922 324.389 88.9355 324.389 90.3643V95.3066H322.906V90.7197C322.906 89.79 322.407 89.2568 321.532 89.2568C320.657 89.2568 320.048 89.9062 320.048 90.8154V95.3066H318.599V90.6104C318.599 89.7832 318.073 89.2568 317.239 89.2568C316.364 89.2568 315.742 89.9404 315.742 90.8633V95.3066H314.265ZM328.826 89.1748C327.793 89.1748 327.069 89.9609 326.994 91.0479H330.589C330.555 89.9473 329.858 89.1748 328.826 89.1748ZM330.583 93.1943H331.984C331.779 94.5068 330.535 95.4434 328.887 95.4434C326.775 95.4434 325.497 94.0146 325.497 91.7451C325.497 89.4893 326.795 87.9854 328.826 87.9854C330.822 87.9854 332.066 89.3936 332.066 91.5742V92.0801H326.987V92.1689C326.987 93.4199 327.739 94.2471 328.921 94.2471C329.762 94.2471 330.384 93.8232 330.583 93.1943ZM333.084 90.1523C333.084 88.8672 334.219 87.9854 335.901 87.9854C337.5 87.9854 338.622 88.8809 338.669 90.1592H337.282C337.213 89.5098 336.687 89.1064 335.86 89.1064C335.06 89.1064 334.527 89.4961 334.527 90.0635C334.527 90.5078 334.882 90.8086 335.627 90.9932L336.837 91.2734C338.287 91.6221 338.833 92.1689 338.833 93.2285C338.833 94.541 337.61 95.4434 335.846 95.4434C334.144 95.4434 333.016 94.5615 332.9 93.2422H334.363C334.479 93.9326 335.012 94.3154 335.915 94.3154C336.803 94.3154 337.35 93.9463 337.35 93.3652C337.35 92.9072 337.077 92.6543 336.325 92.4629L335.04 92.1484C333.741 91.834 333.084 91.1572 333.084 90.1523Z" fill="#828282"/>
<defs>
<linearGradient id="paint0_linear_1701_4190" x1="186.914" y1="-26.5" x2="46.6889" y2="46.5129" gradientUnits="userSpaceOnUse">
<stop stop-color="white" stop-opacity="0"/>
<stop offset="1" stop-color="#276BEF"/>
</linearGradient>
<linearGradient id="paint1_linear_1701_4190" x1="153.086" y1="-26.5" x2="293.311" y2="46.5129" gradientUnits="userSpaceOnUse">
<stop stop-color="white" stop-opacity="0"/>
<stop offset="1" stop-color="#276BEF"/>
</linearGradient>
</defs>
</svg>
