<svg width="485" height="267" viewBox="0 0 485 267" fill="none" xmlns="http://www.w3.org/2000/svg">
<path d="M485 130H452C435.431 130 422 116.569 422 100V60C422 43.4315 408.569 30 392 30H349" stroke="url(#paint0_linear_1567_4176)" stroke-width="5"/>
<path d="M350 132H466.5" stroke="url(#paint1_linear_1567_4176)" stroke-width="5"/>
<path d="M485 137H452C435.431 137 422 150.431 422 167V207C422 223.569 408.569 237 392 237H349" stroke="url(#paint2_linear_1567_4176)" stroke-width="5"/>
<rect y="206" width="301" height="61" rx="5" fill="white"/>
<rect x="0.5" y="206.5" width="300" height="60" rx="4.5" stroke="black" stroke-opacity="0.15"/>
<path d="M26.417 243V230.317H30.8906C34.6523 230.317 36.8936 232.629 36.8936 236.619V236.637C36.8936 240.645 34.6699 243 30.8906 243H26.417ZM28.3857 241.295H30.7061C33.3955 241.295 34.8809 239.651 34.8809 236.654V236.637C34.8809 233.657 33.3779 232.014 30.7061 232.014H28.3857V241.295ZM39.5742 232.33C38.959 232.33 38.4668 231.838 38.4668 231.24C38.4668 230.634 38.959 230.142 39.5742 230.142C40.1982 230.142 40.6816 230.634 40.6816 231.24C40.6816 231.838 40.1982 232.33 39.5742 232.33ZM38.625 243V233.754H40.5234V243H38.625ZM45.1992 243.167C43.3535 243.167 42.1143 242.033 42.1143 240.372V240.354C42.1143 238.746 43.3623 237.762 45.5508 237.63L48.0645 237.48V236.786C48.0645 235.767 47.4053 235.151 46.2275 235.151C45.1289 235.151 44.4521 235.67 44.2939 236.408L44.2764 236.487H42.4834L42.4922 236.391C42.624 234.8 44.0039 233.578 46.2803 233.578C48.5391 233.578 49.9717 234.773 49.9717 236.628V243H48.0645V241.541H48.0293C47.4932 242.534 46.4209 243.167 45.1992 243.167ZM44.0303 240.328C44.0303 241.137 44.6982 241.646 45.7178 241.646C47.0537 241.646 48.0645 240.741 48.0645 239.537V238.816L45.8057 238.957C44.6631 239.027 44.0303 239.528 44.0303 240.311V240.328ZM55.8691 246.261C53.4961 246.261 51.9932 245.162 51.7119 243.747L51.7031 243.668H53.584L53.6191 243.738C53.874 244.327 54.6738 244.731 55.8604 244.731C57.3721 244.731 58.207 243.923 58.207 242.631V241.365H58.1631C57.6357 242.367 56.5811 243.009 55.2539 243.009C52.9336 243.009 51.4043 241.189 51.4043 238.307V238.298C51.4043 235.397 52.9512 233.578 55.2979 233.578C56.5986 233.578 57.6182 234.281 58.1631 235.327H58.207V233.754H60.1143V242.745C60.1143 244.854 58.4795 246.261 55.8691 246.261ZM55.79 241.462C57.2402 241.462 58.207 240.24 58.207 238.333V238.324C58.207 236.426 57.2314 235.204 55.79 235.204C54.2871 235.204 53.3467 236.417 53.3467 238.324V238.333C53.3467 240.267 54.2871 241.462 55.79 241.462ZM61.9951 243V233.754H63.8936V235.151H63.9375C64.4209 234.211 65.3701 233.578 66.7676 233.578C68.7979 233.578 69.9668 234.888 69.9668 237.015V243H68.0596V237.375C68.0596 235.986 67.4092 235.204 66.0908 235.204C64.7549 235.204 63.8936 236.171 63.8936 237.612V243H61.9951ZM75.7764 243.185C73.1221 243.185 71.3906 241.348 71.3906 238.377V238.359C71.3906 235.406 73.1396 233.578 75.7676 233.578C78.4043 233.578 80.1621 235.397 80.1621 238.359V238.377C80.1621 241.356 78.4219 243.185 75.7764 243.185ZM75.7852 241.594C77.2705 241.594 78.2197 240.416 78.2197 238.377V238.359C78.2197 236.338 77.2529 235.169 75.7676 235.169C74.3086 235.169 73.333 236.338 73.333 238.359V238.377C73.333 240.425 74.2998 241.594 75.7852 241.594ZM85.0928 243.185C82.7812 243.185 81.4277 242.042 81.2344 240.354L81.2256 240.275H83.1064L83.124 240.363C83.2998 241.216 83.9326 241.717 85.1016 241.717C86.2441 241.717 86.9297 241.242 86.9297 240.495V240.486C86.9297 239.889 86.5957 239.546 85.6025 239.309L84.0908 238.966C82.333 238.562 81.4629 237.718 81.4629 236.373V236.364C81.4629 234.712 82.9043 233.578 85.0312 233.578C87.2197 233.578 88.5381 234.8 88.6348 236.373L88.6436 236.479H86.8594L86.8506 236.417C86.7363 235.608 86.1035 235.046 85.0312 235.046C84.0117 235.046 83.3701 235.529 83.3701 236.268V236.276C83.3701 236.848 83.748 237.234 84.7412 237.472L86.2441 237.814C88.1338 238.254 88.8545 239.001 88.8545 240.328V240.337C88.8545 242.024 87.2725 243.185 85.0928 243.185ZM94.2773 243.185C91.5615 243.185 89.918 241.33 89.918 238.412V238.403C89.918 235.512 91.5879 233.578 94.1807 233.578C96.7734 233.578 98.3643 235.441 98.3643 238.219V238.86H91.8164C91.8516 240.609 92.8096 241.629 94.3213 241.629C95.4463 241.629 96.1934 241.049 96.4307 240.354L96.457 240.284H98.2588L98.2412 240.381C97.9424 241.849 96.5186 243.185 94.2773 243.185ZM94.1895 235.134C92.959 235.134 92.0098 235.969 91.8428 237.516H96.4834C96.3252 235.916 95.4287 235.134 94.1895 235.134ZM106.213 243.167C104.367 243.167 103.128 242.033 103.128 240.372V240.354C103.128 238.746 104.376 237.762 106.564 237.63L109.078 237.48V236.786C109.078 235.767 108.419 235.151 107.241 235.151C106.143 235.151 105.466 235.67 105.308 236.408L105.29 236.487H103.497L103.506 236.391C103.638 234.8 105.018 233.578 107.294 233.578C109.553 233.578 110.985 234.773 110.985 236.628V243H109.078V241.541H109.043C108.507 242.534 107.435 243.167 106.213 243.167ZM105.044 240.328C105.044 241.137 105.712 241.646 106.731 241.646C108.067 241.646 109.078 240.741 109.078 239.537V238.816L106.819 238.957C105.677 239.027 105.044 239.528 105.044 240.311V240.328ZM112.831 243V233.754H114.729V235.151H114.773C115.257 234.211 116.206 233.578 117.604 233.578C119.634 233.578 120.803 234.888 120.803 237.015V243H118.896V237.375C118.896 235.986 118.245 235.204 116.927 235.204C115.591 235.204 114.729 236.171 114.729 237.612V243H112.831ZM126.094 243.185C123.738 243.185 122.227 241.321 122.227 238.377V238.368C122.227 235.424 123.756 233.578 126.076 233.578C127.386 233.578 128.44 234.237 128.994 235.327H129.029V230.317H130.937V243H129.029V241.436H128.994C128.44 242.517 127.421 243.185 126.094 243.185ZM126.595 241.55C128.027 241.55 129.038 240.302 129.038 238.377V238.368C129.038 236.452 128.019 235.204 126.595 235.204C125.101 235.204 124.169 236.417 124.169 238.368V238.377C124.169 240.346 125.092 241.55 126.595 241.55ZM136.772 243V230.317H141.492C143.979 230.317 145.702 231.987 145.702 234.475V234.492C145.702 236.971 143.979 238.667 141.492 238.667H138.741V243H136.772ZM141 231.979H138.741V237.015H141C142.714 237.015 143.698 236.092 143.698 234.501V234.483C143.698 232.901 142.714 231.979 141 231.979ZM147.196 243V233.754H149.095V235.336H149.139C149.438 234.255 150.211 233.578 151.266 233.578C151.538 233.578 151.775 233.622 151.925 233.648V235.415C151.775 235.354 151.441 235.31 151.072 235.31C149.851 235.31 149.095 236.109 149.095 237.489V243H147.196ZM156.671 243.185C154.017 243.185 152.285 241.348 152.285 238.377V238.359C152.285 235.406 154.034 233.578 156.662 233.578C159.299 233.578 161.057 235.397 161.057 238.359V238.377C161.057 241.356 159.316 243.185 156.671 243.185ZM156.68 241.594C158.165 241.594 159.114 240.416 159.114 238.377V238.359C159.114 236.338 158.147 235.169 156.662 235.169C155.203 235.169 154.228 236.338 154.228 238.359V238.377C154.228 240.425 155.194 241.594 156.68 241.594ZM162.524 246.076V233.754H164.423V235.345H164.467C165.021 234.246 166.04 233.578 167.358 233.578C169.714 233.578 171.226 235.424 171.226 238.377V238.386C171.226 241.33 169.705 243.185 167.385 243.185C166.075 243.185 165.012 242.517 164.467 241.444H164.423V246.076H162.524ZM166.866 241.55C168.36 241.55 169.292 240.337 169.292 238.386V238.377C169.292 236.408 168.352 235.204 166.866 235.204C165.425 235.204 164.414 236.452 164.414 238.377V238.386C164.414 240.302 165.434 241.55 166.866 241.55ZM176.675 243.185C174.021 243.185 172.289 241.348 172.289 238.377V238.359C172.289 235.406 174.038 233.578 176.666 233.578C179.303 233.578 181.061 235.397 181.061 238.359V238.377C181.061 241.356 179.32 243.185 176.675 243.185ZM176.684 241.594C178.169 241.594 179.118 240.416 179.118 238.377V238.359C179.118 236.338 178.151 235.169 176.666 235.169C175.207 235.169 174.231 236.338 174.231 238.359V238.377C174.231 240.425 175.198 241.594 176.684 241.594ZM185.991 243.185C183.68 243.185 182.326 242.042 182.133 240.354L182.124 240.275H184.005L184.022 240.363C184.198 241.216 184.831 241.717 186 241.717C187.143 241.717 187.828 241.242 187.828 240.495V240.486C187.828 239.889 187.494 239.546 186.501 239.309L184.989 238.966C183.231 238.562 182.361 237.718 182.361 236.373V236.364C182.361 234.712 183.803 233.578 185.93 233.578C188.118 233.578 189.437 234.8 189.533 236.373L189.542 236.479H187.758L187.749 236.417C187.635 235.608 187.002 235.046 185.93 235.046C184.91 235.046 184.269 235.529 184.269 236.268V236.276C184.269 236.848 184.646 237.234 185.64 237.472L187.143 237.814C189.032 238.254 189.753 239.001 189.753 240.328V240.337C189.753 242.024 188.171 243.185 185.991 243.185ZM195.176 243.185C192.46 243.185 190.816 241.33 190.816 238.412V238.403C190.816 235.512 192.486 233.578 195.079 233.578C197.672 233.578 199.263 235.441 199.263 238.219V238.86H192.715C192.75 240.609 193.708 241.629 195.22 241.629C196.345 241.629 197.092 241.049 197.329 240.354L197.355 240.284H199.157L199.14 240.381C198.841 241.849 197.417 243.185 195.176 243.185ZM195.088 235.134C193.857 235.134 192.908 235.969 192.741 237.516H197.382C197.224 235.916 196.327 235.134 195.088 235.134ZM208.948 243.211C206.101 243.211 204.22 241.857 204.062 239.625L204.053 239.493H205.969L205.986 239.607C206.162 240.776 207.331 241.506 209.027 241.506C210.724 241.506 211.796 240.741 211.796 239.555V239.546C211.796 238.526 211.102 237.973 209.423 237.604L208.043 237.313C205.556 236.786 204.352 235.644 204.352 233.763V233.754C204.36 231.592 206.268 230.106 208.948 230.106C211.594 230.106 213.404 231.548 213.536 233.675L213.545 233.824H211.629L211.62 233.701C211.444 232.523 210.425 231.812 208.922 231.812C207.349 231.82 206.347 232.567 206.347 233.675V233.684C206.347 234.633 207.067 235.213 208.649 235.556L210.038 235.846C212.657 236.399 213.782 237.463 213.782 239.423V239.432C213.782 241.743 211.954 243.211 208.948 243.211ZM219.302 243.185C216.647 243.185 214.916 241.348 214.916 238.377V238.359C214.916 235.406 216.665 233.578 219.293 233.578C221.93 233.578 223.688 235.397 223.688 238.359V238.377C223.688 241.356 221.947 243.185 219.302 243.185ZM219.311 241.594C220.796 241.594 221.745 240.416 221.745 238.377V238.359C221.745 236.338 220.778 235.169 219.293 235.169C217.834 235.169 216.858 236.338 216.858 238.359V238.377C216.858 240.425 217.825 241.594 219.311 241.594ZM225.226 243V230.317H227.124V243H225.226ZM232.222 243.185C230.191 243.185 229.031 241.875 229.031 239.748V233.754H230.93V239.379C230.93 240.776 231.58 241.55 232.898 241.55C234.234 241.55 235.096 240.592 235.096 239.15V233.754H237.003V243H235.096V241.611H235.052C234.568 242.543 233.628 243.185 232.222 243.185ZM242.127 243.185C240.299 243.185 239.42 242.411 239.42 240.565V235.266H238.093V233.754H239.42V231.346H241.362V233.754H243.094V235.266H241.362V240.451C241.362 241.392 241.784 241.673 242.584 241.673C242.786 241.673 242.953 241.655 243.094 241.638V243.105C242.874 243.141 242.514 243.185 242.127 243.185ZM245.695 232.33C245.08 232.33 244.588 231.838 244.588 231.24C244.588 230.634 245.08 230.142 245.695 230.142C246.319 230.142 246.803 230.634 246.803 231.24C246.803 231.838 246.319 232.33 245.695 232.33ZM244.746 243V233.754H246.645V243H244.746ZM252.577 243.185C249.923 243.185 248.191 241.348 248.191 238.377V238.359C248.191 235.406 249.94 233.578 252.568 233.578C255.205 233.578 256.963 235.397 256.963 238.359V238.377C256.963 241.356 255.223 243.185 252.577 243.185ZM252.586 241.594C254.071 241.594 255.021 240.416 255.021 238.377V238.359C255.021 236.338 254.054 235.169 252.568 235.169C251.109 235.169 250.134 236.338 250.134 238.359V238.377C250.134 240.425 251.101 241.594 252.586 241.594ZM258.431 243V233.754H260.329V235.151H260.373C260.856 234.211 261.806 233.578 263.203 233.578C265.233 233.578 266.402 234.888 266.402 237.015V243H264.495V237.375C264.495 235.986 263.845 235.204 262.526 235.204C261.19 235.204 260.329 236.171 260.329 237.612V243H258.431ZM271.702 243.185C269.391 243.185 268.037 242.042 267.844 240.354L267.835 240.275H269.716L269.733 240.363C269.909 241.216 270.542 241.717 271.711 241.717C272.854 241.717 273.539 241.242 273.539 240.495V240.486C273.539 239.889 273.205 239.546 272.212 239.309L270.7 238.966C268.942 238.562 268.072 237.718 268.072 236.373V236.364C268.072 234.712 269.514 233.578 271.641 233.578C273.829 233.578 275.147 234.8 275.244 236.373L275.253 236.479H273.469L273.46 236.417C273.346 235.608 272.713 235.046 271.641 235.046C270.621 235.046 269.979 235.529 269.979 236.268V236.276C269.979 236.848 270.357 237.234 271.351 237.472L272.854 237.814C274.743 238.254 275.464 239.001 275.464 240.328V240.337C275.464 242.024 273.882 243.185 271.702 243.185Z" fill="#828282"/>
<rect x="115" y="98" width="204" height="61" rx="5" fill="white"/>
<rect x="115.5" y="98.5" width="203" height="60" rx="4.5" stroke="black" stroke-opacity="0.15"/>
<path d="M141.169 135V122.317H143.138V135H141.169ZM148.701 135.185C146.346 135.185 144.834 133.321 144.834 130.377V130.368C144.834 127.424 146.363 125.578 148.684 125.578C149.993 125.578 151.048 126.237 151.602 127.327H151.637V122.317H153.544V135H151.637V133.436H151.602C151.048 134.517 150.028 135.185 148.701 135.185ZM149.202 133.55C150.635 133.55 151.646 132.302 151.646 130.377V130.368C151.646 128.452 150.626 127.204 149.202 127.204C147.708 127.204 146.776 128.417 146.776 130.368V130.377C146.776 132.346 147.699 133.55 149.202 133.55ZM159.441 135.185C156.726 135.185 155.082 133.33 155.082 130.412V130.403C155.082 127.512 156.752 125.578 159.345 125.578C161.938 125.578 163.528 127.441 163.528 130.219V130.86H156.98C157.016 132.609 157.974 133.629 159.485 133.629C160.61 133.629 161.357 133.049 161.595 132.354L161.621 132.284H163.423L163.405 132.381C163.106 133.849 161.683 135.185 159.441 135.185ZM159.354 127.134C158.123 127.134 157.174 127.969 157.007 129.516H161.647C161.489 127.916 160.593 127.134 159.354 127.134ZM165.005 135V125.754H166.903V127.151H166.947C167.431 126.211 168.38 125.578 169.777 125.578C171.808 125.578 172.977 126.888 172.977 129.015V135H171.069V129.375C171.069 127.986 170.419 127.204 169.101 127.204C167.765 127.204 166.903 128.171 166.903 129.612V135H165.005ZM178.057 135.185C176.229 135.185 175.35 134.411 175.35 132.565V127.266H174.022V125.754H175.35V123.346H177.292V125.754H179.023V127.266H177.292V132.451C177.292 133.392 177.714 133.673 178.514 133.673C178.716 133.673 178.883 133.655 179.023 133.638V135.105C178.804 135.141 178.443 135.185 178.057 135.185ZM181.625 124.33C181.01 124.33 180.518 123.838 180.518 123.24C180.518 122.634 181.01 122.142 181.625 122.142C182.249 122.142 182.732 122.634 182.732 123.24C182.732 123.838 182.249 124.33 181.625 124.33ZM180.676 135V125.754H182.574V135H180.676ZM185.088 135V127.266H183.813V125.754H185.088V124.77C185.088 122.977 185.932 122.133 187.812 122.133C188.199 122.133 188.621 122.168 188.876 122.212V123.618C188.691 123.592 188.454 123.574 188.217 123.574C187.364 123.574 186.96 123.987 186.96 124.805V125.754H188.841V127.266H186.995V135H185.088ZM191.425 138.085C191.056 138.085 190.66 138.041 190.432 137.997V136.512C190.581 136.547 190.801 136.582 191.056 136.582C191.952 136.582 192.444 136.345 192.761 135.448L192.919 135.009L189.553 125.754H191.609L193.938 133.277H194L196.329 125.754H198.333L194.888 135.431C194.202 137.347 193.235 138.085 191.425 138.085ZM208.783 135.211C205.153 135.211 202.868 132.68 202.868 128.602V128.593C202.868 124.594 205.153 122.106 208.757 122.106C211.728 122.106 213.591 123.82 214.118 126.105L214.153 126.264H212.132L212.105 126.167C211.569 124.699 210.418 123.847 208.766 123.847C206.34 123.847 204.872 125.613 204.872 128.584V128.593C204.872 131.625 206.384 133.471 208.801 133.471C210.857 133.471 212.281 132.17 212.308 130.245V130.034H208.977V128.426H214.25V129.727C214.25 133.163 212.22 135.211 208.783 135.211ZM219.919 135.185C217.265 135.185 215.533 133.348 215.533 130.377V130.359C215.533 127.406 217.282 125.578 219.91 125.578C222.547 125.578 224.305 127.397 224.305 130.359V130.377C224.305 133.356 222.564 135.185 219.919 135.185ZM219.928 133.594C221.413 133.594 222.362 132.416 222.362 130.377V130.359C222.362 128.338 221.396 127.169 219.91 127.169C218.451 127.169 217.476 128.338 217.476 130.359V130.377C217.476 132.425 218.442 133.594 219.928 133.594ZM228.488 135.167C226.643 135.167 225.403 134.033 225.403 132.372V132.354C225.403 130.746 226.651 129.762 228.84 129.63L231.354 129.48V128.786C231.354 127.767 230.694 127.151 229.517 127.151C228.418 127.151 227.741 127.67 227.583 128.408L227.565 128.487H225.772L225.781 128.391C225.913 126.8 227.293 125.578 229.569 125.578C231.828 125.578 233.261 126.773 233.261 128.628V135H231.354V133.541H231.318C230.782 134.534 229.71 135.167 228.488 135.167ZM227.319 132.328C227.319 133.137 227.987 133.646 229.007 133.646C230.343 133.646 231.354 132.741 231.354 131.537V130.816L229.095 130.957C227.952 131.027 227.319 131.528 227.319 132.311V132.328ZM235.177 135V122.317H237.075V135H235.177ZM242.489 135.185C240.178 135.185 238.824 134.042 238.631 132.354L238.622 132.275H240.503L240.521 132.363C240.696 133.216 241.329 133.717 242.498 133.717C243.641 133.717 244.326 133.242 244.326 132.495V132.486C244.326 131.889 243.992 131.546 242.999 131.309L241.487 130.966C239.729 130.562 238.859 129.718 238.859 128.373V128.364C238.859 126.712 240.301 125.578 242.428 125.578C244.616 125.578 245.935 126.8 246.031 128.373L246.04 128.479H244.256L244.247 128.417C244.133 127.608 243.5 127.046 242.428 127.046C241.408 127.046 240.767 127.529 240.767 128.268V128.276C240.767 128.848 241.145 129.234 242.138 129.472L243.641 129.814C245.53 130.254 246.251 131.001 246.251 132.328V132.337C246.251 134.024 244.669 135.185 242.489 135.185ZM251.973 122.317L248.545 138.076H246.787L250.224 122.317H251.973ZM253.177 135V122.317H257.896C260.384 122.317 262.106 123.987 262.106 126.475V126.492C262.106 128.971 260.384 130.667 257.896 130.667H255.146V135H253.177ZM257.404 123.979H255.146V129.015H257.404C259.118 129.015 260.103 128.092 260.103 126.501V126.483C260.103 124.901 259.118 123.979 257.404 123.979ZM265.578 135.167C263.732 135.167 262.493 134.033 262.493 132.372V132.354C262.493 130.746 263.741 129.762 265.93 129.63L268.443 129.48V128.786C268.443 127.767 267.784 127.151 266.606 127.151C265.508 127.151 264.831 127.67 264.673 128.408L264.655 128.487H262.862L262.871 128.391C263.003 126.8 264.383 125.578 266.659 125.578C268.918 125.578 270.351 126.773 270.351 128.628V135H268.443V133.541H268.408C267.872 134.534 266.8 135.167 265.578 135.167ZM264.409 132.328C264.409 133.137 265.077 133.646 266.097 133.646C267.433 133.646 268.443 132.741 268.443 131.537V130.816L266.185 130.957C265.042 131.027 264.409 131.528 264.409 132.311V132.328ZM273.225 124.33C272.609 124.33 272.117 123.838 272.117 123.24C272.117 122.634 272.609 122.142 273.225 122.142C273.849 122.142 274.332 122.634 274.332 123.24C274.332 123.838 273.849 124.33 273.225 124.33ZM272.275 135V125.754H274.174V135H272.275ZM276.134 135V125.754H278.032V127.151H278.076C278.56 126.211 279.509 125.578 280.906 125.578C282.937 125.578 284.105 126.888 284.105 129.015V135H282.198V129.375C282.198 127.986 281.548 127.204 280.229 127.204C278.894 127.204 278.032 128.171 278.032 129.612V135H276.134ZM289.405 135.185C287.094 135.185 285.74 134.042 285.547 132.354L285.538 132.275H287.419L287.437 132.363C287.612 133.216 288.245 133.717 289.414 133.717C290.557 133.717 291.242 133.242 291.242 132.495V132.486C291.242 131.889 290.908 131.546 289.915 131.309L288.403 130.966C286.646 130.562 285.775 129.718 285.775 128.373V128.364C285.775 126.712 287.217 125.578 289.344 125.578C291.532 125.578 292.851 126.8 292.947 128.373L292.956 128.479H291.172L291.163 128.417C291.049 127.608 290.416 127.046 289.344 127.046C288.324 127.046 287.683 127.529 287.683 128.268V128.276C287.683 128.848 288.061 129.234 289.054 129.472L290.557 129.814C292.446 130.254 293.167 131.001 293.167 132.328V132.337C293.167 134.024 291.585 135.185 289.405 135.185Z" fill="#828282"/>
<rect x="205" width="128" height="61" rx="5" fill="white"/>
<rect x="205.5" y="0.5" width="127" height="60" rx="4.5" stroke="black" stroke-opacity="0.15"/>
<path d="M231.169 37V24.3174H233.138V37H231.169ZM235.247 37V27.7539H237.146V29.1514H237.189C237.673 28.2109 238.622 27.5781 240.02 27.5781C242.05 27.5781 243.219 28.8877 243.219 31.0146V37H241.312V31.375C241.312 29.9863 240.661 29.2041 239.343 29.2041C238.007 29.2041 237.146 30.1709 237.146 31.6123V37H235.247ZM248.299 37.1846C246.471 37.1846 245.592 36.4111 245.592 34.5654V29.2656H244.265V27.7539H245.592V25.3457H247.534V27.7539H249.266V29.2656H247.534V34.4512C247.534 35.3916 247.956 35.6729 248.756 35.6729C248.958 35.6729 249.125 35.6553 249.266 35.6377V37.1055C249.046 37.1406 248.686 37.1846 248.299 37.1846ZM250.839 37V27.7539H252.737V29.3359H252.781C253.08 28.2549 253.854 27.5781 254.908 27.5781C255.181 27.5781 255.418 27.6221 255.567 27.6484V29.415C255.418 29.3535 255.084 29.3096 254.715 29.3096C253.493 29.3096 252.737 30.1094 252.737 31.4893V37H250.839ZM260.313 37.1846C257.659 37.1846 255.928 35.3477 255.928 32.377V32.3594C255.928 29.4062 257.677 27.5781 260.305 27.5781C262.941 27.5781 264.699 29.3975 264.699 32.3594V32.377C264.699 35.3564 262.959 37.1846 260.313 37.1846ZM260.322 35.5938C261.808 35.5938 262.757 34.416 262.757 32.377V32.3594C262.757 30.3379 261.79 29.1689 260.305 29.1689C258.846 29.1689 257.87 30.3379 257.87 32.3594V32.377C257.87 34.4248 258.837 35.5938 260.322 35.5938ZM275.475 37.2109C271.88 37.2109 269.595 34.6797 269.595 30.6543V30.6455C269.595 26.6201 271.88 24.1064 275.475 24.1064C278.27 24.1064 280.37 25.8291 280.766 28.334L280.783 28.4131H278.832L278.779 28.2373C278.357 26.752 277.18 25.8467 275.475 25.8467C273.119 25.8467 271.607 27.71 271.607 30.6455V30.6543C271.607 33.5898 273.128 35.4707 275.475 35.4707C277.162 35.4707 278.331 34.5918 278.806 32.9834L278.832 32.9043H280.783L280.774 32.9922C280.379 35.5146 278.278 37.2109 275.475 37.2109ZM285.037 37.167C283.191 37.167 281.952 36.0332 281.952 34.3721V34.3545C281.952 32.7461 283.2 31.7617 285.389 31.6299L287.902 31.4805V30.7861C287.902 29.7666 287.243 29.1514 286.065 29.1514C284.967 29.1514 284.29 29.6699 284.132 30.4082L284.114 30.4873H282.321L282.33 30.3906C282.462 28.7998 283.842 27.5781 286.118 27.5781C288.377 27.5781 289.81 28.7734 289.81 30.6279V37H287.902V35.541H287.867C287.331 36.5342 286.259 37.167 285.037 37.167ZM283.868 34.3281C283.868 35.1367 284.536 35.6465 285.556 35.6465C286.892 35.6465 287.902 34.7412 287.902 33.5371V32.8164L285.644 32.957C284.501 33.0273 283.868 33.5283 283.868 34.3105V34.3281ZM291.726 37V24.3174H293.624V37H291.726ZM295.646 37V24.3174H297.544V37H295.646ZM302.958 37.1846C300.646 37.1846 299.293 36.042 299.1 34.3545L299.091 34.2754H300.972L300.989 34.3633C301.165 35.2158 301.798 35.7168 302.967 35.7168C304.109 35.7168 304.795 35.2422 304.795 34.4951V34.4863C304.795 33.8887 304.461 33.5459 303.468 33.3086L301.956 32.9658C300.198 32.5615 299.328 31.7178 299.328 30.373V30.3643C299.328 28.7119 300.77 27.5781 302.896 27.5781C305.085 27.5781 306.403 28.7998 306.5 30.373L306.509 30.4785H304.725L304.716 30.417C304.602 29.6084 303.969 29.0459 302.896 29.0459C301.877 29.0459 301.235 29.5293 301.235 30.2676V30.2764C301.235 30.8477 301.613 31.2344 302.606 31.4717L304.109 31.8145C305.999 32.2539 306.72 33.001 306.72 34.3281V34.3369C306.72 36.0244 305.138 37.1846 302.958 37.1846Z" fill="#828282"/>
<defs>
<linearGradient id="paint0_linear_1567_4176" x1="485" y1="80" x2="349" y2="80" gradientUnits="userSpaceOnUse">
<stop stop-color="white" stop-opacity="0"/>
<stop offset="1" stop-color="#276BEF"/>
</linearGradient>
<linearGradient id="paint1_linear_1567_4176" x1="466.5" y1="132.5" x2="350" y2="132.5" gradientUnits="userSpaceOnUse">
<stop stop-color="white" stop-opacity="0"/>
<stop offset="1" stop-color="#276BEF"/>
</linearGradient>
<linearGradient id="paint2_linear_1567_4176" x1="485" y1="187" x2="349" y2="187" gradientUnits="userSpaceOnUse">
<stop stop-color="white" stop-opacity="0"/>
<stop offset="1" stop-color="#276BEF"/>
</linearGradient>
</defs>
</svg>
