<svg width="389" height="126" viewBox="0 0 389 126" fill="none" xmlns="http://www.w3.org/2000/svg">
<path opacity="0.5" d="M337.5 65.5V65.5C337.5 78.7548 326.755 89.5 313.5 89.5H223C206.431 89.5 193 102.931 193 119.5V125" stroke="url(#paint0_linear_1701_4183)" stroke-width="5"/>
<path opacity="0.5" d="M41 47.5L43.8618 64.8755C46.2487 79.3671 58.7762 90 73.463 90H162.5C179.069 90 192.5 103.431 192.5 120V125.5" stroke="url(#paint1_linear_1701_4183)" stroke-width="5"/>
<rect y="17" width="79.267" height="31.6136" rx="1.8267" fill="white"/>
<rect x="0.18267" y="17.1827" width="78.9016" height="31.2482" rx="1.64403" stroke="black" stroke-opacity="0.15" stroke-width="0.36534"/>
<path d="M11.5742 37.3066H10.043V27.4424H11.5742V37.3066ZM13.2148 37.3066V30.1152H14.623V31.3184H14.6572C15.0469 30.498 15.8125 29.9922 16.9199 29.9922C18.5059 29.9922 19.415 31.0039 19.415 32.6514V37.3066H17.9316V32.9385C17.9316 31.8584 17.4258 31.2637 16.4004 31.2637C15.3613 31.2637 14.6914 32.002 14.6914 33.1162V37.3066H13.2148ZM21.2744 28.4131H22.7578V30.1152H24.125V31.2842H22.7578V35.249C22.7578 35.8711 23.0312 36.1514 23.6328 36.1514C23.7832 36.1514 24.0225 36.1377 24.1182 36.1172V37.2861C23.9541 37.3271 23.626 37.3545 23.2979 37.3545C21.8418 37.3545 21.2744 36.8008 21.2744 35.4131V31.2842H20.2285V30.1152H21.2744V28.4131ZM25.3418 37.3066V30.1152H26.75V31.3389H26.7842C27.0234 30.498 27.666 29.999 28.5137 29.999C28.7256 29.999 28.9102 30.0332 29.0195 30.0537V31.4277C28.9033 31.3799 28.6436 31.3457 28.3564 31.3457C27.4062 31.3457 26.8184 31.9814 26.8184 33V37.3066H25.3418ZM32.7109 37.4434C30.6533 37.4434 29.2998 36.0283 29.2998 33.7109C29.2998 31.4004 30.6602 29.9854 32.7109 29.9854C34.7617 29.9854 36.1221 31.4004 36.1221 33.7109C36.1221 36.0283 34.7686 37.4434 32.7109 37.4434ZM32.7109 36.2266C33.873 36.2266 34.6182 35.3105 34.6182 33.7109C34.6182 32.1182 33.8662 31.2021 32.7109 31.2021C31.5557 31.2021 30.8037 32.1182 30.8037 33.7109C30.8037 35.3105 31.5557 36.2266 32.7109 36.2266ZM44.4482 37.4707C41.6797 37.4707 39.9297 35.5156 39.9297 32.3711C39.9297 29.2471 41.6934 27.2783 44.4482 27.2783C46.6836 27.2783 48.3721 28.6523 48.6318 30.71H47.1143C46.8408 29.4453 45.7881 28.6182 44.4482 28.6182C42.6572 28.6182 41.4951 30.0879 41.4951 32.3711C41.4951 34.6748 42.6436 36.1309 44.4551 36.1309C45.8291 36.1309 46.8066 35.4268 47.1143 34.2373H48.6387C48.2627 36.2744 46.7178 37.4707 44.4482 37.4707ZM52.3574 36.2607C53.3896 36.2607 54.1963 35.5498 54.1963 34.6133V34.0459L52.4258 34.1553C51.5439 34.2168 51.0449 34.6064 51.0449 35.2217C51.0449 35.8506 51.5645 36.2607 52.3574 36.2607ZM51.9473 37.4297C50.5391 37.4297 49.5547 36.5547 49.5547 35.2627C49.5547 34.0049 50.5186 33.2324 52.2275 33.1367L54.1963 33.0205V32.4668C54.1963 31.667 53.6562 31.1885 52.7539 31.1885C51.8994 31.1885 51.3662 31.5986 51.2363 32.2412H49.8418C49.9238 30.9424 51.0312 29.9854 52.8086 29.9854C54.5518 29.9854 55.666 30.9082 55.666 32.3506V37.3066H54.251V36.124H54.2168C53.7998 36.9238 52.8906 37.4297 51.9473 37.4297ZM57.1562 37.3066V27.4424H58.6328V37.3066H57.1562ZM60.2051 37.3066V27.4424H61.6816V37.3066H60.2051ZM63.0693 32.1523C63.0693 30.8672 64.2041 29.9854 65.8857 29.9854C67.4854 29.9854 68.6064 30.8809 68.6543 32.1592H67.2666C67.1982 31.5098 66.6719 31.1064 65.8447 31.1064C65.0449 31.1064 64.5117 31.4961 64.5117 32.0635C64.5117 32.5078 64.8672 32.8086 65.6123 32.9932L66.8223 33.2734C68.2715 33.6221 68.8184 34.1689 68.8184 35.2285C68.8184 36.541 67.5947 37.4434 65.8311 37.4434C64.1289 37.4434 63.001 36.5615 62.8848 35.2422H64.3477C64.4639 35.9326 64.9971 36.3154 65.8994 36.3154C66.7881 36.3154 67.335 35.9463 67.335 35.3652C67.335 34.9072 67.0615 34.6543 66.3096 34.4629L65.0244 34.1484C63.7256 33.834 63.0693 33.1572 63.0693 32.1523Z" fill="#828282"/>
<rect x="287" width="102" height="65.6136" rx="1.8267" fill="white"/>
<rect x="287.183" y="0.18267" width="101.635" height="65.2482" rx="1.64403" stroke="black" stroke-opacity="0.15" stroke-width="0.36534"/>
<path d="M297.429 10.4424H300.908C303.841 10.4424 305.577 12.2471 305.577 15.3574C305.577 18.4746 303.848 20.3066 300.908 20.3066H297.429V10.4424ZM298.96 11.7617V18.9805H300.765C302.856 18.9805 304.012 17.7021 304.012 15.3711C304.012 13.0469 302.85 11.7617 300.765 11.7617H298.96ZM306.91 20.3066V13.1152H308.387V20.3066H306.91ZM307.648 12.0625C307.177 12.0625 306.794 11.6865 306.794 11.2217C306.794 10.75 307.177 10.374 307.648 10.374C308.127 10.374 308.51 10.75 308.51 11.2217C308.51 11.6865 308.127 12.0625 307.648 12.0625ZM312.413 19.2607C313.445 19.2607 314.252 18.5498 314.252 17.6133V17.0459L312.481 17.1553C311.6 17.2168 311.101 17.6064 311.101 18.2217C311.101 18.8506 311.62 19.2607 312.413 19.2607ZM312.003 20.4297C310.595 20.4297 309.61 19.5547 309.61 18.2627C309.61 17.0049 310.574 16.2324 312.283 16.1367L314.252 16.0205V15.4668C314.252 14.667 313.712 14.1885 312.81 14.1885C311.955 14.1885 311.422 14.5986 311.292 15.2412H309.897C309.979 13.9424 311.087 12.9854 312.864 12.9854C314.607 12.9854 315.722 13.9082 315.722 15.3506V20.3066H314.307V19.124H314.272C313.855 19.9238 312.946 20.4297 312.003 20.4297ZM320.22 19.1104C321.375 19.1104 322.134 18.1738 322.134 16.6904C322.134 15.2139 321.375 14.2432 320.22 14.2432C319.085 14.2432 318.347 15.1934 318.347 16.6904C318.347 18.1943 319.085 19.1104 320.22 19.1104ZM320.233 23.0137C318.538 23.0137 317.28 22.1113 317.096 20.8672H318.579C318.791 21.4688 319.447 21.8652 320.288 21.8652C321.443 21.8652 322.127 21.209 322.127 20.2246V19.042H322.1C321.696 19.8213 320.849 20.334 319.823 20.334C318.019 20.334 316.836 18.9258 316.836 16.6836C316.836 14.4209 318.012 12.999 319.857 12.999C320.876 12.999 321.71 13.5117 322.147 14.3457H322.175V13.1152H323.61V20.1768C323.61 21.8926 322.284 23.0137 320.233 23.0137ZM325.073 20.3066V13.1152H326.481V14.3184H326.516C326.905 13.498 327.671 12.9922 328.778 12.9922C330.364 12.9922 331.273 14.0039 331.273 15.6514V20.3066H329.79V15.9385C329.79 14.8584 329.284 14.2637 328.259 14.2637C327.22 14.2637 326.55 15.002 326.55 16.1162V20.3066H325.073ZM335.792 20.4434C333.734 20.4434 332.381 19.0283 332.381 16.7109C332.381 14.4004 333.741 12.9854 335.792 12.9854C337.843 12.9854 339.203 14.4004 339.203 16.7109C339.203 19.0283 337.85 20.4434 335.792 20.4434ZM335.792 19.2266C336.954 19.2266 337.699 18.3105 337.699 16.7109C337.699 15.1182 336.947 14.2021 335.792 14.2021C334.637 14.2021 333.885 15.1182 333.885 16.7109C333.885 18.3105 334.637 19.2266 335.792 19.2266ZM340.215 15.1523C340.215 13.8672 341.35 12.9854 343.031 12.9854C344.631 12.9854 345.752 13.8809 345.8 15.1592H344.412C344.344 14.5098 343.817 14.1064 342.99 14.1064C342.19 14.1064 341.657 14.4961 341.657 15.0635C341.657 15.5078 342.013 15.8086 342.758 15.9932L343.968 16.2734C345.417 16.6221 345.964 17.1689 345.964 18.2285C345.964 19.541 344.74 20.4434 342.977 20.4434C341.274 20.4434 340.146 19.5615 340.03 18.2422H341.493C341.609 18.9326 342.143 19.3154 343.045 19.3154C343.934 19.3154 344.48 18.9463 344.48 18.3652C344.48 17.9072 344.207 17.6543 343.455 17.4629L342.17 17.1484C340.871 16.834 340.215 16.1572 340.215 15.1523ZM350.12 14.1748C349.088 14.1748 348.363 14.9609 348.288 16.0479H351.884C351.85 14.9473 351.152 14.1748 350.12 14.1748ZM351.877 18.1943H353.278C353.073 19.5068 351.829 20.4434 350.182 20.4434C348.069 20.4434 346.791 19.0146 346.791 16.7451C346.791 14.4893 348.09 12.9854 350.12 12.9854C352.116 12.9854 353.36 14.3936 353.36 16.5742V17.0801H348.281V17.1689C348.281 18.4199 349.033 19.2471 350.216 19.2471C351.057 19.2471 351.679 18.8232 351.877 18.1943ZM359.868 19.2607C360.9 19.2607 361.707 18.5498 361.707 17.6133V17.0459L359.937 17.1553C359.055 17.2168 358.556 17.6064 358.556 18.2217C358.556 18.8506 359.075 19.2607 359.868 19.2607ZM359.458 20.4297C358.05 20.4297 357.065 19.5547 357.065 18.2627C357.065 17.0049 358.029 16.2324 359.738 16.1367L361.707 16.0205V15.4668C361.707 14.667 361.167 14.1885 360.265 14.1885C359.41 14.1885 358.877 14.5986 358.747 15.2412H357.353C357.435 13.9424 358.542 12.9854 360.319 12.9854C362.062 12.9854 363.177 13.9082 363.177 15.3506V20.3066H361.762V19.124H361.728C361.311 19.9238 360.401 20.4297 359.458 20.4297ZM364.612 20.3066V13.1152H366.021V14.3184H366.055C366.444 13.498 367.21 12.9922 368.317 12.9922C369.903 12.9922 370.812 14.0039 370.812 15.6514V20.3066H369.329V15.9385C369.329 14.8584 368.823 14.2637 367.798 14.2637C366.759 14.2637 366.089 15.002 366.089 16.1162V20.3066H364.612ZM374.941 20.4297C373.123 20.4297 371.92 18.9805 371.92 16.7109C371.92 14.4414 373.123 12.999 374.928 12.999C375.96 12.999 376.78 13.5186 377.184 14.3115H377.211V10.4424H378.694V20.3066H377.259V19.083H377.231C376.808 19.9033 375.987 20.4297 374.941 20.4297ZM375.331 14.2432C374.162 14.2432 373.431 15.2002 373.431 16.7109C373.431 18.2285 374.162 19.1787 375.331 19.1787C376.466 19.1787 377.225 18.2148 377.225 16.7109C377.225 15.2207 376.466 14.2432 375.331 14.2432ZM313.944 27.4424H317.643C319.557 27.4424 320.89 28.7617 320.89 30.6826C320.89 32.6104 319.529 33.9365 317.595 33.9365H315.476V37.3066H313.944V27.4424ZM315.476 28.7344V32.6514H317.232C318.565 32.6514 319.324 31.9336 319.324 30.6895C319.324 29.4453 318.565 28.7344 317.239 28.7344H315.476ZM322.052 37.3066V30.1152H323.46V31.3389H323.494C323.733 30.498 324.376 29.999 325.224 29.999C325.436 29.999 325.62 30.0332 325.729 30.0537V31.4277C325.613 31.3799 325.354 31.3457 325.066 31.3457C324.116 31.3457 323.528 31.9814 323.528 33V37.3066H322.052ZM329.421 37.4434C327.363 37.4434 326.01 36.0283 326.01 33.7109C326.01 31.4004 327.37 29.9854 329.421 29.9854C331.472 29.9854 332.832 31.4004 332.832 33.7109C332.832 36.0283 331.479 37.4434 329.421 37.4434ZM329.421 36.2266C330.583 36.2266 331.328 35.3105 331.328 33.7109C331.328 32.1182 330.576 31.2021 329.421 31.2021C328.266 31.2021 327.514 32.1182 327.514 33.7109C327.514 35.3105 328.266 36.2266 329.421 36.2266ZM337.72 29.999C339.545 29.999 340.748 31.4346 340.748 33.7109C340.748 35.9873 339.552 37.4297 337.747 37.4297C336.715 37.4297 335.895 36.9238 335.484 36.124H335.45V39.6855H333.974V30.1152H335.402V31.3525H335.43C335.854 30.5254 336.681 29.999 337.72 29.999ZM337.33 36.1787C338.499 36.1787 339.23 35.2217 339.23 33.7109C339.23 32.207 338.499 31.2432 337.33 31.2432C336.202 31.2432 335.443 32.2275 335.443 33.7109C335.443 35.208 336.195 36.1787 337.33 36.1787ZM344.979 37.4434C342.922 37.4434 341.568 36.0283 341.568 33.7109C341.568 31.4004 342.929 29.9854 344.979 29.9854C347.03 29.9854 348.391 31.4004 348.391 33.7109C348.391 36.0283 347.037 37.4434 344.979 37.4434ZM344.979 36.2266C346.142 36.2266 346.887 35.3105 346.887 33.7109C346.887 32.1182 346.135 31.2021 344.979 31.2021C343.824 31.2021 343.072 32.1182 343.072 33.7109C343.072 35.3105 343.824 36.2266 344.979 36.2266ZM349.402 32.1523C349.402 30.8672 350.537 29.9854 352.219 29.9854C353.818 29.9854 354.939 30.8809 354.987 32.1592H353.6C353.531 31.5098 353.005 31.1064 352.178 31.1064C351.378 31.1064 350.845 31.4961 350.845 32.0635C350.845 32.5078 351.2 32.8086 351.945 32.9932L353.155 33.2734C354.604 33.6221 355.151 34.1689 355.151 35.2285C355.151 36.541 353.928 37.4434 352.164 37.4434C350.462 37.4434 349.334 36.5615 349.218 35.2422H350.681C350.797 35.9326 351.33 36.3154 352.232 36.3154C353.121 36.3154 353.668 35.9463 353.668 35.3652C353.668 34.9072 353.395 34.6543 352.643 34.4629L351.357 34.1484C350.059 33.834 349.402 33.1572 349.402 32.1523ZM359.308 31.1748C358.275 31.1748 357.551 31.9609 357.476 33.0479H361.071C361.037 31.9473 360.34 31.1748 359.308 31.1748ZM361.064 35.1943H362.466C362.261 36.5068 361.017 37.4434 359.369 37.4434C357.257 37.4434 355.979 36.0146 355.979 33.7451C355.979 31.4893 357.277 29.9854 359.308 29.9854C361.304 29.9854 362.548 31.3936 362.548 33.5742V34.0801H357.469V34.1689C357.469 35.4199 358.221 36.2471 359.403 36.2471C360.244 36.2471 360.866 35.8232 361.064 35.1943ZM310.273 51.5586H311.784C311.894 52.5361 312.844 53.1787 314.143 53.1787C315.387 53.1787 316.282 52.5361 316.282 51.6543C316.282 50.8887 315.742 50.4307 314.464 50.1162L313.186 49.8086C311.374 49.3711 310.533 48.5234 310.533 47.1494C310.533 45.4473 312.017 44.2783 314.122 44.2783C316.207 44.2783 317.636 45.4473 317.684 47.1494H316.193C316.104 46.165 315.291 45.5703 314.102 45.5703C312.912 45.5703 312.099 46.1719 312.099 47.0469C312.099 47.7441 312.618 48.1543 313.89 48.4688L314.977 48.7354C317 49.2139 317.841 50.0273 317.841 51.4697C317.841 53.3154 316.371 54.4707 314.033 54.4707C311.846 54.4707 310.369 53.3428 310.273 51.5586ZM322.127 54.4434C320.069 54.4434 318.716 53.0283 318.716 50.7109C318.716 48.4004 320.076 46.9854 322.127 46.9854C324.178 46.9854 325.538 48.4004 325.538 50.7109C325.538 53.0283 324.185 54.4434 322.127 54.4434ZM322.127 53.2266C323.289 53.2266 324.034 52.3105 324.034 50.7109C324.034 49.1182 323.282 48.2021 322.127 48.2021C320.972 48.2021 320.22 49.1182 320.22 50.7109C320.22 52.3105 320.972 53.2266 322.127 53.2266ZM326.734 54.3066V44.4424H328.211V54.3066H326.734ZM335.895 47.1152V54.3066H334.479V53.0898H334.445C334.049 53.9512 333.317 54.4365 332.217 54.4365C330.651 54.4365 329.694 53.418 329.694 51.7705V47.1152H331.171V51.4834C331.171 52.5771 331.69 53.165 332.709 53.165C333.775 53.165 334.418 52.4268 334.418 51.3057V47.1152H335.895ZM337.788 45.4131H339.271V47.1152H340.639V48.2842H339.271V52.249C339.271 52.8711 339.545 53.1514 340.146 53.1514C340.297 53.1514 340.536 53.1377 340.632 53.1172V54.2861C340.468 54.3271 340.14 54.3545 339.812 54.3545C338.355 54.3545 337.788 53.8008 337.788 52.4131V48.2842H336.742V47.1152H337.788V45.4131ZM341.903 54.3066V47.1152H343.38V54.3066H341.903ZM342.642 46.0625C342.17 46.0625 341.787 45.6865 341.787 45.2217C341.787 44.75 342.17 44.374 342.642 44.374C343.12 44.374 343.503 44.75 343.503 45.2217C343.503 45.6865 343.12 46.0625 342.642 46.0625ZM347.98 54.4434C345.923 54.4434 344.569 53.0283 344.569 50.7109C344.569 48.4004 345.93 46.9854 347.98 46.9854C350.031 46.9854 351.392 48.4004 351.392 50.7109C351.392 53.0283 350.038 54.4434 347.98 54.4434ZM347.98 53.2266C349.143 53.2266 349.888 52.3105 349.888 50.7109C349.888 49.1182 349.136 48.2021 347.98 48.2021C346.825 48.2021 346.073 49.1182 346.073 50.7109C346.073 52.3105 346.825 53.2266 347.98 53.2266ZM352.533 54.3066V47.1152H353.941V48.3184H353.976C354.365 47.498 355.131 46.9922 356.238 46.9922C357.824 46.9922 358.733 48.0039 358.733 49.6514V54.3066H357.25V49.9385C357.25 48.8584 356.744 48.2637 355.719 48.2637C354.68 48.2637 354.01 49.002 354.01 50.1162V54.3066H352.533ZM360.032 49.1523C360.032 47.8672 361.167 46.9854 362.849 46.9854C364.448 46.9854 365.569 47.8809 365.617 49.1592H364.229C364.161 48.5098 363.635 48.1064 362.808 48.1064C362.008 48.1064 361.475 48.4961 361.475 49.0635C361.475 49.5078 361.83 49.8086 362.575 49.9932L363.785 50.2734C365.234 50.6221 365.781 51.1689 365.781 52.2285C365.781 53.541 364.558 54.4434 362.794 54.4434C361.092 54.4434 359.964 53.5615 359.848 52.2422H361.311C361.427 52.9326 361.96 53.3154 362.862 53.3154C363.751 53.3154 364.298 52.9463 364.298 52.3652C364.298 51.9072 364.024 51.6543 363.272 51.4629L361.987 51.1484C360.688 50.834 360.032 50.1572 360.032 49.1523Z" fill="#828282"/>
<rect x="139" y="9" width="109.267" height="48.6136" rx="1.8267" fill="white"/>
<rect x="139.183" y="9.18267" width="108.902" height="48.2482" rx="1.64403" stroke="black" stroke-opacity="0.15" stroke-width="0.36534"/>
<path d="M150.574 29.3066H149.042V19.4424H150.574V29.3066ZM154.915 29.4297C153.096 29.4297 151.893 27.9805 151.893 25.7109C151.893 23.4414 153.096 21.999 154.901 21.999C155.933 21.999 156.753 22.5186 157.157 23.3115H157.184V19.4424H158.667V29.3066H157.232V28.083H157.205C156.781 28.9033 155.96 29.4297 154.915 29.4297ZM155.304 23.2432C154.135 23.2432 153.404 24.2002 153.404 25.7109C153.404 27.2285 154.135 28.1787 155.304 28.1787C156.439 28.1787 157.198 27.2148 157.198 25.7109C157.198 24.2207 156.439 23.2432 155.304 23.2432ZM163.193 23.1748C162.161 23.1748 161.436 23.9609 161.361 25.0479H164.957C164.922 23.9473 164.225 23.1748 163.193 23.1748ZM164.95 27.1943H166.351C166.146 28.5068 164.902 29.4434 163.254 29.4434C161.142 29.4434 159.864 28.0146 159.864 25.7451C159.864 23.4893 161.163 21.9854 163.193 21.9854C165.189 21.9854 166.433 23.3936 166.433 25.5742V26.0801H161.354V26.1689C161.354 27.4199 162.106 28.2471 163.289 28.2471C164.129 28.2471 164.751 27.8232 164.95 27.1943ZM167.582 29.3066V22.1152H168.99V23.3184H169.024C169.414 22.498 170.179 21.9922 171.287 21.9922C172.873 21.9922 173.782 23.0039 173.782 24.6514V29.3066H172.298V24.9385C172.298 23.8584 171.792 23.2637 170.767 23.2637C169.728 23.2637 169.058 24.002 169.058 25.1162V29.3066H167.582ZM175.641 20.4131H177.125V22.1152H178.492V23.2842H177.125V27.249C177.125 27.8711 177.398 28.1514 178 28.1514C178.15 28.1514 178.389 28.1377 178.485 28.1172V29.2861C178.321 29.3271 177.993 29.3545 177.665 29.3545C176.208 29.3545 175.641 28.8008 175.641 27.4131V23.2842H174.595V22.1152H175.641V20.4131ZM179.756 29.3066V22.1152H181.233V29.3066H179.756ZM180.495 21.0625C180.023 21.0625 179.64 20.6865 179.64 20.2217C179.64 19.75 180.023 19.374 180.495 19.374C180.973 19.374 181.356 19.75 181.356 20.2217C181.356 20.6865 180.973 21.0625 180.495 21.0625ZM183.174 29.3066V23.2842H182.183V22.1289H183.174V21.4248C183.174 20.0303 183.831 19.374 185.293 19.374C185.594 19.374 185.929 19.4082 186.121 19.4424V20.5361C185.977 20.5088 185.779 20.4951 185.581 20.4951C184.938 20.4951 184.637 20.8164 184.637 21.4521V22.1289H186.093V23.2842H184.658V29.3066H183.174ZM187.966 31.9863C187.85 31.9863 187.474 31.9727 187.365 31.9521V30.7559C187.474 30.7832 187.72 30.7832 187.843 30.7832C188.534 30.7832 188.896 30.4961 189.122 29.7578C189.122 29.7441 189.251 29.3203 189.251 29.3135L186.654 22.1152H188.253L190.079 27.9668H190.099L191.924 22.1152H193.483L190.783 29.6826C190.167 31.4258 189.463 31.9863 187.966 31.9863ZM205.87 25.2051C205.87 27.8779 204.291 29.4707 201.618 29.4707C198.794 29.4707 197.017 27.4951 197.017 24.3301C197.017 21.2197 198.788 19.2783 201.597 19.2783C203.792 19.2783 205.453 20.5771 205.794 22.5459H204.222C203.853 21.3223 202.889 20.6182 201.604 20.6182C199.717 20.6182 198.583 21.999 198.583 24.3164C198.583 26.6748 199.751 28.1309 201.631 28.1309C203.231 28.1309 204.338 27.1055 204.359 25.6084V25.4375H201.809V24.2002H205.87V25.2051ZM210.279 29.4434C208.221 29.4434 206.868 28.0283 206.868 25.7109C206.868 23.4004 208.228 21.9854 210.279 21.9854C212.33 21.9854 213.69 23.4004 213.69 25.7109C213.69 28.0283 212.336 29.4434 210.279 29.4434ZM210.279 28.2266C211.441 28.2266 212.186 27.3105 212.186 25.7109C212.186 24.1182 211.434 23.2021 210.279 23.2021C209.124 23.2021 208.372 24.1182 208.372 25.7109C208.372 27.3105 209.124 28.2266 210.279 28.2266ZM217.347 28.2607C218.379 28.2607 219.186 27.5498 219.186 26.6133V26.0459L217.416 26.1553C216.534 26.2168 216.035 26.6064 216.035 27.2217C216.035 27.8506 216.554 28.2607 217.347 28.2607ZM216.937 29.4297C215.529 29.4297 214.544 28.5547 214.544 27.2627C214.544 26.0049 215.508 25.2324 217.217 25.1367L219.186 25.0205V24.4668C219.186 23.667 218.646 23.1885 217.744 23.1885C216.889 23.1885 216.356 23.5986 216.226 24.2412H214.832C214.914 22.9424 216.021 21.9854 217.798 21.9854C219.542 21.9854 220.656 22.9082 220.656 24.3506V29.3066H219.241V28.124H219.207C218.79 28.9238 217.88 29.4297 216.937 29.4297ZM222.146 29.3066V19.4424H223.623V29.3066H222.146ZM225.01 24.1523C225.01 22.8672 226.145 21.9854 227.827 21.9854C229.426 21.9854 230.547 22.8809 230.595 24.1592H229.208C229.139 23.5098 228.613 23.1064 227.786 23.1064C226.986 23.1064 226.453 23.4961 226.453 24.0635C226.453 24.5078 226.808 24.8086 227.553 24.9932L228.763 25.2734C230.212 25.6221 230.759 26.1689 230.759 27.2285C230.759 28.541 229.536 29.4434 227.772 29.4434C226.07 29.4434 224.942 28.5615 224.826 27.2422H226.289C226.405 27.9326 226.938 28.3154 227.84 28.3154C228.729 28.3154 229.276 27.9463 229.276 27.3652C229.276 26.9072 229.002 26.6543 228.25 26.4629L226.965 26.1484C225.667 25.834 225.01 25.1572 225.01 24.1523ZM232.489 31.4121H231.176L234.676 19.4424H235.989L232.489 31.4121ZM149.042 36.4424H152.741C154.655 36.4424 155.988 37.7617 155.988 39.6826C155.988 41.6104 154.627 42.9365 152.693 42.9365H150.574V46.3066H149.042V36.4424ZM150.574 37.7344V41.6514H152.331C153.664 41.6514 154.422 40.9336 154.422 39.6895C154.422 38.4453 153.664 37.7344 152.337 37.7344H150.574ZM159.091 45.2607C160.124 45.2607 160.93 44.5498 160.93 43.6133V43.0459L159.16 43.1553C158.278 43.2168 157.779 43.6064 157.779 44.2217C157.779 44.8506 158.298 45.2607 159.091 45.2607ZM158.681 46.4297C157.273 46.4297 156.289 45.5547 156.289 44.2627C156.289 43.0049 157.252 42.2324 158.961 42.1367L160.93 42.0205V41.4668C160.93 40.667 160.39 40.1885 159.488 40.1885C158.633 40.1885 158.1 40.5986 157.97 41.2412H156.576C156.658 39.9424 157.765 38.9854 159.542 38.9854C161.286 38.9854 162.4 39.9082 162.4 41.3506V46.3066H160.985V45.124H160.951C160.534 45.9238 159.625 46.4297 158.681 46.4297ZM163.883 46.3066V39.1152H165.36V46.3066H163.883ZM164.622 38.0625C164.15 38.0625 163.767 37.6865 163.767 37.2217C163.767 36.75 164.15 36.374 164.622 36.374C165.1 36.374 165.483 36.75 165.483 37.2217C165.483 37.6865 165.1 38.0625 164.622 38.0625ZM166.871 46.3066V39.1152H168.279V40.3184H168.313C168.703 39.498 169.468 38.9922 170.576 38.9922C172.162 38.9922 173.071 40.0039 173.071 41.6514V46.3066H171.587V41.9385C171.587 40.8584 171.082 40.2637 170.056 40.2637C169.017 40.2637 168.347 41.002 168.347 42.1162V46.3066H166.871ZM174.37 41.1523C174.37 39.8672 175.504 38.9854 177.186 38.9854C178.786 38.9854 179.907 39.8809 179.955 41.1592H178.567C178.499 40.5098 177.972 40.1064 177.145 40.1064C176.345 40.1064 175.812 40.4961 175.812 41.0635C175.812 41.5078 176.167 41.8086 176.913 41.9932L178.123 42.2734C179.572 42.6221 180.119 43.1689 180.119 44.2285C180.119 45.541 178.895 46.4434 177.131 46.4434C175.429 46.4434 174.301 45.5615 174.185 44.2422H175.648C175.764 44.9326 176.297 45.3154 177.2 45.3154C178.088 45.3154 178.635 44.9463 178.635 44.3652C178.635 43.9072 178.362 43.6543 177.61 43.4629L176.325 43.1484C175.026 42.834 174.37 42.1572 174.37 41.1523Z" fill="#828282"/>
<line opacity="0.5" y1="-2.5" x2="59" y2="-2.5" transform="matrix(-4.37112e-08 1 1 4.37112e-08 194 58)" stroke="url(#paint2_linear_1701_4183)" stroke-width="5"/>
<defs>
<linearGradient id="paint0_linear_1701_4183" x1="172.5" y1="151.5" x2="327" y2="54" gradientUnits="userSpaceOnUse">
<stop stop-color="white" stop-opacity="0"/>
<stop offset="1" stop-color="#276BEF"/>
</linearGradient>
<linearGradient id="paint1_linear_1701_4183" x1="213" y1="152" x2="58.5" y2="54.5" gradientUnits="userSpaceOnUse">
<stop stop-color="white" stop-opacity="0"/>
<stop offset="1" stop-color="#276BEF"/>
</linearGradient>
<linearGradient id="paint2_linear_1701_4183" x1="59" y1="0.5" x2="0" y2="0.5" gradientUnits="userSpaceOnUse">
<stop stop-color="white" stop-opacity="0"/>
<stop offset="1" stop-color="#276BEF"/>
</linearGradient>
</defs>
</svg>
