<svg width="109" height="109" viewBox="0 0 109 109" fill="none" xmlns="http://www.w3.org/2000/svg">
<g filter="url(#filter0_d_427_2047)">
<rect x="9.05273" y="3" width="91" height="91" rx="10.2247" fill="white"/>
</g>
<path fill-rule="evenodd" clip-rule="evenodd" d="M55.7149 16.6507L81.0864 31.2991C81.915 31.7773 82.3891 32.5985 82.3891 33.5553V62.8517C82.3891 63.8082 81.915 64.6297 81.0864 65.1079L55.7149 79.756C54.8865 80.2342 53.9381 80.2342 53.1098 79.756L27.7382 65.1079C26.9096 64.6297 26.4355 63.8082 26.4355 62.8517V33.555C26.4355 32.5985 26.9096 31.777 27.7382 31.2988L53.1098 16.6504C53.9384 16.1725 54.8865 16.1725 55.7149 16.6507Z" fill="url(#paint0_linear_427_2047)"/>
<path fill-rule="evenodd" clip-rule="evenodd" d="M82.0483 32.2476C82.2695 32.6309 82.3881 33.0738 82.3887 33.5499V62.8563C82.3872 63.8107 81.9132 64.63 81.086 65.1074L55.7145 79.7554C55.3002 79.9947 54.8561 80.1142 54.4121 80.1142V48.2034L82.0483 32.2476Z" fill="url(#paint1_linear_427_2047)"/>
<path fill-rule="evenodd" clip-rule="evenodd" d="M55.7139 16.6507L81.0855 31.2991C81.4998 31.5381 81.8255 31.8632 82.0474 32.2478L54.4115 48.2033L26.7754 32.2475C26.9976 31.8629 27.3233 31.5381 27.7373 31.2988L53.1089 16.6504C53.9375 16.1725 54.8856 16.1725 55.7139 16.6507Z" fill="url(#paint2_linear_427_2047)"/>
<defs>
<filter id="filter0_d_427_2047" x="0.872959" y="0.955056" width="107.36" height="107.36" filterUnits="userSpaceOnUse" color-interpolation-filters="sRGB">
<feFlood flood-opacity="0" result="BackgroundImageFix"/>
<feColorMatrix in="SourceAlpha" type="matrix" values="0 0 0 0 0 0 0 0 0 0 0 0 0 0 0 0 0 0 127 0" result="hardAlpha"/>
<feOffset dy="6.13483"/>
<feGaussianBlur stdDeviation="4.08989"/>
<feComposite in2="hardAlpha" operator="out"/>
<feColorMatrix type="matrix" values="0 0 0 0 0 0 0 0 0 0 0 0 0 0 0 0 0 0 0.2 0"/>
<feBlend mode="normal" in2="BackgroundImageFix" result="effect1_dropShadow_427_2047"/>
<feBlend mode="normal" in="SourceGraphic" in2="effect1_dropShadow_427_2047" result="shape"/>
</filter>
<linearGradient id="paint0_linear_427_2047" x1="32.8828" y1="23.646" x2="83.5179" y2="68.0379" gradientUnits="userSpaceOnUse">
<stop stop-color="#7AA7FF"/>
<stop offset="0.252" stop-color="#318EFC"/>
<stop offset="0.555" stop-color="#1B6BE3"/>
<stop offset="0.815" stop-color="#276BEF"/>
<stop offset="1" stop-color="#0C46DB"/>
</linearGradient>
<linearGradient id="paint1_linear_427_2047" x1="57.6357" y1="37.763" x2="91.0111" y2="57.2699" gradientUnits="userSpaceOnUse">
<stop stop-color="#7AA7FF"/>
<stop offset="0.252" stop-color="#318EFC"/>
<stop offset="0.555" stop-color="#1B6BE3"/>
<stop offset="0.815" stop-color="#276BEF"/>
<stop offset="1" stop-color="#0C46DB"/>
</linearGradient>
<linearGradient id="paint2_linear_427_2047" x1="33.1441" y1="19.969" x2="55.2599" y2="58.2745" gradientUnits="userSpaceOnUse">
<stop stop-color="#7AA7FF"/>
<stop offset="0.252" stop-color="#318EFC"/>
<stop offset="0.555" stop-color="#1B6BE3"/>
<stop offset="0.815" stop-color="#276BEF"/>
<stop offset="1" stop-color="#0C46DB"/>
</linearGradient>
</defs>
</svg>
