<svg width="107" height="106" viewBox="0 0 107 106" fill="none" xmlns="http://www.w3.org/2000/svg">
<g filter="url(#filter0_d_427_2007)">
<rect x="9" y="2" width="89.428" height="89.428" rx="10.0481" fill="white"/>
</g>
<g clip-path="url(#clip0_427_2007)">
<path d="M41.3501 62.4001H31.9998C30.0159 62.4001 28.1133 61.612 26.7104 60.2092C25.3076 58.8063 24.5195 56.9037 24.5195 54.9198V24.9988C24.5195 23.0149 25.3076 21.1123 26.7104 19.7095C28.1133 18.3067 30.0159 17.5186 31.9998 17.5186H50.7004C52.6843 17.5186 54.5869 18.3067 55.9898 19.7095C57.3926 21.1123 58.1807 23.0149 58.1807 24.9988V36.2192C58.1807 36.7152 57.9837 37.1908 57.6329 37.5415C57.2822 37.8922 56.8066 38.0893 56.3106 38.0893C55.8146 38.0893 55.339 37.8922 54.9883 37.5415C54.6376 37.1908 54.4405 36.7152 54.4405 36.2192V24.9988C54.4405 24.0069 54.0465 23.0555 53.3451 22.3541C52.6437 21.6527 51.6924 21.2587 50.7004 21.2587H31.9998C31.0078 21.2587 30.0565 21.6527 29.3551 22.3541C28.6537 23.0555 28.2597 24.0069 28.2597 24.9988V54.9198C28.2597 55.9118 28.6537 56.8631 29.3551 57.5645C30.0565 58.2659 31.0078 58.66 31.9998 58.66H41.3501C41.8461 58.66 42.3217 58.857 42.6724 59.2077C43.0231 59.5584 43.2202 60.034 43.2202 60.53C43.2202 61.026 43.0231 61.5017 42.6724 61.8524C42.3217 62.2031 41.8461 62.4001 41.3501 62.4001Z" fill="url(#paint0_linear_427_2007)"/>
<path d="M37.6082 38.0892C36.1203 38.0892 34.6933 37.4982 33.6412 36.446C32.5891 35.3939 31.998 33.9669 31.998 32.479V26.8688C31.998 26.3729 32.1951 25.8972 32.5458 25.5465C32.8965 25.1958 33.3721 24.9988 33.8681 24.9988C34.3641 24.9988 34.8397 25.1958 35.1904 25.5465C35.5411 25.8972 35.7382 26.3729 35.7382 26.8688V32.479C35.7382 32.975 35.9352 33.4507 36.2859 33.8014C36.6366 34.1521 37.1123 34.3491 37.6082 34.3491C38.1042 34.3491 38.5799 34.1521 38.9306 33.8014C39.2813 33.4507 39.4783 32.975 39.4783 32.479V26.8688C39.4783 26.3729 39.6753 25.8972 40.026 25.5465C40.3767 25.1958 40.8524 24.9988 41.3484 24.9988C41.8443 24.9988 42.32 25.1958 42.6707 25.5465C43.0214 25.8972 43.2184 26.3729 43.2184 26.8688V32.479C43.2184 33.9669 42.6274 35.3939 41.5752 36.446C40.5231 37.4982 39.0962 38.0892 37.6082 38.0892Z" fill="url(#paint1_linear_427_2007)"/>
<path d="M82.4919 77.3608H41.3505C40.8546 77.3608 40.3789 77.1638 40.0282 76.8131C39.6775 76.4624 39.4805 75.9867 39.4805 75.4907V43.6997C39.4805 43.2037 39.6775 42.728 40.0282 42.3773C40.3789 42.0266 40.8546 41.8296 41.3505 41.8296H82.4919C82.9879 41.8296 83.4636 42.0266 83.8143 42.3773C84.165 42.728 84.362 43.2037 84.362 43.6997V75.4907C84.362 75.9867 84.165 76.4624 83.8143 76.8131C83.4636 77.1638 82.9879 77.3608 82.4919 77.3608Z" fill="url(#paint2_linear_427_2007)"/>
<path d="M52.5711 60.5965C51.5616 60.5965 50.5934 60.1955 49.8796 59.4816C49.1657 58.7678 48.7647 57.7996 48.7647 56.7901V51.1799C48.7647 51.1623 48.7717 51.1454 48.7841 51.133C48.7965 51.1205 48.8134 51.1135 48.831 51.1135C48.8486 51.1135 48.8655 51.1205 48.8779 51.133C48.8903 51.1454 48.8973 51.1623 48.8973 51.1799V56.7901C48.8973 57.7644 49.2844 58.6989 49.9734 59.3878C50.6623 60.0768 51.5968 60.4639 52.5711 60.4639C53.5455 60.4639 54.4799 60.0768 55.1689 59.3878C55.8579 58.6989 56.2449 57.7644 56.2449 56.7901V51.1799C56.2449 51.1623 56.2519 51.1454 56.2644 51.133C56.2768 51.1205 56.2937 51.1135 56.3113 51.1135C56.3289 51.1135 56.3457 51.1205 56.3582 51.133C56.3706 51.1454 56.3776 51.1623 56.3776 51.1799V56.7901C56.3776 57.7996 55.9765 58.7678 55.2627 59.4816C54.5489 60.1955 53.5807 60.5965 52.5711 60.5965Z" stroke="white" stroke-width="3.60747"/>
<path d="M48.831 38.0892C48.335 38.0892 47.8594 37.8922 47.5087 37.5415C47.158 37.1908 46.9609 36.7151 46.9609 36.2192V26.8688C46.9609 26.3729 47.158 25.8972 47.5087 25.5465C47.8594 25.1958 48.335 24.9988 48.831 24.9988C49.327 24.9988 49.8026 25.1958 50.1533 25.5465C50.504 25.8972 50.7011 26.3729 50.7011 26.8688V36.2192C50.7011 36.7151 50.504 37.1908 50.1533 37.5415C49.8026 37.8922 49.327 38.0892 48.831 38.0892Z" fill="url(#paint3_linear_427_2007)"/>
<path d="M69.3796 60.5899L68.7218 61.94L69.3796 60.5899C69.3706 60.5855 69.3628 60.5792 69.3566 60.5714L69.3566 60.5714L69.3499 60.5629L61.9535 51.3175C61.9519 51.3098 61.9517 51.3018 61.953 51.2938C61.9556 51.2774 61.9642 51.2626 61.9772 51.2522C61.9902 51.2419 62.0067 51.2368 62.0232 51.238C62.0319 51.2386 62.0402 51.2409 62.0478 51.2447L69.4445 60.4905C69.4516 60.5 69.4561 60.5112 69.4574 60.523C69.4587 60.5353 69.4566 60.5478 69.4512 60.559C69.4458 60.5702 69.4374 60.5797 69.4269 60.5863C69.4187 60.5915 69.4095 60.5948 69.4 60.596C69.393 60.5951 69.3861 60.593 69.3796 60.5899Z" stroke="white" stroke-width="3.60747"/>
<path d="M69.3521 51.1472L69.4018 51.0851L69.4458 51.0189C69.4509 51.0112 69.4575 51.0047 69.4652 50.9998C69.4729 50.9948 69.4816 50.9915 69.4907 50.9901C69.4998 50.9887 69.509 50.9891 69.5179 50.9915C69.5268 50.9938 69.5351 50.998 69.5423 51.0037C69.5495 51.0094 69.5554 51.0165 69.5597 51.0247C69.564 51.0328 69.5665 51.0417 69.5672 51.0509C69.5678 51.0601 69.5666 51.0693 69.5635 51.0779L71.2624 51.6839L69.5635 51.0779C69.5604 51.0865 69.5556 51.0945 69.5492 51.1011L69.4986 51.1548L69.4524 51.2125L61.9722 60.5628L61.9722 60.5628L61.9654 60.5713C61.9593 60.5791 61.9514 60.5854 61.9424 60.5898C61.936 60.5929 61.9291 60.595 61.922 60.5959C61.9125 60.5947 61.9034 60.5914 61.8952 60.5862C61.8847 60.5796 61.8762 60.5701 61.8708 60.5589C61.8655 60.5477 61.8633 60.5352 61.8647 60.5229C61.866 60.5111 61.8704 60.4999 61.8775 60.4904L69.3521 51.1472Z" stroke="white" stroke-width="3.60747"/>
<path d="M52.5711 68.0765H48.831C48.8134 68.0765 48.7965 68.0695 48.7841 68.0571C48.7717 68.0447 48.7647 68.0278 48.7647 68.0102C48.7647 67.9926 48.7717 67.9757 48.7841 67.9633C48.7965 67.9509 48.8134 67.9439 48.831 67.9439H52.5711C52.5887 67.9439 52.6056 67.9509 52.618 67.9633L53.8935 66.6879L52.618 67.9633C52.6305 67.9757 52.6375 67.9926 52.6375 68.0102C52.6375 68.0278 52.6305 68.0447 52.618 68.0571L53.8935 69.3325L52.618 68.0571C52.6056 68.0695 52.5887 68.0765 52.5711 68.0765Z" stroke="white" stroke-width="3.60747"/>
<path d="M75.0103 68.0765H60.0498C60.0322 68.0765 60.0153 68.0695 60.0028 68.0571C59.9904 68.0447 59.9834 68.0278 59.9834 68.0102C59.9834 67.9926 59.9904 67.9757 60.0028 67.9633C60.0153 67.9509 60.0322 67.9439 60.0498 67.9439H75.0103C75.0279 67.9439 75.0447 67.9509 75.0572 67.9633C75.0696 67.9757 75.0766 67.9926 75.0766 68.0102C75.0766 68.0278 75.0696 68.0447 75.0572 68.0571C75.0447 68.0695 75.0279 68.0765 75.0103 68.0765Z" stroke="white" stroke-width="3.60747"/>
</g>
<defs>
<filter id="filter0_d_427_2007" x="0.961531" y="-0.00961733" width="105.505" height="105.505" filterUnits="userSpaceOnUse" color-interpolation-filters="sRGB">
<feFlood flood-opacity="0" result="BackgroundImageFix"/>
<feColorMatrix in="SourceAlpha" type="matrix" values="0 0 0 0 0 0 0 0 0 0 0 0 0 0 0 0 0 0 127 0" result="hardAlpha"/>
<feOffset dy="6.02885"/>
<feGaussianBlur stdDeviation="4.01923"/>
<feComposite in2="hardAlpha" operator="out"/>
<feColorMatrix type="matrix" values="0 0 0 0 0 0 0 0 0 0 0 0 0 0 0 0 0 0 0.2 0"/>
<feBlend mode="normal" in2="BackgroundImageFix" result="effect1_dropShadow_427_2007"/>
<feBlend mode="normal" in="SourceGraphic" in2="effect1_dropShadow_427_2007" result="shape"/>
</filter>
<linearGradient id="paint0_linear_427_2007" x1="28.3981" y1="22.69" x2="62.8779" y2="48.5499" gradientUnits="userSpaceOnUse">
<stop stop-color="#7AA7FF"/>
<stop offset="0.252" stop-color="#318EFC"/>
<stop offset="0.555" stop-color="#1B6BE3"/>
<stop offset="0.815" stop-color="#276BEF"/>
<stop offset="1" stop-color="#0C46DB"/>
</linearGradient>
<linearGradient id="paint1_linear_427_2007" x1="33.2909" y1="26.5071" x2="43.6433" y2="35.3806" gradientUnits="userSpaceOnUse">
<stop stop-color="#7AA7FF"/>
<stop offset="0.252" stop-color="#318EFC"/>
<stop offset="0.555" stop-color="#1B6BE3"/>
<stop offset="0.815" stop-color="#276BEF"/>
<stop offset="1" stop-color="#0C46DB"/>
</linearGradient>
<linearGradient id="paint2_linear_427_2007" x1="44.6519" y1="45.9237" x2="72.3272" y2="80.8818" gradientUnits="userSpaceOnUse">
<stop stop-color="#7AA7FF"/>
<stop offset="0.252" stop-color="#318EFC"/>
<stop offset="0.555" stop-color="#1B6BE3"/>
<stop offset="0.815" stop-color="#276BEF"/>
<stop offset="1" stop-color="#0C46DB"/>
</linearGradient>
<linearGradient id="paint3_linear_427_2007" x1="47.3919" y1="26.5071" x2="52.9262" y2="28.0884" gradientUnits="userSpaceOnUse">
<stop stop-color="#7AA7FF"/>
<stop offset="0.252" stop-color="#318EFC"/>
<stop offset="0.555" stop-color="#1B6BE3"/>
<stop offset="0.815" stop-color="#276BEF"/>
<stop offset="1" stop-color="#0C46DB"/>
</linearGradient>
<clipPath id="clip0_427_2007">
<rect width="59.842" height="59.842" fill="white" transform="translate(24.5195 17.5186)"/>
</clipPath>
</defs>
</svg>
