<svg width="104" height="104" viewBox="0 0 104 104" fill="none" xmlns="http://www.w3.org/2000/svg">
<g filter="url(#filter0_d_427_2087)">
<rect x="8" y="2" width="88.0532" height="88.0532" rx="9.89362" fill="white"/>
</g>
<path fill-rule="evenodd" clip-rule="evenodd" d="M28.6328 24.639V69.903C28.6328 72.0451 30.3755 73.7878 32.5165 73.7878H39.3597L39.8588 71.1408C40.044 70.1566 40.9055 69.4422 41.9071 69.4422H49.591C50.5926 69.4422 51.4541 70.1566 51.6394 71.1408L52.1385 73.7878H57.4683C59.6105 73.7878 61.3531 72.0451 61.3531 69.903V61.9366H60.3017C59.3476 61.9366 58.5707 61.1596 58.5707 60.2043V57.687C58.5707 57.5319 58.4827 57.4103 58.3344 57.3616C57.7694 57.1764 57.2136 56.946 56.6833 56.6773C56.5443 56.6067 56.3961 56.6298 56.2861 56.7398L54.5052 58.5207C53.8302 59.1958 52.7313 59.1958 52.0562 58.5207L49.5876 56.0532C48.9125 55.3781 48.9125 54.2793 49.5876 53.6031L51.3684 51.8222C51.4784 51.7133 51.5016 51.564 51.4321 51.4262C51.1623 50.8947 50.9319 50.3389 50.7466 49.7738C50.698 49.6268 50.5764 49.5388 50.4213 49.5388H47.904C46.9487 49.5388 46.1717 48.7618 46.1717 47.8065V44.3166C46.1717 43.3613 46.9487 42.5844 47.904 42.5844H50.4213C50.5764 42.5844 50.698 42.4964 50.7466 42.3481C50.9319 41.7842 51.1623 41.2284 51.4321 40.697C51.5016 40.558 51.4784 40.4098 51.3684 40.2998L49.5876 38.5189C48.9125 37.8439 48.9125 36.745 49.5876 36.0699L52.0562 33.6013C52.3828 33.2747 52.817 33.0953 53.2802 33.0953C53.7433 33.0953 54.1787 33.2747 54.5052 33.6013L56.2861 35.3821C56.3961 35.4921 56.5443 35.5165 56.6833 35.4458C57.2147 35.176 57.7705 34.9456 58.3344 34.7603C58.4827 34.7117 58.5707 34.5901 58.5707 34.435V31.9177C58.5707 30.9624 59.3476 30.1854 60.3017 30.1854H61.3531V24.639C61.3531 22.4969 59.6105 20.7554 57.4683 20.7554H53.5291L52.9027 23.4313C52.6723 24.4144 51.695 25.0999 50.5278 25.0999H40.9704C39.802 25.0999 38.8259 24.4144 38.5955 23.4313L37.9691 20.7554H32.5165C30.3755 20.7554 28.6328 22.4969 28.6328 24.639ZM59.9602 57.687C59.9602 56.9263 59.4924 56.2802 58.7687 56.0416C58.2696 55.8784 57.7798 55.6746 57.3109 55.4372C57.0619 55.311 56.7933 55.2496 56.5269 55.2496C56.0788 55.2496 55.6365 55.4245 55.303 55.7579L53.5222 57.5388C53.389 57.672 53.1713 57.672 53.0381 57.5388L50.5706 55.0701C50.4838 54.9833 50.4711 54.8814 50.4711 54.8281C50.4711 54.7749 50.4838 54.673 50.5706 54.5861L52.3515 52.8053C52.8818 52.2749 53.0104 51.4679 52.6711 50.7986C52.4337 50.3285 52.2299 49.8387 52.0667 49.3408C51.8281 48.6171 51.1832 48.1493 50.4213 48.1493H47.904C47.7152 48.1493 47.5612 47.9953 47.5612 47.8065V44.3166C47.5612 44.1279 47.7152 43.9738 47.904 43.9738H50.4213C51.1832 43.9738 51.8293 43.5061 52.0667 42.7824C52.2299 42.2845 52.4337 41.7935 52.6711 41.3245C53.0104 40.6553 52.8818 39.8482 52.3515 39.3179L50.5706 37.537C50.4363 37.4027 50.4363 37.1862 50.5706 37.0518L53.0381 34.5843C53.125 34.4975 53.2269 34.4847 53.2802 34.4847C53.3334 34.4847 53.4365 34.4975 53.5222 34.5843L55.303 36.3652C55.8345 36.8955 56.6416 37.0241 57.3109 36.6848C57.7798 36.4474 58.2708 36.2436 58.7687 36.0804C59.4924 35.843 59.9602 35.1969 59.9602 34.435V31.9177C59.9602 31.7289 60.113 31.5749 60.3017 31.5749H63.7929C63.9816 31.5749 64.1356 31.7289 64.1356 31.9177V34.435C64.1356 35.1969 64.6022 35.843 65.3259 36.0804C65.825 36.2448 66.3148 36.4474 66.7837 36.6848C67.4542 37.0241 68.2601 36.8955 68.7916 36.3652L70.5724 34.5843C70.6593 34.4975 70.7612 34.4847 70.8144 34.4847C70.8677 34.4847 70.9696 34.4975 71.0564 34.5843L73.5251 37.0518C73.6108 37.1387 73.6235 37.2417 73.6235 37.2938C73.6235 37.3471 73.6108 37.4502 73.5251 37.537L71.7442 39.3167C71.2128 39.8482 71.0842 40.6553 71.4235 41.3245C71.6609 41.7935 71.8647 42.2845 72.0279 42.7824C72.2665 43.5061 72.9114 43.9738 73.6733 43.9738H76.1906C76.3794 43.9738 76.5334 44.1279 76.5334 44.3166V47.8065C76.5334 47.9953 76.3794 48.1493 76.1906 48.1493H73.6733C72.9114 48.1493 72.2665 48.6171 72.0279 49.3408C71.8647 49.8387 71.6609 50.3296 71.4235 50.7986C71.0842 51.4679 71.2128 52.2749 71.7442 52.8053L73.5251 54.5861C73.6108 54.673 73.6247 54.7749 73.6247 54.8281C73.6247 54.8814 73.6108 54.9833 73.5251 55.0701L71.0564 57.5388C70.9233 57.672 70.7056 57.672 70.5724 57.5388L68.7916 55.7579C68.2601 55.2265 67.4542 55.0979 66.7837 55.4372C66.3148 55.6746 65.825 55.8784 65.3259 56.0428C64.6022 56.2802 64.1356 56.9263 64.1356 57.687V60.2043C64.1356 60.3942 63.9816 60.5471 63.7929 60.5471H60.3017C60.113 60.5471 59.9602 60.3942 59.9602 60.2043V57.687ZM62.0479 53.8242C57.7671 53.8242 54.2841 50.3412 54.2841 46.0616C54.2841 41.7808 57.7671 38.2989 62.0479 38.2989C66.3275 38.2989 69.8105 41.7808 69.8105 46.0616C69.8105 50.3412 66.3275 53.8242 62.0479 53.8242ZM49.591 70.8316C49.9303 70.8316 50.2117 71.0644 50.2742 71.3979L50.7246 73.7878H40.7735L41.224 71.3979C41.2865 71.0644 41.5679 70.8316 41.9071 70.8316H49.591ZM40.9704 23.7104C40.4678 23.7104 40.0278 23.4545 39.9479 23.114L39.3956 20.7554H52.1026L51.5491 23.114C51.4703 23.4545 51.0303 23.7104 50.5278 23.7104H40.9704Z" fill="url(#paint0_linear_427_2087)"/>
<defs>
<filter id="filter0_d_427_2087" x="0.085104" y="0.021276" width="103.883" height="103.883" filterUnits="userSpaceOnUse" color-interpolation-filters="sRGB">
<feFlood flood-opacity="0" result="BackgroundImageFix"/>
<feColorMatrix in="SourceAlpha" type="matrix" values="0 0 0 0 0 0 0 0 0 0 0 0 0 0 0 0 0 0 127 0" result="hardAlpha"/>
<feOffset dy="5.93617"/>
<feGaussianBlur stdDeviation="3.95745"/>
<feComposite in2="hardAlpha" operator="out"/>
<feColorMatrix type="matrix" values="0 0 0 0 0 0 0 0 0 0 0 0 0 0 0 0 0 0 0.2 0"/>
<feBlend mode="normal" in2="BackgroundImageFix" result="effect1_dropShadow_427_2087"/>
<feBlend mode="normal" in="SourceGraphic" in2="effect1_dropShadow_427_2087" result="shape"/>
</filter>
<linearGradient id="paint0_linear_427_2087" x1="34.1522" y1="26.866" x2="76.3725" y2="65.0008" gradientUnits="userSpaceOnUse">
<stop stop-color="#7AA7FF"/>
<stop offset="0.252" stop-color="#318EFC"/>
<stop offset="0.555" stop-color="#1B6BE3"/>
<stop offset="0.815" stop-color="#276BEF"/>
<stop offset="1" stop-color="#0C46DB"/>
</linearGradient>
</defs>
</svg>
