<svg width="105" height="105" viewBox="0 0 105 105" fill="none" xmlns="http://www.w3.org/2000/svg">
<g filter="url(#filter0_d_427_2031)">
<rect x="8" y="2" width="89" height="89" rx="10" fill="white"/>
</g>
<g clip-path="url(#clip0_427_2031)">
<path d="M75.1657 30.6219V52.8333C75.1657 53.3306 75.1183 53.8163 75.0278 54.2876C73.7746 54.5233 72.6322 55.0694 71.6808 55.8426C70.7223 56.6215 69.9578 57.6303 69.4735 58.7857C69.2622 59.2887 69.1041 59.8204 69.0064 60.3722C68.5193 60.4699 68.0163 60.5217 67.5004 60.5217H40.1989L33.5926 68.2962C33.3886 68.5377 33.0897 68.6771 32.7735 68.6771C32.4574 68.6771 32.157 68.5377 31.9515 68.2962L25.3453 60.5217H23.6668C19.4389 60.5217 16 57.0727 16 52.8333V30.6219C16 26.3826 19.4389 22.9336 23.6668 22.9336H67.5004C71.7268 22.9336 75.1657 26.3826 75.1657 30.6219Z" fill="url(#paint0_linear_427_2031)"/>
<path d="M64.627 60.5216C66.4635 60.5216 68.1507 59.8706 69.4728 58.7856C69.2615 59.2886 69.1035 59.8203 69.0057 60.3722C68.5186 60.4699 68.0156 60.5216 67.4997 60.5216H64.627Z" fill="#6C5FEA"/>
<path d="M75.165 30.622V52.8334C75.165 53.3307 75.1176 53.8164 75.0271 54.2878C73.774 54.5235 72.6315 55.0695 71.6801 55.8427C72.0739 54.9186 72.2923 53.9012 72.2923 52.8334V30.622C72.2923 26.3826 68.8534 22.9336 64.627 22.9336H67.4997C71.7261 22.9336 75.165 26.3826 75.165 30.622Z" fill="#2259E5"/>
<path d="M89.5768 59.5427C89.5768 59.0139 89.1902 58.5627 88.6671 58.4793L87.1798 58.2436L86.4713 56.5308L87.3551 55.3107C87.6655 54.881 87.6195 54.2904 87.2444 53.9154L84.2007 50.8718C83.8256 50.4968 83.2335 50.4508 82.8039 50.7626L81.5866 51.6479L79.8751 50.9394L79.638 49.4507C79.5546 48.9276 79.1034 48.5425 78.5745 48.5425H76.7451L74.2705 48.5439C73.7402 48.5454 73.289 48.9305 73.2056 49.4536L72.9699 50.9423L71.2598 51.6522L70.0412 50.7669C69.6115 50.4565 69.0208 50.5025 68.6458 50.8776L65.6035 53.9241C65.2284 54.2991 65.1824 54.8898 65.4942 55.3193L66.378 56.538L65.6696 58.2522L64.1836 58.4879C63.6605 58.5713 63.2754 59.0225 63.2754 59.5528L63.2768 63.8594C63.2768 64.3883 63.6634 64.8395 64.1865 64.9229L65.6739 65.1586L66.3824 66.8714L65.4986 68.0913C65.1881 68.521 65.2341 69.1117 65.6092 69.4866L68.6529 72.5302C69.028 72.9053 69.6201 72.9513 70.0483 72.6394L71.2655 71.7542L72.9785 72.4641L73.2157 73.9513C73.299 74.4744 73.7503 74.8596 74.2791 74.8596H74.2805L76.4347 74.8581H78.5832C79.1134 74.8567 79.5647 74.4715 79.648 73.9484L79.8837 72.4598L81.5938 71.7499L82.8125 72.6351C83.2422 72.9455 83.8342 72.8995 84.2079 72.5244L87.2502 69.478C87.6252 69.1029 87.6712 68.5123 87.3594 68.0827L86.4756 66.8642L87.1841 65.1514L88.67 64.9143C89.1931 64.8309 89.5782 64.3797 89.5782 63.8494L89.5768 59.5427ZM76.4261 67.4491C73.2516 67.4491 70.6778 64.8755 70.6778 61.7011C70.6778 58.5267 73.2516 55.9531 76.4261 55.9531C79.602 55.9531 82.1744 58.5267 82.1744 61.7011C82.1744 64.8755 79.602 67.4491 76.4261 67.4491Z" fill="url(#paint1_linear_427_2031)"/>
<mask id="path-6-inside-1_427_2031" fill="white">
<path d="M89.5771 63.8492C89.5771 64.3795 89.192 64.8308 88.6689 64.9141L87.1829 65.1512L86.4745 66.8641L87.3583 68.0827C87.6701 68.5124 87.6241 69.103 87.249 69.478L84.2068 72.5244C83.8331 72.8995 83.241 72.9455 82.8113 72.6351L81.5927 71.7499L79.8826 72.4598L79.6469 73.9484C79.5636 74.4715 79.1123 74.8567 78.582 74.8581H76.4336L77.3849 70.3848L81.9778 68.4779L83.2583 69.4077L84.132 68.5311L83.2037 67.2521L85.1409 62.5661L86.703 62.3175L86.7015 61.0774L85.1394 60.8302L83.1994 56.1456L84.1277 54.8652L83.2525 53.99L81.9735 54.9184L77.1866 52.9368L76.744 48.5425H78.5734C79.1023 48.5425 79.5535 48.9276 79.6368 49.4507L79.874 50.9394L81.5855 51.6479L82.8027 50.7626C83.2324 50.4508 83.8245 50.4968 84.1996 50.8718L87.2433 53.9154C87.6184 54.2905 87.6644 54.8811 87.354 55.3107L86.4701 56.5308L87.1786 58.2436L88.666 58.4793C89.1891 58.5627 89.5757 59.0139 89.5757 59.5427L89.5771 63.8492Z"/>
</mask>
<path d="M89.5771 63.8492H93.5535V63.8479L89.5771 63.8492ZM88.6689 64.9141L88.0432 60.9873L88.0423 60.9874L88.6689 64.9141ZM87.1829 65.1512L86.5563 61.2245L84.359 61.5752L83.5085 63.6314L87.1829 65.1512ZM86.4745 66.8641L82.8 65.3442L81.9502 67.3988L83.2555 69.1986L86.4745 66.8641ZM87.3583 68.0827L84.1393 70.4172L84.1401 70.4183L87.3583 68.0827ZM87.249 69.478L84.4378 66.6657L84.4354 66.6682L87.249 69.478ZM84.2068 72.5244L81.3931 69.7146L81.3896 69.7181L84.2068 72.5244ZM82.8113 72.6351L80.4743 75.8523L80.4828 75.8584L82.8113 72.6351ZM81.5927 71.7499L83.9297 68.5327L82.1265 67.2228L80.0681 68.0773L81.5927 71.7499ZM79.8826 72.4598L78.358 68.7873L76.303 69.6403L75.9551 71.838L79.8826 72.4598ZM79.6469 73.9484L83.5738 74.5742L83.5744 74.5702L79.6469 73.9484ZM78.582 74.8581V78.8345L78.5928 78.8345L78.582 74.8581ZM76.4336 74.8581L72.5442 74.031L71.5226 78.8345H76.4336V74.8581ZM77.3849 70.3848L75.8602 66.7123L73.9302 67.5136L73.4955 69.5576L77.3849 70.3848ZM81.9778 68.4779L84.3143 65.2603L82.5112 63.951L80.4531 64.8055L81.9778 68.4779ZM83.2583 69.4077L80.9218 72.6253L83.6738 74.6236L86.0746 72.2148L83.2583 69.4077ZM84.132 68.5311L86.9484 71.3382L89.3408 68.9379L87.3501 66.1953L84.132 68.5311ZM83.2037 67.2521L79.5289 65.733L78.6793 67.7881L79.9856 69.5879L83.2037 67.2521ZM85.1409 62.5661L84.5159 58.6391L82.3168 58.9891L81.4661 61.0469L85.1409 62.5661ZM86.703 62.3175L87.3279 66.2444L90.6833 65.7104L90.6794 62.3128L86.703 62.3175ZM86.7015 61.0774L90.6779 61.0728L90.674 57.6801L87.323 57.1499L86.7015 61.0774ZM85.1394 60.8302L81.4656 62.3517L82.3179 64.4096L84.518 64.7578L85.1394 60.8302ZM83.1994 56.1456L79.9801 53.8116L78.6746 55.6122L79.5255 57.6671L83.1994 56.1456ZM84.1277 54.8652L87.347 57.1993L89.3385 54.4525L86.9394 52.0535L84.1277 54.8652ZM83.2525 53.99L86.0643 51.1783L83.6639 48.7779L80.9167 50.772L83.2525 53.99ZM81.9735 54.9184L80.4526 58.5924L82.5086 59.4435L84.3093 58.1364L81.9735 54.9184ZM77.1866 52.9368L73.2302 53.3353L73.4686 55.7013L75.6657 56.6108L77.1866 52.9368ZM76.744 48.5425V44.5661H72.347L72.7876 48.941L76.744 48.5425ZM79.6368 49.4507L83.5637 48.8252L83.5637 48.825L79.6368 49.4507ZM79.874 50.9394L75.9471 51.5649L76.2971 53.7624L78.3531 54.6135L79.874 50.9394ZM81.5855 51.6479L80.0647 55.3219L82.1228 56.1739L83.9243 54.8637L81.5855 51.6479ZM82.8027 50.7626L80.4671 47.5444L80.4639 47.5468L82.8027 50.7626ZM84.1996 50.8718L81.3878 53.6836L81.3879 53.6836L84.1996 50.8718ZM87.2433 53.9154L90.055 51.1037L90.055 51.1036L87.2433 53.9154ZM87.354 55.3107L90.5742 57.6434L90.5769 57.6397L87.354 55.3107ZM86.4701 56.5308L83.2499 54.198L81.9464 55.9974L82.7957 58.0506L86.4701 56.5308ZM87.1786 58.2436L83.5042 59.7635L84.3558 61.8223L86.5563 62.171L87.1786 58.2436ZM88.666 58.4793L89.2917 54.5524L89.2883 54.5519L88.666 58.4793ZM89.5757 59.5427H85.5993L85.5993 59.5441L89.5757 59.5427ZM85.6007 63.8492C85.6007 62.4257 86.6353 61.2116 88.0432 60.9873L89.2946 68.841C91.7487 68.4499 93.5535 66.3333 93.5535 63.8492H85.6007ZM88.0423 60.9874L86.5563 61.2245L87.8095 69.0779L89.2955 68.8408L88.0423 60.9874ZM83.5085 63.6314L82.8 65.3442L90.1489 68.3839L90.8574 66.6711L83.5085 63.6314ZM83.2555 69.1986L84.1393 70.4172L90.5772 65.7482L89.6934 64.5296L83.2555 69.1986ZM84.1401 70.4183C83.307 69.2705 83.4255 67.6777 84.4378 66.6657L90.0602 72.2903C91.8227 70.5284 92.0332 67.7543 90.5764 65.7471L84.1401 70.4183ZM84.4354 66.6682L81.3931 69.7146L87.0204 75.3343L90.0627 72.2878L84.4354 66.6682ZM81.3896 69.7181C82.4064 68.6974 83.9975 68.5865 85.1399 69.4118L80.4828 75.8584C82.4846 77.3045 85.2598 77.1016 87.0239 75.3308L81.3896 69.7181ZM85.1483 69.4179L83.9297 68.5327L79.2557 74.967L80.4744 75.8523L85.1483 69.4179ZM80.0681 68.0773L78.358 68.7873L81.4071 76.1323L83.1173 75.4224L80.0681 68.0773ZM75.9551 71.838L75.7194 73.3267L83.5744 74.5702L83.8101 73.0816L75.9551 71.838ZM75.72 73.3227C75.9446 71.9133 77.1575 70.8856 78.5713 70.8817L78.5928 78.8345C81.0671 78.8278 83.1825 77.0298 83.5738 74.5742L75.72 73.3227ZM78.582 70.8817H76.4336V78.8345H78.582V70.8817ZM80.323 75.6853L81.2744 71.2119L73.4955 69.5576L72.5442 74.031L80.323 75.6853ZM78.9097 74.0572L83.5026 72.1504L80.4531 64.8055L75.8602 66.7123L78.9097 74.0572ZM79.6414 71.6955L80.9218 72.6253L85.5947 66.1901L84.3143 65.2603L79.6414 71.6955ZM86.0746 72.2148L86.9484 71.3382L81.3157 65.724L80.4419 66.6006L86.0746 72.2148ZM87.3501 66.1953L86.4217 64.9163L79.9856 69.5879L80.914 70.8669L87.3501 66.1953ZM86.8784 68.7712L88.8156 64.0852L81.4661 61.0469L79.5289 65.733L86.8784 68.7712ZM85.7658 66.493L87.3279 66.2444L86.078 58.3905L84.5159 58.6391L85.7658 66.493ZM90.6794 62.3128L90.6779 61.0728L82.7251 61.082L82.7266 62.3221L90.6794 62.3128ZM87.323 57.1499L85.7609 56.9027L84.518 64.7578L86.0801 65.0049L87.323 57.1499ZM88.8132 59.3088L86.8732 54.6242L79.5255 57.6671L81.4656 62.3517L88.8132 59.3088ZM86.4187 58.4797L87.347 57.1993L80.9084 52.5311L79.9801 53.8116L86.4187 58.4797ZM86.9394 52.0535L86.0643 51.1783L80.4408 56.8017L81.316 57.6769L86.9394 52.0535ZM80.9167 50.772L79.6377 51.7003L84.3093 58.1364L85.5883 57.208L80.9167 50.772ZM83.4944 51.2443L78.7075 49.2627L75.6657 56.6108L80.4526 58.5924L83.4944 51.2443ZM81.143 52.5383L80.7004 48.144L72.7876 48.941L73.2302 53.3353L81.143 52.5383ZM76.744 52.5189H78.5734V44.5661H76.744V52.5189ZM78.5734 52.5189C77.1452 52.5189 75.9338 51.4811 75.71 50.0764L83.5637 48.825C83.1732 46.3741 81.0593 44.5661 78.5734 44.5661V52.5189ZM75.7099 50.0762L75.9471 51.5649L83.8009 50.3139L83.5637 48.8252L75.7099 50.0762ZM78.3531 54.6135L80.0647 55.3219L83.1064 47.9738L81.3948 47.2653L78.3531 54.6135ZM83.9243 54.8637L85.1415 53.9785L80.4639 47.5468L79.2467 48.432L83.9243 54.8637ZM85.1383 53.9808C83.9909 54.8136 82.3998 54.6956 81.3878 53.6836L87.0113 48.0601C85.2491 46.2979 82.474 46.088 80.4671 47.5444L85.1383 53.9808ZM81.3879 53.6836L84.4316 56.7272L90.055 51.1036L87.0112 48.06L81.3879 53.6836ZM84.4316 56.7272C83.4209 55.7165 83.3025 54.1281 84.131 52.9816L90.5769 57.6397C92.0262 55.6342 91.8159 52.8645 90.055 51.1037L84.4316 56.7272ZM84.1337 52.978L83.2499 54.198L89.6904 58.8635L90.5742 57.6434L84.1337 52.978ZM82.7957 58.0506L83.5042 59.7635L90.8531 56.7238L90.1446 55.0109L82.7957 58.0506ZM86.5563 62.171L88.0437 62.4067L89.2883 54.5519L87.801 54.3162L86.5563 62.171ZM88.0403 62.4062C86.6432 62.1835 85.5993 60.9786 85.5993 59.5427H93.5521C93.5521 57.0492 91.735 54.9418 89.2917 54.5524L88.0403 62.4062ZM85.5993 59.5441L85.6007 63.8506L93.5535 63.8479L93.5521 59.5414L85.5993 59.5441Z" fill="#2259E5" mask="url(#path-6-inside-1_427_2031)"/>
<path d="M31.4546 43.5977C30.8484 43.391 30.2973 43.1844 29.8013 42.9777C29.3053 42.7573 28.8782 42.4955 28.52 42.1924C28.1618 41.8893 27.8793 41.531 27.6726 41.1177C27.4798 40.6906 27.3833 40.1739 27.3833 39.5677C27.3833 38.3966 27.8311 37.4597 28.7266 36.757C29.636 36.0544 30.9035 35.703 32.5293 35.703C33.1218 35.703 33.6729 35.7444 34.1826 35.827C34.6924 35.9097 35.1264 36.0406 35.4846 36.2197C35.8566 36.385 36.146 36.6055 36.3526 36.881C36.5593 37.1428 36.6626 37.4528 36.6626 37.811C36.6626 38.1693 36.58 38.4793 36.4146 38.741C36.2493 38.989 36.0495 39.2026 35.8153 39.3817C35.5122 39.1888 35.1058 39.0235 34.596 38.8857C34.0862 38.7341 33.5282 38.6584 32.922 38.6584C32.302 38.6584 31.8473 38.7479 31.558 38.927C31.2686 39.0924 31.124 39.3059 31.124 39.5677C31.124 39.7744 31.2135 39.9466 31.3926 40.0844C31.5718 40.2084 31.8404 40.3255 32.1986 40.4357L33.294 40.787C34.5891 41.2004 35.5811 41.7308 36.27 42.3784C36.9726 43.0121 37.324 43.8801 37.324 44.9824C37.324 46.1535 36.8624 47.1041 35.9393 47.8344C35.0162 48.5508 33.6591 48.909 31.868 48.909C31.2342 48.909 30.6418 48.8539 30.0906 48.7437C29.5533 48.6473 29.078 48.5026 28.6646 48.3097C28.2651 48.103 27.9482 47.855 27.714 47.5657C27.4935 47.2626 27.3833 46.9181 27.3833 46.5324C27.3833 46.1328 27.5004 45.7953 27.7346 45.5197C27.9689 45.2304 28.2238 45.0099 28.4993 44.8584C28.8851 45.1615 29.3535 45.4233 29.9046 45.6437C30.4695 45.8641 31.0826 45.9744 31.744 45.9744C32.4191 45.9744 32.8944 45.871 33.17 45.6644C33.4455 45.4577 33.5833 45.2166 33.5833 44.941C33.5833 44.6655 33.4731 44.4588 33.2526 44.321C33.0322 44.1695 32.7222 44.0248 32.3226 43.887L31.4546 43.5977ZM39.2828 37.9764C39.2828 37.3839 39.455 36.9155 39.7995 36.571C40.1439 36.2266 40.6123 36.0544 41.2048 36.0544H48.0248C48.1212 36.2059 48.2039 36.4057 48.2728 36.6537C48.3555 36.9017 48.3968 37.1635 48.3968 37.439C48.3968 37.9626 48.2797 38.3346 48.0455 38.555C47.825 38.7755 47.5288 38.8857 47.1568 38.8857H42.7961V40.8077H47.4461C47.5426 40.9593 47.6252 41.159 47.6941 41.407C47.7768 41.6413 47.8181 41.8961 47.8181 42.1717C47.8181 42.6953 47.7079 43.0673 47.4875 43.2877C47.267 43.5081 46.9708 43.6184 46.5988 43.6184H42.7961V45.7884H48.1075C48.2039 45.9399 48.2866 46.1397 48.3555 46.3877C48.4381 46.6357 48.4795 46.8975 48.4795 47.173C48.4795 47.6966 48.3623 48.0755 48.1281 48.3097C47.9077 48.5301 47.6115 48.6404 47.2395 48.6404H41.2048C40.6123 48.6404 40.1439 48.4681 39.7995 48.1237C39.455 47.7793 39.2828 47.3108 39.2828 46.7184V37.9764ZM49.864 42.2957C49.864 41.221 50.0293 40.2704 50.36 39.4437C50.7044 38.617 51.166 37.9281 51.7446 37.377C52.3371 36.8121 53.026 36.385 53.8113 36.0957C54.6104 35.8064 55.4715 35.6617 56.3946 35.6617C57.3177 35.6617 58.172 35.8064 58.9573 36.0957C59.7564 36.385 60.4522 36.8121 61.0446 37.377C61.6371 37.9281 62.0986 38.617 62.4293 39.4437C62.7737 40.2704 62.946 41.221 62.946 42.2957C62.946 43.3704 62.7806 44.3279 62.45 45.1684C62.1193 45.995 61.6577 46.6908 61.0653 47.2557C60.4866 47.8068 59.7977 48.227 58.9986 48.5164C58.1995 48.8057 57.3315 48.9504 56.3946 48.9504C55.4577 48.9504 54.5897 48.8057 53.7906 48.5164C52.9915 48.2133 52.3026 47.7793 51.724 47.2144C51.1453 46.6495 50.6906 45.9537 50.36 45.127C50.0293 44.3004 49.864 43.3566 49.864 42.2957ZM53.584 42.2957C53.584 43.5495 53.8388 44.4864 54.3486 45.1064C54.8584 45.7264 55.5404 46.0364 56.3946 46.0364C57.2626 46.0364 57.9515 45.7264 58.4613 45.1064C58.9711 44.4864 59.226 43.5495 59.226 42.2957C59.226 41.0557 58.9711 40.1257 58.4613 39.5057C57.9653 38.8857 57.2833 38.5757 56.4153 38.5757C55.5611 38.5757 54.8722 38.8857 54.3486 39.5057C53.8388 40.1119 53.584 41.0419 53.584 42.2957Z" fill="white"/>
</g>
<defs>
<filter id="filter0_d_427_2031" x="0" y="0" width="105" height="105" filterUnits="userSpaceOnUse" color-interpolation-filters="sRGB">
<feFlood flood-opacity="0" result="BackgroundImageFix"/>
<feColorMatrix in="SourceAlpha" type="matrix" values="0 0 0 0 0 0 0 0 0 0 0 0 0 0 0 0 0 0 127 0" result="hardAlpha"/>
<feOffset dy="6"/>
<feGaussianBlur stdDeviation="4"/>
<feComposite in2="hardAlpha" operator="out"/>
<feColorMatrix type="matrix" values="0 0 0 0 0 0 0 0 0 0 0 0 0 0 0 0 0 0 0.2 0"/>
<feBlend mode="normal" in2="BackgroundImageFix" result="effect1_dropShadow_427_2031"/>
<feBlend mode="normal" in="SourceGraphic" in2="effect1_dropShadow_427_2031" result="shape"/>
</filter>
<linearGradient id="paint0_linear_427_2031" x1="22.8174" y1="28.2044" x2="58.2445" y2="74.0267" gradientUnits="userSpaceOnUse">
<stop stop-color="#7AA7FF"/>
<stop offset="0.252" stop-color="#318EFC"/>
<stop offset="0.555" stop-color="#1B6BE3"/>
<stop offset="0.815" stop-color="#276BEF"/>
<stop offset="1" stop-color="#0C46DB"/>
</linearGradient>
<linearGradient id="paint1_linear_427_2031" x1="66.3061" y1="51.5749" x2="87.3664" y2="72.6237" gradientUnits="userSpaceOnUse">
<stop stop-color="#7AA7FF"/>
<stop offset="0.252" stop-color="#318EFC"/>
<stop offset="0.555" stop-color="#1B6BE3"/>
<stop offset="0.815" stop-color="#276BEF"/>
<stop offset="1" stop-color="#0C46DB"/>
</linearGradient>
<clipPath id="clip0_427_2031">
<rect width="73.5784" height="73.5784" fill="white" transform="translate(16 10)"/>
</clipPath>
</defs>
</svg>
