<svg width="106" height="105" viewBox="0 0 106 105" fill="none" xmlns="http://www.w3.org/2000/svg">
<g filter="url(#filter0_d_427_2053)">
<rect x="8.05273" y="2" width="89" height="89" rx="10" fill="white"/>
</g>
<g clip-path="url(#clip0_427_2053)">
<path fill-rule="evenodd" clip-rule="evenodd" d="M49.9815 36.6656C49.6656 36.6656 49.3848 36.3847 49.3848 36.0688V22.8346C49.3848 22.5186 49.6656 22.2378 49.9815 22.2378C50.2975 22.2378 50.5432 22.5186 50.5432 22.8346V36.0688C50.5432 36.3847 50.2975 36.6656 49.9815 36.6656Z" fill="url(#paint0_linear_427_2053)"/>
<path fill-rule="evenodd" clip-rule="evenodd" d="M49.9835 23.4312C48.2283 23.4312 46.7891 21.992 46.7891 20.2368C46.7891 18.5167 48.2283 17.0774 49.9835 17.0774C51.7387 17.0774 53.1429 18.5167 53.1429 20.2368C53.1429 21.992 51.7387 23.4312 49.9835 23.4312Z" fill="url(#paint1_linear_427_2053)"/>
<path fill-rule="evenodd" clip-rule="evenodd" d="M56.1944 36.6654C55.8785 36.6654 55.5977 36.3845 55.5977 36.0686V30.5924C55.5977 30.2764 55.8785 29.9956 56.1944 29.9956C56.5104 29.9956 56.7912 30.2764 56.7912 30.5924V36.0686C56.7912 36.3845 56.5104 36.6654 56.1944 36.6654Z" fill="url(#paint2_linear_427_2053)"/>
<path fill-rule="evenodd" clip-rule="evenodd" d="M56.1945 31.1893C54.4393 31.1893 53.0352 29.75 53.0352 27.9948C53.0352 26.2747 54.4393 24.8354 56.1945 24.8354C57.9497 24.8354 59.3539 26.2747 59.3539 27.9948C59.3539 29.75 57.9497 31.1893 56.1945 31.1893Z" fill="url(#paint3_linear_427_2053)"/>
<path fill-rule="evenodd" clip-rule="evenodd" d="M62.4093 36.6653C62.0933 36.6653 61.8125 36.3845 61.8125 36.0686V27.5032C61.8125 25.7831 63.2167 24.3789 64.9368 24.3789H68.6578C68.9737 24.3789 69.2546 24.6597 69.2546 24.9757C69.2546 25.2916 68.9737 25.5724 68.6578 25.5724H64.9368C63.8836 25.5724 63.006 26.4149 63.006 27.5032V36.0686C63.006 36.3845 62.7252 36.6653 62.4093 36.6653Z" fill="url(#paint4_linear_427_2053)"/>
<path fill-rule="evenodd" clip-rule="evenodd" d="M71.255 28.1351C69.4998 28.1351 68.0605 26.731 68.0605 24.9758C68.0605 23.2206 69.4998 21.8164 71.255 21.8164C73.0102 21.8164 74.4144 23.2206 74.4144 24.9758C74.4144 26.731 73.0102 28.1351 71.255 28.1351Z" fill="url(#paint5_linear_427_2053)"/>
<path fill-rule="evenodd" clip-rule="evenodd" d="M43.7691 36.6653C43.4181 36.6653 43.1723 36.3845 43.1723 36.0686V27.5032C43.1723 26.4149 42.2947 25.5724 41.2416 25.5724H37.5206C37.1696 25.5724 36.9238 25.2916 36.9238 24.9757C36.9238 24.6597 37.1696 24.3789 37.5206 24.3789H41.2416C42.9617 24.3789 44.3308 25.7831 44.3308 27.5032V36.0686C44.3308 36.3845 44.0851 36.6653 43.7691 36.6653Z" fill="url(#paint6_linear_427_2053)"/>
<path fill-rule="evenodd" clip-rule="evenodd" d="M34.923 28.1351C33.1678 28.1351 31.7637 26.731 31.7637 24.9758C31.7637 23.2206 33.1678 21.8164 34.923 21.8164C36.6782 21.8164 38.0824 23.2206 38.0824 24.9758C38.0824 26.731 36.6782 28.1351 34.923 28.1351Z" fill="url(#paint7_linear_427_2053)"/>
<path fill-rule="evenodd" clip-rule="evenodd" d="M76.9065 41.2639H65.8839C65.5679 41.2639 65.2871 40.9831 65.2871 40.6671C65.2871 40.3512 65.5679 40.1055 65.8839 40.1055H76.9065C77.2225 40.1055 77.4682 40.3512 77.4682 40.6671C77.4682 40.9831 77.2225 41.2639 76.9065 41.2639Z" fill="url(#paint8_linear_427_2053)"/>
<path fill-rule="evenodd" clip-rule="evenodd" d="M79.4699 43.8619C77.7498 43.8619 76.3105 42.4226 76.3105 40.6674C76.3105 38.9122 77.7498 37.5081 79.4699 37.5081C81.2251 37.5081 82.6644 38.9122 82.6644 40.6674C82.6644 42.4226 81.2251 43.8619 79.4699 43.8619Z" fill="url(#paint9_linear_427_2053)"/>
<path fill-rule="evenodd" clip-rule="evenodd" d="M69.1837 47.6179H65.8839C65.5679 47.6179 65.2871 47.3722 65.2871 47.0211C65.2871 46.7052 65.5679 46.4595 65.8839 46.4595H69.1837C69.4996 46.4595 69.7453 46.7052 69.7453 47.0211C69.7453 47.3722 69.4996 47.6179 69.1837 47.6179Z" fill="url(#paint10_linear_427_2053)"/>
<path fill-rule="evenodd" clip-rule="evenodd" d="M71.7473 50.2156C70.0272 50.2156 68.5879 48.7764 68.5879 47.0212C68.5879 45.3011 70.0272 43.8618 71.7473 43.8618C73.5025 43.8618 74.9417 45.3011 74.9417 47.0212C74.9417 48.7764 73.5025 50.2156 71.7473 50.2156Z" fill="url(#paint11_linear_427_2053)"/>
<path fill-rule="evenodd" clip-rule="evenodd" d="M76.9065 53.9368H65.8839C65.5679 53.9368 65.2871 53.691 65.2871 53.34C65.2871 53.024 65.5679 52.7783 65.8839 52.7783H76.9065C77.2225 52.7783 77.4682 53.024 77.4682 53.34C77.4682 53.691 77.2225 53.9368 76.9065 53.9368Z" fill="url(#paint12_linear_427_2053)"/>
<path fill-rule="evenodd" clip-rule="evenodd" d="M79.4699 56.5343C77.7498 56.5343 76.3105 55.095 76.3105 53.3398C76.3105 51.6197 77.7498 50.1804 79.4699 50.1804C81.2251 50.1804 82.6644 51.6197 82.6644 53.3398C82.6644 55.095 81.2251 56.5343 79.4699 56.5343Z" fill="url(#paint13_linear_427_2053)"/>
<path fill-rule="evenodd" clip-rule="evenodd" d="M49.9815 71.8045C49.6656 71.8045 49.3848 71.5588 49.3848 71.2429V58.0086C49.3848 57.6576 49.6656 57.4119 49.9815 57.4119C50.2975 57.4119 50.5432 57.6576 50.5432 58.0086V71.2429C50.5432 71.5588 50.2975 71.8045 49.9815 71.8045Z" fill="url(#paint14_linear_427_2053)"/>
<path fill-rule="evenodd" clip-rule="evenodd" d="M49.9835 76.9998C48.2283 76.9998 46.7891 75.5606 46.7891 73.8054C46.7891 72.0502 48.2283 70.646 49.9835 70.646C51.7387 70.646 53.1429 72.0502 53.1429 73.8054C53.1429 75.5606 51.7387 76.9998 49.9835 76.9998Z" fill="url(#paint15_linear_427_2053)"/>
<path fill-rule="evenodd" clip-rule="evenodd" d="M56.1944 64.0465C55.8785 64.0465 55.5977 63.8008 55.5977 63.4849V58.0086C55.5977 57.6576 55.8785 57.4119 56.1944 57.4119C56.5104 57.4119 56.7912 57.6576 56.7912 58.0086V63.4849C56.7912 63.8008 56.5104 64.0465 56.1944 64.0465Z" fill="url(#paint16_linear_427_2053)"/>
<path fill-rule="evenodd" clip-rule="evenodd" d="M56.1945 69.242C54.4393 69.242 53.0352 67.8028 53.0352 66.0475C53.0352 64.2923 54.4393 62.8882 56.1945 62.8882C57.9497 62.8882 59.3539 64.2923 59.3539 66.0475C59.3539 67.8028 57.9497 69.242 56.1945 69.242Z" fill="url(#paint17_linear_427_2053)"/>
<path fill-rule="evenodd" clip-rule="evenodd" d="M68.6578 69.6632H64.9368C63.2167 69.6632 61.8125 68.2941 61.8125 66.574V58.0086C61.8125 57.6576 62.0933 57.4119 62.4093 57.4119C62.7252 57.4119 63.006 57.6576 63.006 58.0086V66.574C63.006 67.6271 63.8836 68.5047 64.9368 68.5047H68.6578C68.9737 68.5047 69.2546 68.7505 69.2546 69.1015C69.2546 69.4174 68.9737 69.6632 68.6578 69.6632Z" fill="url(#paint18_linear_427_2053)"/>
<path fill-rule="evenodd" clip-rule="evenodd" d="M71.255 72.2611C69.4998 72.2611 68.0605 70.8218 68.0605 69.1017C68.0605 67.3465 69.4998 65.9072 71.255 65.9072C73.0102 65.9072 74.4144 67.3465 74.4144 69.1017C74.4144 70.8218 73.0102 72.2611 71.255 72.2611Z" fill="url(#paint19_linear_427_2053)"/>
<path fill-rule="evenodd" clip-rule="evenodd" d="M41.2416 69.6632H37.5206C37.1696 69.6632 36.9238 69.4174 36.9238 69.1015C36.9238 68.7505 37.1696 68.5047 37.5206 68.5047H41.2416C42.2947 68.5047 43.1723 67.6271 43.1723 66.574V58.0086C43.1723 57.6576 43.4181 57.4119 43.7691 57.4119C44.0851 57.4119 44.3308 57.6576 44.3308 58.0086V66.574C44.3308 68.2941 42.9617 69.6632 41.2416 69.6632Z" fill="url(#paint20_linear_427_2053)"/>
<path fill-rule="evenodd" clip-rule="evenodd" d="M34.923 72.2611C33.1678 72.2611 31.7637 70.8218 31.7637 69.1017C31.7637 67.3465 33.1678 65.9072 34.923 65.9072C36.6782 65.9072 38.0824 67.3465 38.0824 69.1017C38.0824 70.8218 36.6782 72.2611 34.923 72.2611Z" fill="url(#paint21_linear_427_2053)"/>
<path fill-rule="evenodd" clip-rule="evenodd" d="M40.2933 41.2641H29.2706C28.9547 41.2641 28.6738 41.0184 28.6738 40.7025C28.6738 40.3514 28.9547 40.1057 29.2706 40.1057H40.2933C40.6092 40.1057 40.8549 40.3514 40.8549 40.7025C40.8549 41.0184 40.6092 41.2641 40.2933 41.2641Z" fill="url(#paint22_linear_427_2053)"/>
<path fill-rule="evenodd" clip-rule="evenodd" d="M26.673 43.8619C24.9529 43.8619 23.5137 42.4577 23.5137 40.7025C23.5137 38.9473 24.9529 37.5081 26.673 37.5081C28.4282 37.5081 29.8675 38.9473 29.8675 40.7025C29.8675 42.4577 28.4282 43.8619 26.673 43.8619Z" fill="url(#paint23_linear_427_2053)"/>
<path fill-rule="evenodd" clip-rule="evenodd" d="M40.293 47.6179H36.9933C36.6773 47.6179 36.3965 47.3722 36.3965 47.0562C36.3965 46.7403 36.6773 46.4595 36.9933 46.4595H40.293C40.609 46.4595 40.8547 46.7403 40.8547 47.0562C40.8547 47.3722 40.609 47.6179 40.293 47.6179Z" fill="url(#paint24_linear_427_2053)"/>
<path fill-rule="evenodd" clip-rule="evenodd" d="M34.3957 50.2156C32.6405 50.2156 31.2363 48.8115 31.2363 47.0563C31.2363 45.3011 32.6405 43.8618 34.3957 43.8618C36.1509 43.8618 37.5902 45.3011 37.5902 47.0563C37.5902 48.8115 36.1509 50.2156 34.3957 50.2156Z" fill="url(#paint25_linear_427_2053)"/>
<path fill-rule="evenodd" clip-rule="evenodd" d="M40.2933 53.9716H29.2706C28.9547 53.9716 28.6738 53.6908 28.6738 53.3748C28.6738 53.0589 28.9547 52.7781 29.2706 52.7781H40.2933C40.6092 52.7781 40.8549 53.0589 40.8549 53.3748C40.8549 53.6908 40.6092 53.9716 40.2933 53.9716Z" fill="url(#paint26_linear_427_2053)"/>
<path fill-rule="evenodd" clip-rule="evenodd" d="M26.673 56.5343C24.9529 56.5343 23.5137 55.1301 23.5137 53.3749C23.5137 51.6197 24.9529 50.2156 26.673 50.2156C28.4282 50.2156 29.8675 51.6197 29.8675 53.3749C29.8675 55.1301 28.4282 56.5343 26.673 56.5343Z" fill="url(#paint27_linear_427_2053)"/>
<path fill-rule="evenodd" clip-rule="evenodd" d="M62.7938 58.5704H43.3461C41.3452 58.5704 39.6953 56.9205 39.6953 54.9196V39.1578C39.6953 37.1218 41.3452 35.4719 43.3461 35.4719H62.7938C64.8298 35.4719 66.4797 37.1218 66.4797 39.1578V54.9196C66.4797 56.9205 64.8298 58.5704 62.7938 58.5704Z" fill="url(#paint28_linear_427_2053)"/>
<path d="M50.8567 41.8309L50.8678 41.8372L50.8791 41.8431C50.9688 41.8907 51.0185 41.9457 51.0566 42.0436L51.0603 42.0532L51.0643 42.0628L54.6512 50.7511V50.7512V50.7516V50.752V50.7525V50.7529V50.7533V50.7537V50.7541V50.7545V50.755V50.7554V50.7558V50.7562V50.7566V50.757V50.7575V50.7579V50.7583V50.7587V50.7591V50.7596V50.76V50.7604V50.7608V50.7612V50.7616V50.7621V50.7625V50.7629V50.7633V50.7637V50.7641V50.7646V50.765V50.7654V50.7658V50.7662V50.7667V50.7671V50.7675V50.7679V50.7683V50.7687V50.7692V50.7696V50.77V50.7704V50.7708V50.7712V50.7717V50.7721V50.7725V50.7729V50.7733V50.7738V50.7742V50.7746V50.775V50.7754V50.7758V50.7763V50.7767V50.7771V50.7775V50.7779V50.7784V50.7788V50.7792V50.7796V50.78V50.7804V50.7809V50.7813V50.7817V50.7821V50.7825V50.7829V50.7834V50.7838V50.7842V50.7846V50.785V50.7855V50.7859V50.7863V50.7867V50.7871V50.7875V50.788V50.7884V50.7888V50.7892V50.7896V50.79V50.7905V50.7909V50.7913V50.7917V50.7921V50.7926V50.793V50.7934V50.7938V50.7942V50.7946V50.7951V50.7955V50.7959V50.7963V50.7967V50.7971V50.7976V50.798V50.7984V50.7988V50.7992V50.7997V50.8001V50.8005V50.8009V50.8013V50.8017V50.8022V50.8026V50.803V50.8034V50.8038V50.8043V50.8047V50.8051V50.8055V50.8059V50.8063V50.8068V50.8072V50.8076V50.808V50.8084V50.8088V50.8093V50.8097V50.8101V50.8105V50.8109V50.8114V50.8118V50.8122V50.8126V50.813V50.8134V50.8139V50.8143V50.8147V50.8151V50.8155V50.8159V50.8164V50.8168V50.8172V50.8176V50.818V50.8185V50.8189V50.8193V50.8197V50.8201V50.8205V50.821V50.8214V50.8218V50.8222V50.8226V50.823V50.8235V50.8239V50.8243V50.8247V50.8251V50.8256V50.826V50.8264V50.8268V50.8272V50.8276V50.8281V50.8285V50.8289V50.8293V50.8297V50.8301V50.8306V50.831V50.8314V50.8318V50.8322V50.8327V50.8331V50.8335V50.8339V50.8343V50.8347V50.8352V50.8356V50.836V50.8364V50.8368V50.8373V50.8377V50.8381V50.8385V50.8389V50.8393V50.8398V50.8402V50.8406V50.841V50.8414V50.8418V50.8423V50.8427V50.8431V50.8435V50.8439V50.8444V50.8448V50.8452V50.8456V50.846V50.8464V50.8469V50.8473V50.8477V50.8481V50.8485V50.8489V50.8494V50.8498V50.8502V50.8506V50.851C54.6512 50.9267 54.6388 50.9576 54.6371 50.9618L54.6359 50.9642L54.6356 50.9646L54.6336 50.967C54.6323 50.9684 54.6299 50.9708 54.6261 50.974C54.5413 51.0467 54.4915 51.0541 54.4482 51.0541C54.4383 51.0541 54.4012 51.0531 54.3269 51.0125C54.325 51.0079 54.3228 51.0024 54.3205 50.9959L54.3206 50.9959L54.3161 50.9838L53.5612 48.9533C53.5009 48.7367 53.3729 48.5038 53.1367 48.3267C52.8707 48.1272 52.5839 48.0866 52.3896 48.0866H48.7805C48.5782 48.0866 48.3185 48.1303 48.0721 48.2946C47.8213 48.4618 47.6723 48.6951 47.5953 48.9186L46.8798 50.9375C46.8377 51.0019 46.8003 51.0328 46.7732 51.05C46.7247 51.0809 46.7037 51.0808 46.6959 51.0808L46.6952 51.0808C46.6809 51.0808 46.6235 51.0807 46.5077 50.9921C46.5016 50.9862 46.4986 50.9824 46.4975 50.981C46.4973 50.9807 46.4971 50.9805 46.497 50.9803C46.4967 50.9793 46.4962 50.9775 46.4956 50.9747C46.4943 50.9682 46.4922 50.9544 46.4922 50.9312C46.4922 50.9153 46.495 50.8764 46.5156 50.81L49.8729 42.0436C49.8732 42.043 49.8734 42.0424 49.8736 42.0418C49.9191 41.9258 49.9741 41.8714 50.0461 41.8309C50.1939 41.7478 50.3204 41.7188 50.438 41.7188C50.5836 41.7188 50.7181 41.753 50.8567 41.8309ZM52.5759 46.2988L52.5659 46.2639L52.5534 46.2297L51.8583 44.3316L51.8583 44.3315L51.8556 44.3243C51.7789 44.1197 51.6615 43.8767 51.4683 43.6707C51.2569 43.4451 50.9337 43.2477 50.5182 43.2477C50.0797 43.2477 49.7515 43.4688 49.5478 43.6997C49.3609 43.9115 49.2481 44.16 49.1742 44.3693L49.174 44.37L48.5056 46.2682L48.5028 46.2761L48.5002 46.2841C48.3811 46.6414 48.4006 47.0464 48.6181 47.4089L48.6446 47.4531L48.6756 47.4944C48.986 47.9083 49.4375 48.0013 49.7429 48.0013H51.3203C51.6671 48.0013 52.0703 47.8722 52.351 47.5073C52.6462 47.1302 52.6853 46.6817 52.5759 46.2988ZM58.7445 41.8803L58.7587 41.8945L58.7734 41.908C58.7827 41.9166 58.7867 41.922 58.788 41.9238C58.7891 41.9254 58.7896 41.9263 58.7901 41.9276L58.7901 41.9276C58.7906 41.9288 58.7992 41.9489 58.7992 42.002V50.958C58.7992 51.0118 58.7904 51.0317 58.7901 51.0324C58.7896 51.0337 58.7891 51.0346 58.788 51.0362C58.7868 51.0379 58.7831 51.0428 58.7747 51.0507C58.7723 51.0528 58.7668 51.0566 58.7523 51.0616C58.7314 51.0688 58.6834 51.0808 58.5962 51.0808C58.4886 51.0808 58.4515 51.0553 58.4189 51.0252C58.407 51.0142 58.4013 51.0069 58.3993 51.0041C58.3974 51.0014 58.3972 51.0008 58.3976 51.0015C58.3977 51.0018 58.3976 51.0016 58.3973 51.0009C58.397 50.9999 58.3965 50.9982 58.396 50.9953C58.3949 50.9897 58.3931 50.9778 58.3931 50.958V42.002C58.3931 41.9489 58.4017 41.9288 58.4022 41.9276L58.4022 41.9276C58.4027 41.9263 58.4032 41.9254 58.4043 41.9238C58.4056 41.922 58.4096 41.9166 58.4189 41.908C58.4515 41.878 58.4886 41.8524 58.5962 41.8524C58.6745 41.8524 58.7133 41.8641 58.7262 41.869C58.7361 41.8727 58.7393 41.8751 58.7445 41.8803Z" stroke="white" stroke-width="2"/>
</g>
<defs>
<filter id="filter0_d_427_2053" x="0.0527344" y="0" width="105" height="105" filterUnits="userSpaceOnUse" color-interpolation-filters="sRGB">
<feFlood flood-opacity="0" result="BackgroundImageFix"/>
<feColorMatrix in="SourceAlpha" type="matrix" values="0 0 0 0 0 0 0 0 0 0 0 0 0 0 0 0 0 0 127 0" result="hardAlpha"/>
<feOffset dy="6"/>
<feGaussianBlur stdDeviation="4"/>
<feComposite in2="hardAlpha" operator="out"/>
<feColorMatrix type="matrix" values="0 0 0 0 0 0 0 0 0 0 0 0 0 0 0 0 0 0 0.2 0"/>
<feBlend mode="normal" in2="BackgroundImageFix" result="effect1_dropShadow_427_2053"/>
<feBlend mode="normal" in="SourceGraphic" in2="effect1_dropShadow_427_2053" result="shape"/>
</filter>
<linearGradient id="paint0_linear_427_2053" x1="49.5182" y1="23.9002" x2="51.3604" y2="24.0481" gradientUnits="userSpaceOnUse">
<stop stop-color="#7AA7FF"/>
<stop offset="0.252" stop-color="#318EFC"/>
<stop offset="0.555" stop-color="#1B6BE3"/>
<stop offset="0.815" stop-color="#276BEF"/>
<stop offset="1" stop-color="#0C46DB"/>
</linearGradient>
<linearGradient id="paint1_linear_427_2053" x1="47.5212" y1="17.8095" x2="52.6058" y2="22.8942" gradientUnits="userSpaceOnUse">
<stop stop-color="#7AA7FF"/>
<stop offset="0.252" stop-color="#318EFC"/>
<stop offset="0.555" stop-color="#1B6BE3"/>
<stop offset="0.815" stop-color="#276BEF"/>
<stop offset="1" stop-color="#0C46DB"/>
</linearGradient>
<linearGradient id="paint2_linear_427_2053" x1="55.7352" y1="30.7641" x2="57.5862" y2="31.0954" gradientUnits="userSpaceOnUse">
<stop stop-color="#7AA7FF"/>
<stop offset="0.252" stop-color="#318EFC"/>
<stop offset="0.555" stop-color="#1B6BE3"/>
<stop offset="0.815" stop-color="#276BEF"/>
<stop offset="1" stop-color="#0C46DB"/>
</linearGradient>
<linearGradient id="paint3_linear_427_2053" x1="53.7632" y1="25.5676" x2="58.8478" y2="30.6241" gradientUnits="userSpaceOnUse">
<stop stop-color="#7AA7FF"/>
<stop offset="0.252" stop-color="#318EFC"/>
<stop offset="0.555" stop-color="#1B6BE3"/>
<stop offset="0.815" stop-color="#276BEF"/>
<stop offset="1" stop-color="#0C46DB"/>
</linearGradient>
<linearGradient id="paint4_linear_427_2053" x1="62.67" y1="25.7946" x2="71.384" y2="31.0728" gradientUnits="userSpaceOnUse">
<stop stop-color="#7AA7FF"/>
<stop offset="0.252" stop-color="#318EFC"/>
<stop offset="0.555" stop-color="#1B6BE3"/>
<stop offset="0.815" stop-color="#276BEF"/>
<stop offset="1" stop-color="#0C46DB"/>
</linearGradient>
<linearGradient id="paint5_linear_427_2053" x1="68.7927" y1="22.5445" x2="73.8492" y2="27.6291" gradientUnits="userSpaceOnUse">
<stop stop-color="#7AA7FF"/>
<stop offset="0.252" stop-color="#318EFC"/>
<stop offset="0.555" stop-color="#1B6BE3"/>
<stop offset="0.815" stop-color="#276BEF"/>
<stop offset="1" stop-color="#0C46DB"/>
</linearGradient>
<linearGradient id="paint6_linear_427_2053" x1="37.7773" y1="25.7946" x2="46.4721" y2="31.0363" gradientUnits="userSpaceOnUse">
<stop stop-color="#7AA7FF"/>
<stop offset="0.252" stop-color="#318EFC"/>
<stop offset="0.555" stop-color="#1B6BE3"/>
<stop offset="0.815" stop-color="#276BEF"/>
<stop offset="1" stop-color="#0C46DB"/>
</linearGradient>
<linearGradient id="paint7_linear_427_2053" x1="32.4917" y1="22.5445" x2="37.5483" y2="27.601" gradientUnits="userSpaceOnUse">
<stop stop-color="#7AA7FF"/>
<stop offset="0.252" stop-color="#318EFC"/>
<stop offset="0.555" stop-color="#1B6BE3"/>
<stop offset="0.815" stop-color="#276BEF"/>
<stop offset="1" stop-color="#0C46DB"/>
</linearGradient>
<linearGradient id="paint8_linear_427_2053" x1="66.6907" y1="40.2389" x2="66.8654" y2="42.0764" gradientUnits="userSpaceOnUse">
<stop stop-color="#7AA7FF"/>
<stop offset="0.252" stop-color="#318EFC"/>
<stop offset="0.555" stop-color="#1B6BE3"/>
<stop offset="0.815" stop-color="#276BEF"/>
<stop offset="1" stop-color="#0C46DB"/>
</linearGradient>
<linearGradient id="paint9_linear_427_2053" x1="77.0427" y1="38.2402" x2="82.1273" y2="43.3248" gradientUnits="userSpaceOnUse">
<stop stop-color="#7AA7FF"/>
<stop offset="0.252" stop-color="#318EFC"/>
<stop offset="0.555" stop-color="#1B6BE3"/>
<stop offset="0.815" stop-color="#276BEF"/>
<stop offset="1" stop-color="#0C46DB"/>
</linearGradient>
<linearGradient id="paint10_linear_427_2053" x1="65.8008" y1="46.593" x2="66.2521" y2="48.3298" gradientUnits="userSpaceOnUse">
<stop stop-color="#7AA7FF"/>
<stop offset="0.252" stop-color="#318EFC"/>
<stop offset="0.555" stop-color="#1B6BE3"/>
<stop offset="0.815" stop-color="#276BEF"/>
<stop offset="1" stop-color="#0C46DB"/>
</linearGradient>
<linearGradient id="paint11_linear_427_2053" x1="69.32" y1="44.5939" x2="74.4047" y2="49.6786" gradientUnits="userSpaceOnUse">
<stop stop-color="#7AA7FF"/>
<stop offset="0.252" stop-color="#318EFC"/>
<stop offset="0.555" stop-color="#1B6BE3"/>
<stop offset="0.815" stop-color="#276BEF"/>
<stop offset="1" stop-color="#0C46DB"/>
</linearGradient>
<linearGradient id="paint12_linear_427_2053" x1="66.6907" y1="52.9118" x2="66.8654" y2="54.7493" gradientUnits="userSpaceOnUse">
<stop stop-color="#7AA7FF"/>
<stop offset="0.252" stop-color="#318EFC"/>
<stop offset="0.555" stop-color="#1B6BE3"/>
<stop offset="0.815" stop-color="#276BEF"/>
<stop offset="1" stop-color="#0C46DB"/>
</linearGradient>
<linearGradient id="paint13_linear_427_2053" x1="77.0427" y1="50.9125" x2="82.1273" y2="55.9972" gradientUnits="userSpaceOnUse">
<stop stop-color="#7AA7FF"/>
<stop offset="0.252" stop-color="#318EFC"/>
<stop offset="0.555" stop-color="#1B6BE3"/>
<stop offset="0.815" stop-color="#276BEF"/>
<stop offset="1" stop-color="#0C46DB"/>
</linearGradient>
<linearGradient id="paint14_linear_427_2053" x1="49.5182" y1="59.0703" x2="51.3604" y2="59.2185" gradientUnits="userSpaceOnUse">
<stop stop-color="#7AA7FF"/>
<stop offset="0.252" stop-color="#318EFC"/>
<stop offset="0.555" stop-color="#1B6BE3"/>
<stop offset="0.815" stop-color="#276BEF"/>
<stop offset="1" stop-color="#0C46DB"/>
</linearGradient>
<linearGradient id="paint15_linear_427_2053" x1="47.5212" y1="71.3781" x2="52.6058" y2="76.4628" gradientUnits="userSpaceOnUse">
<stop stop-color="#7AA7FF"/>
<stop offset="0.252" stop-color="#318EFC"/>
<stop offset="0.555" stop-color="#1B6BE3"/>
<stop offset="0.815" stop-color="#276BEF"/>
<stop offset="1" stop-color="#0C46DB"/>
</linearGradient>
<linearGradient id="paint16_linear_427_2053" x1="55.7352" y1="58.1763" x2="57.5856" y2="58.5092" gradientUnits="userSpaceOnUse">
<stop stop-color="#7AA7FF"/>
<stop offset="0.252" stop-color="#318EFC"/>
<stop offset="0.555" stop-color="#1B6BE3"/>
<stop offset="0.815" stop-color="#276BEF"/>
<stop offset="1" stop-color="#0C46DB"/>
</linearGradient>
<linearGradient id="paint17_linear_427_2053" x1="53.7632" y1="63.6203" x2="58.8478" y2="68.6768" gradientUnits="userSpaceOnUse">
<stop stop-color="#7AA7FF"/>
<stop offset="0.252" stop-color="#318EFC"/>
<stop offset="0.555" stop-color="#1B6BE3"/>
<stop offset="0.815" stop-color="#276BEF"/>
<stop offset="1" stop-color="#0C46DB"/>
</linearGradient>
<linearGradient id="paint18_linear_427_2053" x1="62.67" y1="58.8235" x2="71.3706" y2="64.1087" gradientUnits="userSpaceOnUse">
<stop stop-color="#7AA7FF"/>
<stop offset="0.252" stop-color="#318EFC"/>
<stop offset="0.555" stop-color="#1B6BE3"/>
<stop offset="0.815" stop-color="#276BEF"/>
<stop offset="1" stop-color="#0C46DB"/>
</linearGradient>
<linearGradient id="paint19_linear_427_2053" x1="68.7927" y1="66.6393" x2="73.8773" y2="71.724" gradientUnits="userSpaceOnUse">
<stop stop-color="#7AA7FF"/>
<stop offset="0.252" stop-color="#318EFC"/>
<stop offset="0.555" stop-color="#1B6BE3"/>
<stop offset="0.815" stop-color="#276BEF"/>
<stop offset="1" stop-color="#0C46DB"/>
</linearGradient>
<linearGradient id="paint20_linear_427_2053" x1="37.7773" y1="58.8235" x2="46.4588" y2="64.0722" gradientUnits="userSpaceOnUse">
<stop stop-color="#7AA7FF"/>
<stop offset="0.252" stop-color="#318EFC"/>
<stop offset="0.555" stop-color="#1B6BE3"/>
<stop offset="0.815" stop-color="#276BEF"/>
<stop offset="1" stop-color="#0C46DB"/>
</linearGradient>
<linearGradient id="paint21_linear_427_2053" x1="32.4917" y1="66.6393" x2="37.5763" y2="71.6958" gradientUnits="userSpaceOnUse">
<stop stop-color="#7AA7FF"/>
<stop offset="0.252" stop-color="#318EFC"/>
<stop offset="0.555" stop-color="#1B6BE3"/>
<stop offset="0.815" stop-color="#276BEF"/>
<stop offset="1" stop-color="#0C46DB"/>
</linearGradient>
<linearGradient id="paint22_linear_427_2053" x1="30.0774" y1="40.2392" x2="30.2521" y2="42.0766" gradientUnits="userSpaceOnUse">
<stop stop-color="#7AA7FF"/>
<stop offset="0.252" stop-color="#318EFC"/>
<stop offset="0.555" stop-color="#1B6BE3"/>
<stop offset="0.815" stop-color="#276BEF"/>
<stop offset="1" stop-color="#0C46DB"/>
</linearGradient>
<linearGradient id="paint23_linear_427_2053" x1="24.2458" y1="38.2402" x2="29.3304" y2="43.3248" gradientUnits="userSpaceOnUse">
<stop stop-color="#7AA7FF"/>
<stop offset="0.252" stop-color="#318EFC"/>
<stop offset="0.555" stop-color="#1B6BE3"/>
<stop offset="0.815" stop-color="#276BEF"/>
<stop offset="1" stop-color="#0C46DB"/>
</linearGradient>
<linearGradient id="paint24_linear_427_2053" x1="36.9102" y1="46.593" x2="37.3615" y2="48.3298" gradientUnits="userSpaceOnUse">
<stop stop-color="#7AA7FF"/>
<stop offset="0.252" stop-color="#318EFC"/>
<stop offset="0.555" stop-color="#1B6BE3"/>
<stop offset="0.815" stop-color="#276BEF"/>
<stop offset="1" stop-color="#0C46DB"/>
</linearGradient>
<linearGradient id="paint25_linear_427_2053" x1="31.9684" y1="44.5939" x2="37.0531" y2="49.6786" gradientUnits="userSpaceOnUse">
<stop stop-color="#7AA7FF"/>
<stop offset="0.252" stop-color="#318EFC"/>
<stop offset="0.555" stop-color="#1B6BE3"/>
<stop offset="0.815" stop-color="#276BEF"/>
<stop offset="1" stop-color="#0C46DB"/>
</linearGradient>
<linearGradient id="paint26_linear_427_2053" x1="30.0774" y1="52.9156" x2="30.2628" y2="54.8077" gradientUnits="userSpaceOnUse">
<stop stop-color="#7AA7FF"/>
<stop offset="0.252" stop-color="#318EFC"/>
<stop offset="0.555" stop-color="#1B6BE3"/>
<stop offset="0.815" stop-color="#276BEF"/>
<stop offset="1" stop-color="#0C46DB"/>
</linearGradient>
<linearGradient id="paint27_linear_427_2053" x1="24.2458" y1="50.9437" x2="29.3023" y2="56.0282" gradientUnits="userSpaceOnUse">
<stop stop-color="#7AA7FF"/>
<stop offset="0.252" stop-color="#318EFC"/>
<stop offset="0.555" stop-color="#1B6BE3"/>
<stop offset="0.815" stop-color="#276BEF"/>
<stop offset="1" stop-color="#0C46DB"/>
</linearGradient>
<linearGradient id="paint28_linear_427_2053" x1="42.7815" y1="38.1334" x2="61.0653" y2="59.3349" gradientUnits="userSpaceOnUse">
<stop stop-color="#7AA7FF"/>
<stop offset="0.252" stop-color="#318EFC"/>
<stop offset="0.555" stop-color="#1B6BE3"/>
<stop offset="0.815" stop-color="#276BEF"/>
<stop offset="1" stop-color="#0C46DB"/>
</linearGradient>
<clipPath id="clip0_427_2053">
<rect width="59.9226" height="59.9226" fill="white" transform="translate(23.1289 17.0774)"/>
</clipPath>
</defs>
</svg>
