<svg width="107" height="106" viewBox="0 0 107 106" fill="none" xmlns="http://www.w3.org/2000/svg">
<g filter="url(#filter0_d_427_2021)">
<rect x="9" y="2" width="89.1232" height="89.1232" rx="10.0138" fill="white"/>
</g>
<path d="M67.0189 20.2629H41.1821C34.0474 20.2629 28.2637 26.0467 28.2637 33.1813V59.0181C28.2637 66.1528 34.0474 71.9365 41.1821 71.9365H67.0189C74.1535 71.9365 79.9373 66.1528 79.9373 59.0181V33.1813C79.9373 26.0467 74.1535 20.2629 67.0189 20.2629Z" fill="url(#paint0_linear_427_2021)"/>
<path d="M46.3501 53.2048C46.0956 53.2049 45.8436 53.1548 45.6084 53.0575C45.3732 52.9602 45.1595 52.8175 44.9795 52.6376L39.8121 47.4703C39.6321 47.2903 39.4892 47.0767 39.3918 46.8415C39.2943 46.6063 39.2441 46.3542 39.2441 46.0996C39.2441 45.8451 39.2943 45.593 39.3918 45.3578C39.4892 45.1226 39.6321 44.9089 39.8121 44.729L44.9795 39.5616C45.343 39.1981 45.836 38.9939 46.3501 38.9939C46.8642 38.9939 47.3573 39.1981 47.7208 39.5616C48.0843 39.9252 48.2885 40.4182 48.2885 40.9323C48.2885 41.4464 48.0843 41.9394 47.7208 42.3029L43.9228 46.0996L47.7208 49.8964C47.992 50.1674 48.1767 50.5127 48.2515 50.8887C48.3263 51.2647 48.288 51.6545 48.1412 52.0087C47.9945 52.3629 47.746 52.6656 47.4272 52.8785C47.1083 53.0914 46.7335 53.2049 46.3501 53.2048Z" fill="white"/>
<g opacity="0.9">
<path d="M61.8488 53.2048C61.4654 53.2049 61.0906 53.0914 60.7718 52.8785C60.4529 52.6656 60.2044 52.3629 60.0577 52.0087C59.911 51.6545 59.8726 51.2647 59.9474 50.8887C60.0223 50.5127 60.207 50.1674 60.4782 49.8964L64.2762 46.0996L60.4782 42.3029C60.2982 42.1229 60.1554 41.9092 60.058 41.6741C59.9606 41.4389 59.9104 41.1868 59.9104 40.9323C59.9104 40.6777 59.9606 40.4257 60.058 40.1905C60.1554 39.9553 60.2982 39.7416 60.4782 39.5616C60.8417 39.1981 61.3347 38.9939 61.8488 38.9939C62.1033 38.9939 62.3554 39.044 62.5906 39.1414C62.8258 39.2389 63.0394 39.3816 63.2194 39.5616L68.3868 44.729C68.5669 44.9089 68.7097 45.1226 68.8072 45.3578C68.9046 45.593 68.9548 45.8451 68.9548 46.0996C68.9548 46.3542 68.9046 46.6063 68.8072 46.8415C68.7097 47.0767 68.5669 47.2903 68.3868 47.4703L63.2194 52.6376C63.0394 52.8175 62.8257 52.9602 62.5905 53.0575C62.3554 53.1548 62.1033 53.2049 61.8488 53.2048Z" fill="white"/>
</g>
<g opacity="0.5">
<path d="M56.431 36.9847L56.4356 36.9687L56.4399 36.9525C56.4488 36.9188 56.4643 36.8872 56.4856 36.8596C56.5069 36.832 56.5334 36.8089 56.5638 36.7916C56.5941 36.7744 56.6275 36.7634 56.6621 36.7592C56.6968 36.7551 56.7319 36.7579 56.7654 36.7674C56.7989 36.777 56.8302 36.7932 56.8574 36.815C56.8846 36.8368 56.9072 36.8638 56.9238 36.8945C56.9405 36.9251 56.9508 36.9588 56.9543 36.9935C56.9577 37.0282 56.9542 37.0633 56.944 37.0966L56.9391 37.1125L56.9345 37.1286L51.7672 55.2143L51.7671 55.2144C51.7515 55.2692 51.7185 55.3173 51.673 55.3517C51.628 55.3856 51.5733 55.4042 51.517 55.4046C51.492 55.4044 51.4671 55.4008 51.443 55.394C51.3765 55.3747 51.3203 55.33 51.2867 55.2695C51.253 55.2088 51.2447 55.1372 51.2637 55.0705C51.2637 55.0704 51.2637 55.0703 51.2637 55.0703C51.2637 55.0702 51.2637 55.0702 51.2638 55.0702L56.431 36.9847Z" fill="white" stroke="white" stroke-width="3.35111"/>
</g>
<defs>
<filter id="filter0_d_427_2021" x="0.988929" y="-0.00276804" width="105.145" height="105.145" filterUnits="userSpaceOnUse" color-interpolation-filters="sRGB">
<feFlood flood-opacity="0" result="BackgroundImageFix"/>
<feColorMatrix in="SourceAlpha" type="matrix" values="0 0 0 0 0 0 0 0 0 0 0 0 0 0 0 0 0 0 127 0" result="hardAlpha"/>
<feOffset dy="6.0083"/>
<feGaussianBlur stdDeviation="4.00554"/>
<feComposite in2="hardAlpha" operator="out"/>
<feColorMatrix type="matrix" values="0 0 0 0 0 0 0 0 0 0 0 0 0 0 0 0 0 0 0.2 0"/>
<feBlend mode="normal" in2="BackgroundImageFix" result="effect1_dropShadow_427_2021"/>
<feBlend mode="normal" in="SourceGraphic" in2="effect1_dropShadow_427_2021" result="shape"/>
</filter>
<linearGradient id="paint0_linear_427_2021" x1="34.2178" y1="26.217" x2="75.5695" y2="67.5688" gradientUnits="userSpaceOnUse">
<stop stop-color="#7AA7FF"/>
<stop offset="0.252" stop-color="#318EFC"/>
<stop offset="0.555" stop-color="#1B6BE3"/>
<stop offset="0.815" stop-color="#276BEF"/>
<stop offset="1" stop-color="#0C46DB"/>
</linearGradient>
</defs>
</svg>
