<svg width="65" height="65" viewBox="0 0 65 65" fill="none" xmlns="http://www.w3.org/2000/svg">
<rect width="65" height="65" rx="10" fill="url(#paint0_linear_429_2328)"/>
<g clip-path="url(#clip0_429_2328)">
<path fill-rule="evenodd" clip-rule="evenodd" d="M30.6239 25.3174C30.3932 25.3174 30.1881 25.1123 30.1881 24.8816V15.2161C30.1881 14.9854 30.3932 14.7803 30.6239 14.7803C30.8547 14.7803 31.0341 14.9854 31.0341 15.2161V24.8816C31.0341 25.1123 30.8547 25.3174 30.6239 25.3174Z" fill="white"/>
<path fill-rule="evenodd" clip-rule="evenodd" d="M30.624 15.6519C29.3421 15.6519 28.291 14.6008 28.291 13.3189C28.291 12.0626 29.3421 11.0115 30.624 11.0115C31.9059 11.0115 32.9314 12.0626 32.9314 13.3189C32.9314 14.6008 31.9059 15.6519 30.624 15.6519Z" fill="white"/>
<path fill-rule="evenodd" clip-rule="evenodd" d="M35.1614 25.3175C34.9307 25.3175 34.7256 25.1124 34.7256 24.8816V20.8821C34.7256 20.6514 34.9307 20.4463 35.1614 20.4463C35.3921 20.4463 35.5972 20.6514 35.5972 20.8821V24.8816C35.5972 25.1124 35.3921 25.3175 35.1614 25.3175Z" fill="white"/>
<path fill-rule="evenodd" clip-rule="evenodd" d="M35.1614 21.3179C33.8795 21.3179 32.854 20.2668 32.854 18.9849C32.854 17.7286 33.8795 16.6775 35.1614 16.6775C36.4433 16.6775 37.4688 17.7286 37.4688 18.9849C37.4688 20.2668 36.4433 21.3179 35.1614 21.3179Z" fill="white"/>
<path fill-rule="evenodd" clip-rule="evenodd" d="M39.6997 25.3175C39.469 25.3175 39.2639 25.1124 39.2639 24.8816V18.626C39.2639 17.3697 40.2894 16.3442 41.5456 16.3442H44.2632C44.494 16.3442 44.6991 16.5493 44.6991 16.7801C44.6991 17.0108 44.494 17.2159 44.2632 17.2159H41.5456C40.7765 17.2159 40.1355 17.8312 40.1355 18.626V24.8816C40.1355 25.1124 39.9304 25.3175 39.6997 25.3175Z" fill="white"/>
<path fill-rule="evenodd" clip-rule="evenodd" d="M46.1602 19.0875C44.8783 19.0875 43.8271 18.0619 43.8271 16.7801C43.8271 15.4982 44.8783 14.4727 46.1602 14.4727C47.4421 14.4727 48.4676 15.4982 48.4676 16.7801C48.4676 18.0619 47.4421 19.0875 46.1602 19.0875Z" fill="white"/>
<path fill-rule="evenodd" clip-rule="evenodd" d="M26.0861 25.3175C25.8297 25.3175 25.6503 25.1124 25.6503 24.8816V18.626C25.6503 17.8312 25.0093 17.2159 24.2402 17.2159H21.5226C21.2662 17.2159 21.0867 17.0108 21.0867 16.7801C21.0867 16.5493 21.2662 16.3442 21.5226 16.3442H24.2402C25.4964 16.3442 26.4963 17.3697 26.4963 18.626V24.8816C26.4963 25.1124 26.3168 25.3175 26.0861 25.3175Z" fill="white"/>
<path fill-rule="evenodd" clip-rule="evenodd" d="M19.6255 19.0875C18.3436 19.0875 17.3181 18.0619 17.3181 16.7801C17.3181 15.4982 18.3436 14.4727 19.6255 14.4727C20.9074 14.4727 21.9329 15.4982 21.9329 16.7801C21.9329 18.0619 20.9074 19.0875 19.6255 19.0875Z" fill="white"/>
<path fill-rule="evenodd" clip-rule="evenodd" d="M50.2882 28.6759H42.2379C42.0072 28.6759 41.8021 28.4708 41.8021 28.24C41.8021 28.0093 42.0072 27.8298 42.2379 27.8298H50.2882C50.5189 27.8298 50.6984 28.0093 50.6984 28.24C50.6984 28.4708 50.5189 28.6759 50.2882 28.6759Z" fill="white"/>
<path fill-rule="evenodd" clip-rule="evenodd" d="M52.1596 30.5731C50.9034 30.5731 49.8522 29.5219 49.8522 28.24C49.8522 26.9581 50.9034 25.9326 52.1596 25.9326C53.4415 25.9326 54.4927 26.9581 54.4927 28.24C54.4927 29.5219 53.4415 30.5731 52.1596 30.5731Z" fill="white"/>
<path fill-rule="evenodd" clip-rule="evenodd" d="M44.6479 33.3163H42.2379C42.0072 33.3163 41.8021 33.1368 41.8021 32.8804C41.8021 32.6497 42.0072 32.4702 42.2379 32.4702H44.6479C44.8786 32.4702 45.0581 32.6497 45.0581 32.8804C45.0581 33.1368 44.8786 33.3163 44.6479 33.3163Z" fill="white"/>
<path fill-rule="evenodd" clip-rule="evenodd" d="M46.5195 35.2137C45.2632 35.2137 44.2121 34.1625 44.2121 32.8806C44.2121 31.6244 45.2632 30.5732 46.5195 30.5732C47.8014 30.5732 48.8525 31.6244 48.8525 32.8806C48.8525 34.1625 47.8014 35.2137 46.5195 35.2137Z" fill="white"/>
<path fill-rule="evenodd" clip-rule="evenodd" d="M50.2882 37.9313H42.2379C42.0072 37.9313 41.8021 37.7518 41.8021 37.4954C41.8021 37.2647 42.0072 37.0852 42.2379 37.0852H50.2882C50.5189 37.0852 50.6984 37.2647 50.6984 37.4954C50.6984 37.7518 50.5189 37.9313 50.2882 37.9313Z" fill="white"/>
<path fill-rule="evenodd" clip-rule="evenodd" d="M52.1596 39.8284C50.9034 39.8284 49.8522 38.7773 49.8522 37.4954C49.8522 36.2391 50.9034 35.188 52.1596 35.188C53.4415 35.188 54.4927 36.2391 54.4927 37.4954C54.4927 38.7773 53.4415 39.8284 52.1596 39.8284Z" fill="white"/>
<path fill-rule="evenodd" clip-rule="evenodd" d="M30.6239 50.9807C30.3932 50.9807 30.1881 50.8013 30.1881 50.5705V40.9051C30.1881 40.6487 30.3932 40.4692 30.6239 40.4692C30.8547 40.4692 31.0341 40.6487 31.0341 40.9051V50.5705C31.0341 50.8013 30.8547 50.9807 30.6239 50.9807Z" fill="white"/>
<path fill-rule="evenodd" clip-rule="evenodd" d="M30.624 54.7752C29.3421 54.7752 28.291 53.7241 28.291 52.4422C28.291 51.1603 29.3421 50.1348 30.624 50.1348C31.9059 50.1348 32.9314 51.1603 32.9314 52.4422C32.9314 53.7241 31.9059 54.7752 30.624 54.7752Z" fill="white"/>
<path fill-rule="evenodd" clip-rule="evenodd" d="M35.1614 45.3148C34.9307 45.3148 34.7256 45.1353 34.7256 44.9046V40.9051C34.7256 40.6487 34.9307 40.4692 35.1614 40.4692C35.3921 40.4692 35.5972 40.6487 35.5972 40.9051V44.9046C35.5972 45.1353 35.3921 45.3148 35.1614 45.3148Z" fill="white"/>
<path fill-rule="evenodd" clip-rule="evenodd" d="M35.1614 49.1092C33.8795 49.1092 32.854 48.058 32.854 46.7762C32.854 45.4943 33.8795 44.4688 35.1614 44.4688C36.4433 44.4688 37.4688 45.4943 37.4688 46.7762C37.4688 48.058 36.4433 49.1092 35.1614 49.1092Z" fill="white"/>
<path fill-rule="evenodd" clip-rule="evenodd" d="M44.2632 49.4168H41.5456C40.2894 49.4168 39.2639 48.417 39.2639 47.1607V40.9051C39.2639 40.6487 39.469 40.4692 39.6997 40.4692C39.9304 40.4692 40.1355 40.6487 40.1355 40.9051V47.1607C40.1355 47.9298 40.7765 48.5708 41.5456 48.5708H44.2632C44.494 48.5708 44.6991 48.7502 44.6991 49.0066C44.6991 49.2374 44.494 49.4168 44.2632 49.4168Z" fill="white"/>
<path fill-rule="evenodd" clip-rule="evenodd" d="M46.1602 51.314C44.8783 51.314 43.8271 50.2629 43.8271 49.0066C43.8271 47.7247 44.8783 46.6736 46.1602 46.6736C47.4421 46.6736 48.4676 47.7247 48.4676 49.0066C48.4676 50.2629 47.4421 51.314 46.1602 51.314Z" fill="white"/>
<path fill-rule="evenodd" clip-rule="evenodd" d="M24.2402 49.4168H21.5226C21.2662 49.4168 21.0867 49.2374 21.0867 49.0066C21.0867 48.7502 21.2662 48.5708 21.5226 48.5708H24.2402C25.0093 48.5708 25.6503 47.9298 25.6503 47.1607V40.9051C25.6503 40.6487 25.8297 40.4692 26.0861 40.4692C26.3168 40.4692 26.4963 40.6487 26.4963 40.9051V47.1607C26.4963 48.417 25.4964 49.4168 24.2402 49.4168Z" fill="white"/>
<path fill-rule="evenodd" clip-rule="evenodd" d="M19.6255 51.314C18.3436 51.314 17.3181 50.2629 17.3181 49.0066C17.3181 47.7247 18.3436 46.6736 19.6255 46.6736C20.9074 46.6736 21.9329 47.7247 21.9329 49.0066C21.9329 50.2629 20.9074 51.314 19.6255 51.314Z" fill="white"/>
<path fill-rule="evenodd" clip-rule="evenodd" d="M23.5475 28.6759H15.4972C15.2665 28.6759 15.0614 28.4964 15.0614 28.2657C15.0614 28.0093 15.2665 27.8298 15.4972 27.8298H23.5475C23.7782 27.8298 23.9577 28.0093 23.9577 28.2657C23.9577 28.4964 23.7782 28.6759 23.5475 28.6759Z" fill="white"/>
<path fill-rule="evenodd" clip-rule="evenodd" d="M13.6002 30.5731C12.3439 30.5731 11.2928 29.5475 11.2928 28.2657C11.2928 26.9838 12.3439 25.9326 13.6002 25.9326C14.8821 25.9326 15.9332 26.9838 15.9332 28.2657C15.9332 29.5475 14.8821 30.5731 13.6002 30.5731Z" fill="white"/>
<path fill-rule="evenodd" clip-rule="evenodd" d="M23.5473 33.3163H21.1373C20.9066 33.3163 20.7015 33.1368 20.7015 32.9061C20.7015 32.6753 20.9066 32.4702 21.1373 32.4702H23.5473C23.778 32.4702 23.9575 32.6753 23.9575 32.9061C23.9575 33.1368 23.778 33.3163 23.5473 33.3163Z" fill="white"/>
<path fill-rule="evenodd" clip-rule="evenodd" d="M19.2403 35.2137C17.9584 35.2137 16.9329 34.1882 16.9329 32.9063C16.9329 31.6244 17.9584 30.5732 19.2403 30.5732C20.5222 30.5732 21.5733 31.6244 21.5733 32.9063C21.5733 34.1882 20.5222 35.2137 19.2403 35.2137Z" fill="white"/>
<path fill-rule="evenodd" clip-rule="evenodd" d="M23.5475 37.9569H15.4972C15.2665 37.9569 15.0614 37.7518 15.0614 37.521C15.0614 37.2903 15.2665 37.0852 15.4972 37.0852H23.5475C23.7782 37.0852 23.9577 37.2903 23.9577 37.521C23.9577 37.7518 23.7782 37.9569 23.5475 37.9569Z" fill="white"/>
<path fill-rule="evenodd" clip-rule="evenodd" d="M13.6002 39.8284C12.3439 39.8284 11.2928 38.8029 11.2928 37.521C11.2928 36.2391 12.3439 35.2136 13.6002 35.2136C14.8821 35.2136 15.9332 36.2391 15.9332 37.521C15.9332 38.8029 14.8821 39.8284 13.6002 39.8284Z" fill="white"/>
<path fill-rule="evenodd" clip-rule="evenodd" d="M39.9812 41.3155H25.7779C24.3165 41.3155 23.1115 40.1105 23.1115 38.6491V27.1378C23.1115 25.6508 24.3165 24.4458 25.7779 24.4458H39.9812C41.4682 24.4458 42.6732 25.6508 42.6732 27.1378V38.6491C42.6732 40.1105 41.4682 41.3155 39.9812 41.3155Z" fill="white"/>
<path d="M28.2224 36.5757C28.0142 36.5757 27.8124 36.4976 27.6172 36.3414C27.4349 36.1852 27.3438 35.9835 27.3438 35.7361C27.3438 35.632 27.3633 35.5214 27.4024 35.4042L29.8625 28.9805C29.9537 28.7462 30.1033 28.5705 30.3116 28.4533C30.5199 28.3362 30.7347 28.2776 30.9559 28.2776C31.1902 28.2776 31.4115 28.3362 31.6198 28.4533C31.8411 28.5705 31.9973 28.7462 32.0884 28.9805L34.7243 35.3652C34.7503 35.4172 34.7633 35.4693 34.7633 35.5214C34.7633 35.5734 34.7633 35.6255 34.7633 35.6776C34.7633 35.9509 34.6722 36.1657 34.49 36.3219C34.3077 36.4781 34.106 36.5562 33.8847 36.5562C33.7285 36.5562 33.5723 36.5106 33.4161 36.4195C33.2729 36.3414 33.1688 36.2113 33.1037 36.029L32.5375 34.5061C32.5245 34.428 32.4724 34.3889 32.3813 34.3889H29.7454C29.6543 34.3889 29.5957 34.428 29.5697 34.5061L29.023 36.0485C28.9318 36.2178 28.8147 36.3479 28.6715 36.439C28.5283 36.5302 28.3786 36.5757 28.2224 36.5757ZM30.4483 32.866H31.6003C31.6784 32.866 31.7369 32.8399 31.776 32.7879C31.8281 32.7228 31.8411 32.6447 31.815 32.5536L31.3074 31.1673C31.2293 30.959 31.1317 30.8549 31.0145 30.8549C30.8974 30.8549 30.7997 30.9655 30.7216 31.1868L30.2335 32.5731C30.2075 32.6512 30.214 32.7228 30.253 32.7879C30.2921 32.8399 30.3572 32.866 30.4483 32.866Z" fill="url(#paint1_linear_429_2328)"/>
<path d="M36.9141 36.5757C36.6668 36.5757 36.4585 36.4976 36.2893 36.3414C36.1201 36.1852 36.0355 35.99 36.0355 35.7557V29.2148C36.0355 28.9675 36.1201 28.7657 36.2893 28.6095C36.4585 28.4533 36.6668 28.3752 36.9141 28.3752C37.1745 28.3752 37.3827 28.4533 37.5389 28.6095C37.7081 28.7657 37.7927 28.9675 37.7927 29.2148V35.7557C37.7927 36.003 37.7081 36.2047 37.5389 36.3609C37.3827 36.5041 37.1745 36.5757 36.9141 36.5757Z" fill="url(#paint2_linear_429_2328)"/>
</g>
<defs>
<linearGradient id="paint0_linear_429_2328" x1="7.48963" y1="7.48963" x2="59.5059" y2="59.5059" gradientUnits="userSpaceOnUse">
<stop stop-color="#7AA7FF"/>
<stop offset="0.252" stop-color="#318EFC"/>
<stop offset="0.555" stop-color="#1B6BE3"/>
<stop offset="0.815" stop-color="#276BEF"/>
<stop offset="1" stop-color="#0C46DB"/>
</linearGradient>
<linearGradient id="paint1_linear_429_2328" x1="28.5478" y1="29.2337" x2="35.0158" y2="37.3782" gradientUnits="userSpaceOnUse">
<stop stop-color="#7AA7FF"/>
<stop offset="0.252" stop-color="#318EFC"/>
<stop offset="0.555" stop-color="#1B6BE3"/>
<stop offset="0.815" stop-color="#276BEF"/>
<stop offset="1" stop-color="#0C46DB"/>
</linearGradient>
<linearGradient id="paint2_linear_429_2328" x1="28.5478" y1="29.2337" x2="35.0158" y2="37.3782" gradientUnits="userSpaceOnUse">
<stop stop-color="#7AA7FF"/>
<stop offset="0.252" stop-color="#318EFC"/>
<stop offset="0.555" stop-color="#1B6BE3"/>
<stop offset="0.815" stop-color="#276BEF"/>
<stop offset="1" stop-color="#0C46DB"/>
</linearGradient>
<clipPath id="clip0_429_2328">
<rect width="43.7637" height="43.7637" fill="white" transform="translate(11.0114 11.0115)"/>
</clipPath>
</defs>
</svg>
