<svg width="65" height="65" viewBox="0 0 65 65" fill="none" xmlns="http://www.w3.org/2000/svg">
<rect width="65" height="65" rx="10" fill="url(#paint0_linear_429_2164)"/>
<g clip-path="url(#clip0_429_2164)">
<path d="M49.0529 20.9039V37.1257C49.0529 37.4888 49.0183 37.8436 48.9521 38.1878C48.0369 38.36 47.2025 38.7588 46.5077 39.3235C45.8077 39.8923 45.2493 40.6291 44.8956 41.4729C44.7414 41.8403 44.6259 42.2286 44.5545 42.6316C44.1987 42.703 43.8314 42.7408 43.4546 42.7408H23.5153L18.6905 48.4188C18.5415 48.5952 18.3232 48.697 18.0923 48.697C17.8614 48.697 17.642 48.5952 17.492 48.4188L12.6672 42.7408H11.4413C8.35355 42.7408 5.84198 40.2219 5.84198 37.1257V20.9039C5.84198 17.8077 8.35355 15.2888 11.4413 15.2888H43.4546C46.5413 15.2888 49.0529 17.8077 49.0529 20.9039Z" fill="white"/>
<path d="M41.3566 42.7408C42.698 42.7408 43.9301 42.2653 44.8957 41.4729C44.7414 41.8402 44.626 42.2286 44.5546 42.6316C44.1988 42.703 43.8315 42.7408 43.4547 42.7408H41.3566Z" fill="#6C5FEA"/>
<path d="M49.053 20.9039V37.1258C49.053 37.4889 49.0184 37.8437 48.9522 38.1879C48.037 38.3601 47.2026 38.7589 46.5078 39.3236C46.7954 38.6487 46.9549 37.9056 46.9549 37.1258V20.9039C46.9549 17.8077 44.4434 15.2888 41.3566 15.2888H43.4547C46.5414 15.2888 49.053 17.8077 49.053 20.9039Z" fill="#799EFF"/>
<path d="M59.5791 42.0258C59.5791 41.6396 59.2967 41.31 58.9147 41.2492L57.8284 41.077L57.311 39.8261L57.9565 38.935C58.1832 38.6212 58.1496 38.1898 57.8757 37.916L55.6527 35.6932C55.3788 35.4192 54.9464 35.3856 54.6325 35.6134L53.7436 36.2599L52.4936 35.7425L52.3204 34.6553C52.2595 34.2732 51.9299 33.9919 51.5437 33.9919H50.2076L48.4003 33.993C48.013 33.994 47.6835 34.2753 47.6226 34.6574L47.4505 35.7446L46.2015 36.2631L45.3115 35.6165C44.9977 35.3898 44.5663 35.4234 44.2924 35.6974L42.0705 37.9223C41.7965 38.1962 41.7629 38.6276 41.9907 38.9413L42.6362 39.8313L42.1187 41.0833L41.0335 41.2555C40.6515 41.3163 40.3702 41.6459 40.3702 42.0332L40.3712 45.1785C40.3712 45.5647 40.6536 45.8943 41.0356 45.9552L42.1219 46.1273L42.6393 47.3782L41.9938 48.2692C41.7671 48.583 41.8007 49.0144 42.0747 49.2882L44.2976 51.5111C44.5715 51.785 45.0039 51.8186 45.3167 51.5908L46.2057 50.9443L47.4568 51.4628L47.6299 52.549C47.6908 52.931 48.0204 53.2123 48.4066 53.2123H48.4076L49.9809 53.2112H51.55C51.9373 53.2102 52.2668 52.9289 52.3277 52.5469L52.4998 51.4596L53.7488 50.9412L54.6388 51.5877C54.9527 51.8144 55.3851 51.7808 55.6579 51.5069L57.8799 49.2819C58.1538 49.008 58.1874 48.5766 57.9596 48.2629L57.3141 47.373L57.8316 46.122L58.9168 45.9489C59.2988 45.888 59.5801 45.5584 59.5801 45.1711L59.5791 42.0258ZM49.9746 47.8002C47.6562 47.8002 45.7764 45.9205 45.7764 43.6022C45.7764 41.2838 47.6562 39.4042 49.9746 39.4042C52.2941 39.4042 54.1728 41.2838 54.1728 43.6022C54.1728 45.9205 52.2941 47.8002 49.9746 47.8002Z" fill="white"/>
<mask id="path-6-inside-1_429_2164" fill="white">
<path d="M59.5794 45.171C59.5794 45.5583 59.2981 45.8879 58.9161 45.9488L57.8309 46.1219L57.3134 47.3729L57.9589 48.2629C58.1867 48.5767 58.1531 49.0081 57.8792 49.2819L55.6572 51.5069C55.3844 51.7808 54.952 51.8144 54.6381 51.5877L53.7481 50.9412L52.4991 51.4596L52.327 52.5469C52.2661 52.9289 51.9366 53.2102 51.5493 53.2112H49.9802L50.675 49.9442L54.0294 48.5515L54.9645 49.2306L55.6027 48.5904L54.9247 47.6563L56.3395 44.2339L57.4803 44.0523L57.4793 43.1467L56.3384 42.9661L54.9215 39.5448L55.5995 38.6097L54.9603 37.9705L54.0262 38.6485L50.5302 37.2013L50.2069 33.9919H51.543C51.9292 33.9919 52.2588 34.2732 52.3197 34.6553L52.4929 35.7425L53.7429 36.2599L54.6318 35.6134C54.9457 35.3856 55.3781 35.4192 55.652 35.6932L57.875 37.916C58.1489 38.1899 58.1825 38.6213 57.9558 38.935L57.3103 39.8261L57.8277 41.077L58.914 41.2492C59.296 41.31 59.5784 41.6396 59.5784 42.0258L59.5794 45.171Z"/>
</mask>
<path d="M59.5794 45.171H62.4835V45.1701L59.5794 45.171ZM58.9161 45.9488L58.4591 43.0808L58.4585 43.0809L58.9161 45.9488ZM57.8309 46.1219L57.3732 43.2541L55.7684 43.5102L55.1473 45.0119L57.8309 46.1219ZM57.3134 47.3729L54.6298 46.2629L54.0092 47.7634L54.9625 49.0779L57.3134 47.3729ZM57.9589 48.2629L55.608 49.9679L55.6086 49.9687L57.9589 48.2629ZM57.8792 49.2819L55.826 47.228L55.8242 47.2298L57.8792 49.2819ZM55.6572 51.5069L53.6023 49.4547L53.5998 49.4573L55.6572 51.5069ZM54.6381 51.5877L52.9313 53.9373L52.9375 53.9418L54.6381 51.5877ZM53.7481 50.9412L55.4549 48.5915L54.138 47.6349L52.6347 48.259L53.7481 50.9412ZM52.4991 51.4596L51.3857 48.7774L49.8849 49.4005L49.6308 51.0055L52.4991 51.4596ZM52.327 52.5469L55.195 53.0038L55.1954 53.001L52.327 52.5469ZM51.5493 53.2112V56.1153L51.5572 56.1153L51.5493 53.2112ZM49.9802 53.2112L47.1396 52.6071L46.3935 56.1153H49.9802V53.2112ZM50.675 49.9442L49.5615 47.262L48.1519 47.8473L47.8344 49.3401L50.675 49.9442ZM54.0294 48.5515L55.7358 46.2016L54.4189 45.2454L52.9158 45.8694L54.0294 48.5515ZM54.9645 49.2306L53.2582 51.5805L55.268 53.0399L57.0214 51.2807L54.9645 49.2306ZM55.6027 48.5904L57.6596 50.6405L59.4068 48.8875L57.9529 46.8844L55.6027 48.5904ZM54.9247 47.6563L52.2408 46.5468L51.6203 48.0478L52.5744 49.3622L54.9247 47.6563ZM56.3395 44.2339L55.883 41.3659L54.2769 41.6215L53.6556 43.1244L56.3395 44.2339ZM57.4803 44.0523L57.9368 46.9203L60.3873 46.5303L60.3844 44.0489L57.4803 44.0523ZM57.4793 43.1467L60.3834 43.1433L60.3805 40.6655L57.9331 40.2782L57.4793 43.1467ZM56.3384 42.9661L53.6553 44.0773L54.2777 45.5803L55.8845 45.8346L56.3384 42.9661ZM54.9215 39.5448L52.5703 37.8401L51.6169 39.1552L52.2384 40.656L54.9215 39.5448ZM55.5995 38.6097L57.9507 40.3143L59.4051 38.3082L57.653 36.5561L55.5995 38.6097ZM54.9603 37.9705L57.0139 35.917L55.2608 34.1639L53.2544 35.6202L54.9603 37.9705ZM54.0262 38.6485L52.9155 41.3318L54.417 41.9533L55.7322 40.9987L54.0262 38.6485ZM50.5302 37.2013L47.6407 37.4923L47.8148 39.2203L49.4194 39.8846L50.5302 37.2013ZM50.2069 33.9919V31.0878H46.9956L47.3174 34.283L50.2069 33.9919ZM52.3197 34.6553L55.1876 34.1984L55.1876 34.1983L52.3197 34.6553ZM52.4929 35.7425L49.6249 36.1993L49.8805 37.8042L51.3821 38.4258L52.4929 35.7425ZM53.7429 36.2599L52.6321 38.9432L54.1353 39.5654L55.451 38.6086L53.7429 36.2599ZM54.6318 35.6134L52.9261 33.263L52.9237 33.2647L54.6318 35.6134ZM55.652 35.6932L53.5985 37.7467L53.5985 37.7467L55.652 35.6932ZM57.875 37.916L59.9285 35.8625L59.9284 35.8624L57.875 37.916ZM57.9558 38.935L60.3077 40.6387L60.3096 40.636L57.9558 38.935ZM57.3103 39.8261L54.9584 38.1224L54.0064 39.4366L54.6267 40.9361L57.3103 39.8261ZM57.8277 41.077L55.1441 42.1871L55.7661 43.6907L57.3732 43.9454L57.8277 41.077ZM58.914 41.2492L59.371 38.3812L59.3685 38.3808L58.914 41.2492ZM59.5784 42.0258H56.6743L56.6743 42.0268L59.5784 42.0258ZM56.6753 45.171C56.6753 44.1314 57.4309 43.2447 58.4591 43.0808L59.3731 48.8167C61.1654 48.5311 62.4835 46.9852 62.4835 45.171H56.6753ZM58.4585 43.0809L57.3732 43.2541L58.2885 48.9898L59.3737 48.8166L58.4585 43.0809ZM55.1473 45.0119L54.6298 46.2629L59.997 48.4829L60.5145 47.2319L55.1473 45.0119ZM54.9625 49.0779L55.608 49.9679L60.3098 46.5579L59.6644 45.6679L54.9625 49.0779ZM55.6086 49.9687C55.0002 49.1304 55.0867 47.9671 55.826 47.228L59.9323 51.3358C61.2195 50.0491 61.3732 48.0231 60.3093 46.5571L55.6086 49.9687ZM55.8242 47.2298L53.6023 49.4548L57.7122 53.559L59.9341 51.334L55.8242 47.2298ZM53.5998 49.4573C54.3424 48.7119 55.5044 48.6309 56.3388 49.2336L52.9375 53.9418C54.3995 54.9979 56.4264 54.8497 57.7147 53.5564L53.5998 49.4573ZM56.3449 49.2381L55.4549 48.5915L52.0413 53.2908L52.9313 53.9373L56.3449 49.2381ZM52.6347 48.259L51.3857 48.7774L53.6126 54.1418L54.8616 53.6233L52.6347 48.259ZM49.6308 51.0055L49.4586 52.0928L55.1954 53.001L55.3675 51.9137L49.6308 51.0055ZM49.4591 52.0899C49.6231 51.0605 50.5089 50.3099 51.5414 50.3071L51.5572 56.1153C53.3643 56.1104 54.9092 54.7973 55.195 53.0038L49.4591 52.0899ZM51.5493 50.3071H49.9802V56.1153H51.5493V50.3071ZM52.8208 53.8153L53.5156 50.5483L47.8344 49.3401L47.1396 52.6071L52.8208 53.8153ZM51.7886 52.6263L55.143 51.2337L52.9158 45.8694L49.5615 47.262L51.7886 52.6263ZM52.323 50.9014L53.2582 51.5805L56.6709 46.8807L55.7358 46.2016L52.323 50.9014ZM57.0214 51.2807L57.6596 50.6405L53.5458 46.5402L52.9077 47.1805L57.0214 51.2807ZM57.9529 46.8844L57.2749 45.9503L52.5744 49.3622L53.2524 50.2963L57.9529 46.8844ZM57.6085 48.7657L59.0233 45.3434L53.6556 43.1244L52.2408 46.5468L57.6085 48.7657ZM56.7959 47.1019L57.9368 46.9203L57.0239 41.1843L55.883 41.3659L56.7959 47.1019ZM60.3844 44.0489L60.3834 43.1433L54.5752 43.15L54.5762 44.0557L60.3844 44.0489ZM57.9331 40.2782L56.7923 40.0977L55.8845 45.8346L57.0254 46.0151L57.9331 40.2782ZM59.0215 41.855L57.6046 38.4336L52.2384 40.656L53.6553 44.0773L59.0215 41.855ZM57.2727 41.2495L57.9507 40.3143L53.2484 36.905L52.5703 37.8401L57.2727 41.2495ZM57.653 36.5561L57.0139 35.917L52.9068 40.024L53.546 40.6632L57.653 36.5561ZM53.2544 35.6202L52.3203 36.2982L55.7322 40.9987L56.6663 40.3207L53.2544 35.6202ZM55.137 35.9652L51.641 34.518L49.4194 39.8846L52.9155 41.3318L55.137 35.9652ZM53.4197 36.9102L53.0964 33.7009L47.3174 34.283L47.6407 37.4923L53.4197 36.9102ZM50.2069 36.8961H51.543V31.0878H50.2069V36.8961ZM51.543 36.8961C50.5 36.8961 49.6152 36.1381 49.4517 35.1122L55.1876 34.1983C54.9024 32.4083 53.3585 31.0878 51.543 31.0878V36.8961ZM49.4517 35.1121L49.6249 36.1993L55.3608 35.2857L55.1876 34.1984L49.4517 35.1121ZM51.3821 38.4258L52.6321 38.9432L54.8536 33.5766L53.6036 33.0592L51.3821 38.4258ZM55.451 38.6086L56.3399 37.9621L52.9237 33.2647L52.0348 33.9113L55.451 38.6086ZM56.3376 37.9638C55.4996 38.572 54.3376 38.4858 53.5985 37.7467L57.7055 33.6396C56.4186 32.3527 54.3917 32.1993 52.9261 33.263L56.3376 37.9638ZM53.5985 37.7467L55.8215 39.9696L59.9284 35.8624L57.7055 33.6396L53.5985 37.7467ZM55.8214 39.9695C55.0833 39.2314 54.9969 38.0713 55.6019 37.234L60.3096 40.636C61.3681 39.1713 61.2145 37.1485 59.9285 35.8625L55.8214 39.9695ZM55.6039 37.2313L54.9584 38.1224L59.6622 41.5298L60.3077 40.6387L55.6039 37.2313ZM54.6267 40.9361L55.1441 42.1871L60.5113 39.967L59.9939 38.7161L54.6267 40.9361ZM57.3732 43.9454L58.4595 44.1175L59.3685 38.3808L58.2822 38.2087L57.3732 43.9454ZM58.457 44.1171C57.4367 43.9545 56.6743 43.0745 56.6743 42.0258H62.4825C62.4825 40.2047 61.1554 38.6656 59.371 38.3812L58.457 44.1171ZM56.6743 42.0268L56.6753 45.172L62.4835 45.1701L62.4825 42.0249L56.6743 42.0268Z" fill="#799EFF" mask="url(#path-6-inside-1_429_2164)"/>
<path d="M17.1291 30.3131C16.6863 30.1622 16.2838 30.0112 15.9216 29.8603C15.5593 29.6993 15.2474 29.5081 14.9858 29.2868C14.7242 29.0654 14.5179 28.8038 14.3669 28.5019C14.2261 28.1899 14.1556 27.8126 14.1556 27.3699C14.1556 26.5146 14.4827 25.8303 15.1367 25.3171C15.8008 24.8039 16.7266 24.5473 17.9139 24.5473C18.3466 24.5473 18.7491 24.5775 19.1214 24.6379C19.4937 24.6983 19.8107 24.7939 20.0723 24.9247C20.344 25.0454 20.5553 25.2064 20.7063 25.4077C20.8572 25.5989 20.9327 25.8253 20.9327 26.0869C20.9327 26.3485 20.8723 26.5749 20.7515 26.7661C20.6308 26.9472 20.4849 27.1032 20.3138 27.234C20.0925 27.0931 19.7956 26.9724 19.4233 26.8718C19.051 26.7611 18.6435 26.7057 18.2007 26.7057C17.7479 26.7057 17.4159 26.7711 17.2045 26.902C16.9932 27.0227 16.8876 27.1787 16.8876 27.3699C16.8876 27.5208 16.953 27.6466 17.0838 27.7472C17.2146 27.8378 17.4108 27.9233 17.6724 28.0038L18.4724 28.2604C19.4183 28.5623 20.1428 28.9497 20.6459 29.4226C21.1591 29.8855 21.4157 30.5194 21.4157 31.3244C21.4157 32.1797 21.0786 32.874 20.4044 33.4073C19.7302 33.9306 18.7391 34.1922 17.4309 34.1922C16.9681 34.1922 16.5354 34.1519 16.1329 34.0714C15.7405 34.001 15.3933 33.8953 15.0914 33.7545C14.7996 33.6035 14.5682 33.4224 14.3971 33.2111C14.2361 32.9897 14.1556 32.7382 14.1556 32.4564C14.1556 32.1646 14.2412 31.9181 14.4122 31.7168C14.5833 31.5055 14.7694 31.3445 14.9707 31.2338C15.2524 31.4552 15.5946 31.6464 15.997 31.8074C16.4096 31.9684 16.8574 32.0489 17.3404 32.0489C17.8334 32.0489 18.1806 31.9734 18.3818 31.8225C18.5831 31.6715 18.6837 31.4955 18.6837 31.2942C18.6837 31.093 18.6032 30.942 18.4422 30.8414C18.2812 30.7307 18.0548 30.6251 17.763 30.5244L17.1291 30.3131ZM22.8463 26.2076C22.8463 25.775 22.972 25.4328 23.2236 25.1813C23.4752 24.9297 23.8173 24.8039 24.25 24.8039H29.2309C29.3013 24.9146 29.3617 25.0605 29.412 25.2417C29.4724 25.4228 29.5025 25.614 29.5025 25.8152C29.5025 26.1976 29.417 26.4693 29.246 26.6303C29.085 26.7913 28.8686 26.8718 28.5969 26.8718H25.4122V28.2755H28.8082C28.8787 28.3862 28.9391 28.5321 28.9894 28.7132C29.0497 28.8843 29.0799 29.0704 29.0799 29.2717C29.0799 29.654 28.9994 29.9257 28.8384 30.0867C28.6774 30.2477 28.4611 30.3282 28.1894 30.3282H25.4122V31.913H29.2912C29.3617 32.0237 29.422 32.1696 29.4724 32.3508C29.5327 32.5319 29.5629 32.7231 29.5629 32.9243C29.5629 33.3067 29.4774 33.5834 29.3063 33.7545C29.1453 33.9155 28.929 33.996 28.6573 33.996H24.25C23.8173 33.996 23.4752 33.8702 23.2236 33.6186C22.972 33.3671 22.8463 33.0249 22.8463 32.5923V26.2076ZM30.5741 29.3622C30.5741 28.5773 30.6948 27.883 30.9363 27.2793C31.1879 26.6756 31.525 26.1724 31.9476 25.7699C32.3803 25.3574 32.8834 25.0454 33.457 24.8341C34.0406 24.6228 34.6695 24.5172 35.3437 24.5172C36.0179 24.5172 36.6417 24.6228 37.2153 24.8341C37.7989 25.0454 38.3071 25.3574 38.7397 25.7699C39.1724 26.1724 39.5095 26.6756 39.751 27.2793C40.0026 27.883 40.1284 28.5773 40.1284 29.3622C40.1284 30.1471 40.0076 30.8464 39.7661 31.4602C39.5246 32.064 39.1875 32.5721 38.7548 32.9847C38.3322 33.3872 37.8291 33.6941 37.2455 33.9054C36.6618 34.1167 36.0279 34.2224 35.3437 34.2224C34.6594 34.2224 34.0255 34.1167 33.4419 33.9054C32.8583 33.684 32.3551 33.3671 31.9325 32.9545C31.5099 32.5419 31.1778 32.0338 30.9363 31.43C30.6948 30.8263 30.5741 30.137 30.5741 29.3622ZM33.2909 29.3622C33.2909 30.2779 33.4771 30.9621 33.8494 31.415C34.2217 31.8678 34.7198 32.0942 35.3437 32.0942C35.9776 32.0942 36.4807 31.8678 36.853 31.415C37.2253 30.9621 37.4115 30.2779 37.4115 29.3622C37.4115 28.4566 37.2253 27.7774 36.853 27.3246C36.4908 26.8718 35.9927 26.6454 35.3588 26.6454C34.7349 26.6454 34.2318 26.8718 33.8494 27.3246C33.4771 27.7673 33.2909 28.4465 33.2909 29.3622Z" fill="url(#paint1_linear_429_2164)"/>
</g>
<defs>
<linearGradient id="paint0_linear_429_2164" x1="7.48963" y1="7.48963" x2="59.5059" y2="59.5059" gradientUnits="userSpaceOnUse">
<stop stop-color="#7AA7FF"/>
<stop offset="0.252" stop-color="#318EFC"/>
<stop offset="0.555" stop-color="#1B6BE3"/>
<stop offset="0.815" stop-color="#276BEF"/>
<stop offset="1" stop-color="#0C46DB"/>
</linearGradient>
<linearGradient id="paint1_linear_429_2164" x1="16.7782" y1="20.6009" x2="34.8335" y2="42.5812" gradientUnits="userSpaceOnUse">
<stop stop-color="#7AA7FF"/>
<stop offset="0.252" stop-color="#318EFC"/>
<stop offset="0.555" stop-color="#1B6BE3"/>
<stop offset="0.815" stop-color="#276BEF"/>
<stop offset="1" stop-color="#0C46DB"/>
</linearGradient>
<clipPath id="clip0_429_2164">
<rect width="53.737" height="53.737" fill="white" transform="translate(5.84268 5.84277)"/>
</clipPath>
</defs>
</svg>
