<svg width="65" height="65" viewBox="0 0 65 65" fill="none" xmlns="http://www.w3.org/2000/svg">
<rect width="65" height="65" rx="10" fill="url(#paint0_linear_429_2089)"/>
<g clip-path="url(#clip0_429_2089)">
<path d="M23.5133 43.9013H16.7171C15.2751 43.9013 13.8922 43.3285 12.8726 42.3089C11.8529 41.2892 11.2801 39.9063 11.2801 38.4644V16.7165C11.2801 15.2745 11.8529 13.8916 12.8726 12.872C13.8922 11.8524 15.2751 11.2795 16.7171 11.2795H30.3095C31.7515 11.2795 33.1344 11.8524 34.154 12.872C35.1736 13.8916 35.7464 15.2745 35.7464 16.7165V24.8719C35.7464 25.2324 35.6032 25.5782 35.3483 25.8331C35.0934 26.088 34.7477 26.2312 34.3872 26.2312C34.0267 26.2312 33.681 26.088 33.4261 25.8331C33.1712 25.5782 33.028 25.2324 33.028 24.8719V16.7165C33.028 15.9955 32.7416 15.3041 32.2317 14.7942C31.7219 14.2844 31.0305 13.998 30.3095 13.998H16.7171C15.9961 13.998 15.3046 14.2844 14.7948 14.7942C14.285 15.3041 13.9986 15.9955 13.9986 16.7165V38.4644C13.9986 39.1853 14.285 39.8768 14.7948 40.3866C15.3046 40.8964 15.9961 41.1828 16.7171 41.1828H23.5133C23.8738 41.1828 24.2195 41.326 24.4744 41.5809C24.7293 41.8359 24.8725 42.1816 24.8725 42.5421C24.8725 42.9026 24.7293 43.2483 24.4744 43.5032C24.2195 43.7581 23.8738 43.9013 23.5133 43.9013Z" fill="white"/>
<path d="M20.7947 26.2312C19.7132 26.2312 18.676 25.8016 17.9113 25.0369C17.1466 24.2722 16.717 23.235 16.717 22.1535V18.0758C16.717 17.7153 16.8602 17.3696 17.1151 17.1147C17.37 16.8598 17.7157 16.7166 18.0762 16.7166C18.4367 16.7166 18.7824 16.8598 19.0373 17.1147C19.2923 17.3696 19.4355 17.7153 19.4355 18.0758V22.1535C19.4355 22.514 19.5787 22.8597 19.8336 23.1146C20.0885 23.3695 20.4342 23.5128 20.7947 23.5128C21.1552 23.5128 21.5009 23.3695 21.7558 23.1146C22.0107 22.8597 22.1539 22.514 22.1539 22.1535V18.0758C22.1539 17.7153 22.2971 17.3696 22.5521 17.1147C22.807 16.8598 23.1527 16.7166 23.5132 16.7166C23.8737 16.7166 24.2194 16.8598 24.4743 17.1147C24.7292 17.3696 24.8724 17.7153 24.8724 18.0758V22.1535C24.8724 23.235 24.4428 24.2722 23.6781 25.0369C22.9134 25.8016 21.8762 26.2312 20.7947 26.2312Z" fill="white"/>
<path d="M53.4171 54.7753H23.5138C23.1533 54.7753 22.8076 54.6321 22.5527 54.3772C22.2978 54.1223 22.1546 53.7765 22.1546 53.416V30.3089C22.1546 29.9485 22.2978 29.6027 22.5527 29.3478C22.8076 29.0929 23.1533 28.9497 23.5138 28.9497H53.4171C53.7776 28.9497 54.1233 29.0929 54.3782 29.3478C54.6331 29.6027 54.7763 29.9485 54.7763 30.3089V53.416C54.7763 53.7765 54.6331 54.1223 54.3782 54.3772C54.1233 54.6321 53.7776 54.7753 53.4171 54.7753Z" fill="white"/>
<path d="M31.6689 43.9014C30.5874 43.9014 29.5502 43.4718 28.7855 42.7071C28.0208 41.9423 27.5912 40.9052 27.5912 39.8237V35.746C27.5912 35.3855 27.7344 35.0397 27.9893 34.7848C28.2442 34.5299 28.5899 34.3867 28.9504 34.3867C29.3109 34.3867 29.6566 34.5299 29.9116 34.7848C30.1665 35.0397 30.3097 35.3855 30.3097 35.746V39.8237C30.3097 40.1842 30.4529 40.5299 30.7078 40.7848C30.9627 41.0397 31.3084 41.1829 31.6689 41.1829C32.0294 41.1829 32.3751 41.0397 32.63 40.7848C32.8849 40.5299 33.0281 40.1842 33.0281 39.8237V35.746C33.0281 35.3855 33.1714 35.0397 33.4263 34.7848C33.6812 34.5299 34.0269 34.3867 34.3874 34.3867C34.7479 34.3867 35.0936 34.5299 35.3485 34.7848C35.6034 35.0397 35.7466 35.3855 35.7466 35.746V39.8237C35.7466 40.9052 35.317 41.9423 34.5523 42.7071C33.7876 43.4718 32.7504 43.9014 31.6689 43.9014Z" fill="url(#paint1_linear_429_2089)"/>
<path d="M28.9504 26.2312C28.5899 26.2312 28.2442 26.088 27.9893 25.8331C27.7344 25.5782 27.5912 25.2325 27.5912 24.872V18.0758C27.5912 17.7153 27.7344 17.3696 27.9893 17.1147C28.2442 16.8598 28.5899 16.7166 28.9504 16.7166C29.3109 16.7166 29.6566 16.8598 29.9116 17.1147C30.1665 17.3696 30.3097 17.7153 30.3097 18.0758V24.872C30.3097 25.2325 30.1665 25.5782 29.9116 25.8331C29.6566 26.088 29.3109 26.2312 28.9504 26.2312Z" fill="white"/>
<path d="M43.9012 43.9012C43.697 43.9003 43.4957 43.8533 43.3122 43.7639C43.1286 43.6745 42.9676 43.5449 42.841 43.3847L37.404 36.5885C37.2155 36.3049 37.1403 35.9609 37.1933 35.6245C37.2463 35.2881 37.4236 34.9839 37.6902 34.772C37.9568 34.5601 38.2932 34.456 38.6329 34.4803C38.9725 34.5045 39.2907 34.6554 39.5244 34.903L44.9614 41.6992C45.1194 41.8992 45.218 42.1395 45.246 42.3927C45.274 42.646 45.2302 42.9021 45.1196 43.1316C45.0091 43.3612 44.8362 43.5551 44.6208 43.6912C44.4054 43.8273 44.156 43.9 43.9012 43.9012Z" fill="url(#paint2_linear_429_2089)"/>
<path d="M38.4656 43.9014C38.2108 43.9002 37.9614 43.8274 37.746 43.6913C37.5306 43.5553 37.3577 43.3614 37.2472 43.1318C37.1366 42.9022 37.0929 42.6462 37.1208 42.3929C37.1488 42.1396 37.2474 41.8993 37.4054 41.6994L42.8424 34.9032C42.9466 34.7464 43.0822 34.613 43.2406 34.5114C43.3991 34.4098 43.5769 34.3422 43.7628 34.3129C43.9487 34.2837 44.1387 34.2933 44.3207 34.3413C44.5027 34.3892 44.6728 34.4745 44.8201 34.5916C44.9675 34.7087 45.0889 34.8551 45.1767 35.0216C45.2645 35.1881 45.3167 35.371 45.3301 35.5588C45.3435 35.7465 45.3178 35.935 45.2546 36.1123C45.1913 36.2896 45.092 36.4518 44.9628 36.5886L39.5258 43.3848C39.3992 43.545 39.2382 43.6747 39.0546 43.7641C38.8711 43.8535 38.6698 43.9004 38.4656 43.9014Z" fill="url(#paint3_linear_429_2089)"/>
<path d="M31.6689 49.3384H28.9504C28.5899 49.3384 28.2442 49.1951 27.9893 48.9402C27.7344 48.6853 27.5912 48.3396 27.5912 47.9791C27.5912 47.6186 27.7344 47.2729 27.9893 47.018C28.2442 46.7631 28.5899 46.6199 28.9504 46.6199H31.6689C32.0294 46.6199 32.3751 46.7631 32.63 47.018C32.8849 47.2729 33.0281 47.6186 33.0281 47.9791C33.0281 48.3396 32.8849 48.6853 32.63 48.9402C32.3751 49.1951 32.0294 49.3384 31.6689 49.3384Z" fill="url(#paint4_linear_429_2089)"/>
<path d="M47.9794 49.3384H37.1055C36.745 49.3384 36.3993 49.1951 36.1444 48.9402C35.8895 48.6853 35.7462 48.3396 35.7462 47.9791C35.7462 47.6186 35.8895 47.2729 36.1444 47.018C36.3993 46.7631 36.745 46.6199 37.1055 46.6199H47.9794C48.3399 46.6199 48.6856 46.7631 48.9405 47.018C49.1954 47.2729 49.3387 47.6186 49.3387 47.9791C49.3387 48.3396 49.1954 48.6853 48.9405 48.9402C48.6856 49.1951 48.3399 49.3384 47.9794 49.3384Z" fill="url(#paint5_linear_429_2089)"/>
</g>
<defs>
<linearGradient id="paint0_linear_429_2089" x1="7.48963" y1="7.48963" x2="59.5059" y2="59.5059" gradientUnits="userSpaceOnUse">
<stop stop-color="#7AA7FF"/>
<stop offset="0.252" stop-color="#318EFC"/>
<stop offset="0.555" stop-color="#1B6BE3"/>
<stop offset="0.815" stop-color="#276BEF"/>
<stop offset="1" stop-color="#0C46DB"/>
</linearGradient>
<linearGradient id="paint1_linear_429_2089" x1="28.5309" y1="35.483" x2="36.0554" y2="41.9327" gradientUnits="userSpaceOnUse">
<stop stop-color="#7AA7FF"/>
<stop offset="0.252" stop-color="#318EFC"/>
<stop offset="0.555" stop-color="#1B6BE3"/>
<stop offset="0.815" stop-color="#276BEF"/>
<stop offset="1" stop-color="#0C46DB"/>
</linearGradient>
<linearGradient id="paint2_linear_429_2089" x1="38.1075" y1="35.5627" x2="45.5605" y2="41.9506" gradientUnits="userSpaceOnUse">
<stop stop-color="#7AA7FF"/>
<stop offset="0.252" stop-color="#318EFC"/>
<stop offset="0.555" stop-color="#1B6BE3"/>
<stop offset="0.815" stop-color="#276BEF"/>
<stop offset="1" stop-color="#0C46DB"/>
</linearGradient>
<linearGradient id="paint3_linear_429_2089" x1="38.0599" y1="35.4031" x2="45.6541" y2="41.9031" gradientUnits="userSpaceOnUse">
<stop stop-color="#7AA7FF"/>
<stop offset="0.252" stop-color="#318EFC"/>
<stop offset="0.555" stop-color="#1B6BE3"/>
<stop offset="0.815" stop-color="#276BEF"/>
<stop offset="1" stop-color="#0C46DB"/>
</linearGradient>
<linearGradient id="paint4_linear_429_2089" x1="28.2177" y1="46.9331" x2="29.958" y2="50.4139" gradientUnits="userSpaceOnUse">
<stop stop-color="#7AA7FF"/>
<stop offset="0.252" stop-color="#318EFC"/>
<stop offset="0.555" stop-color="#1B6BE3"/>
<stop offset="0.815" stop-color="#276BEF"/>
<stop offset="1" stop-color="#0C46DB"/>
</linearGradient>
<linearGradient id="paint5_linear_429_2089" x1="37.3124" y1="46.9331" x2="38.1491" y2="51.1167" gradientUnits="userSpaceOnUse">
<stop stop-color="#7AA7FF"/>
<stop offset="0.252" stop-color="#318EFC"/>
<stop offset="0.555" stop-color="#1B6BE3"/>
<stop offset="0.815" stop-color="#276BEF"/>
<stop offset="1" stop-color="#0C46DB"/>
</linearGradient>
<clipPath id="clip0_429_2089">
<rect width="43.4957" height="43.4957" fill="white" transform="translate(11.2793 11.2795)"/>
</clipPath>
</defs>
</svg>
