<svg width="888" height="888" viewBox="0 0 888 888" fill="none" xmlns="http://www.w3.org/2000/svg">
<g clip-path="url(#clip0_0_73)">
<rect width="888" height="888" fill="white"/>
<path fill-rule="evenodd" clip-rule="evenodd" d="M768.225 299.334C767.692 298.946 766.426 298.809 765.838 298.692C763.39 298.21 760.869 298 758.374 298C750.681 298.012 742.863 298.767 735.298 300.074C730.494 300.903 724.687 303.696 719.909 302.179C711.585 299.537 703.172 299.667 695.274 303.439C688.053 306.888 682.572 313.439 679.373 320.517C678.89 321.586 676.932 325.519 676.378 328.17C676.141 328.712 675.913 329.257 675.708 329.811C675.126 331.384 674.603 332.984 674.118 334.588C673.91 335.272 673.389 336.782 674.008 337.074C673.019 338.901 672.141 340.783 671.411 342.726C669.286 348.378 666.962 354.578 666.215 360.568C665.939 362.786 665.928 365.017 666.185 367.239C666.312 368.338 666.26 370.546 667.004 371.382C668.585 373.154 669.396 370.673 669.218 369.491C667.858 360.485 670.485 352.027 673.598 343.561C675.612 338.087 678.92 333.078 682.626 328.543C685.625 324.871 688.842 321.98 692.953 319.546C697.981 316.569 703.356 314.163 708.681 311.749C712.184 310.161 715.691 308.615 719.291 307.247C720.092 306.942 721.351 306.161 722.239 306.158C724.116 306.152 726.777 307.537 728.59 308.052C734.554 309.748 740.594 311.919 746.758 312.785C750.712 313.341 754.416 312.715 758.113 311.398C758.491 311.264 759.125 310.918 759.901 310.424C762.646 309.368 765.243 308.039 767.504 306.121C768.806 305.017 769.989 303.589 771.067 302.282C771.389 301.892 771.532 301.444 771.537 301.018C771.781 300.891 771.943 300.741 771.98 300.567C772.249 299.281 769.796 299.258 768.225 299.334Z" fill="#89C5CC"/>
<path fill-rule="evenodd" clip-rule="evenodd" d="M143.273 406.541C141.764 407.763 140.284 409.011 138.84 410.31C137.739 411.3 135.791 412.485 135.396 413.985C134.985 415.544 136.282 417.003 137.306 417.945C142.723 422.929 148.823 426.298 156.329 426.859C167.887 427.722 177.946 424.77 187.974 418.963C195.018 414.883 199.684 408.849 200.703 400.701C209.092 404.187 217.205 408.993 224.1 414.891C227.502 417.801 230.432 421.025 233.142 424.599C234.878 426.889 236.557 429.215 238.115 431.631C238.792 432.68 239.481 434.542 240.599 435.146C241.912 435.856 243.499 434.743 243.434 433.284C243.379 432.069 242.068 430.66 241.454 429.667C240.436 428.018 239.402 426.379 238.313 424.776C236.551 422.179 234.73 419.62 232.744 417.19C228.28 411.73 222.601 407.221 216.714 403.375C205.42 395.997 193.025 391.349 179.283 390.955C170.833 390.713 163.725 393.6 156.499 397.911C152 400.595 147.356 403.235 143.273 406.541Z" fill="#DDE3E9"/>
<path fill-rule="evenodd" clip-rule="evenodd" d="M252.883 370.856C244.077 361.787 235.241 352.832 225.403 344.847C219.605 340.141 213.495 335.863 207.511 331.401C208.201 332.006 208.878 332.628 209.539 333.266C207.671 331.998 205.226 331.281 203.246 330.107C201.037 328.798 198.925 327.301 196.854 325.791C192.811 322.845 188.829 319.843 184.673 317.051C180.043 313.94 175.245 311.066 170.536 308.072C166.539 305.532 162.494 302.751 158.218 300.674C155.888 299.542 153.553 298.201 151.213 297.02C150.43 296.625 142.484 291.608 142.504 291.593C142.943 291.262 146.942 293.14 147.56 293.393C149.366 294.131 151.094 295.013 152.83 295.893C151.877 294.013 151.123 292.038 150.712 289.958C150.585 289.317 149.569 284.644 150.089 284.252C150.348 284.057 152.883 292.416 153.013 293.22C153.119 293.872 153.103 294.812 153.317 295.431C153.662 296.429 153.645 296.127 154.405 296.69C155.798 297.721 157.647 298.365 159.154 299.227C159.968 299.68 162.485 301.48 164.001 301.993C168.588 304.221 173.238 307.649 177.597 310.495C176.453 308.345 175.582 306.097 174.948 303.741C174.797 303.182 173.167 298.165 173.563 297.867C174.008 297.532 177.112 305.195 177.296 305.92C177.637 307.268 177.708 308.768 178.136 310.079C178.605 311.518 180.07 312.028 181.39 312.867C186.247 315.953 190.938 319.232 195.55 322.662C200.583 313.711 194.78 302.903 189.89 295.393C186.364 289.98 181.619 285.34 176.608 281.289C169.92 275.882 162.269 271.563 154.627 267.612C145.723 263.009 136.099 260.156 126.093 258.839C120.86 258.149 115.507 258.169 110.221 258.39C107.639 258.498 105.16 258.84 102.686 259.682C101.57 260.062 100.492 260.541 99.4421 261.077C98.644 261.484 96.7134 261.914 96.2545 262.521C92.4772 267.438 90.5448 272.337 90.8399 278.515C91.1189 284.363 92.9659 290.214 95.4725 295.431C98.264 301.24 101.854 306.512 106.55 310.936C110.132 314.312 114.137 317.25 118.116 320.15C132.267 330.463 150.208 339.433 168.536 337.128C174.469 336.383 180.112 334.308 185.385 331.489C186.628 330.824 187.863 330.152 189.036 329.368C189.827 328.839 191.941 326.456 192.736 326.37C193.827 326.251 196.175 328.469 197.198 329.144C204.972 334.275 212.542 339.685 219.953 345.313C227.839 351.301 235.337 357.697 242.615 364.393C245.71 367.242 248.786 370.096 251.791 373.04C252.491 373.725 254.202 376.247 255.471 376.361C256.273 376.434 256.814 375.749 256.7 375.006C256.501 373.715 253.785 371.784 252.883 370.856Z" fill="#C1DEE2"/>
<path fill-rule="evenodd" clip-rule="evenodd" d="M758.98 335.66C755.57 334.915 751.803 334.972 748.329 335.033C729.695 335.287 711.397 344.109 699.489 358.205C689.351 370.205 686.563 385.125 684.56 400.207C684.362 401.704 684.277 403.192 684.165 404.693C684.141 405.015 684.105 405.302 684.066 405.573C683.279 406.277 682.865 407.098 683.332 408C681.597 411.797 680.129 415.69 678.869 419.706C675.162 431.526 671.392 443.571 673.714 456C674.257 449.16 675.399 442.166 676.764 435.438C676.842 435.052 676.927 434.669 677.015 434.287C677.025 434.247 677.033 434.206 677.042 434.166C677.525 432.106 678.153 430.108 678.917 428.141C678.925 428.119 678.933 428.098 678.941 428.077C679.042 427.818 679.149 427.56 679.255 427.303C679.474 426.77 679.699 426.238 679.937 425.709C680.018 425.528 680.095 425.346 680.17 425.163C681.282 422.437 681.751 419.365 682.748 416.545C682.986 415.904 683.235 415.265 683.496 414.629C683.512 414.592 683.527 414.555 683.543 414.518C684.249 412.807 685.028 411.118 685.853 409.446C686.301 409.109 686.54 408.274 686.927 407.515C687.006 407.365 687.631 406.368 687.817 405.793C688.303 404.854 688.786 403.915 689.275 402.977C689.261 402.983 689.246 402.988 689.231 402.994C689.72 402.093 690.211 401.197 690.698 400.304C690.805 400.108 690.913 399.912 691.021 399.715C691.196 399.402 691.371 399.089 691.545 398.777C693.177 395.856 694.908 392.994 696.705 390.167C697.347 389.158 698.879 387.711 699.173 386.579C699.184 386.536 699.186 386.497 699.193 386.457C703.093 380.979 707.582 375.927 712.967 371.924C712.316 372.628 710.932 375.015 710.567 375.488C709.447 376.935 708.232 378.282 707.013 379.646C704.828 382.089 702.696 384.609 700.801 387.274C697.335 392.148 694.346 397.277 691.519 402.51C691.493 402.54 691.463 402.569 691.438 402.601C690.017 404.352 689.123 406.998 688.101 409.001C692.147 407.127 696.622 405.906 700.774 404.242C704.916 402.583 708.944 400.735 712.834 398.566C718.003 395.682 723.366 392.427 728.25 388.743C733.847 385.271 738.551 380.492 742.703 375.477C747.615 369.543 752.117 363.558 754.901 356.353C756.269 352.813 757.345 349.121 757.983 345.386C758.011 345.224 758.046 345.047 758.085 344.864C758.738 343.574 759.321 342.255 759.811 340.906C760.588 338.766 762.425 336.412 758.98 335.66Z" fill="#69A1AC"/>
<path fill-rule="evenodd" clip-rule="evenodd" d="M110.292 347.014C108.94 345.666 107.422 344.45 105.64 343.583C105.189 343.364 101.833 341.895 101.614 342.218C101.105 342.968 109.886 346.583 110.292 347.014ZM126.205 338.012C126.194 338.069 127.358 339.887 127.675 340.446C128.349 341.635 128.972 342.847 129.558 344.061C128.691 341.916 127.8 339.928 126.205 338.012ZM44.8181 352.814C43.6972 353.146 42.3496 351.836 43.8035 351.514C44.9799 351.254 44.9222 351.193 45.4504 350.321C45.8794 349.612 46.1436 348.748 46.52 348.005C47.3184 346.427 48.224 344.923 49.3357 343.514C51.7182 340.493 54.621 337.89 57.8767 335.696C63.5586 331.868 69.9293 328.369 76.6872 326.611C87.4325 323.816 99.662 323.643 110.424 325.581C117.089 326.781 123.181 328.867 127.606 333.809C129.818 336.279 131.555 339.172 132.314 342.358C132.512 343.19 132.475 344.116 132.723 344.932C133.104 346.185 132.936 345.851 134.528 346.095C136.267 346.362 138.004 346.633 139.74 346.91C144.287 347.634 148.861 348.403 153.291 349.578C154.75 349.965 156.176 350.437 157.569 350.987C158.622 351.402 162.818 352.704 163.328 353.965C164.177 356.062 161.333 355.111 160.45 354.655C159.676 354.254 158.881 353.881 158.075 353.538C156.045 352.673 153.93 352.004 151.767 351.471C149.43 350.895 147.045 350.466 144.669 350.035C142.454 349.634 140.23 349.27 138.003 348.921C136.766 348.727 135.528 348.539 134.29 348.35C133.867 348.286 133.122 347.949 133.178 348.455C130.575 347.993 127.76 348.06 125.109 347.932C121.862 347.777 118.602 347.649 115.344 347.742C112.994 347.81 110.642 347.952 108.304 348.242C106.938 348.412 105.594 348.661 104.253 348.976C103.517 349.149 100.614 349.515 100.213 350.106C100.385 349.852 103.589 350.099 103.997 350.084C105.628 350.028 107.247 349.879 108.872 349.712C111.888 349.402 114.906 349.24 117.931 349.263C117.92 349.752 115.853 350.623 115.348 350.947C114.217 351.674 113.134 352.467 112.123 353.337C110.343 354.869 108.211 356.766 106.979 358.581C107.342 358.046 109.133 357.35 109.768 356.942C110.786 356.287 111.783 355.588 112.727 354.841C113.598 354.152 114.411 353.407 115.21 352.646C116.009 351.885 117.094 350.303 118.144 349.796C118.208 349.765 118.666 350.098 118.926 349.985C119.188 349.871 119.514 349.3 119.581 349.277C120.559 348.93 122.415 349.362 123.443 349.406C126.109 349.519 128.772 349.667 131.435 349.802C132.26 349.843 132.962 349.671 133.273 350.231C133.605 350.829 132.997 352.4 132.824 353.051C132.181 355.469 131.041 357.638 129.245 359.511C125.883 363.02 121.736 365.359 117.052 366.924C99.1107 372.918 80.0234 375.318 62.0874 369.083C54.6619 366.502 43.4791 361.889 44.8181 352.814Z" fill="#89C5CC"/>
<g opacity="0.6" clip-path="url(#clip1_0_73)">
<path fill-rule="evenodd" clip-rule="evenodd" d="M865.965 635.189C878.165 711.272 582.277 760.899 327.6 726.266C72.9222 691.633 -43.9118 556.387 77.6161 484.322C199.144 412.258 853.764 559.106 865.965 635.189Z" fill="#DDE3E9"/>
</g>
<g clip-path="url(#clip2_0_73)">
<rect x="216" y="180" width="159" height="302" rx="8" fill="#F2F2F2"/>
<path fill-rule="evenodd" clip-rule="evenodd" d="M295 463C303.284 463 310 456.284 310 448C310 439.716 303.284 433 295 433C286.716 433 280 439.716 280 448C280 456.284 286.716 463 295 463Z" fill="white"/>
<path fill-rule="evenodd" clip-rule="evenodd" d="M282 200C283.105 200 284 199.105 284 198C284 196.895 283.105 196 282 196C280.895 196 280 196.895 280 198C280 199.105 280.895 200 282 200Z" fill="white"/>
<rect x="289" y="196" width="21" height="4" rx="2" fill="white"/>
<g clip-path="url(#clip3_0_73)">
<g clip-path="url(#clip4_0_73)">
<rect x="230" y="208" width="131" height="54" rx="4" fill="white"/>
<g clip-path="url(#clip5_0_73)">
<rect x="269" y="224.2" width="73" height="8.1" rx="3" fill="#DDE3E9"/>
<rect x="269" y="237.7" width="49" height="8.1" rx="3" fill="#DDE3E9"/>
</g>
<path fill-rule="evenodd" clip-rule="evenodd" d="M251 247C257.627 247 263 241.627 263 235C263 228.373 257.627 223 251 223C244.373 223 239 228.373 239 235C239 241.627 244.373 247 251 247Z" fill="#C5CFD6"/>
</g>
<g clip-path="url(#clip6_0_73)">
<rect x="230" y="270" width="131" height="42" rx="4" fill="white"/>
<g clip-path="url(#clip7_0_73)">
<rect x="269" y="282.6" width="73" height="6.3" rx="3" fill="#DDE3E9"/>
<rect x="269" y="293.1" width="49" height="6.3" rx="3" fill="#DDE3E9"/>
</g>
<path fill-rule="evenodd" clip-rule="evenodd" d="M251 303C257.627 303 263 297.627 263 291C263 284.373 257.627 279 251 279C244.373 279 239 284.373 239 291C239 297.627 244.373 303 251 303Z" fill="#C5CFD6"/>
</g>
<g clip-path="url(#clip8_0_73)">
<rect x="230" y="320" width="131" height="42" rx="4" fill="white"/>
<g clip-path="url(#clip9_0_73)">
<rect x="269" y="332.6" width="73" height="6.3" rx="3" fill="#DDE3E9"/>
<rect x="269" y="343.1" width="49" height="6.3" rx="3" fill="#DDE3E9"/>
</g>
<path fill-rule="evenodd" clip-rule="evenodd" d="M251 353C257.627 353 263 347.627 263 341C263 334.373 257.627 329 251 329C244.373 329 239 334.373 239 341C239 347.627 244.373 353 251 353Z" fill="#AFB9C5"/>
</g>
<g clip-path="url(#clip10_0_73)">
<rect x="230" y="370" width="131" height="42" rx="4" fill="white"/>
<g clip-path="url(#clip11_0_73)">
<rect x="269" y="382.6" width="73" height="6.3" rx="3" fill="#DDE3E9"/>
<rect x="269" y="393.1" width="49" height="6.3" rx="3" fill="#DDE3E9"/>
</g>
<path fill-rule="evenodd" clip-rule="evenodd" d="M251 403C257.627 403 263 397.627 263 391C263 384.373 257.627 379 251 379C244.373 379 239 384.373 239 391C239 397.627 244.373 403 251 403Z" fill="#C5CFD6"/>
</g>
</g>
</g>
<g clip-path="url(#clip12_0_73)">
<path fill-rule="evenodd" clip-rule="evenodd" d="M246.14 424C244.815 424 243.494 424.027 242.171 424.095C241.162 424.148 239.621 423.939 238.768 424.568C237.881 425.221 237.942 426.557 238.081 427.501C238.813 432.493 240.6 436.919 244.339 440.456C250.096 445.901 256.695 448.668 264.504 449.9C269.99 450.766 275.054 449.564 279.092 445.663C282.043 451.139 284.281 457.199 285.404 463.315C285.958 466.333 286.127 469.315 286.03 472.388C285.967 474.356 285.859 476.32 285.648 478.279C285.556 479.13 285.122 480.418 285.455 481.223C285.846 482.167 287.165 482.259 287.757 481.453C288.25 480.783 288.16 479.466 288.261 478.673C288.429 477.355 288.584 476.036 288.695 474.712C288.876 472.569 289.009 470.42 289 468.268C288.977 463.435 287.902 458.583 286.432 453.995C283.612 445.192 279.037 437.369 271.921 431.231C267.545 427.457 262.537 425.929 256.856 425.108C253.318 424.597 249.723 424 246.14 424Z" fill="#89C5CC"/>
<path fill-rule="evenodd" clip-rule="evenodd" d="M266.571 459C252.272 459 242.642 470.524 238.089 482.502C236.372 487.016 235.97 491.974 235.308 496.714C235.096 498.236 235.175 500.554 234.557 501.909C234.333 502.401 233.819 502.577 234.065 503.247C234.214 503.652 234.505 503.901 234.944 503.981C235.843 504.147 237.115 503.167 237.886 502.781C244.282 499.573 248.484 494.613 251.912 488.545C254.038 484.784 256.194 480.879 257.456 476.75C258.227 474.227 258.676 471.571 258.94 468.954C259.044 467.923 259.144 466.868 259.138 465.832C259.132 464.803 258.653 464.259 258.309 463.364C263.08 461.558 268.466 461.066 273.299 462.937C277.769 464.668 281.482 468.013 283.561 472.216C284.101 473.308 284.518 474.46 284.821 475.636C285.02 476.406 285.029 477.404 285.398 478.1C286.29 479.788 288.168 478.66 287.988 477.089C287.485 472.708 284.979 468.309 281.775 465.263C277.734 461.421 272.258 459 266.571 459Z" fill="#89C5CC"/>
<rect x="282" y="206" width="159" height="302" rx="8" fill="#DDE3E9"/>
<path fill-rule="evenodd" clip-rule="evenodd" d="M361 489C369.284 489 376 482.284 376 474C376 465.716 369.284 459 361 459C352.716 459 346 465.716 346 474C346 482.284 352.716 489 361 489Z" fill="white"/>
<path fill-rule="evenodd" clip-rule="evenodd" d="M348 226C349.105 226 350 225.105 350 224C350 222.895 349.105 222 348 222C346.895 222 346 222.895 346 224C346 225.105 346.895 226 348 226Z" fill="white"/>
<rect x="355" y="222" width="21" height="4" rx="2" fill="white"/>
<g clip-path="url(#clip13_0_73)">
<g clip-path="url(#clip14_0_73)">
<rect x="296" y="234" width="131" height="54" rx="4" fill="white"/>
<g clip-path="url(#clip15_0_73)">
<rect x="305" y="250.2" width="73" height="8.1" rx="3" fill="#DDE3E9"/>
<rect x="305" y="263.7" width="49" height="8.1" rx="3" fill="#DDE3E9"/>
</g>
<path fill-rule="evenodd" clip-rule="evenodd" d="M413 268C416.866 268 420 264.866 420 261C420 257.134 416.866 254 413 254C409.134 254 406 257.134 406 261C406 264.866 409.134 268 413 268Z" fill="#DDE3E9"/>
<path fill-rule="evenodd" clip-rule="evenodd" d="M413 264C414.657 264 416 262.657 416 261C416 259.343 414.657 258 413 258C411.343 258 410 259.343 410 261C410 262.657 411.343 264 413 264Z" fill="#F2F2F2"/>
</g>
<g clip-path="url(#clip16_0_73)">
<rect x="296" y="296" width="131" height="42" rx="4" fill="white"/>
<g clip-path="url(#clip17_0_73)">
<rect x="335" y="308.6" width="73" height="6.3" rx="3" fill="#DDE3E9"/>
<rect x="335" y="319.1" width="49" height="6.3" rx="3" fill="#DDE3E9"/>
</g>
<path fill-rule="evenodd" clip-rule="evenodd" d="M317 329C323.627 329 329 323.627 329 317C329 310.373 323.627 305 317 305C310.373 305 305 310.373 305 317C305 323.627 310.373 329 317 329Z" fill="#C5CFD6"/>
</g>
<g clip-path="url(#clip18_0_73)">
<rect x="296" y="346" width="131" height="42" rx="4" fill="white"/>
<g clip-path="url(#clip19_0_73)">
<rect x="305" y="358.6" width="73" height="6.3" rx="3" fill="#DDE3E9"/>
<rect x="305" y="369.1" width="49" height="6.3" rx="3" fill="#AFB9C5"/>
</g>
<path fill-rule="evenodd" clip-rule="evenodd" d="M413 374C416.866 374 420 370.866 420 367C420 363.134 416.866 360 413 360C409.134 360 406 363.134 406 367C406 370.866 409.134 374 413 374Z" fill="#DDE3E9"/>
<path fill-rule="evenodd" clip-rule="evenodd" d="M413 370C414.657 370 416 368.657 416 367C416 365.343 414.657 364 413 364C411.343 364 410 365.343 410 367C410 368.657 411.343 370 413 370Z" fill="#F2F2F2"/>
</g>
<g clip-path="url(#clip20_0_73)">
<rect x="296" y="396" width="131" height="42" rx="4" fill="white"/>
<g clip-path="url(#clip21_0_73)">
<rect x="335" y="408.6" width="73" height="6.3" rx="3" fill="#DDE3E9"/>
<rect x="335" y="419.1" width="49" height="6.3" rx="3" fill="#DDE3E9"/>
</g>
<path fill-rule="evenodd" clip-rule="evenodd" d="M317 429C323.627 429 329 423.627 329 417C329 410.373 323.627 405 317 405C310.373 405 305 410.373 305 417C305 423.627 310.373 429 317 429Z" fill="#C5CFD6"/>
</g>
</g>
</g>
<g clip-path="url(#clip22_0_73)">
<rect x="348" y="231" width="335" height="346" rx="8" fill="#F2F2F2"/>
<rect x="597" y="274" width="70" height="81" rx="8" fill="white"/>
<path fill-rule="evenodd" clip-rule="evenodd" d="M632 321C640.837 321 648 313.837 648 305C648 296.163 640.837 289 632 289C623.163 289 616 296.163 616 305C616 313.837 623.163 321 632 321Z" fill="#DDE3E9"/>
<rect x="607" y="325" width="50" height="6" rx="3" fill="#DDE3E9"/>
<rect x="615" y="335" width="34" height="6" rx="3" fill="#DDE3E9"/>
<path d="M348 239C348 234.582 351.582 231 356 231H675C679.418 231 683 234.582 683 239V258H348V239Z" fill="#C5CFD6"/>
<path fill-rule="evenodd" clip-rule="evenodd" d="M361 249C363.209 249 365 247.209 365 245C365 242.791 363.209 241 361 241C358.791 241 357 242.791 357 245C357 247.209 358.791 249 361 249Z" fill="#F2F2F2"/>
<path fill-rule="evenodd" clip-rule="evenodd" d="M373 249C375.209 249 377 247.209 377 245C377 242.791 375.209 241 373 241C370.791 241 369 242.791 369 245C369 247.209 370.791 249 373 249Z" fill="#F2F2F2"/>
<path fill-rule="evenodd" clip-rule="evenodd" d="M385 249C387.209 249 389 247.209 389 245C389 242.791 387.209 241 385 241C382.791 241 381 242.791 381 245C381 247.209 382.791 249 385 249Z" fill="#F2F2F2"/>
<g clip-path="url(#clip23_0_73)">
<rect x="597" y="363" width="70" height="194" rx="8" fill="white"/>
<g clip-path="url(#clip24_0_73)">
<rect x="615" y="381" width="34" height="26" rx="4" fill="#DDE3E9"/>
<rect x="615" y="415" width="34" height="25" rx="4" fill="#AFB9C5"/>
<rect x="615" y="448" width="34" height="25" rx="4" fill="#DDE3E9"/>
<rect x="615" y="514" width="34" height="25" rx="4" fill="#DDE3E9"/>
<rect x="615" y="481" width="34" height="25" rx="4" fill="#C5CFD6"/>
</g>
</g>
<g clip-path="url(#clip25_0_73)">
<g clip-path="url(#clip26_0_73)">
<rect x="364" y="275" width="225" height="47" rx="4" fill="white"/>
<g clip-path="url(#clip27_0_73)">
<rect x="373" y="289.1" width="167" height="7.05" rx="3" fill="#DDE3E9"/>
<rect x="373" y="300.85" width="112.096" height="7.05" rx="3" fill="#DDE3E9"/>
</g>
<path fill-rule="evenodd" clip-rule="evenodd" d="M564.954 305.5C568.82 305.5 571.954 302.366 571.954 298.5C571.954 294.634 568.82 291.5 564.954 291.5C561.088 291.5 557.954 294.634 557.954 298.5C557.954 302.366 561.088 305.5 564.954 305.5Z" fill="#DDE3E9"/>
<path fill-rule="evenodd" clip-rule="evenodd" d="M564.954 301.5C566.611 301.5 567.954 300.157 567.954 298.5C567.954 296.843 566.611 295.5 564.954 295.5C563.297 295.5 561.954 296.843 561.954 298.5C561.954 300.157 563.297 301.5 564.954 301.5Z" fill="#F2F2F2"/>
</g>
<g clip-path="url(#clip28_0_73)">
<rect x="364" y="330" width="225" height="39" rx="4" fill="white"/>
<g clip-path="url(#clip29_0_73)">
<rect x="373" y="341.7" width="167" height="5.85" rx="2.925" fill="#DDE3E9"/>
<rect x="373" y="351.45" width="112.096" height="5.85" rx="2.925" fill="#DDE3E9"/>
</g>
<path fill-rule="evenodd" clip-rule="evenodd" d="M564.954 356.5C568.82 356.5 571.954 353.366 571.954 349.5C571.954 345.634 568.82 342.5 564.954 342.5C561.088 342.5 557.954 345.634 557.954 349.5C557.954 353.366 561.088 356.5 564.954 356.5Z" fill="#DDE3E9"/>
<path fill-rule="evenodd" clip-rule="evenodd" d="M564.954 352.5C566.611 352.5 567.954 351.157 567.954 349.5C567.954 347.843 566.611 346.5 564.954 346.5C563.297 346.5 561.954 347.843 561.954 349.5C561.954 351.157 563.297 352.5 564.954 352.5Z" fill="#F2F2F2"/>
</g>
<g clip-path="url(#clip30_0_73)">
<rect x="364" y="377" width="225" height="39" rx="4" fill="white"/>
<g clip-path="url(#clip31_0_73)">
<rect x="373" y="388.7" width="167" height="5.85" rx="2.925" fill="#DDE3E9"/>
<rect x="373" y="398.45" width="112.096" height="5.85" rx="2.925" fill="#DDE3E9"/>
</g>
<path fill-rule="evenodd" clip-rule="evenodd" d="M564.954 403.5C568.82 403.5 571.954 400.366 571.954 396.5C571.954 392.634 568.82 389.5 564.954 389.5C561.088 389.5 557.954 392.634 557.954 396.5C557.954 400.366 561.088 403.5 564.954 403.5Z" fill="#DDE3E9"/>
<path fill-rule="evenodd" clip-rule="evenodd" d="M564.954 399.5C566.611 399.5 567.954 398.157 567.954 396.5C567.954 394.843 566.611 393.5 564.954 393.5C563.297 393.5 561.954 394.843 561.954 396.5C561.954 398.157 563.297 399.5 564.954 399.5Z" fill="#AFB9C5"/>
</g>
<g clip-path="url(#clip32_0_73)">
<rect x="364" y="518" width="225" height="39" rx="4" fill="white"/>
<g clip-path="url(#clip33_0_73)">
<rect x="373" y="529.7" width="167" height="5.85" rx="2.925" fill="#DDE3E9"/>
<rect x="373" y="539.45" width="112.096" height="5.85" rx="2.925" fill="#DDE3E9"/>
</g>
<path fill-rule="evenodd" clip-rule="evenodd" d="M564.954 544.5C568.82 544.5 571.954 541.366 571.954 537.5C571.954 533.634 568.82 530.5 564.954 530.5C561.088 530.5 557.954 533.634 557.954 537.5C557.954 541.366 561.088 544.5 564.954 544.5Z" fill="#DDE3E9"/>
<path fill-rule="evenodd" clip-rule="evenodd" d="M564.954 540.5C566.611 540.5 567.954 539.157 567.954 537.5C567.954 535.843 566.611 534.5 564.954 534.5C563.297 534.5 561.954 535.843 561.954 537.5C561.954 539.157 563.297 540.5 564.954 540.5Z" fill="#F2F2F2"/>
</g>
<g clip-path="url(#clip34_0_73)">
<rect x="364" y="471" width="225" height="39" rx="4" fill="white"/>
<g clip-path="url(#clip35_0_73)">
<rect x="373" y="482.7" width="167" height="5.85" rx="2.925" fill="#DDE3E9"/>
<rect x="373" y="492.45" width="112.096" height="5.85" rx="2.925" fill="#DDE3E9"/>
</g>
<path fill-rule="evenodd" clip-rule="evenodd" d="M564.954 497.5C568.82 497.5 571.954 494.366 571.954 490.5C571.954 486.634 568.82 483.5 564.954 483.5C561.088 483.5 557.954 486.634 557.954 490.5C557.954 494.366 561.088 497.5 564.954 497.5Z" fill="#DDE3E9"/>
<path fill-rule="evenodd" clip-rule="evenodd" d="M564.954 493.5C566.611 493.5 567.954 492.157 567.954 490.5C567.954 488.843 566.611 487.5 564.954 487.5C563.297 487.5 561.954 488.843 561.954 490.5C561.954 492.157 563.297 493.5 564.954 493.5Z" fill="#F2F2F2"/>
</g>
<g clip-path="url(#clip36_0_73)">
<rect x="364" y="424" width="225" height="39" rx="4" fill="white"/>
<g clip-path="url(#clip37_0_73)">
<rect x="373" y="435.7" width="167" height="5.85" rx="2.925" fill="#DDE3E9"/>
<rect x="373" y="445.45" width="112.096" height="5.85" rx="2.925" fill="#DDE3E9"/>
</g>
<path fill-rule="evenodd" clip-rule="evenodd" d="M564.954 450.5C568.82 450.5 571.954 447.366 571.954 443.5C571.954 439.634 568.82 436.5 564.954 436.5C561.088 436.5 557.954 439.634 557.954 443.5C557.954 447.366 561.088 450.5 564.954 450.5Z" fill="#DDE3E9"/>
<path fill-rule="evenodd" clip-rule="evenodd" d="M564.954 446.5C566.611 446.5 567.954 445.157 567.954 443.5C567.954 441.843 566.611 440.5 564.954 440.5C563.297 440.5 561.954 441.843 561.954 443.5C561.954 445.157 563.297 446.5 564.954 446.5Z" fill="#F2F2F2"/>
</g>
</g>
</g>
<path fill-rule="evenodd" clip-rule="evenodd" d="M765.986 401.376C762.041 398.701 756.796 398 752.076 398C733.64 398 716.311 404.84 701.341 415.032C693.138 420.616 685.8 427.728 679.322 435.132C675.582 439.407 672.248 444.03 669.887 449.173C668.294 452.644 667.201 456.261 666.46 459.991C665.557 464.537 664.839 469.175 664.515 473.797C664.387 475.617 663.33 485.274 666.356 485.438C666.338 485.676 666.334 485.903 666.353 486.106C659.782 496.38 655.723 508.42 651.958 519.835C648.683 529.769 645.764 539.786 643.87 550.063C641.375 563.592 639.737 577.326 638.958 591.05C638.791 593.999 638.676 596.95 638.577 599.903C638.493 602.422 638.408 604.941 638.325 607.461C638.233 610.284 637.736 613.534 638.185 616.34C638.576 618.784 640.691 618.414 640.785 615.982C640.898 613.045 640.879 610.102 641.008 607.163C641.179 603.262 641.355 599.361 641.546 595.461C642.875 568.369 647.86 541.675 657.061 516.084C660.785 505.728 665.051 495.925 670.535 486.345C675.356 477.922 681.156 469.767 687.084 462.173C692.845 454.792 698.836 447.583 705.895 441.33C711.624 436.256 717.926 431.835 724.404 427.722C732.631 422.498 740.843 417.401 749.755 413.391C754.388 411.307 759.108 409.441 763.777 407.44C764.617 407.081 765.517 406.732 766.325 406.315C769.02 404.925 768.133 402.832 765.986 401.376Z" fill="#C1DEE2"/>
<path fill-rule="evenodd" clip-rule="evenodd" d="M691.818 496C699.295 496 705.949 496.972 712.838 499.943C718.785 502.508 724.205 505.903 729.467 509.599C736.868 514.798 742.698 520.848 746.779 528.865C749.217 533.654 751.006 540.431 749.368 545.655C747.44 551.807 742.144 556.939 735.169 555.855C730.856 555.185 726.903 552.33 723.625 549.643C719.703 546.428 716.564 542.563 713.972 538.27C709.744 531.267 707.26 523.351 703.668 516.033C701.964 512.56 700.317 509.063 698.275 505.762C697.265 504.128 696.189 502.509 694.656 501.294C693.836 500.644 690.378 499.52 691.7 498.061C672.31 498.315 655.132 513.207 651.409 531.641C651.063 533.359 650.792 535.091 650.505 536.82C650.325 537.911 650.398 541.937 649.422 542.634C647.27 544.172 648.174 539.499 648.267 538.826C648.506 537.087 648.76 535.35 649.027 533.615C650.481 524.181 654.681 515.411 661.685 508.683C669.694 500.99 680.501 496 691.818 496Z" fill="#89C5CC"/>
<path fill-rule="evenodd" clip-rule="evenodd" d="M54.9379 528.736C73.6043 560.052 95.3449 590.374 108.401 624.613C107.875 620.577 107.317 616.545 106.692 612.52C103.38 591.179 99.2624 569.994 94.9359 548.835C92.7326 538.062 90.4023 527.327 88.0123 516.594C86.7268 510.829 85.4572 505.061 84.1452 499.302C83.8275 497.906 83.5544 495.469 83.1566 493C95.8449 534.637 108.081 576.305 117.031 618.942C118.205 624.538 119.205 630.124 120.024 635.7C120.304 634.428 120.58 633.156 120.881 631.887C124.503 616.68 129.935 601.594 136.403 587.374C139.495 580.575 143.046 573.924 147.228 567.726C149.836 563.863 155.986 559.271 158.364 555.314C145.355 579.176 140.657 609.032 133.145 634.973C131.312 641.304 129.467 647.624 127.659 653.955C138.987 631.237 156.563 612.571 181 604.483C151.42 624.027 133.678 658.254 121.722 693.26C121.683 693.675 121.636 694.09 121.595 694.506C125.114 687.829 129.545 681.789 135.551 677.56C148.407 668.504 162.667 671.142 175.137 678.91C165.35 672.689 147.663 678.354 139.428 684.677C133.533 689.203 128.495 695.275 124.12 701.2C123.072 702.62 121.641 704.277 120.13 706.044C118.012 719.795 114.56 733.452 109.672 747C110.479 743.111 109.896 736.892 110.12 733.993C110.144 733.68 110.164 733.365 110.188 733.053C109.445 736.019 108.727 738.951 108.036 741.837C109.41 736.331 110.156 730.583 110.739 724.776C110.889 722.281 111.036 719.785 111.19 717.29C111.141 712.553 110.946 707.799 110.616 703.036C109.447 698.408 108.137 694.042 107.056 690.411C103.159 677.31 97.4442 664.76 90.4108 653.051C83.9937 642.366 76.3124 632.688 67.4448 623.935C62.6643 619.217 57.6614 614.725 52.7289 610.17C50.9453 608.523 47.7572 604.474 45 602.363C65.0805 613.434 85.7489 625.41 100.398 643.248C98.6802 636.653 96.8149 630.151 94.8417 623.78C84.8311 591.454 72.1913 557.953 54.9379 528.736Z" fill="#DDE3E9"/>
<path fill-rule="evenodd" clip-rule="evenodd" d="M75 706C75 741.899 77.8428 771 116 771C154.157 771 157 741.899 157 706" fill="#C5CFD6"/>
<rect x="598" y="188" width="6" height="25" rx="3" fill="#DDE3E9"/>
<rect x="612" y="172" width="6" height="41" rx="3" fill="#DDE3E9"/>
<rect x="626" y="164" width="6" height="49" rx="3" fill="#DDE3E9"/>
<rect x="640" y="172" width="6" height="41" rx="3" fill="#DDE3E9"/>
<rect x="654" y="156" width="6" height="57" rx="3" fill="#C5CFD6"/>
<path fill-rule="evenodd" clip-rule="evenodd" d="M106 462.256C106 451.117 115.002 442 126 442V462.256L112.332 477C108.444 473.395 106 468.107 106 462.256Z" fill="#F2F2F2"/>
<path fill-rule="evenodd" clip-rule="evenodd" d="M125.471 462H145.668C145.668 467.221 143.538 472.113 140.171 475.668C136.468 479.556 131.195 482 125.471 482C120.198 482 115.372 479.891 111.668 476.557L125.471 462Z" fill="#AFB9C5"/>
<path fill-rule="evenodd" clip-rule="evenodd" d="M146 462C146 451.002 136.998 442 126 442V462H146ZM116 442L124 460L106 452C107.78 447.334 111.777 443.78 116 442Z" fill="#C5CFD6"/>
<path fill-rule="evenodd" clip-rule="evenodd" d="M756.766 471.179C754.845 473.219 752.123 474.5 749.095 474.5C743.278 474.5 738.562 469.799 738.562 464C738.562 458.201 743.278 453.5 749.095 453.5V434C732.546 434 719 447.503 719 464C719 480.497 732.546 494 749.095 494C757.788 494 765.645 490.334 771 484.502L756.766 471.179Z" fill="#F2F2F2"/>
<path fill-rule="evenodd" clip-rule="evenodd" d="M749 434V453.5C754.799 453.5 759.5 458.201 759.5 464H779C779 447.503 765.497 434 749 434Z" fill="#AFB9C5"/>
<path fill-rule="evenodd" clip-rule="evenodd" d="M759.097 464C759.097 467.407 757.492 470.435 755 472.391L767.262 488C774.399 482.412 779 473.749 779 464H759.097Z" fill="#C5CFD6"/>
<path fill-rule="evenodd" clip-rule="evenodd" d="M566.051 195.504C564.573 197.068 562.479 198.05 560.15 198.05C555.675 198.05 552.048 194.446 552.048 190C552.048 185.554 555.675 181.95 560.15 181.95V167C547.42 167 537 177.352 537 190C537 202.648 547.42 213 560.15 213C566.837 213 572.88 210.189 577 205.718L566.051 195.504Z" fill="#F2F2F2"/>
<path fill-rule="evenodd" clip-rule="evenodd" d="M560 167V181.95C564.446 181.95 568.05 185.554 568.05 190H583C583 177.352 572.648 167 560 167Z" fill="#AFB9C5"/>
<path fill-rule="evenodd" clip-rule="evenodd" d="M568.073 190C568.073 192.555 566.869 194.827 565 196.293L574.196 208C579.55 203.809 583 197.312 583 190H568.073Z" fill="#C5CFD6"/>
<path fill-rule="evenodd" clip-rule="evenodd" d="M202.007 212.986C202.003 212.996 201.999 213.006 201.993 213.018C201.999 213.008 202.007 212.968 202.007 212.986Z" fill="#C5CFD6"/>
<path fill-rule="evenodd" clip-rule="evenodd" d="M201.998 213.001C201.998 213.003 201.996 213.007 201.996 213.011C201.996 213.001 202.014 212.971 201.998 213.001Z" fill="#C5CFD6"/>
<path fill-rule="evenodd" clip-rule="evenodd" d="M202.067 212.832C202.053 212.872 202.035 212.91 202.019 212.95C202.027 212.93 202.035 212.914 202.043 212.894C201.835 213.414 201.967 213.076 202.067 212.832Z" fill="#C5CFD6"/>
<path fill-rule="evenodd" clip-rule="evenodd" d="M202.022 212.953C202.014 212.971 202.006 212.991 201.998 213.009C201.94 213.121 202.022 212.953 202.022 212.953Z" fill="#C5CFD6"/>
<path fill-rule="evenodd" clip-rule="evenodd" d="M201.999 213.002C201.999 213 201.999 213 202.001 212.998C201.999 213 201.999 213 201.999 213.002Z" fill="#C5CFD6"/>
<path fill-rule="evenodd" clip-rule="evenodd" d="M201.99 213.016C201.978 213.04 202.046 212.924 201.99 213.016V213.016Z" fill="#C5CFD6"/>
<path fill-rule="evenodd" clip-rule="evenodd" d="M201.998 213.002L202.002 212.998C202 213 202 213.002 201.998 213.002Z" fill="#C5CFD6"/>
<rect x="154" y="161" width="95" height="63" rx="4" fill="#DDE3E9"/>
<path fill-rule="evenodd" clip-rule="evenodd" d="M190 179L162 224H218L190 179Z" fill="#AFB9C5"/>
<path fill-rule="evenodd" clip-rule="evenodd" d="M217.5 191L193 224H242L217.5 191Z" fill="#C5CFD6"/>
<path fill-rule="evenodd" clip-rule="evenodd" d="M228 191C232.971 191 237 186.971 237 182C237 177.029 232.971 173 228 173C223.029 173 219 177.029 219 182C219 186.971 223.029 191 228 191Z" fill="white"/>
<path fill-rule="evenodd" clip-rule="evenodd" d="M678.993 639.986C678.997 639.996 679.001 640.006 679.007 640.018C679.001 640.008 678.993 639.968 678.993 639.986Z" fill="#C5CFD6"/>
<path fill-rule="evenodd" clip-rule="evenodd" d="M679.002 640.001C679.002 640.003 679.004 640.007 679.004 640.011C679.004 640.001 678.986 639.971 679.002 640.001Z" fill="#C5CFD6"/>
<path fill-rule="evenodd" clip-rule="evenodd" d="M678.933 639.832C678.947 639.872 678.965 639.91 678.981 639.95C678.973 639.93 678.965 639.914 678.957 639.894C679.165 640.414 679.033 640.076 678.933 639.832Z" fill="#C5CFD6"/>
<path fill-rule="evenodd" clip-rule="evenodd" d="M678.978 639.953C678.986 639.971 678.994 639.991 679.002 640.009C679.06 640.121 678.978 639.953 678.978 639.953Z" fill="#C5CFD6"/>
<path fill-rule="evenodd" clip-rule="evenodd" d="M679.001 640.002C679.001 640 679.001 640 678.999 639.998C679.001 640 679.001 640 679.001 640.002Z" fill="#C5CFD6"/>
<path fill-rule="evenodd" clip-rule="evenodd" d="M679.01 640.016C679.022 640.04 678.954 639.924 679.01 640.016V640.016Z" fill="#C5CFD6"/>
<path fill-rule="evenodd" clip-rule="evenodd" d="M679.002 640.002L678.998 639.998C679 640 679 640.002 679.002 640.002Z" fill="#C5CFD6"/>
<rect width="142" height="94" rx="4" transform="matrix(-1 0 0 1 750 563)" fill="#DDE3E9"/>
<path fill-rule="evenodd" clip-rule="evenodd" d="M697.274 590L738.329 657H656.219L697.274 590Z" fill="#AFB9C5"/>
<path fill-rule="evenodd" clip-rule="evenodd" d="M654.944 607.946L691.239 657H618.649L654.944 607.946Z" fill="#C5CFD6"/>
<path fill-rule="evenodd" clip-rule="evenodd" d="M639.5 608C632.044 608 626 601.956 626 594.5C626 587.044 632.044 581 639.5 581C646.956 581 653 587.044 653 594.5C653 601.956 646.956 608 639.5 608Z" fill="white"/>
<path fill-rule="evenodd" clip-rule="evenodd" d="M258.181 492.584C265.455 496.971 272.602 499.091 275.957 498.226C284.37 496.056 285.144 465.257 278.634 453.115C272.125 440.974 238.66 435.681 236.974 459.738C236.388 468.088 239.892 475.539 245.068 481.619L235.787 524.909H262.747L258.181 492.584Z" fill="#B28B67"/>
<path fill-rule="evenodd" clip-rule="evenodd" d="M225.22 451.73C224.349 450.867 223.874 449.634 223.463 448.464C223.036 447.248 222.622 446.02 222.339 444.754C221.772 442.226 221.767 439.318 223.57 437.355C225.015 435.781 227.184 435.074 229.186 434.921C230.52 434.819 231.889 435.005 233.168 435.426C234.436 435.843 235.53 436.675 236.759 437.191C236.806 434.466 237.273 431.615 238.654 429.289C239.983 427.05 242.103 425.794 244.516 425.462C246.993 425.121 249.439 425.701 251.657 426.901C252.212 427.201 252.762 427.516 253.289 427.873C253.73 428.171 254.188 428.531 254.705 428.652C255.282 428.787 255.567 428.454 255.942 428.033C256.381 427.54 256.876 427.105 257.4 426.72C259.716 425.016 262.755 424.316 265.438 425.337C266.674 425.807 267.876 426.606 268.715 427.707C269.463 428.689 269.996 430.246 271.028 430.929C271.466 431.22 271.775 430.835 272.174 430.551C272.773 430.124 273.344 429.652 273.95 429.237C274.801 428.653 275.723 428.217 276.71 427.988C278.155 427.654 280.152 427.732 280.565 429.626C280.72 430.337 280.601 431.098 280.551 431.815C280.483 432.799 280.411 433.783 280.325 434.766C280.261 435.512 280.179 436.233 280.038 436.966C279.963 437.356 279.728 438.084 279.895 438.476C280.104 438.965 281.07 438.687 281.482 438.704C282.297 438.737 283.115 438.88 283.868 439.228C284.452 439.499 285.066 439.896 285.312 440.565C285.464 440.976 285.424 441.399 285.352 441.822C285.266 442.33 285.364 442.599 285.428 443.112C286.523 442.573 290.314 441.375 290.791 443.337C290.95 443.99 290.588 444.728 290.312 445.279C289.828 446.246 289.194 447.129 288.545 447.972C287.192 449.729 285.577 451.245 283.838 452.541C285.875 453.447 286.406 456.119 284.643 457.711C283.865 458.414 282.818 458.571 281.836 458.526C281.477 458.509 280.959 458.371 280.676 458.434C280.524 458.467 280.361 458.596 280.15 458.611C278.764 458.706 277.2 458.372 275.845 458.064C273.431 457.516 271.146 456.371 269.28 454.628C268.801 454.181 268.406 453.924 267.761 453.93C267.197 453.936 266.643 454.091 266.079 454.105C264.586 454.143 263.24 453.413 261.854 452.927C261.769 454.801 261.236 456.865 260.47 458.55C259.846 459.925 258.541 460.125 257.26 460.245C253.161 460.631 249.048 460.2 244.945 460.206C248.917 461.105 253.022 461.475 256.959 462.532C258.739 463.01 257.38 464.211 256.619 465.043C255.366 466.413 254.434 468.111 253.788 469.899C251.845 467.364 248.41 465.694 245.367 466.473C242.004 467.333 239.637 471.883 241.787 475.155C243.035 477.054 245.289 477.787 247.165 478.603C245.702 480.125 245.348 482.373 244.467 484.267C244.033 485.201 243.423 486.257 242.452 486.583C242.092 486.703 241.671 486.714 241.387 487.007C241.036 487.37 240.952 487.776 240.504 488.088C238.714 489.333 235.919 489.237 234.332 487.612C232.898 486.142 233.271 483.817 234.469 482.327C232.562 481.531 229.087 480.508 229.845 477.535C225.712 477.26 215.678 470.553 221.225 465.652C218.181 463.93 215.385 459.723 217.34 456.014C218.845 453.158 222.347 451.882 225.22 451.73Z" fill="#191847"/>
<path fill-rule="evenodd" clip-rule="evenodd" d="M196.046 666.548H282.829L294.2 805.939H165.017L196.046 666.548Z" fill="#C5CFD6"/>
<path fill-rule="evenodd" clip-rule="evenodd" d="M196.046 666.548H222.737L238.712 805.939H165.017L196.046 666.548Z" fill="black" fill-opacity="0.1"/>
<path fill-rule="evenodd" clip-rule="evenodd" d="M330.51 694.164C320.758 714.861 305.519 765.102 305.519 765.102L318.456 771.017C318.456 771.017 351.281 718.204 371.342 682.102C370.407 690.229 369.455 699.379 368.573 708.998C366.483 731.784 368.572 781.014 369.696 795.234C370.403 804.172 382.539 802.3 383.672 795.211C383.863 794.011 384.645 789.796 385.812 783.507C391.533 752.67 406.507 671.964 406.533 652.202C406.544 644.251 391.02 637.107 381.768 642.667C375.412 635.881 363.383 631.97 356.473 643.18C352.08 650.306 341.642 670.538 330.51 694.164Z" fill="#B28B67"/>
<path fill-rule="evenodd" clip-rule="evenodd" d="M306.444 746.502L350.847 641.241C361.484 624.118 391.308 644.725 387.68 654.657C379.445 677.204 337.56 750.199 335.107 756.916L306.444 746.502Z" fill="#1F28CF"/>
<path fill-rule="evenodd" clip-rule="evenodd" d="M307.144 758.717C306.457 757.768 305.116 757.545 304.217 758.295C302.379 759.831 299.57 762.332 298.58 764.047C297.061 766.681 295.023 772.239 295.023 772.239C298.076 774.003 349.893 803.94 349.893 803.94C349.893 803.94 356.114 798.1 351.831 794.874C347.549 791.647 344.763 789.432 344.763 789.432L325.75 763.217C325.419 762.761 324.777 762.668 324.33 763.012L320.295 766.122C320.295 766.122 314.88 765.649 312.213 764.108C310.522 763.131 308.441 760.507 307.144 758.717Z" fill="#E4E4E4"/>
<path fill-rule="evenodd" clip-rule="evenodd" d="M369.724 788.164C368.655 787.686 367.381 788.164 366.978 789.263C366.153 791.513 364.97 795.085 364.97 797.065C364.97 800.106 365.982 805.939 365.982 805.939C369.507 805.939 429.34 805.939 429.34 805.939C429.34 805.939 431.81 797.769 426.489 797.117C421.168 796.466 417.649 795.941 417.649 795.941L388.085 782.752C387.57 782.522 386.968 782.763 386.753 783.284L384.812 787.997C384.812 787.997 379.886 790.297 376.806 790.297C374.854 790.297 371.742 789.066 369.724 788.164Z" fill="#E4E4E4"/>
<path fill-rule="evenodd" clip-rule="evenodd" d="M409.645 660.29C409.645 690.155 395.473 759.817 395.464 766.393L364.97 766.416C364.97 766.416 371.665 673.178 369.718 672.173C367.771 671.169 289.904 679.953 266.551 679.953C232.875 679.953 218.944 658.702 217.813 619.335H284.524C298.107 620.789 368.957 635.09 395.269 640.006C406.533 642.11 409.645 652.063 409.645 660.29Z" fill="#2B44FF"/>
<path fill-rule="evenodd" clip-rule="evenodd" d="M318.609 633.121C297.275 677.583 207.469 647.561 207.469 647.561C207.469 639.857 210.523 632.133 213.73 624.021C217.168 615.323 220.784 606.178 221 596.134C221.398 577.654 224.851 521.663 239.261 502.749C239.524 501.894 239.79 501.037 240.06 500.178L241.058 500.648C241.213 500.487 241.37 500.33 241.528 500.178L272.971 505.043C272.971 519.275 282.072 532.77 290.265 544.918C292.258 547.874 294.198 550.75 295.94 553.538C298.221 557.189 300.796 560.906 303.434 564.714C316.796 584.002 331.791 605.649 318.609 633.121Z" fill="#C1DEE2"/>
<path fill-rule="evenodd" clip-rule="evenodd" d="M278.319 624.716C280.422 613.857 281.786 606.607 282.412 602.967C299.163 621.909 308.84 631.49 311.443 631.71C316.34 632.123 319.957 627.778 320.988 629C322.69 634.058 317.881 646.721 308.689 648.562C304.3 649.441 297.507 640.383 294.708 637.173C293.608 635.911 288.145 631.759 278.319 624.716ZM307.255 566.818C311.597 566.818 313.929 568.615 316.497 572.239C319.064 575.864 321.494 592.957 317.372 592.957C313.25 592.957 295.979 586.35 295.979 581.907C295.979 577.465 307.763 575.584 307.763 572.239C307.763 568.895 302.912 566.818 307.255 566.818Z" fill="#B28B67"/>
<path fill-rule="evenodd" clip-rule="evenodd" d="M234.175 521.22C223.147 567.233 227.639 606.04 269.552 641.241C269.059 643.009 268.764 644.066 268.764 644.066C219.567 609.657 219.543 567.959 234.175 521.22Z" fill="black" fill-opacity="0.2"/>
<path fill-rule="evenodd" clip-rule="evenodd" d="M574.823 421.65C567.538 426.041 560.38 428.162 557.02 427.296C548.594 425.125 547.82 394.302 554.339 382.151C560.858 369.999 594.372 364.703 596.061 388.779C596.647 397.134 593.139 404.592 587.955 410.676L597.25 454H570.25L574.823 421.65Z" fill="#B28B67"/>
<path fill-rule="evenodd" clip-rule="evenodd" d="M569.728 368.146C573.287 367.562 582.868 367.161 584.635 367.161C585.764 367.161 586.988 367.419 587.657 366.383C588.204 365.533 588.004 364.098 588.167 363.112C588.357 361.968 588.627 360.838 588.899 359.711C589.675 356.504 590.849 353.453 592.49 350.589C595.571 345.215 600.084 341.005 605.781 338.556C612.073 335.851 619.192 335.232 625.959 335.78C633.201 336.367 639.757 338.758 646.595 341.008C653.111 343.152 659.935 343.995 666.75 342.949C673.617 341.894 678.805 338.172 684.596 334.64C690.525 331.024 697.301 328.659 704.31 329.203C710.853 329.71 716.883 332.412 722.293 336.021C727.355 339.397 731.532 343.46 733.89 349.177C736.427 355.327 736.424 362.078 732.253 367.514C726.206 375.392 714.981 377.43 705.643 377.227C700.241 377.11 694.936 376.124 689.836 374.331C683.035 371.938 677.157 367.884 670.795 364.594C667.809 363.05 664.722 361.782 661.487 360.869C658.347 359.983 655.255 359.576 652.413 361.472C649.406 363.479 646.711 365.45 643.271 366.706C639.971 367.91 636.476 368.584 632.96 368.557C626.119 368.504 619.376 366.373 612.732 364.945C607.314 363.781 601.517 362.621 595.993 363.74C593.688 364.207 590.322 365.171 589.489 367.567C603.5 370.106 609.003 387.434 605.053 400.154C602.921 407.02 590.106 415.046 585.124 411.437C581.967 409.15 583.884 406.148 585.124 404.166C587.499 400.371 588.312 395.496 583.917 392.854C580.126 390.575 576.14 395.987 576.064 395.981C575.023 395.899 566.02 390.807 559.817 383.377C553.697 383.74 552.769 379.705 554.23 376.405C555.691 373.106 564.811 368.953 569.728 368.146Z" fill="#191847"/>
<path fill-rule="evenodd" clip-rule="evenodd" d="M615.213 549L572.941 687.467L552.464 805.223H536.408L558.046 549H615.213Z" fill="#997659"/>
<path fill-rule="evenodd" clip-rule="evenodd" d="M630.336 549C627.465 625.026 630.844 664.241 631.486 671.148C632.129 678.055 640.928 722.842 661.76 807.542L644.651 801.655C611.729 723.973 600.51 683.6 596.734 673.399C592.958 663.199 582.929 621.732 566.648 549H630.336Z" fill="#B28B67"/>
<path fill-rule="evenodd" clip-rule="evenodd" d="M658.761 800.204C659.831 799.725 661.106 800.203 661.509 801.303C662.334 803.556 663.517 807.132 663.517 809.115C663.517 812.159 662.504 818 662.504 818C658.979 818 599.146 818 599.146 818C599.146 818 596.677 809.819 601.998 809.167C607.319 808.515 610.838 807.989 610.838 807.989L640.401 794.784C640.916 794.554 641.519 794.795 641.734 795.317L643.675 800.035C643.675 800.035 648.601 802.338 651.681 802.338C653.632 802.338 656.744 801.106 658.761 800.204Z" fill="#E4E4E4"/>
<path fill-rule="evenodd" clip-rule="evenodd" d="M553.168 800.204C554.238 799.725 555.513 800.203 555.916 801.303C556.74 803.556 557.923 807.132 557.923 809.115C557.923 812.159 556.911 818 556.911 818C553.386 818 493.553 818 493.553 818C493.553 818 491.083 809.819 496.404 809.167C501.725 808.515 505.245 807.989 505.245 807.989L534.808 794.784C535.323 794.554 535.926 794.795 536.14 795.317L538.082 800.035C538.082 800.035 543.007 802.338 546.087 802.338C548.039 802.338 551.15 801.106 553.168 800.204Z" fill="#E4E4E4"/>
<path fill-rule="evenodd" clip-rule="evenodd" d="M620.83 549L602.857 619.547H547.959L556.144 549H620.83Z" fill="#69A1AC"/>
<path fill-rule="evenodd" clip-rule="evenodd" d="M630.94 549C639.811 575.642 634.31 619.547 634.31 619.547H578.289L562.884 549H630.94Z" fill="#89C5CC"/>
<path fill-rule="evenodd" clip-rule="evenodd" d="M692.067 584.484C687.873 578.331 659.604 495.535 659.604 495.535L635.222 499.055C635.222 499.055 675.759 585.272 678.075 589.282C681.084 594.491 678.419 603.048 676.612 608.851C676.333 609.748 676.074 610.58 675.86 611.323C679.652 612.415 681.095 610.248 682.616 607.963C684.335 605.383 686.153 602.652 691.569 604.299C693.661 604.935 695.671 605.752 697.635 606.55C704.418 609.308 710.65 611.841 717.81 605.912C718.945 604.972 719.902 601.899 716.295 600.109C707.31 595.651 694.117 587.491 692.067 584.484ZM481.951 580.205L509.19 545.038L522.217 561.669L492.114 585.594C485.704 599.69 481.657 605.96 479.973 604.404C478.553 603.092 478.88 601.39 479.181 599.822C479.416 598.601 479.635 597.46 479 596.65C477.551 594.8 471.124 596.879 465.11 599.113C459.096 601.347 460.104 598.102 461.2 596.329C466.401 590.78 473.318 585.405 481.951 580.205Z" fill="#B28B67"/>
<path fill-rule="evenodd" clip-rule="evenodd" d="M575.56 436.904L565.695 436.608C558.045 492.289 485.204 539.748 483.231 560.438C482.507 568.026 488.321 570.993 485.902 573.613L499.709 581.003C501.482 578.235 506.642 582.117 515.647 577.629C524.653 573.141 584.471 500.309 575.56 436.904Z" fill="#DB2721"/>
<path fill-rule="evenodd" clip-rule="evenodd" d="M591.611 423.212C593.772 422.753 595.896 424.133 596.356 426.294L597.83 433.225C617.917 444.604 668.7 479.904 691.296 555.729C693.67 563.694 692.058 568.366 690.771 572.098C689.89 574.652 689.16 576.766 689.962 579.194L674.209 586.012C673.951 584.172 671.689 583.063 668.77 581.632C664.527 579.551 658.896 576.789 656.019 570.112C653.292 563.782 649.497 555.931 645.06 547.227C646.464 559.383 645.729 570.847 642.012 580.779C632.74 605.557 556.91 590.469 546.058 568.046C540.267 556.08 544.506 544.755 550.113 529.778C557.23 510.765 566.55 485.867 560.356 446.3L557.841 434.475C557.381 432.314 558.76 430.191 560.921 429.732L591.611 423.212Z" fill="#FF4133"/>
</g>
<defs>
<clipPath id="clip0_0_73">
<rect width="888" height="888" fill="white"/>
</clipPath>
<clipPath id="clip1_0_73">
<rect width="837.341" height="272.541" fill="white" transform="translate(29.3297 464.965)"/>
</clipPath>
<clipPath id="clip2_0_73">
<rect width="159" height="302" fill="white" transform="translate(216 180)"/>
</clipPath>
<clipPath id="clip3_0_73">
<rect width="131" height="204" fill="white" transform="translate(230 208)"/>
</clipPath>
<clipPath id="clip4_0_73">
<rect width="131" height="54" fill="white" transform="translate(230 208)"/>
</clipPath>
<clipPath id="clip5_0_73">
<rect width="73" height="21.6" fill="white" transform="translate(269 224.2)"/>
</clipPath>
<clipPath id="clip6_0_73">
<rect width="131" height="42" fill="white" transform="translate(230 270)"/>
</clipPath>
<clipPath id="clip7_0_73">
<rect width="73" height="16.8" fill="white" transform="translate(269 282.6)"/>
</clipPath>
<clipPath id="clip8_0_73">
<rect width="131" height="42" fill="white" transform="translate(230 320)"/>
</clipPath>
<clipPath id="clip9_0_73">
<rect width="73" height="16.8" fill="white" transform="translate(269 332.6)"/>
</clipPath>
<clipPath id="clip10_0_73">
<rect width="131" height="42" fill="white" transform="translate(230 370)"/>
</clipPath>
<clipPath id="clip11_0_73">
<rect width="73" height="16.8" fill="white" transform="translate(269 382.6)"/>
</clipPath>
<clipPath id="clip12_0_73">
<rect width="207" height="302" fill="white" transform="translate(234 206)"/>
</clipPath>
<clipPath id="clip13_0_73">
<rect width="131" height="204" fill="white" transform="translate(296 234)"/>
</clipPath>
<clipPath id="clip14_0_73">
<rect width="131" height="54" fill="white" transform="translate(296 234)"/>
</clipPath>
<clipPath id="clip15_0_73">
<rect width="73" height="21.6" fill="white" transform="translate(305 250.2)"/>
</clipPath>
<clipPath id="clip16_0_73">
<rect width="131" height="42" fill="white" transform="translate(296 296)"/>
</clipPath>
<clipPath id="clip17_0_73">
<rect width="73" height="16.8" fill="white" transform="translate(335 308.6)"/>
</clipPath>
<clipPath id="clip18_0_73">
<rect width="131" height="42" fill="white" transform="translate(296 346)"/>
</clipPath>
<clipPath id="clip19_0_73">
<rect width="73" height="16.8" fill="white" transform="translate(305 358.6)"/>
</clipPath>
<clipPath id="clip20_0_73">
<rect width="131" height="42" fill="white" transform="translate(296 396)"/>
</clipPath>
<clipPath id="clip21_0_73">
<rect width="73" height="16.8" fill="white" transform="translate(335 408.6)"/>
</clipPath>
<clipPath id="clip22_0_73">
<rect width="335" height="346" fill="white" transform="translate(348 231)"/>
</clipPath>
<clipPath id="clip23_0_73">
<rect width="70" height="194" fill="white" transform="translate(597 363)"/>
</clipPath>
<clipPath id="clip24_0_73">
<rect width="34" height="158" fill="white" transform="translate(615 381)"/>
</clipPath>
<clipPath id="clip25_0_73">
<rect width="225" height="282" fill="white" transform="translate(364 275)"/>
</clipPath>
<clipPath id="clip26_0_73">
<rect width="225" height="47" fill="white" transform="translate(364 275)"/>
</clipPath>
<clipPath id="clip27_0_73">
<rect width="167" height="18.8" fill="white" transform="translate(373 289.1)"/>
</clipPath>
<clipPath id="clip28_0_73">
<rect width="225" height="39" fill="white" transform="translate(364 330)"/>
</clipPath>
<clipPath id="clip29_0_73">
<rect width="167" height="15.6" fill="white" transform="translate(373 341.7)"/>
</clipPath>
<clipPath id="clip30_0_73">
<rect width="225" height="39" fill="white" transform="translate(364 377)"/>
</clipPath>
<clipPath id="clip31_0_73">
<rect width="167" height="15.6" fill="white" transform="translate(373 388.7)"/>
</clipPath>
<clipPath id="clip32_0_73">
<rect width="225" height="39" fill="white" transform="translate(364 518)"/>
</clipPath>
<clipPath id="clip33_0_73">
<rect width="167" height="15.6" fill="white" transform="translate(373 529.7)"/>
</clipPath>
<clipPath id="clip34_0_73">
<rect width="225" height="39" fill="white" transform="translate(364 471)"/>
</clipPath>
<clipPath id="clip35_0_73">
<rect width="167" height="15.6" fill="white" transform="translate(373 482.7)"/>
</clipPath>
<clipPath id="clip36_0_73">
<rect width="225" height="39" fill="white" transform="translate(364 424)"/>
</clipPath>
<clipPath id="clip37_0_73">
<rect width="167" height="15.6" fill="white" transform="translate(373 435.7)"/>
</clipPath>
</defs>
</svg>
