<svg width="27" height="27" viewBox="0 0 38 38" fill="none" xmlns="http://www.w3.org/2000/svg">
<g clip-path="url(#clip0_1112_3899)">
<path fill-rule="evenodd" clip-rule="evenodd" d="M28.7616 4.37801L29.1654 4.42867C30.2325 4.57592 31.6449 4.77384 32.4445 5.57501C33.1 6.22892 33.3517 7.29292 33.5021 8.24292L33.5908 8.85409C33.7903 10.2949 33.8425 12.1823 33.5021 14.2786C32.8308 18.4158 30.6284 23.3527 25.0978 27.1748C25.0677 27.4725 25.0661 27.7733 25.0725 28.0742L25.0883 28.5238C25.1136 29.2158 25.139 29.9077 24.9458 30.579C24.645 31.624 23.573 32.3128 22.5708 32.8068L22.08 33.0395L21.4466 33.3182C20.2623 33.8217 18.6631 34.3378 17.6609 33.334C17.0592 32.7339 16.8122 31.8536 16.6111 30.978L16.5367 30.6503C16.4529 30.2365 16.3472 29.8274 16.22 29.4248C16.1409 29.1936 16.0554 28.9577 15.9635 28.7202C15.8625 28.8443 15.7552 28.9632 15.6421 29.0764C15.0959 29.6227 14.2805 30.0043 13.6091 30.2718C12.876 30.5616 12.0464 30.8149 11.2785 31.0239L10.8842 31.1284L10.129 31.3168L9.44497 31.4752L8.62638 31.6493L8.11496 31.7491C7.85991 31.7963 7.59719 31.7808 7.34947 31.7038C7.10175 31.6269 6.87646 31.4909 6.69304 31.3074C6.50962 31.124 6.37357 30.8987 6.29663 30.651C6.21969 30.4033 6.20416 30.1406 6.25138 29.8855L6.38755 29.2031L6.63138 28.0979L6.82771 27.2904L6.97655 26.7204C7.18555 25.9541 7.43888 25.1244 7.73021 24.3929C7.99621 23.72 8.3778 22.9046 8.92405 22.3583L9.05072 22.2364L8.94938 22.1953C8.67879 22.0924 8.4047 21.9989 8.12763 21.915L7.68905 21.7804C6.59021 21.4479 5.41538 21.0901 4.68546 20.3586C3.7988 19.4735 4.09805 18.1261 4.52555 17.0051L4.69971 16.5713L4.97996 15.9379L5.21271 15.4471C5.70671 14.4464 6.39546 13.3745 7.44046 13.0737C7.99463 12.9153 8.57096 12.9058 9.15046 12.9217L9.4988 12.9328C9.95163 12.9486 10.4029 12.966 10.8446 12.9233C14.6668 7.39109 19.6036 5.18867 23.7409 4.51734C25.4006 4.24512 27.0894 4.19826 28.7616 4.37801ZM13.226 24.4468C12.9768 24.2623 12.6789 24.155 12.3694 24.1381C12.0598 24.1212 11.7521 24.1955 11.4843 24.3518L11.3101 24.4689L11.1629 24.6003L10.965 24.8505C10.5533 25.4458 10.319 26.2692 10.1369 27.0387L9.96588 27.7797L9.88513 28.1169L10.1875 28.0441L10.8494 27.8921C11.7645 27.6783 12.7795 27.4013 13.4033 26.8392C13.6745 26.5681 13.8382 26.2077 13.8638 25.8251C13.8894 25.4425 13.7753 25.0635 13.5426 24.7587L13.4128 24.6098L13.3748 24.5734L13.226 24.4468ZM24.599 13.4046C24.305 13.1105 23.956 12.8772 23.5718 12.7179C23.1876 12.5587 22.7758 12.4767 22.36 12.4767C21.9441 12.4766 21.5323 12.5584 21.1481 12.7175C20.7638 12.8766 20.4147 13.1098 20.1206 13.4038C19.8265 13.6978 19.5932 14.0469 19.4339 14.431C19.2747 14.8152 19.1927 15.227 19.1927 15.6429C19.1926 16.0587 19.2744 16.4705 19.4335 16.8548C19.5926 17.239 19.8258 17.5881 20.1198 17.8823C20.7136 18.4762 21.519 18.81 22.3589 18.8102C23.1987 18.8103 24.0043 18.4768 24.5983 17.883C25.1922 17.2893 25.526 16.4839 25.5262 15.644C25.5263 14.8041 25.1928 13.9986 24.599 13.4046Z" />
</g>
<defs>
<clipPath id="clip0_1112_3899">
<rect width="38" height="38" fill="white"/>
</clipPath>
</defs>
</svg>
