<svg width="27" height="27" viewBox="0 0 48 38" fill="none" xmlns="http://www.w3.org/2000/svg">
<g clip-path="url(#clip0_1112_3897)">
<path d="M29.1532 0.0891734C27.8915 -0.274498 26.5778 0.460267 26.2142 1.72199L16.7142 34.972C16.3505 36.2337 17.0853 37.5474 18.347 37.911C19.6087 38.2747 20.9224 37.54 21.286 36.2782L30.786 3.02824C31.1497 1.76652 30.4149 0.452845 29.1532 0.0891734ZM35.1353 9.00285C34.2075 9.93058 34.2075 11.4372 35.1353 12.365L41.763 19.0001L35.1278 25.6353C34.2001 26.563 34.2001 28.0696 35.1278 28.9974C36.0556 29.9251 37.5622 29.9251 38.4899 28.9974L46.8024 20.6849C47.7302 19.7571 47.7302 18.2505 46.8024 17.3228L38.4899 9.01027C37.5622 8.08253 36.0556 8.08253 35.1278 9.01027L35.1353 9.00285ZM12.3724 9.00285C11.4446 8.07511 9.93799 8.07511 9.01025 9.00285L0.697754 17.3153C-0.22998 18.2431 -0.22998 19.7497 0.697754 20.6775L9.01025 28.99C9.93799 29.9177 11.4446 29.9177 12.3724 28.99C13.3001 28.0622 13.3001 26.5556 12.3724 25.6278L5.73721 19.0001L12.3724 12.365C13.3001 11.4372 13.3001 9.93058 12.3724 9.00285Z" fill="#2876FF"/>
</g>
<defs>
<clipPath id="clip0_1112_3897">
<rect width="47.5" height="38" fill="white"/>
</clipPath>
</defs>
</svg>
