<svg width="27" height="27" viewBox="0 0 27 27" xmlns="http://www.w3.org/2000/svg">
<path d="M19.7939 17.4189H18.5431L18.0998 16.9914C19.0893 15.8419 19.8125 14.4878 20.2176 13.0262C20.6227 11.5645 20.6997 10.0314 20.4431 8.53645C19.6989 4.13478 16.0256 0.619779 11.5923 0.0814461C10.0337 -0.115733 8.45061 0.0462512 6.96424 0.555004C5.47786 1.06376 4.12757 1.90579 3.01668 3.01668C1.90579 4.12757 1.06376 5.47786 0.555004 6.96424C0.0462512 8.45061 -0.115733 10.0337 0.0814461 11.5923C0.619779 16.0256 4.13478 19.6989 8.53645 20.4431C10.0314 20.6997 11.5645 20.6227 13.0262 20.2176C14.4878 19.8125 15.8419 19.0893 16.9914 18.0998L17.4189 18.5431V19.7939L24.1481 26.5231C24.7973 27.1723 25.8581 27.1723 26.5073 26.5231C27.1564 25.8739 27.1564 24.8131 26.5073 24.1639L19.7939 17.4189ZM10.2939 17.4189C6.35145 17.4189 3.16895 14.2364 3.16895 10.2939C3.16895 6.35145 6.35145 3.16895 10.2939 3.16895C14.2364 3.16895 17.4189 6.35145 17.4189 10.2939C17.4189 14.2364 14.2364 17.4189 10.2939 17.4189Z" />
</svg>
