<svg width="108" height="108" viewBox="0 0 108 108" fill="none" xmlns="http://www.w3.org/2000/svg">
<path d="M76.2951 9.41309H31.7071C19.3945 9.41309 9.41309 19.3945 9.41309 31.7071V76.2951C9.41309 88.6077 19.3945 98.5891 31.7071 98.5891H76.2951C88.6077 98.5891 98.5891 88.6077 98.5891 76.2951V31.7071C98.5891 19.3945 88.6077 9.41309 76.2951 9.41309Z" fill="url(#paint0_linear_1000_5015)"/>
<g opacity="0.9">
<path d="M40.6236 66.2632C40.1843 66.2634 39.7494 66.1771 39.3435 66.0092C38.9377 65.8413 38.5689 65.595 38.2582 65.2845L29.3406 56.3669C29.0298 56.0564 28.7833 55.6876 28.6151 55.2818C28.4469 54.8759 28.3604 54.4409 28.3604 54.0015C28.3604 53.5622 28.4469 53.1272 28.6151 52.7213C28.7833 52.3155 29.0298 51.9467 29.3406 51.6361L38.2582 42.7185C38.8855 42.0912 39.7364 41.7388 40.6236 41.7388C41.5108 41.7388 42.3616 42.0912 42.989 42.7185C43.6163 43.3459 43.9687 44.1967 43.9687 45.0839C43.9687 45.9711 43.6163 46.822 42.989 47.4493L36.4345 54.0015L42.989 60.5537C43.457 61.0214 43.7757 61.6174 43.9048 62.2663C44.034 62.9152 43.9678 63.5878 43.7145 64.1991C43.4613 64.8103 43.0325 65.3327 42.4822 65.7001C41.932 66.0676 41.2852 66.2635 40.6236 66.2632Z" fill="white"/>
</g>
<g opacity="0.9">
<path d="M67.3847 66.2632C66.7231 66.2635 66.0762 66.0676 65.526 65.7001C64.9758 65.3327 64.5469 64.8103 64.2937 64.1991C64.0405 63.5878 63.9742 62.9152 64.1034 62.2663C64.2326 61.6174 64.5513 61.0214 65.0193 60.5537L71.5737 54.0015L65.0193 47.4493C64.7087 47.1387 64.4623 46.7699 64.2941 46.3641C64.126 45.9582 64.0395 45.5232 64.0395 45.0839C64.0395 44.6446 64.126 44.2097 64.2941 43.8038C64.4623 43.3979 64.7087 43.0292 65.0193 42.7185C65.6466 42.0912 66.4975 41.7388 67.3847 41.7388C67.824 41.7388 68.259 41.8253 68.6648 41.9934C69.0707 42.1615 69.4394 42.4079 69.7501 42.7185L78.6677 51.6361C78.9784 51.9467 79.2249 52.3155 79.3931 52.7213C79.5613 53.1272 79.6479 53.5622 79.6479 54.0015C79.6479 54.4409 79.5613 54.8759 79.3931 55.2818C79.2249 55.6876 78.9784 56.0564 78.6677 56.3669L69.7501 65.2845C69.4394 65.595 69.0706 65.8413 68.6647 66.0092C68.2589 66.1771 67.8239 66.2634 67.3847 66.2632Z" fill="white"/>
</g>
<g opacity="0.5">
<path d="M49.5428 72.9497C49.2314 72.9493 48.9215 72.9057 48.622 72.8204C47.7695 72.5766 47.0487 72.0043 46.6181 71.2292C46.1875 70.4541 46.0823 69.5397 46.3258 68.6871L55.2434 37.4754C55.357 37.0455 55.5553 36.6425 55.8266 36.29C56.0979 35.9376 56.4368 35.6428 56.8234 35.423C57.21 35.2031 57.6366 35.0626 58.0782 35.0096C58.5198 34.9567 58.9675 34.9923 59.3951 35.1145C59.8228 35.2367 60.2218 35.443 60.5687 35.7212C60.9157 35.9995 61.2036 36.3442 61.4157 36.7351C61.6279 37.126 61.7599 37.5553 61.804 37.9979C61.8482 38.4404 61.8036 38.8874 61.673 39.3125L52.7554 70.5241C52.5559 71.2224 52.1345 71.8368 51.5549 72.2744C50.9753 72.712 50.269 72.949 49.5428 72.9497Z" fill="white"/>
</g>
<defs>
<linearGradient id="paint0_linear_1000_5015" x1="19.6884" y1="19.6884" x2="91.0515" y2="91.0515" gradientUnits="userSpaceOnUse">
<stop stop-color="#7AA7FF"/>
<stop offset="0.252" stop-color="#318EFC"/>
<stop offset="0.555" stop-color="#1B6BE3"/>
<stop offset="0.815" stop-color="#276BEF"/>
<stop offset="1" stop-color="#0C46DB"/>
</linearGradient>
</defs>
</svg>
