<svg viewBox="0 0 150 150" fill="none" xmlns="http://www.w3.org/2000/svg">
<g clip-path="url(#clip0_664_9806)">
<path d="M148.137 125.777L147.87 125.417C142.374 119.054 135.621 114.393 129.091 109.89C126.425 108.05 121.688 105.085 118.336 102.7C126.114 91.7171 130.28 78.5853 130.257 65.127C130.257 29.1592 101.098 0 65.127 0C29.1563 0 0 29.1592 0 65.127C0 101.095 29.1592 130.257 65.127 130.257C78.5684 130.277 91.684 126.119 102.659 118.359C105.047 121.708 108.009 126.437 109.852 129.103C114.366 135.645 119.033 142.383 125.391 147.873L125.751 148.137C127.778 149.376 130.113 150.022 132.489 150C136.081 149.989 139.541 148.647 142.201 146.232L146.133 142.31L146.227 142.213C150.413 137.631 151.216 130.72 148.137 125.777ZM65.127 113.265C53.9884 113.266 43.1941 109.405 34.5833 102.339C25.9724 95.274 20.0779 85.4415 17.904 74.5171C15.7301 63.5928 17.4115 52.2527 22.6615 42.4291C27.9115 32.6055 36.4054 24.9062 46.6958 20.6432C56.9863 16.3801 68.4365 15.8171 79.0955 19.0501C89.7545 22.2831 98.9627 29.112 105.151 38.3732C111.34 47.6344 114.125 58.7549 113.034 69.8398C111.942 80.9246 107.04 91.288 99.1641 99.1641C94.7048 103.648 89.4004 107.203 83.5579 109.624C77.7154 112.044 71.4509 113.282 65.127 113.265Z" fill="white"/>
<path d="M65.1279 71.1357C75.6855 71.1357 84.2441 62.5771 84.2441 52.0195C84.2441 41.4619 75.6855 32.9033 65.1279 32.9033C54.5703 32.9033 46.0117 41.4619 46.0117 52.0195C46.0117 62.5771 54.5703 71.1357 65.1279 71.1357Z" fill="white"/>
<path d="M96.6182 86.8975C96.3312 84.2163 95.1314 81.7152 93.2197 79.8135C91.3004 77.8898 88.7835 76.6768 86.083 76.374C82.1309 75.9551 72.3135 75.7266 66.1992 75.7266C60.085 75.7266 48.0527 75.9551 44.0977 76.374C41.3979 76.6772 38.8814 77.8889 36.9609 79.8105C35.0501 81.7126 33.8513 84.2137 33.5654 86.8945V86.9766C33.4717 87.8848 33.416 88.6728 33.3809 89.3467C34.4633 90.7622 35.6377 92.105 36.8965 93.3662C44.386 100.855 54.5433 105.061 65.1343 105.061C75.7252 105.061 85.8825 100.855 93.3721 93.3662C94.6112 92.1248 95.7689 90.8047 96.8379 89.4141C96.7939 88.7256 96.7295 87.917 96.6328 86.9795L96.6182 86.8975Z" fill="white"/>
</g>
<defs>
<clipPath id="clip0_664_9806">
<rect width="150" height="150" fill="white"/>
</clipPath>
</defs>
</svg>
