<svg width="72" height="72" viewBox="0 0 72 72" fill="none" xmlns="http://www.w3.org/2000/svg">
<path d="M56.6973 9.35693C58.2668 9.35693 59.772 9.98041 60.8818 11.0902C61.9916 12.2 62.615 13.7052 62.615 15.2747V56.6988C62.615 58.2683 61.9916 59.7735 60.8818 60.8832C59.772 61.993 58.2668 62.6165 56.6973 62.6165H15.2732C13.7037 62.6165 12.1985 61.993 11.0887 60.8832C9.97894 59.7735 9.35547 58.2683 9.35547 56.6988V15.2747C9.35547 13.7052 9.97894 12.2 11.0887 11.0902C12.1985 9.98041 13.7037 9.35693 15.2732 9.35693H56.6973ZM55.2179 55.2193V39.5374C55.2179 36.9791 54.2016 34.5256 52.3927 32.7167C50.5837 30.9077 48.1302 29.8915 45.572 29.8915C43.0569 29.8915 40.1277 31.4301 38.7074 33.738V30.4536H30.4522V55.2193H38.7074V40.6321C38.7074 38.3538 40.5419 36.4897 42.8202 36.4897C43.9189 36.4897 44.9725 36.9262 45.7494 37.703C46.5262 38.4799 46.9626 39.5335 46.9626 40.6321V55.2193H55.2179ZM20.8359 25.8082C22.1542 25.8082 23.4186 25.2845 24.3508 24.3523C25.283 23.4201 25.8068 22.1557 25.8068 20.8373C25.8068 18.0856 23.5876 15.8368 20.8359 15.8368C19.5097 15.8368 18.2378 16.3637 17.3 17.3015C16.3622 18.2392 15.8354 19.5111 15.8354 20.8373C15.8354 23.5891 18.0841 25.8082 20.8359 25.8082ZM24.9487 55.2193V30.4536H16.7526V55.2193H24.9487Z" fill="#276BEF"/>
</svg>
