<svg width="19" height="18" viewBox="0 0 19 18" fill="none" xmlns="http://www.w3.org/2000/svg">
<path d="M5.09503 2.27155C5.09848 2.71613 4.92689 3.14421 4.61732 3.46331C4.30776 3.7824 3.88507 3.96688 3.44059 3.9769C2.99705 3.96062 2.57671 3.77458 2.26643 3.45719C1.95616 3.13981 1.77967 2.71537 1.77344 2.27155C1.79272 1.83917 1.97569 1.43027 2.28528 1.12778C2.59485 0.825295 3.00787 0.651839 3.44059 0.642578C3.87207 0.652011 4.28362 0.825898 4.59114 1.12869C4.89866 1.43148 5.07892 1.8403 5.09503 2.27155ZM1.95161 7.00578C1.95161 6.02585 2.57521 6.17857 3.44059 6.17857C4.306 6.17857 4.91686 6.02585 4.91686 7.00578V16.5506C4.91686 17.5433 4.29327 17.3396 3.44059 17.3396C2.58793 17.3396 1.95161 17.5433 1.95161 16.5506V7.00578Z" stroke="white" stroke-linecap="round" stroke-linejoin="round"/>
<path d="M7.48828 7.00579C7.48828 6.45855 7.6919 6.25493 8.01006 6.1913C8.32823 6.12766 9.42269 6.1913 9.80448 6.1913C10.1863 6.1913 10.339 6.81488 10.3263 7.28576C10.6528 6.84746 11.0864 6.5003 11.5856 6.27747C12.0847 6.05464 12.6326 5.96363 13.177 6.01313C13.7115 5.98044 14.247 6.06059 14.7486 6.24835C15.25 6.4361 15.7066 6.72728 16.0882 7.10295C16.4699 7.47862 16.7682 7.93038 16.9639 8.42889C17.1595 8.9274 17.2481 9.4615 17.224 9.99649V16.5124C17.224 17.5051 16.6131 17.3014 15.7477 17.3014C14.8823 17.3014 14.2714 17.5051 14.2714 16.5124V11.4219C14.2938 11.1599 14.2596 10.8961 14.171 10.6485C14.0824 10.401 13.9415 10.1753 13.7581 9.98701C13.5746 9.79868 13.3527 9.65204 13.1075 9.55706C12.8623 9.46208 12.5995 9.42096 12.337 9.43653C12.0758 9.4299 11.8161 9.47883 11.5751 9.58011C11.3342 9.68137 11.1175 9.83267 10.9394 10.024C10.7614 10.2153 10.626 10.4422 10.5422 10.6898C10.4584 10.9374 10.4282 11.1999 10.4535 11.46V16.5506C10.4535 17.5433 9.82994 17.3396 8.96454 17.3396C8.09915 17.3396 7.48828 17.5433 7.48828 16.5506V7.00579Z" stroke="white" stroke-linecap="round" stroke-linejoin="round"/>
</svg>
