<svg width="28" height="28" viewBox="0 0 23 28" fill="none" xmlns="http://www.w3.org/2000/svg">
<path d="M11.5 0C14.4163 0.00344047 17.2122 1.16347 19.2744 3.22563C21.3365 5.28778 22.4966 8.08367 22.5 11C22.5027 13.3831 21.7243 15.7014 20.284 17.6C20.284 17.6 19.984 17.995 19.935 18.052L11.5 28L3.06099 18.047C3.01699 17.994 2.71599 17.6 2.71599 17.6L2.71499 17.597C1.27568 15.6991 0.497679 13.382 0.499992 11C0.503433 8.08367 1.66346 5.28778 3.72562 3.22563C5.78777 1.16347 8.58367 0.00344047 11.5 0ZM11.5 15C12.2911 15 13.0645 14.7654 13.7223 14.3259C14.3801 13.8864 14.8928 13.2616 15.1955 12.5307C15.4983 11.7998 15.5775 10.9956 15.4231 10.2196C15.2688 9.44372 14.8878 8.73098 14.3284 8.17157C13.769 7.61216 13.0563 7.2312 12.2804 7.07686C11.5044 6.92252 10.7002 7.00173 9.96926 7.30448C9.23836 7.60723 8.61364 8.11992 8.17412 8.77772C7.73459 9.43552 7.49999 10.2089 7.49999 11C7.50132 12.0605 7.92317 13.0771 8.67303 13.827C9.42289 14.5768 10.4395 14.9987 11.5 15Z" fill="#2876FF"/>
</svg>
