<svg width="15" height="15" viewBox="0 0 15 15" fill="none" xmlns="http://www.w3.org/2000/svg">
<g clip-path="url(#clip0_938_4493)">
<path d="M5.74782 13.4815C5.13328 13.8779 4.40097 14.0507 3.67402 13.9708C2.94708 13.8908 2.26983 13.563 1.75617 13.0424L1.30711 12.6033C1.11023 12.4019 1 12.1315 1 11.8499C1 11.5683 1.11023 11.2978 1.30711 11.0965L3.21312 9.21037C3.41281 9.01413 3.68158 8.90417 3.96156 8.90417C4.24153 8.90417 4.51031 9.01413 4.70999 9.21037C4.91136 9.40725 5.1818 9.51748 5.46342 9.51748C5.74504 9.51748 6.01547 9.40725 6.21684 9.21037L9.21058 6.21663C9.31045 6.11821 9.38976 6.00092 9.44389 5.87158C9.49802 5.74224 9.5259 5.60342 9.5259 5.46321C9.5259 5.32299 9.49802 5.18418 9.44389 5.05483C9.38976 4.92549 9.31045 4.8082 9.21058 4.70978C9.01434 4.5101 8.90438 4.24132 8.90438 3.96135C8.90438 3.68137 9.01434 3.4126 9.21058 3.21291L11.1066 1.31687C11.308 1.12 11.5784 1.00977 11.86 1.00977C12.1417 1.00977 12.4121 1.12 12.6135 1.31687L13.0526 1.76594C13.5731 2.2796 13.9009 2.95685 13.9809 3.68379C14.0609 4.41074 13.8881 5.14305 13.4916 5.75759C11.4259 8.80196 8.79751 11.4236 5.74782 13.4815Z" stroke-linecap="round" stroke-linejoin="round"/>
</g>
<defs>
<clipPath id="clip0_938_4493">
<rect width="14" height="14" transform="translate(0.5 0.5)"/>
</clipPath>
</defs>
</svg>
