<svg width="106" height="106" viewBox="0 0 106 106" fill="none" xmlns="http://www.w3.org/2000/svg">
<rect x="15.1113" y="17.1841" width="44.5117" height="50.5156" fill="white"/>
<rect x="59.2109" y="17.1841" width="37.6797" height="50.5156" fill="#91BBF5"/>
<path fill-rule="evenodd" clip-rule="evenodd" d="M100.474 19.8748C100.474 16.6551 99.1931 13.5634 96.9185 11.2844C94.6395 9.00984 91.5479 7.729 88.3281 7.729C73.8812 7.729 32.1084 7.729 17.6615 7.729C14.4417 7.729 11.35 9.00984 9.07104 11.2844C6.79646 13.5634 5.51562 16.6551 5.51562 19.8748V68.4582C5.51562 71.6779 6.79646 74.7696 9.07104 77.0486C11.35 79.3232 14.4417 80.604 17.6615 80.604H38.0885L50.3448 96.9457C50.972 97.7804 51.9525 98.2707 52.9948 98.2707C54.0371 98.2707 55.0176 97.7804 55.6448 96.9457L67.901 80.604H88.3281C91.5479 80.604 94.6395 79.3232 96.9185 77.0486C99.1931 74.7696 100.474 71.6779 100.474 68.4582C100.474 57.6638 100.474 30.6692 100.474 19.8748ZM27.8375 45.5843C24.6663 48.3888 22.4403 52.2446 21.7027 56.595C21.6939 56.648 21.685 56.701 21.6806 56.754C21.4907 58.3219 21.981 59.8987 23.0321 61.0823C24.0833 62.266 25.5894 62.9418 27.1705 62.9373C32.9122 62.9373 47.7169 62.9373 53.463 62.8755C54.9911 62.8755 56.4795 62.2042 57.513 61.0382C58.551 59.8678 59.0368 58.3131 58.8469 56.7628C58.8425 56.7187 58.838 56.6745 58.8292 56.6348C58.127 52.2667 55.9186 48.4021 52.7519 45.5887C49.9385 49.4135 45.407 51.8957 40.2969 51.8957C35.1868 51.8957 30.6509 49.4091 27.8375 45.5843ZM75.6302 40.854V35.3332C75.6302 33.5047 74.1462 32.0207 72.3177 32.0207C70.4892 32.0207 69.0052 33.5047 69.0052 35.3332V40.854H63.4844C61.6559 40.854 60.1719 42.338 60.1719 44.1665C60.1719 45.995 61.6559 47.479 63.4844 47.479H69.0052V52.9998C69.0052 54.8283 70.4892 56.3123 72.3177 56.3123C74.1462 56.3123 75.6302 54.8283 75.6302 52.9998V47.479H81.151C82.9795 47.479 84.4635 45.995 84.4635 44.1665C84.4635 42.338 82.9795 40.854 81.151 40.854H75.6302ZM40.2969 25.3957C34.2019 25.3957 29.2552 30.3423 29.2552 36.4373C29.2552 42.5323 34.2019 47.479 40.2969 47.479C46.3919 47.479 51.3385 42.5323 51.3385 36.4373C51.3385 30.3423 46.3919 25.3957 40.2969 25.3957Z" fill="url(#paint0_linear_938_4573)"/>
<defs>
<linearGradient id="paint0_linear_938_4573" x1="16.4572" y1="18.1617" x2="88.8311" y2="94.066" gradientUnits="userSpaceOnUse">
<stop stop-color="#7AA7FF"/>
<stop offset="0.252" stop-color="#318EFC"/>
<stop offset="0.555" stop-color="#1B6BE3"/>
<stop offset="0.815" stop-color="#276BEF"/>
<stop offset="1" stop-color="#0C46DB"/>
</linearGradient>
</defs>
</svg>
