<svg width="368" height="368" viewBox="0 0 368 368" fill="none" xmlns="http://www.w3.org/2000/svg">
<circle cx="184" cy="184" r="184" fill="#D7E8FF"/>
<path d="M138.204 93.1757L136.952 96.011C136.853 96.2357 136.863 96.4931 136.98 96.7084L138.455 99.4349C138.815 100.1 138.128 100.843 137.437 100.538L134.602 99.2864C134.377 99.1877 134.12 99.1978 133.904 99.3144L131.178 100.789C130.513 101.149 129.77 100.463 130.075 99.7708L131.326 96.9354C131.426 96.7107 131.415 96.4534 131.298 96.2381L129.824 93.5115C129.464 92.8468 130.15 92.1036 130.841 92.4083L133.677 93.66C133.901 93.7595 134.159 93.7487 134.375 93.632L137.101 92.1572C137.765 91.798 138.508 92.4845 138.204 93.1757Z" fill="#2876FF"/>
<path d="M252.136 93.9152L252.043 96.466C252.036 96.6682 252.122 96.8618 252.277 96.9908L254.237 98.6258C254.715 99.0246 254.417 99.8029 253.795 99.7803L251.244 99.6878C251.042 99.6808 250.848 99.7671 250.719 99.9218L249.084 101.882C248.685 102.36 247.907 102.061 247.93 101.439L248.022 98.8886C248.029 98.6864 247.943 98.4928 247.788 98.363L245.828 96.728C245.35 96.3292 245.648 95.551 246.271 95.5735L248.821 95.666C249.023 95.673 249.217 95.5867 249.346 95.432L250.981 93.4721C251.381 92.9955 252.158 93.2933 252.136 93.9152Z" fill="#2876FF"/>
<path d="M223.154 268.459L224.735 270.462C224.86 270.621 225.052 270.713 225.254 270.711L227.806 270.689C228.429 270.683 228.706 271.469 228.217 271.855L226.213 273.436C226.054 273.561 225.963 273.753 225.964 273.955L225.987 276.507C225.992 277.13 225.206 277.407 224.821 276.918L223.239 274.914C223.114 274.756 222.923 274.664 222.721 274.665L220.168 274.688C219.546 274.693 219.269 273.907 219.758 273.522L221.761 271.94C221.92 271.815 222.012 271.624 222.01 271.422L221.988 268.87C221.982 268.248 222.768 267.971 223.154 268.459Z" fill="#2876FF"/>
<path d="M283.001 169.69L284.148 171.969C284.239 172.15 284.408 172.278 284.606 172.317L287.111 172.806C287.722 172.926 287.836 173.75 287.28 174.03L285 175.178C284.82 175.269 284.692 175.438 284.653 175.636L284.164 178.141C284.045 178.753 283.219 178.866 282.939 178.31L281.792 176.03C281.701 175.85 281.532 175.721 281.334 175.682L278.829 175.193C278.218 175.074 278.105 174.249 278.66 173.969L280.94 172.821C281.12 172.73 281.249 172.562 281.287 172.363L281.776 169.858C281.895 169.247 282.721 169.133 283.001 169.69Z" fill="#2876FF"/>
<path d="M89.1328 195.013L87.4279 196.913C87.2926 197.063 87.2351 197.267 87.2709 197.466L87.728 199.977C87.8392 200.59 87.1123 200.997 86.6489 200.581L84.7496 198.875C84.5995 198.74 84.3951 198.682 84.196 198.719L81.6849 199.176C81.0722 199.287 80.6656 198.56 81.0816 198.097L82.7873 196.197C82.9226 196.047 82.9801 195.843 82.9436 195.644L82.4864 193.133C82.3753 192.52 83.1022 192.113 83.5655 192.529L85.4648 194.234C85.6149 194.37 85.8194 194.427 86.0184 194.391L88.5295 193.933C89.1422 193.822 89.5488 194.55 89.1328 195.013Z" fill="#2876FF"/>
<path d="M259.063 105.253L258.932 108.887C258.921 109.175 259.044 109.451 259.266 109.636L262.058 111.966C262.74 112.534 262.315 113.643 261.429 113.611L257.793 113.48C257.506 113.47 257.23 113.592 257.045 113.814L254.715 116.607C254.146 117.288 253.038 116.863 253.07 115.977L253.201 112.342C253.212 112.055 253.088 111.778 252.867 111.594L250.075 109.264C249.394 108.695 249.818 107.587 250.705 107.619L254.339 107.75C254.627 107.76 254.903 107.637 255.088 107.416L257.418 104.624C257.986 103.941 259.095 104.366 259.063 105.253Z" fill="#2876FF"/>
<path d="M216.077 276.596L218.33 279.451C218.508 279.677 218.781 279.808 219.07 279.806L222.706 279.773C223.594 279.765 223.988 280.885 223.291 281.435L220.436 283.688C220.209 283.866 220.079 284.138 220.082 284.427L220.114 288.064C220.122 288.951 219.003 289.345 218.453 288.649L216.2 285.794C216.022 285.567 215.749 285.437 215.461 285.44L211.824 285.473C210.937 285.48 210.542 284.361 211.239 283.811L214.095 281.558C214.321 281.38 214.451 281.107 214.448 280.819L214.416 277.182C214.408 276.294 215.527 275.9 216.077 276.596Z" fill="#2876FF"/>
<path d="M86.7147 206.177L84.2844 208.884C84.0923 209.098 84.0099 209.389 84.0612 209.672L84.712 213.251C84.8706 214.124 83.8342 214.703 83.1742 214.11L80.4679 211.679C80.2541 211.487 79.9625 211.404 79.6795 211.456L76.1009 212.107C75.2278 212.266 74.6487 211.229 75.2418 210.569L77.6722 207.863C77.8642 207.648 77.9466 207.358 77.8953 207.075L77.2446 203.496C77.086 202.623 78.1223 202.044 78.7824 202.637L81.4887 205.067C81.7025 205.259 81.994 205.342 82.277 205.29L85.8556 204.64C86.7279 204.481 87.3071 205.517 86.7147 206.177Z" fill="#2876FF"/>
<path d="M174.006 184.444C173.593 180.2 176.698 176.425 180.943 176.011C185.187 175.598 188.962 178.704 189.376 182.948C189.789 187.192 186.683 190.968 182.439 191.381C178.194 191.794 174.418 188.688 174.006 184.444Z" fill="#2876FF"/>
<path d="M225.487 130.093C236.572 126.918 242.985 115.359 239.81 104.274C236.636 93.1888 225.076 86.7761 213.991 89.9507C202.906 93.1252 196.493 104.685 199.668 115.77C202.843 126.855 214.402 133.268 225.487 130.093Z" fill="#2876FF"/>
<path d="M270.888 133.829C269.431 133.715 267.403 133.756 267.403 133.756C267.403 133.756 271.299 132.389 272.906 131.498C274.508 130.611 273.47 129.224 272.048 129.463C270.643 129.7 266.813 130.664 266.813 130.664C266.813 130.664 271.614 127.659 272.875 126.505C274.136 125.35 273.144 123.373 271.122 124.401C269.132 125.412 264.522 127.74 264.522 127.74C264.522 127.74 268.008 125.05 269.661 123.228C271.314 121.406 269.378 120.05 267.925 120.993C266.471 121.938 261.492 126.034 261.492 126.034C263.509 123.259 262.3 121.431 261.193 121.826C260.087 122.221 258.375 127.188 255.824 128.365C248.4 129.812 240.976 131.259 233.552 132.706C229.366 133.521 225.306 135.095 221.042 135.442C214.904 135.942 208.345 134.527 203.709 130.287C199.608 126.536 197.427 121.259 195.681 116.102C193.69 110.221 191.462 104.413 189.323 98.5811C188.471 96.2597 187.62 93.9382 186.768 91.6167C186.36 88.8374 189.585 84.6889 189.311 83.5468C189.037 82.4047 186.845 82.3892 185.624 85.5954C185.624 85.5954 186.333 79.1869 186.33 77.4539C186.327 75.721 184.134 74.8394 183.511 77.2199C182.887 79.6005 182.539 83.99 182.539 83.99C182.539 83.99 181.97 78.8572 181.729 76.6376C181.485 74.3822 179.288 74.6326 179.01 76.3189C178.732 78.0052 178.838 83.6681 178.838 83.6681C178.838 83.6681 177.553 79.9332 176.984 78.6271C176.408 77.3047 174.68 77.1935 174.812 79.0197C174.944 80.8529 175.927 84.863 175.927 84.863C175.927 84.863 174.854 83.141 173.962 81.9834C173.013 80.7511 171.982 81.2961 172.284 82.6162C172.587 83.9363 174.25 89.7835 175.017 94.5882L180.803 157.234C182.177 168.959 195.001 175.549 205.334 169.838L259.418 139.949C259.528 139.918 259.638 139.882 259.755 139.831C264.198 137.849 270.004 136.048 271.275 135.579C272.546 135.113 272.439 133.951 270.888 133.829Z" fill="#2876FF"/>
<path d="M275.43 215.547C284.581 209.207 286.861 196.649 280.521 187.497C274.182 178.344 261.623 176.064 252.471 182.404C243.319 188.743 241.04 201.302 247.38 210.454C253.719 219.606 266.278 221.886 275.43 215.547Z" fill="#2876FF"/>
<path d="M256.091 252.861C255.794 251.482 255.194 249.617 255.194 249.617C255.194 249.617 257.538 252.843 258.806 254.083C260.07 255.319 261.066 253.975 260.451 252.727C259.843 251.493 257.89 248.216 257.89 248.216C257.89 248.216 261.999 251.825 263.416 252.671C264.832 253.518 266.387 252.054 264.877 250.468C263.39 248.907 259.962 245.287 259.962 245.287C259.962 245.287 263.414 247.767 265.558 248.792C267.702 249.817 268.42 247.65 267.144 246.567C265.869 245.484 260.702 242.011 260.702 242.011C263.827 243.11 265.183 241.485 264.511 240.57C263.84 239.656 258.771 239.448 256.976 237.413C253.583 230.946 250.19 224.48 246.796 218.013C244.883 214.367 242.304 211.047 240.803 207.198C238.642 201.659 238.135 195.2 240.774 189.738C243.109 184.906 247.386 181.428 251.674 178.385C256.563 174.916 261.319 171.248 266.121 167.655C268.033 166.225 269.945 164.795 271.857 163.364C274.315 162.218 279.045 164.052 280.025 163.483C281.006 162.914 280.413 160.882 277.11 160.639C277.11 160.639 283.235 159.522 284.837 159.04C286.439 158.557 286.648 156.285 284.272 156.366C281.898 156.449 277.741 157.341 277.741 157.341C277.741 157.341 282.331 155.395 284.318 154.558C286.337 153.708 285.498 151.745 283.86 151.954C282.223 152.164 277.014 153.83 277.014 153.83C277.014 153.83 280.114 151.607 281.164 150.719C282.228 149.82 281.853 148.19 280.199 148.818C278.54 149.448 275.102 151.468 275.102 151.468C275.102 151.468 276.398 149.998 277.222 148.853C278.099 147.633 277.31 146.831 276.172 147.476C275.035 148.121 270.086 151.279 265.855 153.318L209.507 176.01C199.041 180.526 196.496 194.213 204.638 202.19L247.254 243.947C247.313 244.039 247.377 244.133 247.457 244.226C250.52 247.788 253.793 252.66 254.579 253.705C255.364 254.75 256.408 254.33 256.091 252.861Z" fill="#2876FF"/>
<path d="M208.268 276.45C214.983 267.691 213.326 255.146 204.567 248.431C195.807 241.716 183.263 243.373 176.548 252.132C169.832 260.891 171.49 273.436 180.249 280.151C189.008 286.866 201.553 285.209 208.268 276.45Z" fill="#2876FF"/>
<path d="M139.097 272.797C140.315 272.107 141.901 270.988 141.901 270.988C141.901 270.988 139.543 274.159 138.744 275.727C137.949 277.289 139.515 277.833 140.514 276.881C141.502 275.94 144.025 273.123 144.025 273.123C144.025 273.123 141.825 278.079 141.443 279.669C141.062 281.26 142.907 282.298 143.961 280.399C144.999 278.531 147.408 274.215 147.408 274.215C147.408 274.215 146.083 278.216 145.748 280.548C145.413 282.879 147.676 282.917 148.322 281.39C148.969 279.862 150.726 273.946 150.726 273.946C150.612 277.227 152.55 278.03 153.216 277.124C153.883 276.218 152.58 271.361 153.974 269.06C159.089 263.936 164.204 258.813 169.318 253.688C172.202 250.799 174.58 247.376 177.777 244.818C182.379 241.134 188.339 238.744 194.288 239.624C199.552 240.404 204.107 243.421 208.255 246.578C212.984 250.177 217.862 253.591 222.682 257.073C224.601 258.458 226.52 259.844 228.439 261.23C230.251 263.217 229.914 268.235 230.743 268.994C231.572 269.754 233.319 268.591 232.571 265.394C232.571 265.394 235.439 270.858 236.37 272.231C237.301 273.604 239.513 273.129 238.733 270.907C237.952 268.684 235.878 265.015 235.878 265.015C235.878 265.015 239.078 268.782 240.458 270.415C241.86 272.073 243.469 270.698 242.786 269.21C242.103 267.723 238.986 263.288 238.986 263.288C238.986 263.288 242.007 265.562 243.157 266.294C244.323 267.034 245.754 266.198 244.671 264.819C243.584 263.436 240.656 260.781 240.656 260.781C240.656 260.781 242.43 261.573 243.757 262.013C245.171 262.482 245.696 261.497 244.749 260.612C243.803 259.726 239.352 255.978 236.17 252.577L198.027 205.979C190.658 197.413 176.955 199.053 171.816 209.117L144.917 261.795C144.847 261.878 144.778 261.966 144.713 262.069C142.25 266.022 138.609 270.56 137.852 271.613C137.095 272.667 137.801 273.531 139.097 272.797Z" fill="#2876FF"/>
<path d="M127.923 209.742C122.434 200.166 110.222 196.853 100.646 202.342C91.0698 207.831 87.7563 220.044 93.2459 229.62C98.7347 239.196 110.947 242.508 120.523 237.02C130.099 231.531 133.412 219.319 127.923 209.742Z" fill="#2876FF"/>
<path d="M82.9643 173.287C84.0551 174.163 85.6823 175.223 85.6823 175.223C85.6823 175.223 81.8627 174.205 80.1118 174.044C78.3665 173.883 78.4403 175.539 79.6944 176.116C80.9336 176.685 84.4834 177.987 84.4834 177.987C84.4834 177.987 79.0662 177.777 77.4467 178.011C75.8273 178.245 75.5459 180.343 77.6994 180.619C79.8195 180.892 84.7198 181.534 84.7198 181.534C84.7198 181.534 80.5122 181.784 78.2226 182.334C75.9323 182.886 76.7338 185.002 78.3921 185.038C80.0504 185.074 86.1977 184.517 86.1977 184.517C83.1066 185.625 83.0786 187.722 84.1662 188.006C85.2547 188.29 89.2858 185.282 91.9376 185.726C98.5903 188.583 105.243 191.438 111.896 194.295C115.647 195.905 119.706 196.848 123.267 198.871C128.391 201.784 132.818 206.438 134.2 212.29C135.423 217.468 134.305 222.818 132.907 227.838C131.313 233.564 129.945 239.359 128.494 245.125C127.916 247.42 127.34 249.716 126.762 252.011C125.586 254.43 120.8 255.974 120.401 257.025C120.002 258.076 121.728 259.269 124.422 257.391C124.422 257.391 120.406 262.078 119.475 263.45C118.544 264.823 119.804 266.702 121.579 265.155C123.356 263.608 125.996 260.323 125.996 260.323C125.996 260.323 123.68 264.69 122.674 266.576C121.652 268.491 123.525 269.478 124.653 268.293C125.782 267.108 128.75 262.572 128.75 262.572C128.75 262.572 127.754 266.22 127.5 267.559C127.243 268.916 128.55 269.935 129.43 268.419C130.313 266.898 131.696 263.195 131.696 263.195C131.696 263.195 131.618 265.136 131.7 266.532C131.787 268.019 132.895 268.143 133.368 266.936C133.841 265.728 135.675 260.207 137.657 255.992L166.839 203.316C172.07 193.3 165.477 181.177 154.226 180.126L95.3351 174.624C95.2317 174.59 95.1244 174.558 95.0047 174.537C90.4216 173.71 84.8582 172.006 83.6003 171.692C82.3447 171.379 81.8036 172.355 82.9643 173.287Z" fill="#2876FF"/>
<path d="M129.807 147.633C140.074 144.319 145.709 133.31 142.395 123.043C139.081 112.777 128.072 107.141 117.806 110.456C107.539 113.77 101.903 124.779 105.218 135.045C108.532 145.312 119.541 150.947 129.807 147.633Z" fill="#2876FF"/>
<path d="M158.507 89.273C158.025 90.5527 157.536 92.3867 157.536 92.3867C157.536 92.3867 157.319 88.529 156.937 86.8528C156.556 85.1828 155.04 85.755 154.886 87.0954C154.733 88.4194 154.604 92.113 154.604 92.113C154.604 92.113 153.151 87.0176 152.441 85.584C151.732 84.1512 149.697 84.5275 150.095 86.6126C150.487 88.6643 151.381 93.4122 151.381 93.4122C151.381 93.4122 149.87 89.5801 148.661 87.6202C147.453 85.6602 145.73 87.0487 146.202 88.6005C146.673 90.1523 149.06 95.6924 149.06 95.6924C147.09 93.1579 145.133 93.7706 145.2 94.8675C145.268 95.9645 149.287 98.7944 149.681 101.393C149.052 108.442 148.423 115.49 147.794 122.539C147.439 126.513 147.798 130.57 147.002 134.493C145.856 140.139 142.88 145.667 137.863 148.732C133.426 151.443 128.117 152.032 123.027 152.26C117.224 152.522 111.425 153.014 105.628 153.42C103.321 153.582 101.012 153.745 98.7049 153.906C96.1004 153.55 93.2106 149.574 92.1129 149.523C91.0151 149.472 90.432 151.439 92.9953 153.369C92.9953 153.369 87.4202 151.065 85.8614 150.618C84.3026 150.17 82.9405 151.912 84.9183 153.092C86.8962 154.271 90.75 155.725 90.75 155.725C90.75 155.725 85.9889 154.901 83.9318 154.541C81.8412 154.174 81.4952 156.214 82.939 156.902C84.3827 157.59 89.4999 158.967 89.4999 158.967C89.4999 158.967 85.8085 159.151 84.4869 159.323C83.1489 159.497 82.5992 161.022 84.2754 161.378C85.957 161.735 89.8171 161.894 89.8171 161.894C89.8171 161.894 87.9908 162.411 86.7181 162.911C85.3638 163.445 85.5854 164.512 86.8511 164.584C88.116 164.655 93.8038 164.68 98.3208 165.239L156.129 176.321C167.024 178.134 176.28 168.321 173.833 157.55L161.028 101.173C161.028 101.066 161.025 100.957 161.009 100.839C160.382 96.3307 160.273 90.6444 160.182 89.3803C160.091 88.1162 159.02 87.9101 158.507 89.273Z" fill="#2876FF"/>
</svg>
