<svg width="197" height="197" viewBox="0 0 197 197" fill="none" xmlns="http://www.w3.org/2000/svg">
<circle cx="98.0652" cy="98.0652" r="98.0652" fill="#D9D9D9"/>
<path d="M98.0652 98.0652C107.818 98.0652 115.717 90.1661 115.717 80.4135C115.717 70.6609 107.818 62.7617 98.0652 62.7617C88.3126 62.7617 80.4135 70.6609 80.4135 80.4135C80.4135 90.1661 88.3126 98.0652 98.0652 98.0652ZM98.0652 106.891C86.2827 106.891 62.7617 112.804 62.7617 124.543V128.956C62.7617 131.383 64.7475 133.369 67.1747 133.369H128.956C131.383 133.369 133.369 131.383 133.369 128.956V124.543C133.369 112.804 109.848 106.891 98.0652 106.891Z" fill="#2876FF"/>
</svg>
