<svg width="368" height="368" viewBox="0 0 368 368" fill="none" xmlns="http://www.w3.org/2000/svg">
<circle cx="184" cy="184" r="184" fill="#D7E8FF"/>
<g clip-path="url(#clip0_1092_3945)">
<path d="M269.727 235.925H269.72V211.531C269.72 209.606 268.159 208.046 266.235 208.046H197.939C192.245 208.046 187.181 210.791 183.999 215.028C180.818 210.791 175.754 208.046 170.06 208.046H101.764C99.8391 208.046 98.2789 209.606 98.2789 211.531V235.925H98.272C96.3473 235.925 94.7871 237.485 94.7871 239.41V253.349C94.7871 255.274 96.3473 256.834 98.272 256.834H174.142C175.58 260.89 179.456 263.803 183.999 263.803C188.543 263.803 192.418 260.89 193.857 256.834H269.727C271.651 256.834 273.211 255.274 273.211 253.349V239.41C273.211 237.485 271.651 235.925 269.727 235.925ZM187.484 225.47C187.484 219.706 192.174 215.016 197.939 215.016H262.75V225.47H197.939C193.774 225.47 190.038 227.299 187.484 230.195V225.47ZM105.249 215.016H170.06C175.824 215.016 180.514 219.706 180.514 225.47V230.195C177.96 227.299 174.225 225.47 170.06 225.47H105.249V215.016ZM266.242 249.864H190.969C189.044 249.864 187.484 251.424 187.484 253.349C187.484 255.27 185.921 256.834 183.999 256.834C182.078 256.834 180.514 255.27 180.514 253.349C180.514 251.424 178.954 249.864 177.03 249.864H101.757V242.894H101.764H266.235H266.242V249.864Z" fill="#2876FF"/>
<path d="M193.727 193.369C195.652 193.369 197.212 191.809 197.212 189.884V162.005C197.212 160.081 195.652 158.521 193.727 158.521C191.802 158.521 190.242 160.081 190.242 162.005V189.884C190.242 191.809 191.802 193.369 193.727 193.369Z" fill="#2876FF"/>
<path d="M160.495 193.369C162.419 193.369 163.979 191.809 163.979 189.884V178.951H176.302V189.884C176.302 191.809 177.862 193.369 179.787 193.369C181.712 193.369 183.272 191.809 183.272 189.884V162.005C183.272 160.081 181.712 158.521 179.787 158.521C177.862 158.521 176.302 160.081 176.302 162.005V171.982H163.979V162.005C163.979 160.081 162.419 158.521 160.495 158.521C158.57 158.521 157.01 160.081 157.01 162.005V189.884C157.01 191.809 158.57 193.369 160.495 193.369Z" fill="#2876FF"/>
<path d="M105.569 193.369H117.316C119.241 193.369 120.801 191.809 120.801 189.885C120.801 187.96 119.241 186.4 117.316 186.4H109.054V179.43H116.45C118.374 179.43 119.934 177.87 119.934 175.945C119.934 174.021 118.374 172.46 116.45 172.46H109.054V165.491H117.316C119.241 165.491 120.801 163.931 120.801 162.006C120.801 160.081 119.241 158.521 117.316 158.521H105.569C103.644 158.521 102.084 160.081 102.084 162.006V189.885C102.084 191.809 103.644 193.369 105.569 193.369Z" fill="#2876FF"/>
<path d="M221.606 193.369C225.445 193.369 228.892 192.107 231.574 189.719C232.099 189.251 232.598 188.736 233.057 188.189C234.294 186.714 234.102 184.516 232.627 183.279C231.152 182.042 228.953 182.235 227.717 183.71C227.474 184 227.212 184.27 226.938 184.514C225.534 185.765 223.74 186.399 221.606 186.399C215.841 186.399 211.151 181.71 211.151 175.945C211.151 170.18 215.841 165.49 221.606 165.49C223.701 165.49 225.722 166.107 227.449 167.274C229.043 168.351 231.21 167.932 232.287 166.337C233.364 164.742 232.945 162.576 231.35 161.499C228.467 159.551 225.097 158.521 221.606 158.521C211.998 158.521 204.182 166.338 204.182 175.945C204.182 185.553 211.997 193.369 221.606 193.369Z" fill="#2876FF"/>
<path d="M254.043 193.37C259.919 193.37 264.852 189.621 265.774 184.455C266.469 180.568 264.704 175.49 257.67 172.896C254.246 171.633 251.058 170.257 250.079 169.829C249.321 169.219 249.346 168.369 249.397 168.014C249.468 167.522 249.825 166.32 251.615 165.781C255.539 164.597 259.178 167.467 259.287 167.554C260.76 168.776 262.946 168.582 264.179 167.114C265.418 165.641 265.227 163.443 263.754 162.204C263.491 161.983 257.221 156.813 249.605 159.107C245.756 160.266 243.033 163.3 242.498 167.024C241.997 170.518 243.511 173.879 246.451 175.796C246.605 175.896 246.767 175.984 246.934 176.059C247.096 176.131 250.935 177.84 255.259 179.435C256.481 179.885 259.284 181.158 258.914 183.23C258.636 184.788 256.738 186.4 254.044 186.4C251.273 186.4 248.606 185.283 246.911 183.412C245.618 181.985 243.415 181.877 241.989 183.17C240.562 184.462 240.454 186.666 241.746 188.092C244.74 191.397 249.338 193.37 254.043 193.37Z" fill="#2876FF"/>
<path d="M130.387 165.49H134.569V189.884C134.569 191.809 136.13 193.369 138.054 193.369C139.979 193.369 141.539 191.809 141.539 189.884V165.49H145.784C147.708 165.49 149.268 163.93 149.268 162.005C149.268 160.081 147.708 158.521 145.784 158.521H130.387C128.463 158.521 126.902 160.081 126.902 162.005C126.902 163.93 128.463 165.49 130.387 165.49Z" fill="#2876FF"/>
<path d="M183.999 135.195C185.923 135.195 187.483 133.635 187.483 131.71V107.682C187.483 105.757 185.923 104.197 183.999 104.197C182.074 104.197 180.514 105.757 180.514 107.682V131.71C180.514 133.635 182.074 135.195 183.999 135.195Z" fill="#2876FF"/>
<path d="M147.508 137.937C148.189 138.618 149.08 138.958 149.972 138.958C150.864 138.958 151.756 138.617 152.436 137.937C153.797 136.576 153.797 134.37 152.436 133.009L141.857 122.43C140.496 121.069 138.29 121.069 136.929 122.43C135.568 123.791 135.568 125.997 136.929 127.358L147.508 137.937Z" fill="#2876FF"/>
<path d="M218.026 138.958C218.918 138.958 219.81 138.618 220.49 137.937L231.069 127.358C232.43 125.997 232.43 123.791 231.069 122.43C229.708 121.069 227.501 121.069 226.141 122.43L215.562 133.009C214.201 134.37 214.201 136.577 215.562 137.937C216.242 138.618 217.134 138.958 218.026 138.958Z" fill="#2876FF"/>
</g>
<defs>
<clipPath id="clip0_1092_3945">
<rect width="178.424" height="178.424" fill="white" transform="translate(94.7871 94.7881)"/>
</clipPath>
</defs>
</svg>
