<svg width="59" height="62" viewBox="0 0 59 62" fill="none" xmlns="http://www.w3.org/2000/svg">
<path d="M58.1629 20.964C59.9188 15.442 58.8627 4.4257 55.4606 0.358683C55.0149 -0.174809 54.1849 -0.0985964 53.8145 0.490325L49.6237 7.13474C48.5881 8.46501 46.7226 8.76985 45.3164 7.84144C40.7691 4.83448 35.3368 3.0885 29.4999 3.0885C23.6631 3.0885 18.231 4.83448 13.6836 7.84144C12.2844 8.76985 10.4188 8.45807 9.37625 7.13474L5.18551 0.490325C4.81513 -0.0985964 3.98522 -0.167881 3.5394 0.358683C0.137429 4.43262 -0.918828 15.4489 0.837028 20.964C1.42003 22.8001 1.57778 24.74 1.23484 26.6245C0.891898 28.4953 0.548958 30.7539 0.548958 32.3267C0.548958 48.477 13.5121 61.5649 29.4931 61.5649C45.4811 61.5649 58.4374 48.47 58.4374 32.3267C58.4374 30.7539 58.0944 28.4953 57.7514 26.6245C57.4154 24.74 57.58 22.8001 58.1629 20.964ZM29.4931 55.0382C17.1335 55.0382 7.0854 44.8811 7.0854 32.3959C7.0854 31.9872 7.09913 31.5854 7.1197 31.1834C7.56553 22.6753 12.6822 15.4073 19.9182 11.9431C22.8195 10.5436 26.0706 9.76756 29.4999 9.76756C32.9294 9.76756 36.1736 10.5436 39.0817 11.95C46.3178 15.4143 51.4345 22.6892 51.8804 31.1904C51.901 31.5923 51.9146 32.0011 51.9146 32.4029C51.9078 44.8811 41.8528 55.0382 29.4931 55.0382Z" fill="#3970FD"/>
<path d="M39.2025 41.1142L33.4753 31.0817L28.5644 22.7191C28.4479 22.5182 28.2352 22.4004 28.0089 22.4004H23.3175C23.0843 22.4004 22.8716 22.525 22.7551 22.7328C22.6385 22.9339 22.6453 23.1832 22.7619 23.3841L27.4601 31.3589L21.1569 41.0725C21.0266 41.2736 21.0198 41.5299 21.1295 41.7378C21.2392 41.9456 21.4587 42.0772 21.6988 42.0772H26.4245C26.6439 42.0772 26.8498 41.9664 26.9663 41.7792L30.3752 36.4028L33.4342 41.7585C33.5508 41.9594 33.7634 42.0841 33.9897 42.0841H38.647C38.8801 42.0841 39.0928 41.9594 39.2025 41.7585C39.3191 41.5646 39.3191 41.3151 39.2025 41.1142Z" fill="#3970FD"/>
</svg>
