<svg width="135" height="29" viewBox="0 0 135 29" fill="none" xmlns="http://www.w3.org/2000/svg">
<path fill-rule="evenodd" clip-rule="evenodd" d="M41.4806 28.0606C43.649 28.6331 45.9588 28.5899 48.4101 27.931C49.5518 27.6241 50.7538 27.1386 52.016 26.4744C53.3118 25.8012 54.5311 24.8417 55.6739 23.5958C56.5762 22.5776 57.357 21.3177 58.0162 19.8161C58.3149 19.1355 58.012 18.352 57.3576 18.0026L57.061 17.8442C56.3054 17.4408 55.3764 17.7685 54.9256 18.4985C54.573 19.0695 54.1828 19.5867 53.755 20.0501C53.0259 20.8237 52.2563 21.4457 51.4462 21.9162C50.6697 22.3776 49.9457 22.6986 49.2741 22.8791C47.5279 23.3484 46.0219 23.3019 44.756 22.7396C43.4901 22.1773 42.4286 21.2351 41.5716 19.9131C40.9669 18.9355 40.4532 17.8264 40.0305 16.5858C39.7691 15.8183 40.2302 15.0084 41.0072 14.7842L54.6676 10.8425C55.437 10.6205 55.8979 9.82366 55.6547 9.05855C55.0843 7.26402 54.3565 5.79063 53.4713 4.63836C52.4014 3.19301 51.1864 2.14769 49.8263 1.50238C48.4998 0.848041 47.1155 0.516124 45.6734 0.506625C44.2222 0.46344 42.7915 0.631386 41.3811 1.01046C38.8626 1.68738 36.8173 2.92307 35.2452 4.71753C33.6976 6.46928 32.6778 8.51241 32.1857 10.8469C31.6936 13.1815 31.7624 15.5277 32.3923 17.8856C33.1211 20.614 34.2759 22.8488 35.8567 24.59C37.4286 26.2976 39.3032 27.4545 41.4806 28.0606ZM40.6452 11.1184C39.7637 11.3553 38.8665 10.742 38.9105 9.82762C38.9604 8.79166 39.1683 7.85931 39.5341 7.03059C40.0857 5.72706 41.1002 4.87673 42.5777 4.4796C43.3836 4.26299 44.1383 4.25871 44.8417 4.46677C45.5451 4.67484 46.1772 5.15479 46.7379 5.90664C47.1032 6.34919 47.4346 6.9274 47.7322 7.64124C48.0536 8.41213 47.5705 9.257 46.7659 9.47326L40.6452 11.1184Z" fill="#CFCFCF"/>
<path d="M0.365025 26.1752C0.365025 26.9969 1.02908 27.6631 1.84824 27.6631H12.5442C13.3633 27.6631 14.0274 26.9969 14.0274 26.1752V25.1754C14.0274 24.3537 13.3633 23.6956 12.5452 23.7358L12.463 23.7399C11.5215 23.7399 10.7148 22.9572 10.7633 22.014C10.7748 21.7897 10.7852 21.5629 10.7943 21.3337C10.8291 20.4271 10.8464 19.7296 10.8464 19.2414V8.09107C10.8464 7.66419 11.0248 7.2516 11.368 6.99925C11.8434 6.64972 12.3822 6.33651 12.9844 6.05965C13.8535 5.67605 14.7227 5.48425 15.5918 5.48425C17.1214 5.48425 18.1991 6.04221 18.8248 7.15813C19.4854 8.23917 19.8156 9.91304 19.8156 12.1797L19.8678 19.6075C19.8678 20.5142 19.7982 21.3337 19.6592 22.0661C19.5549 22.7635 19.2768 23.304 18.8248 23.6876C18.66 23.8392 18.4518 23.9608 18.2001 24.0525C17.4302 24.333 16.739 24.9291 16.739 25.7508V26.1752C16.739 26.9969 17.403 27.6631 18.2222 27.6631H28.9181C29.7373 27.6631 30.4013 26.9969 30.4013 26.1752V25.1754C30.4013 24.3537 29.7373 23.6955 28.9192 23.7383L28.8891 23.7399L28.829 23.74C27.8892 23.743 27.0883 22.9637 27.1368 22.0221C27.1485 21.7951 27.159 21.5657 27.1683 21.3337C27.203 20.4271 27.2204 19.7296 27.2204 19.2414V12.2321C27.2204 8.18686 26.5425 5.25758 25.1867 3.44422C23.8657 1.59599 21.606 0.671871 18.4077 0.671871C17.7124 0.671871 16.9128 0.81136 16.0089 1.09034C15.1051 1.33444 14.2012 1.68317 13.2973 2.13651C12.7111 2.40793 12.1687 2.70869 11.6702 3.03879C11.3044 3.28104 10.7832 3.07002 10.6964 2.63902C10.6897 2.6061 10.6898 2.59178 10.69 2.5635L10.69 2.54871V1.97958C10.69 1.40419 10.1623 0.985721 9.58867 0.985721H8.57922C8.22516 0.985721 7.88388 1.11836 7.56953 1.28179C7.33334 1.40458 7.03508 1.53256 6.67474 1.66573C6.04898 1.90984 5.17987 2.11907 4.06742 2.29344C3.31676 2.41109 2.4553 2.48905 1.48303 2.52731C0.664507 2.55953 0 3.2211 0 4.04281V4.9012C0 5.77609 0.750573 6.47902 1.62275 6.47814L1.66868 6.47812C1.75485 6.47419 1.83969 6.47026 1.92321 6.46633C2.83151 6.4236 3.57486 7.19306 3.52453 8.10379C3.51311 8.31047 3.50287 8.51833 3.49381 8.72738C3.45904 9.49457 3.44166 10.192 3.44166 10.8197V19.6075C3.44166 20.5142 3.37213 21.3337 3.23307 22.0661C3.12878 22.7635 2.86805 23.304 2.45088 23.6876C2.28605 23.8392 2.07781 23.9608 1.82616 24.0525C1.0562 24.333 0.365025 24.9291 0.365025 25.7508V26.1752Z" fill="#CFCFCF"/>
<path d="M59.49 26.1752C59.49 26.9969 60.1541 27.6631 60.9733 27.6631H71.4084C72.2276 27.6631 72.8917 26.9969 72.8917 26.1752V25.1011C72.8917 24.3204 72.2606 23.6941 71.4837 23.7399C70.5958 23.7399 69.8354 23.0077 69.8828 22.1184C69.8966 21.86 69.9088 21.5985 69.9193 21.3337C69.9541 20.4271 69.9715 19.7296 69.9715 19.2414V8.09108C69.9715 7.6642 70.1505 7.25285 70.4885 6.99345C70.9408 6.64625 71.429 6.33498 71.953 6.05965C72.7178 5.67605 73.5348 5.48425 74.4039 5.48425C75.5859 5.51913 76.5071 5.95503 77.1677 6.79197C77.8282 7.6289 78.1584 9.18072 78.1584 11.4474L78.2106 19.6075C78.2106 20.5142 78.1584 21.3337 78.0541 22.0661C77.9499 22.7635 77.6891 23.304 77.2719 23.6876C77.1424 23.8176 76.983 23.9255 76.7936 24.0114C76.0472 24.3501 75.3425 24.9291 75.3425 25.7508V26.1752C75.3425 26.9969 76.0066 27.6631 76.8258 27.6631H87.3131C88.1322 27.6631 88.7963 26.9969 88.7963 26.1752V25.1754C88.7963 24.3537 88.1322 23.6935 87.3141 23.7356L87.2319 23.7399C86.2904 23.7399 85.4837 22.9572 85.5322 22.014C85.5437 21.7897 85.5541 21.5629 85.5632 21.3337C85.598 20.4271 85.6154 19.7296 85.6154 19.2414V12.2321C85.6154 11.2905 85.5806 10.4013 85.5111 9.56432C85.4718 9.09101 85.4158 8.64 85.3431 8.21131C85.2446 7.63051 85.4401 7.02095 85.9367 6.70634C86.3437 6.44849 86.7754 6.21549 87.2319 6.00734C88.0315 5.65862 88.8832 5.50169 89.7871 5.53656C90.9691 5.57143 91.9077 6.02478 92.603 6.89658C93.333 7.76839 93.7154 9.33765 93.7502 11.6044V19.6075C93.7502 20.5142 93.6981 21.3337 93.5938 22.0661C93.4895 22.7635 93.2461 23.304 92.8637 23.6876C92.7791 23.781 92.6811 23.863 92.5698 23.9336C91.8774 24.3727 91.1429 24.9291 91.1429 25.7508V26.1752C91.1429 26.9969 91.8069 27.6631 92.6261 27.6631H102.853C103.672 27.6631 104.336 26.9969 104.336 26.1752V25.1754C104.336 24.3537 103.672 23.6956 102.854 23.7358L102.772 23.7399C101.83 23.7399 101.023 22.9572 101.072 22.014C101.083 21.7897 101.094 21.5629 101.103 21.3337C101.138 20.4271 101.155 19.7296 101.155 19.2414V11.552C101.155 7.54172 100.425 4.7345 98.9648 3.13037C97.5395 1.49137 95.4189 0.671871 92.603 0.671871C91.2124 0.671871 89.7523 0.985722 88.2227 1.61342C87.2841 2.00756 86.3934 2.48419 85.5507 3.04331C84.7711 3.56061 83.6954 3.33732 83.0477 2.6613C82.6206 2.21569 82.1381 1.84896 81.6001 1.56112C80.5572 0.968286 79.2361 0.671871 77.637 0.671871C76.4202 0.671871 75.1166 0.933413 73.726 1.4565C72.7707 1.82505 71.8586 2.28881 70.9896 2.84779C70.5088 3.1571 69.853 2.86517 69.815 2.29344C69.815 2.26171 69.8149 2.23031 69.8146 2.19923C69.8088 1.49003 69.2018 0.985721 68.4948 0.985721H67.7042C67.3502 0.985721 67.0089 1.11836 66.6945 1.28179C66.4584 1.40458 66.1601 1.53256 65.7998 1.66573C65.174 1.90984 64.3049 2.11907 63.1924 2.29344C62.4418 2.41109 61.5803 2.48905 60.608 2.52731C59.7895 2.55953 59.125 3.2211 59.125 4.04281V4.9012C59.125 5.77609 59.8756 6.47902 60.7478 6.47814L60.7937 6.47812C60.8799 6.47419 60.9647 6.47026 61.0482 6.46633C61.9565 6.4236 62.6999 7.19306 62.6495 8.10379C62.6381 8.31047 62.6279 8.51833 62.6188 8.72738C62.5841 9.49457 62.5667 10.192 62.5667 10.8197V19.6075C62.5667 20.5142 62.4972 21.3337 62.3581 22.0661C62.2538 22.7635 61.9931 23.304 61.5759 23.6876C61.4111 23.8392 61.2028 23.9608 60.9512 24.0525C60.1812 24.333 59.49 24.9291 59.49 25.7508V26.1752Z" fill="#CFCFCF"/>
<path d="M116.957 28.5C114.872 28.5 113.185 28.099 111.899 27.2969C110.648 26.4948 109.726 25.2394 109.135 23.5307C108.579 21.8219 108.301 19.625 108.301 16.9398V10.9243C108.301 10.2966 108.318 9.58175 108.353 8.77969C108.364 8.52642 108.374 8.27635 108.385 8.02947C108.422 7.14519 107.689 6.42082 106.808 6.46269C106.699 6.46783 106.589 6.47297 106.476 6.47812L106.43 6.47814C105.558 6.47902 104.807 5.77609 104.807 4.9012V3.07805C104.807 2.78917 105.041 2.55498 105.329 2.55498C107.484 2.55498 109.188 2.38062 110.439 2.03189C111.271 1.80012 111.903 1.56835 112.336 1.33658C112.683 1.15065 113.059 0.985721 113.452 0.985721H114.223C115.042 0.985721 115.706 1.65184 115.706 2.47355V16.9921C115.706 19.2588 116.001 20.9501 116.592 22.0661C117.183 23.1471 118.122 23.6876 119.408 23.6876C120.312 23.6876 121.216 23.4435 122.12 22.9553C122.862 22.5419 123.495 22.0849 124.02 21.5844C124.284 21.3322 124.414 20.9744 124.414 20.6084V10.9243C124.414 10.2966 124.432 9.58175 124.466 8.77969C124.476 8.55184 124.487 8.32657 124.499 8.10389C124.548 7.1931 123.804 6.4236 122.896 6.46633L122.641 6.47812L122.595 6.47814C121.723 6.47902 120.973 5.77609 120.973 4.9012V3.81039C120.973 3.11704 121.533 2.55498 122.224 2.55498C123.858 2.55498 125.301 2.38062 126.552 2.03189C127.402 1.77137 128.044 1.52693 128.477 1.29858C128.801 1.12756 129.154 0.985721 129.52 0.985721H130.336C131.155 0.985721 131.819 1.65184 131.819 2.47355V19.2414C131.819 19.7296 131.802 20.4271 131.767 21.3337C131.758 21.5629 131.747 21.7897 131.736 22.014C131.687 22.9572 132.494 23.7399 133.436 23.7399L133.518 23.7358C134.336 23.6956 135 24.3537 135 25.1754V26.1752C135 26.9969 134.336 27.6631 133.517 27.6631H126.457C125.687 27.6631 125.053 27.0668 124.936 26.303C124.89 25.7039 124.189 25.4333 123.709 25.7932C122.941 26.3693 122.133 26.9054 121.286 27.4015C120.069 28.1338 118.626 28.5 116.957 28.5Z" fill="#CFCFCF"/>
</svg>
