<svg width="60" height="48" viewBox="0 0 60 48" fill="none" xmlns="http://www.w3.org/2000/svg">
<g clip-path="url(#clip0_1492_4169)">
<path d="M49.5064 21.9213C49.5064 19.305 46.23 16.8256 41.2066 15.288C42.3658 10.168 41.8506 6.09456 39.5803 4.79041C39.057 4.4845 38.4453 4.33959 37.7771 4.33959V6.13481C38.1474 6.13481 38.4453 6.20727 38.6948 6.34411C39.7897 6.97203 40.2647 9.36297 39.8943 12.4382C39.8059 13.1949 39.661 13.9919 39.4838 14.805C37.9059 14.4185 36.1831 14.1207 34.3719 13.9275C33.2851 12.4382 32.1581 11.0857 31.0229 9.90234C33.6473 7.46311 36.1108 6.12675 37.7852 6.12675V4.33154C35.5713 4.33154 32.6733 5.9094 29.743 8.64649C26.8126 5.9255 23.9146 4.36375 21.7008 4.36375V6.15895C23.3672 6.15895 25.8386 7.48726 28.463 9.91039C27.3359 11.0938 26.2088 12.4382 25.1381 13.9275C23.3188 14.1207 21.596 14.4185 20.0182 14.813C19.833 14.008 19.6962 13.2271 19.5995 12.4784C19.2213 9.40322 19.6881 7.01228 20.775 6.37632C21.0164 6.23141 21.3303 6.16702 21.7008 6.16702V4.37179C21.0245 4.37179 20.4126 4.5167 19.8814 4.82262C17.6192 6.12675 17.1121 10.1921 18.2793 15.296C13.2721 16.8417 10.0117 19.3131 10.0117 21.9213C10.0117 24.5378 13.2882 27.0173 18.3115 28.5548C17.1523 33.6749 17.6675 37.7482 19.9378 39.0524C20.4611 39.3582 21.0727 39.5031 21.749 39.5031C23.9628 39.5031 26.861 37.9253 29.7913 35.1882C32.7215 37.9093 35.6197 39.4711 37.8335 39.4711C38.5096 39.4711 39.1215 39.3262 39.6529 39.0201C41.9149 37.716 42.4222 33.6506 41.2548 28.5469C46.246 27.0092 49.5064 24.5297 49.5064 21.9213ZM39.025 16.5519C38.7271 17.5904 38.3568 18.661 37.9381 19.7317C37.6081 19.0878 37.2619 18.4437 36.8836 17.7996C36.5133 17.1556 36.1187 16.5277 35.7243 15.9159C36.8674 16.0849 37.9703 16.2943 39.025 16.5519ZM35.3378 25.1254C34.7099 26.2123 34.066 27.2427 33.3978 28.2007C32.1982 28.3053 30.9828 28.3616 29.759 28.3616C28.5434 28.3616 27.3278 28.3053 26.1365 28.2086C25.4683 27.2506 24.8161 26.2283 24.1882 25.1495C23.5763 24.095 23.021 23.0243 22.5137 21.9456C23.0129 20.8668 23.5763 19.788 24.1803 18.7335C24.8082 17.6468 25.4521 16.6163 26.1203 15.6583C27.3199 15.5536 28.5353 15.4973 29.759 15.4973C30.9747 15.4973 32.1903 15.5536 33.3816 15.6502C34.0498 16.6082 34.702 17.6306 35.3299 18.7094C35.9417 19.7639 36.4971 20.8346 37.0044 21.9134C36.4971 22.992 35.9417 24.0709 35.3378 25.1254ZM37.9381 24.079C38.3607 25.1281 38.7315 26.1973 39.0491 27.2828C37.9944 27.5404 36.8836 27.7579 35.7324 27.9269C36.1268 27.3071 36.5212 26.6711 36.8917 26.0189C37.2619 25.375 37.6081 24.7229 37.9381 24.079ZM29.7751 32.6686C29.0264 31.8956 28.2777 31.0343 27.5372 30.0924C28.2617 30.1247 29.0023 30.1488 29.7509 30.1488C30.5077 30.1488 31.2564 30.1328 31.989 30.0924C31.298 30.9904 30.5589 31.8504 29.7751 32.6686ZM23.7857 27.9269C22.6426 27.7579 21.5397 27.5485 20.4852 27.2909C20.7829 26.2524 21.1534 25.1817 21.5719 24.111C21.9021 24.7551 22.2482 25.3992 22.6264 26.0431C23.0048 26.6872 23.3913 27.315 23.7857 27.9269ZM29.7349 11.1743C30.4836 11.9471 31.2323 12.8085 31.9728 13.7504C31.2483 13.7182 30.5077 13.694 29.759 13.694C29.0023 13.694 28.2536 13.7101 27.5211 13.7504C28.2121 12.8524 28.9511 11.9925 29.7349 11.1743ZM23.7776 15.9159C23.3832 16.5358 22.9888 17.1717 22.6185 17.8237C22.2482 18.4678 21.9021 19.1119 21.5719 19.7558C21.1493 18.7067 20.7786 17.6374 20.4611 16.5519C21.5156 16.3023 22.6264 16.0849 23.7776 15.9159ZM16.4922 25.9948C13.6424 24.7792 11.7989 23.1854 11.7989 21.9213C11.7989 20.6575 13.6424 19.0555 16.4922 17.848C17.1845 17.5501 17.9413 17.2844 18.7221 17.0349C19.181 18.6127 19.7848 20.255 20.5334 21.9375C19.7929 23.612 19.197 25.2462 18.7463 26.816C17.9494 26.5664 17.1926 26.2927 16.4922 25.9948ZM20.8232 37.4987C19.7284 36.8708 19.2534 34.4799 19.6238 31.4046C19.7124 30.648 19.8571 29.8509 20.0343 29.0378C21.6122 29.4242 23.335 29.7222 25.1462 29.9153C26.233 31.4046 27.36 32.757 28.4952 33.9404C25.8708 36.3797 23.4073 37.716 21.7328 37.716C21.3707 37.708 21.0648 37.6355 20.8232 37.4987ZM39.9186 31.3644C40.2968 34.4396 39.83 36.8305 38.7431 37.4665C38.5017 37.6114 38.1877 37.6758 37.8173 37.6758C36.1509 37.6758 33.6795 36.3475 31.0551 33.9244C32.1822 32.741 33.3092 31.3966 34.38 29.9072C36.1993 29.7141 37.9221 29.4161 39.4999 29.0217C39.6851 29.8348 39.83 30.6157 39.9186 31.3644ZM43.0178 25.9948C42.3255 26.2927 41.5687 26.5584 40.7878 26.8079C40.329 25.2301 39.7252 23.5879 38.9766 21.9053C39.7173 20.2308 40.313 18.5967 40.7637 17.0268C41.5608 17.2764 42.3174 17.5501 43.0259 17.848C45.8757 19.0635 47.7192 20.6575 47.7192 21.9213C47.7111 23.1854 45.8676 24.7873 43.0178 25.9948Z" fill="#61DAFB"/>
<path d="M29.7499 25.6002C31.7819 25.6002 33.429 23.9531 33.429 21.9211C33.429 19.8893 31.7819 18.2422 29.7499 18.2422C27.7182 18.2422 26.071 19.8893 26.071 21.9211C26.071 23.9531 27.7182 25.6002 29.7499 25.6002ZM11.8041 45.8373H10.5896V47.9289H9.9043V42.7586H11.6159C12.1982 42.7586 12.6457 42.8912 12.9582 43.1564C13.273 43.4214 13.4305 43.8073 13.4305 44.3139C13.4305 44.6359 13.3429 44.9164 13.1677 45.1556C12.9949 45.3947 12.7534 45.5734 12.4433 45.6917L13.6577 47.8862V47.9289H12.9262L11.8041 45.8373ZM10.5896 45.2798H11.6372C11.9757 45.2798 12.2444 45.1922 12.4433 45.017C12.6445 44.8419 12.7451 44.6075 12.7451 44.3139C12.7451 43.9944 12.6492 43.7494 12.4575 43.5789C12.2681 43.4084 11.9935 43.322 11.6336 43.3197H10.5896V45.2798ZM15.8807 48C15.3599 48 14.9361 47.8295 14.6094 47.4886C14.2827 47.1453 14.1194 46.6872 14.1194 46.1144V45.9936C14.1194 45.6125 14.1916 45.2728 14.336 44.9745C14.4827 44.6737 14.6863 44.4393 14.9467 44.2714C15.2095 44.1009 15.4936 44.0156 15.799 44.0156C16.2985 44.0156 16.6868 44.1801 16.9637 44.5092C17.2407 44.8383 17.3792 45.3093 17.3792 45.9225V46.1959H14.7763C14.7858 46.5748 14.8959 46.8814 15.1065 47.1158C15.3196 47.3476 15.5895 47.4637 15.9162 47.4637C16.1482 47.4637 16.3446 47.4164 16.5056 47.3217C16.6667 47.227 16.8074 47.1015 16.9282 46.9453L17.3295 47.2578C17.0074 47.7525 16.5246 48 15.8807 48ZM15.799 44.5555C15.5339 44.5555 15.3113 44.6525 15.1314 44.8465C14.9515 45.0384 14.8402 45.3083 14.7976 45.6562H16.7223V45.6065C16.7034 45.2728 16.6134 45.0147 16.4525 44.8323C16.2913 44.6478 16.0735 44.5555 15.799 44.5555ZM20.5148 47.9289C20.4768 47.8531 20.446 47.7183 20.4224 47.524C20.117 47.8412 19.7524 48 19.3287 48C18.9499 48 18.6387 47.8934 18.3948 47.6803C18.1534 47.4648 18.0326 47.1926 18.0326 46.8636C18.0326 46.4636 18.1842 46.1534 18.4871 45.9333C18.7924 45.7106 19.221 45.5993 19.7726 45.5993H20.4118V45.2976C20.4118 45.0679 20.3431 44.8856 20.2059 44.7508C20.0685 44.6134 19.866 44.5448 19.5985 44.5448C19.3641 44.5448 19.1678 44.6039 19.0092 44.7223C18.8506 44.8406 18.7712 44.9839 18.7712 45.152H18.1107C18.1107 44.9603 18.1782 44.7756 18.3131 44.5979C18.4504 44.4181 18.6351 44.2761 18.8671 44.1718C19.1015 44.0678 19.3582 44.0156 19.6376 44.0156C20.0804 44.0156 20.4271 44.1268 20.6781 44.3495C20.929 44.5697 21.0591 44.8739 21.0687 45.262V47.0304C21.0687 47.3833 21.1137 47.6637 21.2037 47.872V47.9289H20.5148ZM19.4246 47.4283C19.6306 47.4283 19.8259 47.375 20.0106 47.2684C20.1951 47.1618 20.3288 47.0234 20.4118 46.8529V46.0647H19.8968C19.092 46.0647 18.6895 46.3001 18.6895 46.7712C18.6895 46.9772 18.7582 47.1383 18.8954 47.2542C19.0327 47.3701 19.2092 47.4283 19.4246 47.4283ZM23.6396 47.4637C23.874 47.4637 24.0788 47.3926 24.254 47.2506C24.4291 47.1086 24.5262 46.9311 24.5451 46.7179H25.1667C25.1548 46.9381 25.079 47.1476 24.9393 47.3465C24.7996 47.5455 24.6126 47.704 24.3782 47.8223C24.1462 47.9408 23.9001 48 23.6396 48C23.1165 48 22.6998 47.8259 22.3896 47.4779C22.082 47.1275 21.9281 46.6494 21.9281 46.0433V45.9333C21.9281 45.5592 21.9966 45.2265 22.134 44.9355C22.2713 44.6442 22.4677 44.4181 22.7235 44.2572C22.9815 44.0961 23.2857 44.0156 23.636 44.0156C24.067 44.0156 24.4245 44.1447 24.7085 44.4028C24.9949 44.6608 25.1476 44.9958 25.1667 45.4076H24.5451C24.5262 45.159 24.4315 44.9554 24.261 44.7969C24.0931 44.6359 23.8846 44.5555 23.636 44.5555C23.3023 44.5555 23.0431 44.6761 22.8584 44.9176C22.6762 45.1567 22.5849 45.5036 22.5849 45.9581V46.0823C22.5849 46.525 22.6762 46.8659 22.8584 47.105C23.0407 47.3442 23.3012 47.4637 23.6396 47.4637ZM26.7965 43.1564V44.0867H27.5138V44.5945H26.7965V46.9772C26.7965 47.1311 26.8285 47.247 26.8924 47.3251C26.9563 47.4009 27.0652 47.4389 27.2192 47.4389C27.2948 47.4389 27.399 47.4247 27.5315 47.3962V47.9289C27.3587 47.9762 27.1907 48 27.0273 48C26.7338 48 26.5124 47.9111 26.3632 47.7336C26.2141 47.5561 26.1396 47.3039 26.1396 46.9772V44.5945H25.4399V44.0867H26.1396V43.1564H26.7965ZM34.1649 47.9289H33.4794L30.8766 43.9447V47.9289H30.1913V42.7586H30.8766L33.4866 46.7606V42.7586H34.1649V47.9289ZM37.6449 47.9289C37.6069 47.8531 37.5762 47.7183 37.5526 47.524C37.2471 47.8412 36.8826 48 36.4588 48C36.0801 48 35.7687 47.8934 35.5249 47.6803C35.2835 47.4648 35.1627 47.1926 35.1627 46.8636C35.1627 46.4636 35.3141 46.1534 35.6173 45.9333C35.9226 45.7106 36.3512 45.5993 36.9027 45.5993H37.5419V45.2976C37.5419 45.0679 37.4732 44.8856 37.3358 44.7508C37.1987 44.6134 36.9962 44.5448 36.7287 44.5448C36.4943 44.5448 36.2979 44.6039 36.1393 44.7223C35.9807 44.8406 35.9013 44.9839 35.9013 45.152H35.2409C35.2409 44.9603 35.3084 44.7756 35.4432 44.5979C35.5805 44.4181 35.7652 44.2761 35.9973 44.1718C36.2316 44.0678 36.4883 44.0156 36.7677 44.0156C37.2104 44.0156 37.5573 44.1268 37.8082 44.3495C38.0591 44.5697 38.1893 44.8739 38.1988 45.262V47.0304C38.1988 47.3833 38.2438 47.6637 38.3338 47.872V47.9289H37.6449ZM36.5548 47.4283C36.7607 47.4283 36.956 47.375 37.1407 47.2684C37.3252 47.1618 37.459 47.0234 37.5419 46.8529V46.0647H37.0269C36.2221 46.0647 35.8196 46.3001 35.8196 46.7712C35.8196 46.9772 35.8884 47.1383 36.0255 47.2542C36.1629 47.3701 36.3393 47.4283 36.5548 47.4283ZM40.1199 43.1564V44.0867H40.8373V44.5945H40.1199V46.9772C40.1199 47.1311 40.1519 47.247 40.2158 47.3251C40.2798 47.4009 40.3887 47.4389 40.5426 47.4389C40.6182 47.4389 40.7224 47.4247 40.8551 47.3962V47.9289C40.6821 47.9762 40.5141 48 40.3507 48C40.0573 48 39.8358 47.9111 39.6866 47.7336C39.5376 47.5561 39.463 47.3039 39.463 46.9772V44.5945H38.7635V44.0867H39.463V43.1564H40.1199ZM42.3216 47.9289H41.6646V44.0867H42.3216V47.9289ZM41.6113 43.0675C41.6113 42.9611 41.6433 42.8711 41.7073 42.7976C41.7735 42.7242 41.8705 42.6877 41.9983 42.6877C42.1263 42.6877 42.2233 42.7242 42.2896 42.7976C42.3558 42.8711 42.389 42.9611 42.389 43.0675C42.389 43.174 42.3558 43.2628 42.2896 43.3339C42.2233 43.4048 42.1263 43.4405 41.9983 43.4405C41.8705 43.4405 41.7735 43.4048 41.7073 43.3339C41.6433 43.2628 41.6113 43.174 41.6113 43.0675ZM44.644 47.0376L45.5955 44.0867H46.2668L44.889 47.9289H44.3882L42.9963 44.0867H43.6674L44.644 47.0376ZM48.4435 48C47.9227 48 47.499 47.8295 47.1722 47.4886C46.8455 47.1453 46.6822 46.6872 46.6822 46.1144V45.9936C46.6822 45.6125 46.7544 45.2728 46.8988 44.9745C47.0455 44.6737 47.2491 44.4393 47.5096 44.2714C47.7724 44.1009 48.0565 44.0156 48.3618 44.0156C48.8613 44.0156 49.2496 44.1801 49.5266 44.5092C49.8035 44.8383 49.9421 45.3093 49.9421 45.9225V46.1959H47.3391C47.3486 46.5748 47.4586 46.8814 47.6694 47.1158C47.8824 47.3476 48.1524 47.4637 48.4789 47.4637C48.711 47.4637 48.9076 47.4164 49.0685 47.3217C49.2294 47.227 49.3704 47.1015 49.4912 46.9453L49.8924 47.2578C49.5704 47.7525 49.0874 48 48.4435 48ZM48.3618 44.5555C48.0968 44.5555 47.8741 44.6525 47.6943 44.8465C47.5143 45.0384 47.403 45.3083 47.3605 45.6562H49.285V45.6065C49.2661 45.2728 49.1761 45.0147 49.0152 44.8323C48.8543 44.6478 48.6365 44.5555 48.3618 44.5555Z" fill="#61DAFB"/>
</g>
<defs>
<clipPath id="clip0_1492_4169">
<rect width="59.8504" height="48" fill="white"/>
</clipPath>
</defs>
</svg>
