<svg width="368" height="368" viewBox="0 0 368 368" fill="none" xmlns="http://www.w3.org/2000/svg">
<circle cx="184" cy="184" r="184" fill="#D7E8FF"/>
<g clip-path="url(#clip0_1092_3959)">
<path d="M94.8106 131.948C94.663 130.597 95.097 129.248 96.0042 128.237C96.9114 127.225 98.2059 126.648 99.5644 126.649H120.274C122.034 126.649 123.46 125.222 123.46 123.463C123.46 121.703 122.034 120.277 120.274 120.277H105.937C104.578 120.28 103.283 119.705 102.374 118.696C101.465 117.686 101.028 116.338 101.173 114.988C101.581 112.448 103.823 110.615 106.392 110.718H126.647C128.406 110.718 129.833 109.292 129.833 107.532C129.833 105.772 128.406 104.346 126.647 104.346H112.309C110.951 104.349 109.655 103.774 108.746 102.765C107.837 101.756 107.401 100.407 107.546 99.0569C107.952 96.5169 110.194 94.6825 112.765 94.7875H159.948C160.529 94.7919 161.097 94.955 161.592 95.259L174.477 102.976C175.96 103.865 177.655 104.338 179.384 104.346H209.486V132.668L203.968 128.15C199.827 124.989 194.002 125.309 190.233 128.905C187.434 131.619 186.461 135.71 187.738 139.394H177.055C174.547 139.404 172.144 140.4 170.364 142.165L140.379 171.905L140.315 171.969L138.99 173.281C137.436 174.801 134.947 174.784 133.414 173.243C132.015 171.838 131.878 169.612 133.095 168.047L141.857 157.341C142.636 156.388 142.797 155.072 142.27 153.96C141.743 152.847 140.622 152.138 139.391 152.138H103.206C100.641 152.238 98.4042 150.407 97.9968 147.872C97.8511 146.523 98.286 145.175 99.1929 144.165C100.1 143.156 101.393 142.579 102.751 142.58H120.274C122.034 142.58 123.46 141.153 123.46 139.394C123.46 137.634 122.034 136.207 120.274 136.207H100.02C97.457 136.307 95.2223 134.479 94.8106 131.948ZM147.841 270C146.499 270.145 145.16 269.709 144.161 268.802C143.157 267.892 142.582 266.601 142.577 265.246V265.199V247.723C142.577 245.963 141.151 244.536 139.391 244.536C137.632 244.536 136.205 245.963 136.205 247.723V265.246V265.291V267.983C136.293 270.558 134.446 272.793 131.901 273.193C130.562 273.338 129.225 272.902 128.23 271.995C127.224 271.083 126.649 269.79 126.647 268.433V262.06V261.996V247.723C126.647 245.963 125.22 244.536 123.46 244.536C121.701 244.536 120.274 245.963 120.274 247.723V262.06V262.098C120.266 263.449 119.686 264.734 118.678 265.634C117.67 266.533 116.329 266.964 114.985 266.82C112.447 266.414 110.613 264.174 110.716 261.605V255.688V255.64V241.35C110.716 239.591 109.289 238.164 107.53 238.164C105.77 238.164 104.344 239.591 104.344 241.35V255.688V255.717C104.338 257.069 103.759 258.355 102.752 259.257C101.744 260.158 100.402 260.591 99.0578 260.448C96.5197 260.042 94.6852 257.804 94.7851 255.235V208.052C94.7901 207.478 94.9402 206.914 95.2216 206.414L102.974 193.523C103.861 192.041 104.334 190.347 104.344 188.62V158.51H132.662L128.141 164.032C125.226 167.577 125.019 172.627 127.633 176.399C130.248 180.171 135.048 181.75 139.391 180.265V190.945C139.402 193.453 140.397 195.856 142.163 197.636L171.877 227.586C171.912 227.624 171.947 227.659 171.985 227.694L173.282 229.001C174.399 230.137 174.723 231.833 174.106 233.301C173.488 234.77 172.049 235.723 170.456 235.72C169.589 235.724 168.746 235.433 168.067 234.895L157.364 226.136C156.412 225.341 155.084 225.171 153.961 225.701C152.839 226.231 152.127 227.364 152.136 228.606V264.791C152.224 267.362 150.382 269.596 147.841 270ZM273.184 236.052C273.332 237.402 272.898 238.751 271.99 239.763C271.083 240.774 269.789 241.351 268.43 241.35H247.72C245.961 241.35 244.534 242.777 244.534 244.536C244.534 246.296 245.961 247.723 247.72 247.723H262.058C263.416 247.719 264.712 248.294 265.621 249.303C266.529 250.313 266.966 251.661 266.821 253.012C266.413 255.551 264.172 257.385 261.602 257.281H241.348C239.588 257.281 238.162 258.707 238.162 260.467C238.162 262.227 239.588 263.653 241.348 263.653H255.686C257.044 263.65 258.339 264.225 259.248 265.234C260.157 266.243 260.594 267.592 260.449 268.942C260.042 271.482 257.8 273.317 255.23 273.212H208.046C207.466 273.207 206.897 273.044 206.402 272.74L193.517 265.023C192.035 264.134 190.34 263.661 188.611 263.653H158.508V235.325L164.027 239.843C168.164 243.016 173.997 242.696 177.762 239.088C180.562 236.377 181.538 232.29 180.266 228.606H190.94C193.447 228.595 195.85 227.6 197.631 225.834L227.606 196.107L227.718 195.999L229.014 194.724C230.569 193.205 233.057 193.222 234.59 194.762C235.99 196.167 236.126 198.394 234.909 199.959L226.147 210.664C225.373 211.616 225.214 212.928 225.738 214.037C226.262 215.146 227.377 215.855 228.603 215.861H264.788C267.354 215.761 269.59 217.592 269.998 220.127C270.143 221.477 269.709 222.824 268.802 223.834C267.895 224.844 266.601 225.42 265.244 225.42H247.72C245.961 225.42 244.534 226.846 244.534 228.606C244.534 230.365 245.961 231.792 247.72 231.792H267.984C270.544 231.698 272.773 233.524 273.184 236.052ZM273.209 159.947C273.205 160.528 273.043 161.096 272.741 161.591L265.021 174.476C264.132 175.958 263.659 177.652 263.651 179.38V209.489H235.323L239.844 203.967C243.126 199.865 242.798 193.952 239.083 190.238C236.299 187.567 232.275 186.64 228.603 187.823V177.054C228.593 174.546 227.597 172.143 225.831 170.363L196.105 140.369L196.044 140.308L194.728 138.983C193.982 138.245 193.565 137.237 193.572 136.188C193.579 135.139 194.01 134.137 194.766 133.41C196.191 132.051 198.387 131.917 199.966 133.091L210.669 141.85C211.62 142.62 212.929 142.777 214.036 142.253C215.142 141.729 215.851 140.618 215.859 139.394V103.208C215.76 100.642 217.593 98.4064 220.128 97.9991C221.477 97.8544 222.824 98.2898 223.833 99.1966C224.842 100.103 225.418 101.396 225.417 102.753V120.277C225.417 122.036 226.844 123.463 228.603 123.463C230.363 123.463 231.789 122.036 231.789 120.277V100.022C231.689 97.4557 233.523 95.219 236.059 94.813C237.408 94.6683 238.755 95.1036 239.763 96.0104C240.772 96.9173 241.348 98.2101 241.348 99.5667V120.277C241.348 122.036 242.774 123.463 244.534 123.463C246.294 123.463 247.72 122.036 247.72 120.277V105.939C247.718 104.581 248.293 103.287 249.302 102.378C250.311 101.47 251.659 101.034 253.009 101.179C255.548 101.585 257.382 103.826 257.279 106.395V126.649C257.279 128.409 258.705 129.835 260.465 129.835C262.224 129.835 263.651 128.409 263.651 126.649V112.311C263.649 110.954 264.224 109.659 265.233 108.751C266.242 107.843 267.59 107.406 268.94 107.551C271.477 107.959 273.31 110.196 273.209 112.764V159.947Z" fill="#2876FF"/>
</g>
<defs>
<clipPath id="clip0_1092_3959">
<rect width="178.424" height="178.424" fill="white" transform="translate(94.7871 94.7881)"/>
</clipPath>
</defs>
</svg>
