<svg width="78" height="76" viewBox="0 0 78 76" fill="none" xmlns="http://www.w3.org/2000/svg">
<g filter="url(#filter0_d_563_3323)">
<path d="M6.43968 46.8295L6.44638 46.8362C6.29298 48.9901 10.8273 58.272 17.5821 55.2913C18.2356 56.3849 18.9423 57.4385 19.6959 58.4454C19.3358 58.2854 18.9758 58.132 18.609 58.012C15.355 56.9184 12.6344 58.352 12.0877 58.7988C11.8876 58.9588 11.7542 59.2189 11.7477 59.4723V59.4989C11.7477 59.5189 11.7544 59.5456 11.7544 59.5657H11.761C11.9944 60.5859 15.5152 64.8468 19.0427 65.4736C19.4295 65.5403 19.8161 65.5736 20.1963 65.5736C21.7901 65.5736 23.297 64.9669 24.5706 63.8065C26.2043 65.2668 27.9447 66.5672 29.7918 67.6474C29.9251 67.7207 30.0652 67.7607 30.2119 67.7607C30.4986 67.7607 30.7788 67.6073 30.932 67.3473C31.1654 66.9473 31.0321 66.4337 30.6319 66.2071C28.8449 65.1668 27.1645 63.9065 25.5975 62.4863C26.211 61.3261 27.0312 59.1589 26.9178 56.8317C26.8378 55.5181 26.4645 53.3776 25.0775 50.617L25.0374 50.537C24.9107 50.2302 24.6106 50.0103 24.2638 50.0103C24.0506 50.0103 23.8638 50.0835 23.7171 50.2103C22.7903 50.9104 20.7431 52.8108 20.6765 55.9782C20.6698 56.3448 20.7031 56.705 20.7498 57.0651C20.1229 56.1983 19.5228 55.298 18.9694 54.3645C22.1567 51.2372 22.6035 47.1629 21.7966 42.7486L21.7767 42.6486C21.7433 42.3819 21.59 42.1418 21.3498 42.0085C21.1164 41.8818 20.8431 41.8685 20.6031 41.9752C18.336 42.822 16.7423 44.4556 16.0688 46.5829C15.9554 46.943 15.8822 47.3097 15.8287 47.6765C15.4486 46.603 15.1286 45.516 14.8551 44.4092C15.9821 43.8423 17.8624 42.5755 19.0294 40.5016C19.6762 39.3547 20.5031 37.3342 20.8232 34.1937L20.8366 34.0669H20.8299C20.8498 33.987 20.8498 33.9335 20.8498 33.9269C20.8498 33.6002 20.6565 33.3001 20.3564 33.1668C20.2097 33.1001 20.0498 33.0801 19.8964 33.1001C17.4959 33.2201 15.5155 34.2737 14.2685 36.0807C14.0684 36.3741 13.9018 36.6874 13.7484 37.0009C13.6951 35.8607 13.6884 34.7071 13.735 33.5603C14.9552 33.3936 17.069 32.8268 18.7895 31.1797C20.1364 29.8794 21.2966 28.0457 22.2435 25.7119L22.2902 25.6053C22.4236 25.3519 22.4169 25.0319 22.2568 24.7717C22.1235 24.565 21.9101 24.4317 21.6767 24.3916C19.3429 23.7849 17.1691 24.1649 15.4954 25.4651C15.2219 25.6719 14.9753 25.9185 14.7419 26.172C15.002 25.0517 15.3088 23.9515 15.6622 22.8646C16.1356 22.9646 16.7491 23.0447 17.4559 23.0447C18.5495 23.0447 19.8497 22.8514 21.1234 22.2178C22.7705 21.3976 24.3842 20.004 25.9311 18.0703L25.9978 17.9836C26.1912 17.7836 26.2778 17.5035 26.218 17.2168C26.1646 16.9634 25.9913 16.7567 25.7645 16.6434C23.7041 15.3764 21.5368 15.0697 19.6165 15.7498C19.2564 15.8765 18.9164 16.0566 18.5896 16.2499C19.2098 15.1563 19.8898 14.1027 20.6234 13.1026C22.0904 12.5425 24.5577 11.4289 26.6113 9.53522C27.6915 8.52172 29.2985 6.67465 30.8656 3.64059L30.9189 3.54051C31.0923 3.26051 31.0856 2.88699 30.8788 2.60699C30.6522 2.3069 30.3454 2.28024 30.1987 2.26698C29.7852 2.22035 26.0512 1.95362 22.8971 4.80078C20.2032 7.24791 19.4096 10.6954 19.2896 12.0957C18.5695 13.0825 17.9026 14.1029 17.2824 15.1697C17.3024 14.7963 17.3225 14.4229 17.3158 14.0561C17.3158 14.0494 17.3158 14.0494 17.3158 14.0494C17.2757 10.9555 15.9489 8.4416 15.1554 7.47473C14.9953 7.14797 14.6286 6.95465 14.2485 7.02793C13.2682 7.21455 10.5077 12.7291 10.9344 16.6434C11.2545 19.7707 13.0016 21.4511 14.1285 22.2245C13.735 23.3981 13.4017 24.5983 13.115 25.812C13.0283 25.4319 12.9282 25.0451 12.8149 24.6718C11.8547 21.6177 9.74089 19.7374 8.75406 19.1639C8.49402 18.9505 8.1272 18.9106 7.82054 19.0772C6.94035 19.5574 5.91345 25.792 7.42706 29.2795C8.34062 31.4132 10.0143 32.8936 12.0748 33.4471C12.0215 34.7206 12.0282 36.001 12.0948 37.2678C11.9015 36.941 11.7147 36.6077 11.5013 36.2942C9.31419 33.1336 6.19345 32.4867 5.73339 32.4867H5.71999C5.66667 32.4867 5.61335 32.4934 5.56003 32.5067C5.39337 32.5468 5.23327 32.6334 5.11324 32.7734C5.09984 32.7801 5.09327 32.7934 5.08657 32.8068C5.06661 32.8335 5.03995 32.8668 5.01985 32.9002L5.03326 32.9069C4.59316 34.0339 5.29329 39.7883 7.6938 42.5156C9.04745 44.0626 10.8011 44.8761 12.7149 44.8761C12.8883 44.8761 13.0684 44.8694 13.2484 44.8561C13.5551 46.083 13.9219 47.3032 14.3553 48.4902C14.0819 48.2434 13.8018 48.0034 13.5152 47.7834C10.6078 45.5629 7.47382 46.0364 6.98041 46.2163C6.93378 46.2363 6.89372 46.2564 6.85367 46.2763C6.68031 46.3763 6.54031 46.5297 6.46689 46.7297C6.46019 46.7364 6.46019 46.7496 6.46019 46.7631C6.44638 46.7829 6.43968 46.8095 6.43968 46.8295Z" fill="white"/>
<path d="M71.6267 46.8295L71.62 46.8362C71.7734 48.9901 67.2391 58.272 60.4843 55.2913C59.8308 56.3849 59.1241 57.4385 58.3705 58.4454C58.7306 58.2854 59.0906 58.132 59.4574 58.012C62.7114 56.9184 65.432 58.352 65.9787 58.7988C66.1788 58.9588 66.3122 59.2189 66.3188 59.4723V59.4989C66.3188 59.5189 66.3121 59.5456 66.3121 59.5657H66.3054C66.072 60.5859 62.5512 64.8468 59.0237 65.4736C58.6369 65.5403 58.2503 65.5736 57.8701 65.5736C56.2764 65.5736 54.7694 64.9669 53.4958 63.8065C51.8621 65.2668 50.1217 66.5672 48.2746 67.6474C48.1413 67.7207 48.0012 67.7607 47.8545 67.7607C47.5678 67.7607 47.2876 67.6073 47.1344 67.3473C46.901 66.9473 47.0343 66.4337 47.4345 66.2071C49.2215 65.1668 50.9019 63.9065 52.4689 62.4863C51.8554 61.3261 51.0352 59.1589 51.1486 56.8317C51.2286 55.5181 51.6019 53.3776 52.989 50.617L53.029 50.537C53.1557 50.2302 53.4558 50.0103 53.8026 50.0103C54.0158 50.0103 54.2026 50.0835 54.3493 50.2103C55.2761 50.9104 57.3233 52.8108 57.3899 55.9782C57.3966 56.3448 57.3633 56.705 57.3166 57.0651C57.9435 56.1983 58.5436 55.298 59.097 54.3645C55.9097 51.2372 55.4629 47.1629 56.2698 42.7486L56.2898 42.6486C56.3231 42.3819 56.4764 42.1418 56.7166 42.0085C56.95 41.8818 57.2233 41.8685 57.4633 41.9752C59.7304 42.822 61.3241 44.4556 61.9976 46.5829C62.111 46.943 62.1842 47.3097 62.2377 47.6765C62.6178 46.603 62.9378 45.516 63.2113 44.4092C62.0843 43.8423 60.204 42.5755 59.037 40.5016C58.3902 39.3547 57.5633 37.3342 57.2432 34.1937L57.2298 34.0669H57.2365C57.2166 33.987 57.2166 33.9335 57.2166 33.9269C57.2166 33.6002 57.4099 33.3001 57.71 33.1668C57.8567 33.1001 58.0166 33.0801 58.17 33.1001C60.5706 33.2201 62.5509 34.2737 63.7979 36.0807C63.998 36.3741 64.1646 36.6874 64.318 37.0009C64.3713 35.8607 64.378 34.7071 64.3314 33.5603C63.1112 33.3936 60.9974 32.8268 59.2769 31.1797C57.93 29.8794 56.7698 28.0457 55.8229 25.7119L55.7762 25.6053C55.6428 25.3519 55.6495 25.0319 55.8096 24.7717C55.9429 24.565 56.1563 24.4317 56.3897 24.3916C58.7235 23.7849 60.8973 24.1649 62.571 25.4651C62.8445 25.6719 63.0911 25.9185 63.3245 26.172C63.0644 25.0517 62.7576 23.9515 62.4042 22.8646C61.9308 22.9646 61.3173 23.0447 60.6105 23.0447C59.5169 23.0447 58.2167 22.8514 56.943 22.2178C55.2959 21.3976 53.6823 20.004 52.1353 18.0703L52.0686 17.9836C51.8752 17.7836 51.7886 17.5035 51.8484 17.2168C51.9018 16.9634 52.0751 16.7567 52.3019 16.6434C54.3623 15.3764 56.5296 15.0697 58.4499 15.7498C58.81 15.8765 59.15 16.0566 59.4768 16.2499C58.8566 15.1563 58.1766 14.1027 57.443 13.1026C55.976 12.5425 53.5088 11.4289 51.4551 9.53522C50.3749 8.52172 48.7679 6.67465 47.2008 3.64059L47.1475 3.54051C46.9741 3.26051 46.9808 2.88699 47.1876 2.60699C47.4142 2.3069 47.721 2.28024 47.8677 2.26698C48.2812 2.22035 52.0152 1.95362 55.1693 4.80078C57.8632 7.24791 58.6568 10.6954 58.7768 12.0957C59.4969 13.0825 60.1638 14.1029 60.784 15.1697C60.764 14.7963 60.7439 14.4229 60.7506 14.0561C60.7506 14.0494 60.7506 14.0494 60.7506 14.0494C60.7907 10.9555 62.1175 8.4416 62.911 7.47473C63.0711 7.14797 63.4378 6.95465 63.8179 7.02793C64.7982 7.21455 67.5587 12.7291 67.132 16.6434C66.8119 19.7707 65.0648 21.4511 63.9379 22.2245C64.3314 23.3981 64.6647 24.5983 64.9514 25.812C65.0381 25.4319 65.1382 25.0451 65.2515 24.6718C66.2117 21.6177 68.3255 19.7374 69.3123 19.1639C69.5724 18.9505 69.9392 18.9106 70.2459 19.0772C71.1261 19.5574 72.153 25.792 70.6393 29.2795C69.7258 31.4132 68.0521 32.8936 65.9916 33.4471C66.0449 34.7206 66.0382 36.001 65.9716 37.2678C66.1649 36.941 66.3517 36.6077 66.5651 36.2942C68.7522 33.1336 71.873 32.4867 72.333 32.4867H72.3464C72.3997 32.4867 72.4531 32.4934 72.5064 32.5067C72.673 32.5468 72.8331 32.6334 72.9532 32.7734C72.9666 32.7801 72.9731 32.7934 72.9798 32.8068C72.9998 32.8335 73.0265 32.8668 73.0466 32.9002L73.0331 32.9069C73.4732 34.0339 72.7731 39.7883 70.3726 42.5156C69.019 44.0626 67.2653 44.8761 65.3515 44.8761C65.1781 44.8761 64.9981 44.8694 64.818 44.8561C64.5113 46.083 64.1445 47.3032 63.7111 48.4902C63.9846 48.2434 64.2646 48.0034 64.5513 47.7834C67.4586 45.5629 70.5926 46.0364 71.086 46.2163C71.1326 46.2363 71.1727 46.2564 71.2127 46.2763C71.3861 46.3763 71.5261 46.5297 71.5995 46.7297C71.6062 46.7364 71.6062 46.7496 71.6062 46.7631C71.62 46.7829 71.6267 46.8095 71.6267 46.8295Z" fill="white"/>
</g>
<defs>
<filter id="filter0_d_563_3323" x="0" y="0" width="78" height="78" filterUnits="userSpaceOnUse" color-interpolation-filters="sRGB">
<feFlood flood-opacity="0" result="BackgroundImageFix"/>
<feColorMatrix in="SourceAlpha" type="matrix" values="0 0 0 0 0 0 0 0 0 0 0 0 0 0 0 0 0 0 127 0" result="hardAlpha"/>
<feOffset dy="4"/>
<feGaussianBlur stdDeviation="2"/>
<feComposite in2="hardAlpha" operator="out"/>
<feColorMatrix type="matrix" values="0 0 0 0 0 0 0 0 0 0 0 0 0 0 0 0 0 0 0.25 0"/>
<feBlend mode="normal" in2="BackgroundImageFix" result="effect1_dropShadow_563_3323"/>
<feBlend mode="normal" in="SourceGraphic" in2="effect1_dropShadow_563_3323" result="shape"/>
</filter>
</defs>
</svg>
