<svg width="276" height="191" viewBox="0 0 276 191" fill="none" xmlns="http://www.w3.org/2000/svg">
<g opacity="0.5">
<g opacity="0.15">
<path d="M71.8743 170.265L104.57 188.764L137.265 170.265V133.294L104.57 114.794L71.8743 133.294V170.265Z" stroke="white" stroke-width="1.54584"/>
<path d="M104.57 151.006V113.519" stroke="black" stroke-width="0.772919"/>
<path d="M103.021 116.275L72.4398 131.887L72.1154 165.807L103.021 150.545V116.275Z" fill="white" stroke="white" stroke-width="1.9323"/>
<path d="M105.536 114.837L135.69 132.88L136.049 168.643L105.536 150.968V114.837Z" fill="#575757" stroke="white" stroke-width="1.9323"/>
</g>
<g opacity="0.15">
<path d="M138.12 94.501V57.0144" stroke="black" stroke-width="0.772919"/>
<path d="M137.154 58.311L106.236 76.3809L105.868 112.157L137.154 94.4556V58.311Z" fill="#575757" stroke="white" stroke-width="1.9323"/>
<path d="M139.087 58.3312L169.24 76.3742L169.6 112.137L139.087 94.4622V58.3312Z" fill="#575757" stroke="white" stroke-width="1.9323"/>
</g>
<g opacity="0.15">
<path d="M137.798 170.854L170.494 189.353L203.189 170.854V133.882L170.494 115.383L137.798 133.882V170.854Z" stroke="white" stroke-width="1.54584"/>
<path d="M170.494 151.596V114.109" stroke="black" stroke-width="0.772919"/>
<path d="M169.527 115.406L138.609 133.476L138.241 169.252L169.527 151.55V115.406Z" fill="#575757" stroke="white" stroke-width="1.9323"/>
<path d="M171.46 115.426L201.613 133.469L201.973 169.232L171.46 151.557V115.426Z" fill="white" stroke="white" stroke-width="1.9323"/>
</g>
<g opacity="0.15">
<path d="M40.5457 112.501L73.2412 131.001L105.937 112.501V75.5299L73.2412 57.0307L40.5457 75.5299V112.501Z" stroke="white" stroke-width="1.54584"/>
<path d="M73.2417 93.2432V55.7566" stroke="black" stroke-width="0.772919"/>
<path d="M72.2747 57.0531L41.3568 75.123L40.9887 110.899L72.2747 93.1978V57.0531Z" fill="white" stroke="white" stroke-width="1.9323"/>
<path d="M74.2072 57.0734L104.361 75.1164L104.72 110.879L74.2072 93.2043V57.0734Z" fill="#575757" stroke="white" stroke-width="1.9323"/>
</g>
<g opacity="0.15">
<path d="M170.172 114.348L202.868 132.847L235.563 114.348V77.3765L202.868 58.8773L170.172 77.3765V114.348Z" stroke="white" stroke-width="1.54584"/>
<path d="M202.868 95.0898V57.6033" stroke="black" stroke-width="0.772919"/>
<path d="M201.902 58.8998L170.984 76.9697L170.616 112.746L201.902 95.0445V58.8998Z" fill="white" stroke="white" stroke-width="1.9323"/>
<path d="M203.834 58.9201L233.988 76.9631L234.347 112.726L203.834 95.051V58.9201Z" fill="#575757" stroke="white" stroke-width="1.9323"/>
</g>
<g opacity="0.15">
<path d="M104.57 77.2285L138.038 58.292V20.419L104.57 1.48245L71.1014 20.419V58.292L104.57 77.2285Z" fill="white"/>
<path d="M104.57 38.583V1.09643" stroke="black" stroke-width="0.772919"/>
<path d="M103.603 2.39299L72.6855 20.4629L72.3173 56.2388L103.603 38.5376V2.39299Z" fill="#575757" stroke="white" stroke-width="1.9323"/>
<path d="M105.536 2.41328L135.69 20.4563L136.049 56.2192L105.536 38.5442V2.41328Z" fill="#575757" stroke="white" stroke-width="1.9323"/>
</g>
<g opacity="0.15">
<path d="M202.357 58.2016L235.052 76.7008L267.748 58.2016V21.2301L235.052 2.73087L202.357 21.2301V58.2016Z" stroke="white" stroke-width="1.54584"/>
<path d="M235.052 38.9434V1.45678" stroke="black" stroke-width="0.772919"/>
<path d="M234.086 2.75334L203.168 20.8232L202.8 56.5992L234.086 38.898V2.75334Z" fill="#575757" stroke="white" stroke-width="1.9323"/>
<path d="M236.017 2.77363L266.171 20.8166L266.53 56.5796L236.017 38.9045V2.77363Z" fill="#575757" stroke="white" stroke-width="1.9323"/>
</g>
<g opacity="0.15">
<path d="M138.388 57.8413L171.083 76.3405L203.779 57.8413V20.8697L171.083 2.37051L138.388 20.8697V57.8413Z" stroke="white" stroke-width="1.54584"/>
<path d="M171.083 38.583V1.09643" stroke="black" stroke-width="0.772919"/>
<path d="M170.117 2.39299L139.199 20.4629L138.831 56.2388L170.117 38.5376V2.39299Z" fill="white" stroke="white" stroke-width="1.9323"/>
<path d="M172.049 2.41328L202.203 20.4563L202.563 56.2192L172.049 38.5442V2.41328Z" fill="#575757" stroke="white" stroke-width="1.9323"/>
</g>
<g opacity="0.15">
<path d="M5.95049 57.2534L38.6459 75.7526L71.3414 57.2534V20.2818L38.6459 1.78262L5.95049 20.2818V57.2534Z" stroke="white" stroke-width="1.54584"/>
<path d="M38.6465 37.9951V0.50854" stroke="black" stroke-width="0.772919"/>
<path d="M37.6805 1.8051L6.7626 19.875L6.39448 55.651L37.6805 37.9498V1.8051Z" fill="white" stroke="white" stroke-width="1.9323"/>
<path d="M39.611 1.82539L69.7648 19.8684L70.1243 55.6314L39.611 37.9563V1.82539Z" fill="white" stroke="white" stroke-width="1.9323"/>
</g>
<g opacity="0.15">
<path d="M237.206 190.103L270.674 171.166V133.293L237.206 114.356L203.737 133.293V171.166L237.206 190.103Z" fill="white"/>
<path d="M237.206 151.456V113.969" stroke="black" stroke-width="0.772919"/>
<path d="M236.239 115.267L205.321 133.337L204.953 169.113L236.239 151.412V115.267Z" fill="#575757" stroke="white" stroke-width="1.9323"/>
<path d="M238.172 115.287L268.325 133.33L268.685 169.093L238.172 151.418V115.287Z" fill="#575757" stroke="white" stroke-width="1.9323"/>
</g>
</g>
<circle cx="3.24179" cy="3.24179" r="3.24179" transform="matrix(1 0 0 -1 166.142 117.301)" fill="#CFE4FF"/>
<circle cx="3.24179" cy="3.24179" r="3.24179" transform="matrix(1 0 0 -1 104.547 80.0205)" fill="#CFE4FF"/>
<circle cx="3.24179" cy="3.24179" r="3.24179" transform="matrix(1 0 0 -1 68.0786 173.222)" fill="#CFE4FF"/>
<circle cx="3.24179" cy="3.24179" r="3.24179" transform="matrix(1 0 0 -1 200.181 61.3799)" fill="#CFE4FF"/>
<circle cx="3.24179" cy="3.24179" r="3.24179" transform="matrix(1 0 0 -1 200.181 174.032)" fill="#CFE4FF"/>
<circle cx="3.24179" cy="3.24179" r="3.24179" transform="matrix(1 0 0 -1 134.534 23.2891)" fill="#CFE4FF"/>
</svg>
