<svg viewBox="0 0 196 48" fill="none" xmlns="http://www.w3.org/2000/svg">
<path fill-rule="evenodd" clip-rule="evenodd" d="M17.3585 1.03369L0 12.606L18.5585 25.0707L37.4149 12.4998L20.3507 1.03883C19.5254 0.484514 18.1857 0.482214 17.3585 1.03369ZM18.5841 9.35513L6.82855 17.1922L18.5571 25.0696L30.3127 17.2325L18.5841 9.35513Z" fill="#E1ECF8"/>
<path fill-rule="evenodd" clip-rule="evenodd" d="M6.83995 17.2572L0 12.6973V34.9813L18.4595 47.2877V38.5804L11.7603 34.1142V42.8208L6.83995 39.5406V17.2572ZM11.7603 20.5374V29.1722L18.4595 33.6384V25.0036L11.7603 20.5374Z" fill="white"/>
<path fill-rule="evenodd" clip-rule="evenodd" d="M25.3787 20.4656L18.625 24.9681V33.5478L25.3787 29.0453V20.4656ZM30.2991 17.1854V25.7651V30.6929V30.7071L18.625 38.4898V47.324L37.1411 34.9799V12.624L30.2991 17.1854Z" fill="white"/>
<rect width="8.47494" height="8.29592" transform="matrix(0.83205 -0.5547 0.830139 0.557556 11.6133 20.4009)" fill="#DDE2E7" fill-opacity="0.5"/>
<rect width="8.47494" height="8.29592" transform="matrix(0.83205 -0.5547 0.830139 0.557556 11.6133 18.7583)" fill="#DDE2E7" fill-opacity="0.5"/>
<rect width="8.47494" height="8.29592" transform="matrix(0.83205 -0.5547 0.830139 0.557556 11.6133 16.937)" fill="#DDE2E7" fill-opacity="0.5"/>
<path d="M51.2755 29.9731V17.1763H56.9955C59.993 17.1763 61.8819 19.0031 61.8819 21.841V21.8587C61.8819 24.6965 59.993 26.4791 56.9955 26.4791H55.0356V29.9731H51.2755ZM56.0998 20.0052H55.0356V23.7033H56.0998C57.3414 23.7033 58.0863 23.0825 58.0863 21.8587V21.841C58.0863 20.6171 57.3414 20.0052 56.0998 20.0052ZM61.1725 29.9731L65.3494 17.1763H70.0673L74.2442 29.9731H70.289L69.6239 27.428H65.7928L65.1277 29.9731H61.1725ZM67.6729 20.2269L66.4845 24.7764H68.9322L67.7438 20.2269H67.6729ZM75.3971 29.9731V17.1763H81.1615C84.4516 17.1763 86.243 18.7193 86.243 21.5572V21.5749C86.243 23.1712 85.4271 24.6079 84.1855 25.2109L86.6154 29.9731H82.4119L80.3899 25.7696H79.1573V29.9731H75.3971ZM79.1573 23.118H80.7269C81.7379 23.118 82.4119 22.4883 82.4119 21.5483V21.5306C82.4119 20.5994 81.7202 19.952 80.7269 19.952H79.1573V23.118ZM87.7772 29.9731V17.1763H96.8051V20.156H91.5373V22.1957H96.4769V24.9626H91.5373V26.9934H96.8051V29.9731H87.7772ZM98.561 29.9731V17.1763H101.691L106.214 23.721H106.276V17.1763H110.036V29.9731H106.941L102.383 23.322H102.321V29.9731H98.561ZM114.692 29.9731V20.156H111.322V17.1763H121.822V20.156H118.452V29.9731H114.692ZM123.108 29.9731V17.1763H126.868V22.0449H131.373V17.1763H135.134V29.9731H131.373V25.0247H126.868V29.9731H123.108ZM136.907 29.9731V17.1763H145.935V20.156H140.667V22.1957H145.607V24.9626H140.667V26.9934H145.935V29.9731H136.907ZM152.852 30.2037C149.536 30.2037 147.478 28.7848 147.345 26.2574L147.336 26.0889H150.795L150.813 26.1687C150.963 26.8604 151.833 27.3215 152.897 27.3215C154.023 27.3215 154.715 26.8604 154.715 26.2219V26.213C154.715 25.61 154.2 25.3617 152.781 25.1045L151.496 24.8739C148.95 24.4216 147.558 23.1357 147.558 21.1492V21.1404C147.558 18.5686 149.775 16.9457 152.808 16.9457C156.231 16.9457 158.049 18.471 158.156 20.8655L158.164 21.0606H154.706L154.697 20.9719C154.626 20.2713 153.881 19.8279 152.852 19.8279C151.815 19.8279 151.283 20.2802 151.283 20.8655V20.8743C151.283 21.4508 151.833 21.7257 153.11 21.9563L154.395 22.1868C157.136 22.6834 158.439 23.8008 158.439 25.876V25.8849C158.439 28.5276 156.382 30.2037 152.852 30.2037ZM159.841 29.9731V17.1763H168.868V20.156H163.601V22.1957H168.54V24.9626H163.601V26.9934H168.868V29.9731H159.841ZM175.786 30.2037C172.469 30.2037 170.411 28.7848 170.278 26.2574L170.27 26.0889H173.728L173.746 26.1687C173.897 26.8604 174.766 27.3215 175.83 27.3215C176.956 27.3215 177.648 26.8604 177.648 26.2219V26.213C177.648 25.61 177.134 25.3617 175.715 25.1045L174.429 24.8739C171.884 24.4216 170.491 23.1357 170.491 21.1492V21.1404C170.491 18.5686 172.708 16.9457 175.741 16.9457C179.164 16.9457 180.982 18.471 181.089 20.8655L181.098 21.0606H177.639L177.63 20.9719C177.559 20.2713 176.814 19.8279 175.786 19.8279C174.748 19.8279 174.216 20.2802 174.216 20.8655V20.8743C174.216 21.4508 174.766 21.7257 176.043 21.9563L177.329 22.1868C180.069 22.6834 181.373 23.8008 181.373 25.876V25.8849C181.373 28.5276 179.315 30.2037 175.786 30.2037Z" fill="white"/>
</svg>
