<svg width="248" height="48" viewBox="0 0 248 48" fill="none" xmlns="http://www.w3.org/2000/svg">
<path fill-rule="evenodd" clip-rule="evenodd" d="M17.3585 1.06054L0 12.6329L18.5585 25.0976L37.4149 12.5267L20.3507 1.06568C19.5254 0.51137 18.1857 0.509069 17.3585 1.06054ZM18.5841 9.38199L6.82855 17.219L18.5571 25.0965L30.3127 17.2594L18.5841 9.38199Z" fill="#E1ECF8"/>
<path fill-rule="evenodd" clip-rule="evenodd" d="M6.83995 17.2836L0 12.7236V35.0077L18.4595 47.314V38.6068L11.7603 34.1406V42.8471L6.83995 39.5669V17.2836ZM11.7603 20.5638V29.1986L18.4595 33.6648V25.03L11.7603 20.5638Z" fill="white"/>
<path fill-rule="evenodd" clip-rule="evenodd" d="M25.3787 20.493L18.625 24.9955V33.5751L25.3787 29.0726V20.493ZM30.2991 17.2128V25.7924V30.7203V30.7344L18.625 38.5171V47.3514L37.1411 35.0073V12.6514L30.2991 17.2128Z" fill="white"/>
<rect width="8.47494" height="8.29592" transform="matrix(0.83205 -0.5547 0.830139 0.557556 11.6133 20.4277)" fill="#DDE2E7" fill-opacity="0.5"/>
<rect width="8.47494" height="8.29592" transform="matrix(0.83205 -0.5547 0.830139 0.557556 11.6133 18.7852)" fill="#DDE2E7" fill-opacity="0.5"/>
<rect width="8.47494" height="8.29592" transform="matrix(0.83205 -0.5547 0.830139 0.557556 11.6133 16.9639)" fill="#DDE2E7" fill-opacity="0.5"/>
<path d="M51.2755 29.9727V17.1758H56.9955C59.993 17.1758 61.8819 19.0026 61.8819 21.8405V21.8582C61.8819 24.6961 59.993 26.4786 56.9955 26.4786H55.0356V29.9727H51.2755ZM56.0998 20.0048H55.0356V23.7028H56.0998C57.3414 23.7028 58.0863 23.082 58.0863 21.8582V21.8405C58.0863 20.6167 57.3414 20.0048 56.0998 20.0048ZM61.1725 29.9727L65.3494 17.1758H70.0673L74.2442 29.9727H70.289L69.6239 27.4275H65.7928L65.1277 29.9727H61.1725ZM67.6729 20.2265L66.4845 24.7759H68.9322L67.7438 20.2265H67.6729ZM75.3971 29.9727V17.1758H81.1615C84.4516 17.1758 86.243 18.7189 86.243 21.5567V21.5744C86.243 23.1707 85.4271 24.6074 84.1855 25.2104L86.6154 29.9727H82.4119L80.3899 25.7691H79.1573V29.9727H75.3971ZM79.1573 23.1175H80.7269C81.7379 23.1175 82.4119 22.4879 82.4119 21.5478V21.5301C82.4119 20.5989 81.7202 19.9515 80.7269 19.9515H79.1573V23.1175ZM87.7772 29.9727V17.1758H96.8051V20.1555H91.5373V22.1952H96.4769V24.9621H91.5373V26.9929H96.8051V29.9727H87.7772ZM98.561 29.9727V17.1758H101.691L106.214 23.7205H106.276V17.1758H110.036V29.9727H106.941L102.383 23.3215H102.321V29.9727H98.561ZM114.692 29.9727V20.1555H111.322V17.1758H121.822V20.1555H118.452V29.9727H114.692ZM123.108 29.9727V17.1758H126.868V22.0444H131.373V17.1758H135.134V29.9727H131.373V25.0242H126.868V29.9727H123.108ZM136.907 29.9727V17.1758H145.935V20.1555H140.667V22.1952H145.607V24.9621H140.667V26.9929H145.935V29.9727H136.907ZM152.852 30.2032C149.536 30.2032 147.478 28.7843 147.345 26.2569L147.336 26.0884H150.795L150.813 26.1682C150.963 26.8599 151.833 27.3211 152.897 27.3211C154.023 27.3211 154.715 26.8599 154.715 26.2214V26.2125C154.715 25.6095 154.2 25.3612 152.781 25.104L151.496 24.8734C148.95 24.4211 147.558 23.1352 147.558 21.1488V21.1399C147.558 18.5681 149.775 16.9452 152.808 16.9452C156.231 16.9452 158.049 18.4705 158.156 20.865L158.164 21.0601H154.706L154.697 20.9714C154.626 20.2708 153.881 19.8274 152.852 19.8274C151.815 19.8274 151.283 20.2797 151.283 20.865V20.8738C151.283 21.4503 151.833 21.7252 153.11 21.9558L154.395 22.1863C157.136 22.683 158.439 23.8004 158.439 25.8755V25.8844C158.439 28.5271 156.382 30.2032 152.852 30.2032ZM159.841 29.9727V17.1758H168.868V20.1555H163.601V22.1952H168.54V24.9621H163.601V26.9929H168.868V29.9727H159.841ZM175.786 30.2032C172.469 30.2032 170.411 28.7843 170.278 26.2569L170.27 26.0884H173.728L173.746 26.1682C173.897 26.8599 174.766 27.3211 175.83 27.3211C176.956 27.3211 177.648 26.8599 177.648 26.2214V26.2125C177.648 25.6095 177.134 25.3612 175.715 25.104L174.429 24.8734C171.884 24.4211 170.491 23.1352 170.491 21.1488V21.1399C170.491 18.5681 172.708 16.9452 175.741 16.9452C179.164 16.9452 180.982 18.4705 181.089 20.865L181.098 21.0601H177.639L177.63 20.9714C177.559 20.2708 176.814 19.8274 175.786 19.8274C174.748 19.8274 174.216 20.2797 174.216 20.865V20.8738C174.216 21.4503 174.766 21.7252 176.043 21.9558L177.329 22.1863C180.069 22.683 181.373 23.8004 181.373 25.8755V25.8844C181.373 28.5271 179.315 30.2032 175.786 30.2032ZM186.232 29.9727V17.1758H189.993V26.9929H195.012V29.9727H186.232ZM195.81 29.9727L199.987 17.1758H204.705L208.882 29.9727H204.927L204.262 27.4275H200.43L199.765 29.9727H195.81ZM202.311 20.2265L201.122 24.7759H203.57L202.381 20.2265H202.311ZM210.035 29.9727V17.1758H216.322C218.965 17.1758 220.508 18.3819 220.508 20.4038V20.4216C220.508 21.9026 219.364 23.02 217.874 23.2062V23.2771C219.595 23.3215 221.049 24.5985 221.049 26.2657V26.2835C221.049 28.5094 219.275 29.9727 216.535 29.9727H210.035ZM215.303 19.7476H213.795V22.3548H215.143C216.269 22.3548 216.854 21.8493 216.854 21.0157V20.998C216.854 20.2265 216.26 19.7476 215.303 19.7476ZM215.32 24.6162H213.795V27.4009H215.4C216.553 27.4009 217.218 26.9042 217.218 26.0086V25.9908C217.218 25.1129 216.562 24.6162 215.32 24.6162ZM227.452 30.2032C224.135 30.2032 222.078 28.7843 221.945 26.2569L221.936 26.0884H225.395L225.412 26.1682C225.563 26.8599 226.432 27.3211 227.496 27.3211C228.623 27.3211 229.314 26.8599 229.314 26.2214V26.2125C229.314 25.6095 228.8 25.3612 227.381 25.104L226.095 24.8734C223.55 24.4211 222.158 23.1352 222.158 21.1488V21.1399C222.158 18.5681 224.375 16.9452 227.408 16.9452C230.831 16.9452 232.649 18.4705 232.755 20.865L232.764 21.0601H229.305L229.297 20.9714C229.226 20.2708 228.481 19.8274 227.452 19.8274C226.414 19.8274 225.882 20.2797 225.882 20.865V20.8738C225.882 21.4503 226.432 21.7252 227.709 21.9558L228.995 22.1863C231.735 22.683 233.039 23.8004 233.039 25.8755V25.8844C233.039 28.5271 230.982 30.2032 227.452 30.2032Z" fill="white"/>
</svg>
