<svg width="43" height="54" viewBox="0 0 43 54" fill="none" xmlns="http://www.w3.org/2000/svg">
<path fill-rule="evenodd" clip-rule="evenodd" d="M20.1572 0.492321L0.171875 13.8159L21.4315 28.0948L21.4319 28.0945L7.99689 19.071L21.4635 10.0933L34.8985 19.1168L42.7402 13.889L22.8007 0.496863C22.0716 0.00713775 20.888 0.00510501 20.1572 0.492321Z" fill="#EBF5FF"/>
<rect width="9.5814" height="9.37901" transform="matrix(0.83205 -0.5547 0.830139 0.557556 13.6436 22.8658)" fill="white" fill-opacity="0.5"/>
<rect width="9.5814" height="9.37901" transform="matrix(0.83205 -0.5547 0.830139 0.557556 13.6436 20.3914)" fill="white" fill-opacity="0.5"/>
<rect width="9.5814" height="9.37901" transform="matrix(0.83205 -0.5547 0.830139 0.557556 13.6436 17.504)" fill="white" fill-opacity="0.5"/>
<path fill-rule="evenodd" clip-rule="evenodd" d="M21.4805 28.0447L0.171875 13.8389V39.4487L8.00684 44.672V34.6983V29.037V19.0628L13.6433 22.8204V32.7946L21.4794 38.0187V43.68L13.6433 38.456V48.4296L21.4805 53.6544V28.0447Z" fill="#CDE2FD"/>
<path fill-rule="evenodd" clip-rule="evenodd" d="M29.2462 22.8217L21.4121 28.0444V37.8725L29.2462 32.6498V22.8217ZM34.8827 19.064V28.8921V34.5374V34.5535L21.4121 43.5338V53.6542L42.7207 39.4484V13.8387L34.8827 19.064Z" fill="#013BD1"/>
</svg>
