
<svg width="164" height="64" viewBox="0 0 164 64" fill="none" xmlns="http://www.w3.org/2000/svg">
<path fill-rule="evenodd" clip-rule="evenodd" d="M31.379 9.3651L14.293 20.7558L32.4684 32.9632L32.4687 32.963L20.9822 25.2482L32.4951 17.5729L43.9816 25.2877L50.6857 20.8183L33.639 9.36898C33.0156 8.9503 32.0038 8.94857 31.379 9.3651Z" fill="#88C0FF"/>
<rect width="8.19139" height="8.01837" transform="matrix(0.83205 -0.5547 0.830139 0.557556 25.8105 28.4926)" fill="#509DFF" fill-opacity="0.5"/>
<rect width="8.19139" height="8.01837" transform="matrix(0.83205 -0.5547 0.830139 0.557556 25.8105 26.3768)" fill="#509DFF" fill-opacity="0.5"/>
<rect width="8.19139" height="8.01837" transform="matrix(0.83205 -0.5547 0.830139 0.557556 25.8105 23.9088)" fill="#509DFF" fill-opacity="0.5"/>
<path fill-rule="evenodd" clip-rule="evenodd" d="M32.5103 32.9204L14.293 20.7755V42.67L20.9923 47.1362V38.6089V33.7689V25.2418L25.8111 28.4543V36.9814L32.5103 41.4476V32.9204ZM32.5103 46.2876L25.8111 41.8215V50.3487L32.5103 54.8148V46.2876Z" fill="#509DFF"/>
<path fill-rule="evenodd" clip-rule="evenodd" d="M39.1496 28.4542L32.4512 32.9198V41.323L39.1496 36.8574V28.4542ZM43.9683 25.2417V33.6449V38.4712V38.4849L32.4512 46.163V54.8142L50.6685 42.6694V20.7749L43.9683 25.2417Z" fill="#1D5CFF"/>
<path d="M65.3333 37.5555V27.5347H69.3611C71.4722 27.5347 72.8819 28.8958 72.8819 30.9583V30.9722C72.8819 33.0347 71.4722 34.3958 69.3611 34.3958H67.4306V37.5555H65.3333ZM68.8472 29.1944H67.4306V32.7569H68.8472C70.0486 32.7569 70.7569 32.118 70.7569 30.9792V30.9653C70.7569 29.8264 70.0486 29.1944 68.8472 29.1944ZM72.5417 37.5555L76.0417 27.5347H78.5069L82 37.5555H79.7986L79.0417 35.125H75.5L74.7431 37.5555H72.5417ZM77.25 29.4792L75.9861 33.5555H78.5556L77.2917 29.4792H77.25ZM83.0278 37.5555V27.5347H87.1667C89.4167 27.5347 90.75 28.7292 90.75 30.743V30.7569C90.75 32.0764 90.0486 33.1736 88.9375 33.6111L91.0486 37.5555H88.6736L86.8056 33.9236H85.125V37.5555H83.0278ZM85.125 32.3333H86.9375C87.9792 32.3333 88.6042 31.743 88.6042 30.7569V30.743C88.6042 29.7847 87.9444 29.1736 86.9097 29.1736H85.125V32.3333ZM92.1389 37.5555V27.5347H98.7778V29.2639H94.2361V31.6667H98.5208V33.3055H94.2361V35.8264H98.7778V37.5555H92.1389ZM100.292 37.5555V27.5347H102.125L106.653 34.0486H106.694V27.5347H108.785V37.5555H106.965L102.424 30.993H102.382V37.5555H100.292ZM112.854 37.5555V29.2639H109.958V27.5347H117.854V29.2639H114.951V37.5555H112.854ZM119.014 37.5555V27.5347H121.111V31.6042H125.625V27.5347H127.722V37.5555H125.625V33.3333H121.111V37.5555H119.014ZM129.389 37.5555V27.5347H136.028V29.2639H131.486V31.6667H135.771V33.3055H131.486V35.8264H136.028V37.5555H129.389ZM141.201 37.7292C138.819 37.7292 137.285 36.6389 137.167 34.7917L137.16 34.6805H139.139L139.153 34.7569C139.285 35.5347 140.111 36.0208 141.257 36.0208C142.417 36.0208 143.146 35.5139 143.146 34.75V34.743C143.146 34.0625 142.653 33.7222 141.41 33.4653L140.354 33.2569C138.375 32.8611 137.375 31.9167 137.375 30.4097V30.4028C137.375 28.5694 138.972 27.3611 141.194 27.3611C143.514 27.3611 144.938 28.5208 145.035 30.2778L145.042 30.4097H143.063L143.056 30.3264C142.951 29.5417 142.229 29.0625 141.194 29.0625C140.118 29.0694 139.472 29.5625 139.472 30.2778V30.2847C139.472 30.9167 139.986 31.2847 141.139 31.5139L142.201 31.7292C144.299 32.1458 145.243 33 145.243 34.5764V34.5833C145.243 36.5069 143.729 37.7292 141.201 37.7292ZM146.528 37.5555V27.5347H153.167V29.2639H148.625V31.6667H152.91V33.3055H148.625V35.8264H153.167V37.5555H146.528ZM158.34 37.7292C155.958 37.7292 154.424 36.6389 154.306 34.7917L154.299 34.6805H156.278L156.292 34.7569C156.424 35.5347 157.25 36.0208 158.396 36.0208C159.556 36.0208 160.285 35.5139 160.285 34.75V34.743C160.285 34.0625 159.792 33.7222 158.549 33.4653L157.493 33.2569C155.514 32.8611 154.514 31.9167 154.514 30.4097V30.4028C154.514 28.5694 156.111 27.3611 158.333 27.3611C160.653 27.3611 162.076 28.5208 162.174 30.2778L162.181 30.4097H160.201L160.194 30.3264C160.09 29.5417 159.368 29.0625 158.333 29.0625C157.257 29.0694 156.611 29.5625 156.611 30.2778V30.2847C156.611 30.9167 157.125 31.2847 158.278 31.5139L159.34 31.7292C161.437 32.1458 162.382 33 162.382 34.5764V34.5833C162.382 36.5069 160.868 37.7292 158.34 37.7292Z" fill="#2876FF"/>
</svg>

