<svg width="183" height="72" viewBox="0 0 183 72" fill="none" xmlns="http://www.w3.org/2000/svg">
<path fill-rule="evenodd" clip-rule="evenodd" d="M34.7393 10.5357L15.5176 23.3502L35.965 37.0835L35.9654 37.0833L23.0432 28.4042L35.9952 19.7695L48.9174 28.4486L56.4594 23.4206L37.2818 10.5401C36.5805 10.0691 35.4422 10.0671 34.7393 10.5357Z" fill="#88C0FF"/>
<rect width="9.21531" height="9.02066" transform="matrix(0.83205 -0.5547 0.830139 0.557556 28.4746 32.0541)" fill="#509DFF" fill-opacity="0.5"/>
<rect width="9.21531" height="9.02066" transform="matrix(0.83205 -0.5547 0.830139 0.557556 28.4746 29.674)" fill="#509DFF" fill-opacity="0.5"/>
<rect width="9.21531" height="9.02066" transform="matrix(0.83205 -0.5547 0.830139 0.557556 28.4746 26.8975)" fill="#509DFF" fill-opacity="0.5"/>
<path fill-rule="evenodd" clip-rule="evenodd" d="M23.0547 28.3972L15.5176 23.3724V48.0037L36.012 61.6667V52.0731L28.4758 47.049V56.6423L23.0547 53.0282V43.4349V37.9899V28.3972ZM28.4758 32.0112V41.6039L36.012 46.6281V37.0354L28.4758 32.0112Z" fill="#509DFF"/>
<path fill-rule="evenodd" clip-rule="evenodd" d="M43.4812 32.0109L35.9453 37.0348V46.4885L43.4812 41.4645V32.0109ZM48.9023 28.3968V37.8505V43.2801V43.2955L35.9453 51.9335V61.6661L56.4398 48.0031V23.3718L48.9023 28.3968Z" fill="#1D5CFF"/>
<path d="M72.9375 30.2266H77.5234C79.8359 30.2266 81.4297 31.7656 81.4297 34.0859C81.4297 36.3984 79.7812 37.9453 77.4062 37.9453H75.2969V41.5H72.9375V30.2266ZM75.2969 32.0938V36.1016H76.8906C78.2422 36.1016 79.0312 35.3828 79.0312 34.0938C79.0312 32.8125 78.25 32.0938 76.8984 32.0938H75.2969ZM89.1484 41.5L88.2891 38.7656H84.3281L83.4688 41.5H81.0469L84.9609 30.2266H87.7344L91.6562 41.5H89.1484ZM86.2812 32.3828L84.8359 37H87.7812L86.3359 32.3828H86.2812ZM95.1719 32.0703V35.6641H97.2031C98.3906 35.6641 99.0859 34.9844 99.0859 33.8672C99.0859 32.7734 98.3516 32.0703 97.1797 32.0703H95.1719ZM95.1719 37.375V41.5H92.8125V30.2266H97.4297C100.023 30.2266 101.508 31.5938 101.508 33.8203C101.508 35.2656 100.758 36.5156 99.4609 37.0234L101.836 41.5H99.1641L97.0625 37.375H95.1719ZM110.531 39.5469V41.5H103.062V30.2266H110.531V32.1719H105.422V34.8906H110.242V36.7031H105.422V39.5469H110.531ZM114.492 41.5H112.234V30.2266H114.203L119.469 37.5703H119.531V30.2266H121.789V41.5H119.836L114.562 34.1172H114.492V41.5ZM128.727 41.5H126.367V32.1719H123.109V30.2266H131.992V32.1719H128.727V41.5ZM143.094 41.5H140.734V36.75H135.656V41.5H133.297V30.2266H135.656V34.8047H140.734V30.2266H143.094V41.5ZM152.438 39.5469V41.5H144.969V30.2266H152.438V32.1719H147.328V34.8906H152.148V36.7031H147.328V39.5469H152.438ZM153.719 38.2891H155.992C156.102 39.2188 157.07 39.8281 158.32 39.8281C159.578 39.8281 160.438 39.2266 160.438 38.3984C160.438 37.6641 159.898 37.2578 158.539 36.9531L157.07 36.6328C154.992 36.1875 153.969 35.1328 153.969 33.4844C153.969 31.4062 155.766 30.0312 158.281 30.0312C160.906 30.0312 162.555 31.3828 162.594 33.4219H160.383C160.305 32.4688 159.469 31.8906 158.289 31.8906C157.125 31.8906 156.344 32.4453 156.344 33.2812C156.344 33.9766 156.891 34.3672 158.188 34.6641L159.555 34.9531C161.812 35.4375 162.797 36.4062 162.797 38.125C162.797 40.3125 161.023 41.6953 158.227 41.6953C155.516 41.6953 153.789 40.4062 153.719 38.2891ZM171.719 39.5469V41.5H164.25V30.2266H171.719V32.1719H166.609V34.8906H171.43V36.7031H166.609V39.5469H171.719ZM173 38.2891H175.273C175.383 39.2188 176.352 39.8281 177.602 39.8281C178.859 39.8281 179.719 39.2266 179.719 38.3984C179.719 37.6641 179.18 37.2578 177.82 36.9531L176.352 36.6328C174.273 36.1875 173.25 35.1328 173.25 33.4844C173.25 31.4062 175.047 30.0312 177.562 30.0312C180.188 30.0312 181.836 31.3828 181.875 33.4219H179.664C179.586 32.4688 178.75 31.8906 177.57 31.8906C176.406 31.8906 175.625 32.4453 175.625 33.2812C175.625 33.9766 176.172 34.3672 177.469 34.6641L178.836 34.9531C181.094 35.4375 182.078 36.4062 182.078 38.125C182.078 40.3125 180.305 41.6953 177.508 41.6953C174.797 41.6953 173.07 40.4062 173 38.2891Z" fill="#2876FF"/>
</svg>
