<svg width="24" height="25" viewBox="0 0 24 25" fill="none" xmlns="http://www.w3.org/2000/svg">
<g clip-path="url(#clip0_938_4634)">
<path fill-rule="evenodd" clip-rule="evenodd" d="M0 12.7583C0 9.5757 1.26428 6.52346 3.51472 4.27302C5.76516 2.02258 8.8174 0.758301 12 0.758301C15.1826 0.758301 18.2348 2.02258 20.4853 4.27302C22.7357 6.52346 24 9.5757 24 12.7583C24 15.9409 22.7357 18.9931 20.4853 21.2436C18.2348 23.494 15.1826 24.7583 12 24.7583C8.8174 24.7583 5.76516 23.494 3.51472 21.2436C1.26428 18.9931 0 15.9409 0 12.7583ZM11.3152 17.8943L18.224 9.2575L16.976 8.2591L11.0848 15.6207L6.912 12.1439L5.888 13.3727L11.3152 17.8943Z" fill="#2876FF"/>
</g>
<defs>
<clipPath id="clip0_938_4634">
<rect width="24" height="24" fill="white" transform="translate(0 0.758301)"/>
</clipPath>
</defs>
</svg>
