<svg width="128" height="91" viewBox="0 0 128 91" fill="none" xmlns="http://www.w3.org/2000/svg">
<rect width="127.267" height="31.6136" rx="1.8267" transform="matrix(1 0 0 -1 0 91)" fill="white"/>
<rect x="0.18267" y="-0.18267" width="126.902" height="31.2482" rx="1.64403" transform="matrix(1 0 0 -1 0 90.6347)" stroke="black" stroke-opacity="0.15" stroke-width="0.36534"/>
<path d="M17.9692 69.8291H21.4487C24.3813 69.8291 26.1177 71.6338 26.1177 74.7441C26.1177 77.8613 24.3882 79.6934 21.4487 79.6934H17.9692V69.8291ZM19.5005 71.1484V78.3672H21.3052C23.397 78.3672 24.5522 77.0889 24.5522 74.7578C24.5522 72.4336 23.3901 71.1484 21.3052 71.1484H19.5005ZM30.4927 79.8301C28.4351 79.8301 27.0815 78.415 27.0815 76.0977C27.0815 73.7871 28.4419 72.3721 30.4927 72.3721C32.5435 72.3721 33.9038 73.7871 33.9038 76.0977C33.9038 78.415 32.5503 79.8301 30.4927 79.8301ZM30.4927 78.6133C31.6548 78.6133 32.3999 77.6973 32.3999 76.0977C32.3999 74.5049 31.6479 73.5889 30.4927 73.5889C29.3374 73.5889 28.5854 74.5049 28.5854 76.0977C28.5854 77.6973 29.3374 78.6133 30.4927 78.6133ZM41.2183 74.9766H39.8101C39.6597 74.2109 39.0854 73.6025 38.1216 73.6025C36.98 73.6025 36.228 74.5527 36.228 76.0977C36.228 77.6768 36.9868 78.5928 38.1353 78.5928C39.0444 78.5928 39.6392 78.0938 39.8101 77.2598H41.2319C41.0747 78.791 39.8511 79.8301 38.1216 79.8301C36.064 79.8301 34.7241 78.4219 34.7241 76.0977C34.7241 73.8145 36.064 72.3721 38.1079 72.3721C39.9604 72.3721 41.0884 73.5615 41.2183 74.9766ZM48.4438 72.502V79.6934H47.0288V78.4766H46.9946C46.5981 79.3379 45.8667 79.8232 44.7661 79.8232C43.2007 79.8232 42.2437 78.8047 42.2437 77.1572V72.502H43.7202V76.8701C43.7202 77.9639 44.2397 78.5518 45.2583 78.5518C46.3247 78.5518 46.9673 77.8135 46.9673 76.6924V72.502H48.4438ZM49.9067 79.6934V72.502H51.3149V73.7119H51.3491C51.6704 72.9121 52.4224 72.3789 53.3931 72.3789C54.3911 72.3789 55.1157 72.8916 55.4028 73.7871H55.437C55.8062 72.9121 56.6538 72.3789 57.6792 72.3789C59.1011 72.3789 60.0308 73.3223 60.0308 74.751V79.6934H58.5474V75.1064C58.5474 74.1768 58.0483 73.6436 57.1733 73.6436C56.2983 73.6436 55.6899 74.293 55.6899 75.2021V79.6934H54.2407V74.9971C54.2407 74.1699 53.7144 73.6436 52.8804 73.6436C52.0054 73.6436 51.3833 74.3271 51.3833 75.25V79.6934H49.9067ZM64.4673 73.5615C63.4351 73.5615 62.7104 74.3477 62.6353 75.4346H66.231C66.1968 74.334 65.4995 73.5615 64.4673 73.5615ZM66.2241 77.5811H67.6255C67.4204 78.8936 66.1763 79.8301 64.5288 79.8301C62.4165 79.8301 61.1382 78.4014 61.1382 76.1318C61.1382 73.876 62.437 72.3721 64.4673 72.3721C66.4634 72.3721 67.7075 73.7803 67.7075 75.9609V76.4668H62.6284V76.5557C62.6284 77.8066 63.3804 78.6338 64.563 78.6338C65.4038 78.6338 66.0259 78.21 66.2241 77.5811ZM68.856 79.6934V72.502H70.2642V73.7051H70.2983C70.688 72.8848 71.4536 72.3789 72.561 72.3789C74.147 72.3789 75.0562 73.3906 75.0562 75.0381V79.6934H73.5728V75.3252C73.5728 74.2451 73.0669 73.6504 72.0415 73.6504C71.0024 73.6504 70.3325 74.3887 70.3325 75.5029V79.6934H68.856ZM76.9155 70.7998H78.3989V72.502H79.7661V73.6709H78.3989V77.6357C78.3989 78.2578 78.6724 78.5381 79.2739 78.5381C79.4243 78.5381 79.6636 78.5244 79.7593 78.5039V79.6729C79.5952 79.7139 79.2671 79.7412 78.939 79.7412C77.4829 79.7412 76.9155 79.1875 76.9155 77.7998V73.6709H75.8696V72.502H76.9155V70.7998ZM83.3892 78.6475C84.4214 78.6475 85.228 77.9365 85.228 77V76.4326L83.4575 76.542C82.5757 76.6035 82.0767 76.9932 82.0767 77.6084C82.0767 78.2373 82.5962 78.6475 83.3892 78.6475ZM82.979 79.8164C81.5708 79.8164 80.5864 78.9414 80.5864 77.6494C80.5864 76.3916 81.5503 75.6191 83.2593 75.5234L85.228 75.4072V74.8535C85.228 74.0537 84.688 73.5752 83.7856 73.5752C82.9312 73.5752 82.3979 73.9854 82.2681 74.6279H80.8735C80.9556 73.3291 82.063 72.3721 83.8403 72.3721C85.5835 72.3721 86.6978 73.2949 86.6978 74.7373V79.6934H85.2827V78.5107H85.2485C84.8315 79.3105 83.9224 79.8164 82.979 79.8164ZM88.564 70.7998H90.0474V72.502H91.4146V73.6709H90.0474V77.6357C90.0474 78.2578 90.3208 78.5381 90.9224 78.5381C91.0728 78.5381 91.312 78.5244 91.4077 78.5039V79.6729C91.2437 79.7139 90.9155 79.7412 90.5874 79.7412C89.1313 79.7412 88.564 79.1875 88.564 77.7998V73.6709H87.5181V72.502H88.564V70.7998ZM92.6792 79.6934V72.502H94.1558V79.6934H92.6792ZM93.4175 71.4492C92.9458 71.4492 92.563 71.0732 92.563 70.6084C92.563 70.1367 92.9458 69.7607 93.4175 69.7607C93.896 69.7607 94.2788 70.1367 94.2788 70.6084C94.2788 71.0732 93.896 71.4492 93.4175 71.4492ZM98.7563 79.8301C96.6987 79.8301 95.3452 78.415 95.3452 76.0977C95.3452 73.7871 96.7056 72.3721 98.7563 72.3721C100.807 72.3721 102.167 73.7871 102.167 76.0977C102.167 78.415 100.814 79.8301 98.7563 79.8301ZM98.7563 78.6133C99.9185 78.6133 100.664 77.6973 100.664 76.0977C100.664 74.5049 99.9116 73.5889 98.7563 73.5889C97.6011 73.5889 96.8491 74.5049 96.8491 76.0977C96.8491 77.6973 97.6011 78.6133 98.7563 78.6133ZM103.309 79.6934V72.502H104.717V73.7051H104.751C105.141 72.8848 105.907 72.3789 107.014 72.3789C108.6 72.3789 109.509 73.3906 109.509 75.0381V79.6934H108.026V75.3252C108.026 74.2451 107.52 73.6504 106.495 73.6504C105.456 73.6504 104.786 74.3887 104.786 75.5029V79.6934H103.309Z" fill="#828282"/>
<line opacity="0.5" x1="61.5" y1="59" x2="61.5" y2="1.09278e-07" stroke="url(#paint0_linear_1701_4202)" stroke-width="5"/>
<defs>
<linearGradient id="paint0_linear_1701_4202" x1="64.5" y1="-2.18556e-08" x2="64.5" y2="59" gradientUnits="userSpaceOnUse">
<stop stop-color="white" stop-opacity="0"/>
<stop offset="1" stop-color="#276BEF"/>
</linearGradient>
</defs>
</svg>
