<svg width="365" height="259" viewBox="0 0 365 259" fill="none" xmlns="http://www.w3.org/2000/svg">
<path d="M365 126H332C315.431 126 302 113.24 302 97.5V59.5C302 43.7599 288.569 31 272 31H229" stroke="url(#paint0_linear_1634_4190)" stroke-width="5"/>
<path d="M365 133H332C315.431 133 302 145.626 302 161.2V198.8C302 214.374 288.569 227 272 227H229" stroke="url(#paint1_linear_1634_4190)" stroke-width="5"/>
<rect width="203" height="61" rx="5" fill="white"/>
<rect x="0.5" y="0.5" width="202" height="60" rx="4.5" stroke="black" stroke-opacity="0.15"/>
<path d="M37.1113 37H35.1426V31.3838H28.6299V37H26.6611V24.3174H28.6299V29.6787H35.1426V24.3174H37.1113V37ZM42.2002 35.6553C43.5273 35.6553 44.5645 34.7412 44.5645 33.5371V32.8076L42.2881 32.9482C41.1543 33.0273 40.5127 33.5283 40.5127 34.3193C40.5127 35.1279 41.1807 35.6553 42.2002 35.6553ZM41.6729 37.1582C39.8623 37.1582 38.5967 36.0332 38.5967 34.3721C38.5967 32.7549 39.8359 31.7617 42.0332 31.6387L44.5645 31.4893V30.7773C44.5645 29.749 43.8701 29.1338 42.71 29.1338C41.6113 29.1338 40.9258 29.6611 40.7588 30.4873H38.9658C39.0713 28.8174 40.4951 27.5869 42.7803 27.5869C45.0215 27.5869 46.4541 28.7734 46.4541 30.6279V37H44.6348V35.4795H44.5908C44.0547 36.5078 42.8857 37.1582 41.6729 37.1582ZM48.2998 37V27.7539H50.1104V29.3008H50.1543C50.6553 28.2461 51.6396 27.5957 53.0635 27.5957C55.1025 27.5957 56.2715 28.8965 56.2715 31.0146V37H54.3643V31.3838C54.3643 29.9951 53.7139 29.2305 52.3955 29.2305C51.0596 29.2305 50.1982 30.1797 50.1982 31.6123V37H48.2998ZM61.5801 37.1582C59.2422 37.1582 57.6953 35.2949 57.6953 32.377C57.6953 29.459 59.2422 27.6045 61.5625 27.6045C62.8896 27.6045 63.9443 28.2725 64.4629 29.292H64.498V24.3174H66.4053V37H64.5596V35.4268H64.5244C63.9795 36.4814 62.9248 37.1582 61.5801 37.1582ZM62.0811 29.2041C60.5781 29.2041 59.6377 30.4346 59.6377 32.377C59.6377 34.3281 60.5781 35.5498 62.0811 35.5498C63.54 35.5498 64.5156 34.3105 64.5156 32.377C64.5156 30.4609 63.54 29.2041 62.0811 29.2041ZM72.3291 37.1758C69.6836 37.1758 67.9434 35.3564 67.9434 32.377C67.9434 29.4062 69.6924 27.5869 72.3291 27.5869C74.9658 27.5869 76.7148 29.4062 76.7148 32.377C76.7148 35.3564 74.9746 37.1758 72.3291 37.1758ZM72.3291 35.6113C73.8232 35.6113 74.7812 34.4336 74.7812 32.377C74.7812 30.3291 73.8145 29.1514 72.3291 29.1514C70.8438 29.1514 69.877 30.3291 69.877 32.377C69.877 34.4336 70.8438 35.6113 72.3291 35.6113ZM85.8291 27.7539L82.5156 37H80.4766L77.1455 27.7539H79.167L81.4873 35.1455H81.5225L83.8428 27.7539H85.8291ZM90.5225 29.1162C89.1953 29.1162 88.2637 30.127 88.167 31.5244H92.79C92.7461 30.1094 91.8496 29.1162 90.5225 29.1162ZM92.7812 34.2842H94.583C94.3193 35.9717 92.7197 37.1758 90.6016 37.1758C87.8857 37.1758 86.2422 35.3389 86.2422 32.4209C86.2422 29.5205 87.9121 27.5869 90.5225 27.5869C93.0889 27.5869 94.6885 29.3975 94.6885 32.2012V32.8516H88.1582V32.9658C88.1582 34.5742 89.125 35.6377 90.6455 35.6377C91.7266 35.6377 92.5264 35.0928 92.7812 34.2842ZM96.165 37V27.7539H97.9756V29.3271H98.0195C98.3271 28.2461 99.1533 27.6045 100.243 27.6045C100.516 27.6045 100.753 27.6484 100.894 27.6748V29.4414C100.744 29.3799 100.41 29.3359 100.041 29.3359C98.8193 29.3359 98.0635 30.1533 98.0635 31.4629V37H96.165ZM111.309 37.2109C107.749 37.2109 105.499 34.6973 105.499 30.6543C105.499 26.6377 107.767 24.1064 111.309 24.1064C114.183 24.1064 116.354 25.873 116.688 28.5186H114.736C114.385 26.8926 113.031 25.8291 111.309 25.8291C109.006 25.8291 107.512 27.7188 107.512 30.6543C107.512 33.6162 108.988 35.4883 111.317 35.4883C113.084 35.4883 114.341 34.583 114.736 33.0537H116.696C116.213 35.6729 114.227 37.2109 111.309 37.2109ZM118.313 37V24.3174H120.194V29.3008H120.238C120.748 28.2197 121.759 27.5957 123.165 27.5957C125.195 27.5957 126.408 28.9492 126.408 31.041V37H124.501V31.4102C124.501 30.0479 123.815 29.2305 122.479 29.2305C121.073 29.2305 120.212 30.1973 120.212 31.6562V37H118.313ZM132.112 29.1162C130.785 29.1162 129.854 30.127 129.757 31.5244H134.38C134.336 30.1094 133.439 29.1162 132.112 29.1162ZM134.371 34.2842H136.173C135.909 35.9717 134.31 37.1758 132.191 37.1758C129.476 37.1758 127.832 35.3389 127.832 32.4209C127.832 29.5205 129.502 27.5869 132.112 27.5869C134.679 27.5869 136.278 29.3975 136.278 32.2012V32.8516H129.748V32.9658C129.748 34.5742 130.715 35.6377 132.235 35.6377C133.316 35.6377 134.116 35.0928 134.371 34.2842ZM145.691 30.9355H143.881C143.688 29.9512 142.949 29.1689 141.71 29.1689C140.242 29.1689 139.275 30.3906 139.275 32.377C139.275 34.4072 140.251 35.585 141.728 35.585C142.896 35.585 143.661 34.9434 143.881 33.8711H145.709C145.507 35.8398 143.934 37.1758 141.71 37.1758C139.064 37.1758 137.342 35.3652 137.342 32.377C137.342 29.4414 139.064 27.5869 141.692 27.5869C144.074 27.5869 145.524 29.1162 145.691 30.9355ZM149.04 31.7178L152.775 27.7539H155.008L151.176 31.7354L155.157 37H152.951L149.813 32.8955L149.022 33.6777V37H147.124V24.3174H149.022V31.7178H149.04ZM156.212 37V24.3174H158.11V37H156.212ZM160.123 37V27.7539H162.021V37H160.123ZM161.072 26.4004C160.466 26.4004 159.974 25.917 159.974 25.3193C159.974 24.7129 160.466 24.2295 161.072 24.2295C161.688 24.2295 162.18 24.7129 162.18 25.3193C162.18 25.917 161.688 26.4004 161.072 26.4004ZM163.797 30.373C163.797 28.7207 165.256 27.5869 167.418 27.5869C169.475 27.5869 170.916 28.7383 170.978 30.3818H169.193C169.105 29.5469 168.429 29.0283 167.365 29.0283C166.337 29.0283 165.651 29.5293 165.651 30.2588C165.651 30.8301 166.108 31.2168 167.066 31.4541L168.622 31.8145C170.485 32.2627 171.188 32.9658 171.188 34.3281C171.188 36.0156 169.615 37.1758 167.348 37.1758C165.159 37.1758 163.709 36.042 163.56 34.3457H165.44C165.59 35.2334 166.275 35.7256 167.436 35.7256C168.578 35.7256 169.281 35.251 169.281 34.5039C169.281 33.915 168.93 33.5898 167.963 33.3438L166.311 32.9395C164.641 32.5352 163.797 31.665 163.797 30.373ZM173.219 25.5654H175.126V27.7539H176.884V29.2568H175.126V34.3545C175.126 35.1543 175.478 35.5146 176.251 35.5146C176.444 35.5146 176.752 35.4971 176.875 35.4707V36.9736C176.664 37.0264 176.242 37.0615 175.82 37.0615C173.948 37.0615 173.219 36.3496 173.219 34.5654V29.2568H171.874V27.7539H173.219V25.5654Z" fill="#828282"/>
<rect x="59" y="198" width="151" height="61" rx="5" fill="white"/>
<rect x="59.5" y="198.5" width="150" height="60" rx="4.5" stroke="black" stroke-opacity="0.15"/>
<path d="M98.208 235H96.4062V225.666H96.3447L92.5215 234.903H91.0625L87.2305 225.666H87.1689V235H85.376V222.317H87.6523L91.7568 232.328H91.8271L95.9229 222.317H98.208V235ZM103.306 233.655C104.633 233.655 105.67 232.741 105.67 231.537V230.808L103.394 230.948C102.26 231.027 101.618 231.528 101.618 232.319C101.618 233.128 102.286 233.655 103.306 233.655ZM102.778 235.158C100.968 235.158 99.7021 234.033 99.7021 232.372C99.7021 230.755 100.941 229.762 103.139 229.639L105.67 229.489V228.777C105.67 227.749 104.976 227.134 103.815 227.134C102.717 227.134 102.031 227.661 101.864 228.487H100.071C100.177 226.817 101.601 225.587 103.886 225.587C106.127 225.587 107.56 226.773 107.56 228.628V235H105.74V233.479H105.696C105.16 234.508 103.991 235.158 102.778 235.158ZM109.467 235V225.754H111.365V235H109.467ZM110.416 224.4C109.81 224.4 109.317 223.917 109.317 223.319C109.317 222.713 109.81 222.229 110.416 222.229C111.031 222.229 111.523 222.713 111.523 223.319C111.523 223.917 111.031 224.4 110.416 224.4ZM113.308 235V225.754H115.118V227.301H115.162C115.663 226.246 116.647 225.596 118.071 225.596C120.11 225.596 121.279 226.896 121.279 229.015V235H119.372V229.384C119.372 227.995 118.722 227.23 117.403 227.23C116.067 227.23 115.206 228.18 115.206 229.612V235H113.308ZM123.67 223.565H125.577V225.754H127.335V227.257H125.577V232.354C125.577 233.154 125.929 233.515 126.702 233.515C126.896 233.515 127.203 233.497 127.326 233.471V234.974C127.115 235.026 126.693 235.062 126.271 235.062C124.399 235.062 123.67 234.35 123.67 232.565V227.257H122.325V225.754H123.67V223.565ZM132.538 227.116C131.211 227.116 130.279 228.127 130.183 229.524H134.806C134.762 228.109 133.865 227.116 132.538 227.116ZM134.797 232.284H136.599C136.335 233.972 134.735 235.176 132.617 235.176C129.901 235.176 128.258 233.339 128.258 230.421C128.258 227.521 129.928 225.587 132.538 225.587C135.104 225.587 136.704 227.397 136.704 230.201V230.852H130.174V230.966C130.174 232.574 131.141 233.638 132.661 233.638C133.742 233.638 134.542 233.093 134.797 232.284ZM138.181 235V225.754H139.991V227.301H140.035C140.536 226.246 141.521 225.596 142.944 225.596C144.983 225.596 146.152 226.896 146.152 229.015V235H144.245V229.384C144.245 227.995 143.595 227.23 142.276 227.23C140.94 227.23 140.079 228.18 140.079 229.612V235H138.181ZM151.224 233.655C152.551 233.655 153.588 232.741 153.588 231.537V230.808L151.312 230.948C150.178 231.027 149.536 231.528 149.536 232.319C149.536 233.128 150.204 233.655 151.224 233.655ZM150.696 235.158C148.886 235.158 147.62 234.033 147.62 232.372C147.62 230.755 148.859 229.762 151.057 229.639L153.588 229.489V228.777C153.588 227.749 152.894 227.134 151.733 227.134C150.635 227.134 149.949 227.661 149.782 228.487H147.989C148.095 226.817 149.519 225.587 151.804 225.587C154.045 225.587 155.478 226.773 155.478 228.628V235H153.658V233.479H153.614C153.078 234.508 151.909 235.158 150.696 235.158ZM157.323 235V225.754H159.134V227.301H159.178C159.679 226.246 160.663 225.596 162.087 225.596C164.126 225.596 165.295 226.896 165.295 229.015V235H163.388V229.384C163.388 227.995 162.737 227.23 161.419 227.23C160.083 227.23 159.222 228.18 159.222 229.612V235H157.323ZM175.068 228.936H173.258C173.064 227.951 172.326 227.169 171.087 227.169C169.619 227.169 168.652 228.391 168.652 230.377C168.652 232.407 169.628 233.585 171.104 233.585C172.273 233.585 173.038 232.943 173.258 231.871H175.086C174.884 233.84 173.311 235.176 171.087 235.176C168.441 235.176 166.719 233.365 166.719 230.377C166.719 227.441 168.441 225.587 171.069 225.587C173.451 225.587 174.901 227.116 175.068 228.936ZM180.298 227.116C178.971 227.116 178.039 228.127 177.942 229.524H182.565C182.521 228.109 181.625 227.116 180.298 227.116ZM182.557 232.284H184.358C184.095 233.972 182.495 235.176 180.377 235.176C177.661 235.176 176.018 233.339 176.018 230.421C176.018 227.521 177.688 225.587 180.298 225.587C182.864 225.587 184.464 227.397 184.464 230.201V230.852H177.934V230.966C177.934 232.574 178.9 233.638 180.421 233.638C181.502 233.638 182.302 233.093 182.557 232.284Z" fill="#828282"/>
<defs>
<linearGradient id="paint0_linear_1634_4190" x1="365" y1="78.5" x2="229" y2="78.5" gradientUnits="userSpaceOnUse">
<stop stop-color="white" stop-opacity="0"/>
<stop offset="1" stop-color="#276BEF"/>
</linearGradient>
<linearGradient id="paint1_linear_1634_4190" x1="365" y1="180" x2="229" y2="180" gradientUnits="userSpaceOnUse">
<stop stop-color="white" stop-opacity="0"/>
<stop offset="1" stop-color="#276BEF"/>
</linearGradient>
</defs>
</svg>
