<svg width="372" height="259" viewBox="0 0 372 259" fill="none" xmlns="http://www.w3.org/2000/svg">
<path d="M0 125H33C49.5685 125 63 111.569 63 95V55C63 38.4315 76.4315 25 93 25H136" stroke="url(#paint0_linear_1634_4189)" stroke-width="5"/>
<path d="M0 132H33C49.5685 132 63 145.431 63 162V202C63 218.569 76.4315 232 93 232H136" stroke="url(#paint1_linear_1634_4189)" stroke-width="5"/>
<rect x="136" width="209" height="61" rx="5" fill="white"/>
<rect x="136.5" y="0.5" width="208" height="60" rx="4.5" stroke="black" stroke-opacity="0.15"/>
<path d="M161.606 33.4668H163.549C163.689 34.7236 164.911 35.5498 166.581 35.5498C168.181 35.5498 169.332 34.7236 169.332 33.5898C169.332 32.6055 168.638 32.0166 166.994 31.6123L165.351 31.2168C163.021 30.6543 161.94 29.5645 161.94 27.7979C161.94 25.6094 163.848 24.1064 166.555 24.1064C169.235 24.1064 171.072 25.6094 171.134 27.7979H169.218C169.104 26.5322 168.058 25.7676 166.528 25.7676C164.999 25.7676 163.953 26.541 163.953 27.666C163.953 28.5625 164.621 29.0898 166.256 29.4941L167.653 29.8369C170.255 30.4521 171.336 31.498 171.336 33.3525C171.336 35.7256 169.446 37.2109 166.44 37.2109C163.628 37.2109 161.729 35.7607 161.606 33.4668ZM180.811 30.9355H179C178.807 29.9512 178.068 29.1689 176.829 29.1689C175.361 29.1689 174.395 30.3906 174.395 32.377C174.395 34.4072 175.37 35.585 176.847 35.585C178.016 35.585 178.78 34.9434 179 33.8711H180.828C180.626 35.8398 179.053 37.1758 176.829 37.1758C174.184 37.1758 172.461 35.3652 172.461 32.377C172.461 29.4414 174.184 27.5869 176.812 27.5869C179.193 27.5869 180.644 29.1162 180.811 30.9355ZM185.407 35.6553C186.734 35.6553 187.771 34.7412 187.771 33.5371V32.8076L185.495 32.9482C184.361 33.0273 183.72 33.5283 183.72 34.3193C183.72 35.1279 184.388 35.6553 185.407 35.6553ZM184.88 37.1582C183.069 37.1582 181.804 36.0332 181.804 34.3721C181.804 32.7549 183.043 31.7617 185.24 31.6387L187.771 31.4893V30.7773C187.771 29.749 187.077 29.1338 185.917 29.1338C184.818 29.1338 184.133 29.6611 183.966 30.4873H182.173C182.278 28.8174 183.702 27.5869 185.987 27.5869C188.229 27.5869 189.661 28.7734 189.661 30.6279V37H187.842V35.4795H187.798C187.262 36.5078 186.093 37.1582 184.88 37.1582ZM191.577 37V24.3174H193.476V37H191.577ZM195.488 37V27.7539H197.387V37H195.488ZM196.438 26.4004C195.831 26.4004 195.339 25.917 195.339 25.3193C195.339 24.7129 195.831 24.2295 196.438 24.2295C197.053 24.2295 197.545 24.7129 197.545 25.3193C197.545 25.917 197.053 26.4004 196.438 26.4004ZM199.329 37V27.7539H201.14V29.3008H201.184C201.685 28.2461 202.669 27.5957 204.093 27.5957C206.132 27.5957 207.301 28.8965 207.301 31.0146V37H205.394V31.3838C205.394 29.9951 204.743 29.2305 203.425 29.2305C202.089 29.2305 201.228 30.1797 201.228 31.6123V37H199.329ZM213.075 35.4619C214.561 35.4619 215.536 34.2578 215.536 32.3506C215.536 30.4521 214.561 29.2041 213.075 29.2041C211.616 29.2041 210.667 30.4258 210.667 32.3506C210.667 34.2842 211.616 35.4619 213.075 35.4619ZM213.093 40.4805C210.913 40.4805 209.296 39.3203 209.059 37.7207H210.966C211.238 38.4941 212.082 39.0039 213.163 39.0039C214.648 39.0039 215.527 38.1602 215.527 36.8945V35.374H215.492C214.974 36.376 213.884 37.0352 212.565 37.0352C210.245 37.0352 208.725 35.2246 208.725 32.3418C208.725 29.4326 210.236 27.6045 212.609 27.6045C213.919 27.6045 214.991 28.2637 215.554 29.3359H215.589V27.7539H217.435V36.833C217.435 39.0391 215.729 40.4805 213.093 40.4805ZM226.206 35.6553C227.533 35.6553 228.57 34.7412 228.57 33.5371V32.8076L226.294 32.9482C225.16 33.0273 224.519 33.5283 224.519 34.3193C224.519 35.1279 225.187 35.6553 226.206 35.6553ZM225.679 37.1582C223.868 37.1582 222.603 36.0332 222.603 34.3721C222.603 32.7549 223.842 31.7617 226.039 31.6387L228.57 31.4893V30.7773C228.57 29.749 227.876 29.1338 226.716 29.1338C225.617 29.1338 224.932 29.6611 224.765 30.4873H222.972C223.077 28.8174 224.501 27.5869 226.786 27.5869C229.027 27.5869 230.46 28.7734 230.46 30.6279V37H228.641V35.4795H228.597C228.061 36.5078 226.892 37.1582 225.679 37.1582ZM232.306 37V27.7539H234.116V29.3008H234.16C234.661 28.2461 235.646 27.5957 237.069 27.5957C239.108 27.5957 240.277 28.8965 240.277 31.0146V37H238.37V31.3838C238.37 29.9951 237.72 29.2305 236.401 29.2305C235.065 29.2305 234.204 30.1797 234.204 31.6123V37H232.306ZM245.586 37.1582C243.248 37.1582 241.701 35.2949 241.701 32.377C241.701 29.459 243.248 27.6045 245.568 27.6045C246.896 27.6045 247.95 28.2725 248.469 29.292H248.504V24.3174H250.411V37H248.565V35.4268H248.53C247.985 36.4814 246.931 37.1582 245.586 37.1582ZM246.087 29.2041C244.584 29.2041 243.644 30.4346 243.644 32.377C243.644 34.3281 244.584 35.5498 246.087 35.5498C247.546 35.5498 248.521 34.3105 248.521 32.377C248.521 30.4609 247.546 29.2041 246.087 29.2041ZM255.685 33.4668H257.627C257.768 34.7236 258.989 35.5498 260.659 35.5498C262.259 35.5498 263.41 34.7236 263.41 33.5898C263.41 32.6055 262.716 32.0166 261.072 31.6123L259.429 31.2168C257.1 30.6543 256.019 29.5645 256.019 27.7979C256.019 25.6094 257.926 24.1064 260.633 24.1064C263.313 24.1064 265.15 25.6094 265.212 27.7979H263.296C263.182 26.5322 262.136 25.7676 260.606 25.7676C259.077 25.7676 258.031 26.541 258.031 27.666C258.031 28.5625 258.699 29.0898 260.334 29.4941L261.731 29.8369C264.333 30.4521 265.414 31.498 265.414 33.3525C265.414 35.7256 263.524 37.2109 260.519 37.2109C257.706 37.2109 255.808 35.7607 255.685 33.4668ZM270.819 29.1162C269.492 29.1162 268.561 30.127 268.464 31.5244H273.087C273.043 30.1094 272.146 29.1162 270.819 29.1162ZM273.078 34.2842H274.88C274.616 35.9717 273.017 37.1758 270.898 37.1758C268.183 37.1758 266.539 35.3389 266.539 32.4209C266.539 29.5205 268.209 27.5869 270.819 27.5869C273.386 27.5869 274.985 29.3975 274.985 32.2012V32.8516H268.455V32.9658C268.455 34.5742 269.422 35.6377 270.942 35.6377C272.023 35.6377 272.823 35.0928 273.078 34.2842ZM284.398 30.9355H282.588C282.395 29.9512 281.656 29.1689 280.417 29.1689C278.949 29.1689 277.982 30.3906 277.982 32.377C277.982 34.4072 278.958 35.585 280.435 35.585C281.604 35.585 282.368 34.9434 282.588 33.8711H284.416C284.214 35.8398 282.641 37.1758 280.417 37.1758C277.771 37.1758 276.049 35.3652 276.049 32.377C276.049 29.4414 277.771 27.5869 280.399 27.5869C282.781 27.5869 284.231 29.1162 284.398 30.9355ZM293.688 27.7539V37H291.869V35.4355H291.825C291.315 36.543 290.375 37.167 288.96 37.167C286.947 37.167 285.717 35.8574 285.717 33.7393V27.7539H287.615V33.3701C287.615 34.7764 288.283 35.5322 289.593 35.5322C290.964 35.5322 291.79 34.583 291.79 33.1416V27.7539H293.688ZM295.569 37V27.7539H297.38V29.3271H297.424C297.731 28.2461 298.558 27.6045 299.647 27.6045C299.92 27.6045 300.157 27.6484 300.298 27.6748V29.4414C300.148 29.3799 299.814 29.3359 299.445 29.3359C298.224 29.3359 297.468 30.1533 297.468 31.4629V37H295.569ZM301.537 37V27.7539H303.436V37H301.537ZM302.486 26.4004C301.88 26.4004 301.388 25.917 301.388 25.3193C301.388 24.7129 301.88 24.2295 302.486 24.2295C303.102 24.2295 303.594 24.7129 303.594 25.3193C303.594 25.917 303.102 26.4004 302.486 26.4004ZM305.932 25.5654H307.839V27.7539H309.597V29.2568H307.839V34.3545C307.839 35.1543 308.19 35.5146 308.964 35.5146C309.157 35.5146 309.465 35.4971 309.588 35.4707V36.9736C309.377 37.0264 308.955 37.0615 308.533 37.0615C306.661 37.0615 305.932 36.3496 305.932 34.5654V29.2568H304.587V27.7539H305.932V25.5654ZM312.075 40.4453C311.926 40.4453 311.442 40.4277 311.302 40.4014V38.8633C311.442 38.8984 311.759 38.8984 311.917 38.8984C312.805 38.8984 313.271 38.5293 313.561 37.5801C313.561 37.5625 313.728 37.0176 313.728 37.0088L310.388 27.7539H312.444L314.791 35.2773H314.817L317.164 27.7539H319.168L315.696 37.4834C314.905 39.7246 314 40.4453 312.075 40.4453Z" fill="#828282"/>
<rect x="136" y="198" width="236" height="61" rx="5" fill="white"/>
<rect x="136.5" y="198.5" width="235" height="60" rx="4.5" stroke="black" stroke-opacity="0.15"/>
<path d="M164.138 235H162.169V222.317H164.138V235ZM166.247 235V225.754H168.058V227.301H168.102C168.603 226.246 169.587 225.596 171.011 225.596C173.05 225.596 174.219 226.896 174.219 229.015V235H172.312V229.384C172.312 227.995 171.661 227.23 170.343 227.23C169.007 227.23 168.146 228.18 168.146 229.612V235H166.247ZM183.992 228.936H182.182C181.988 227.951 181.25 227.169 180.011 227.169C178.543 227.169 177.576 228.391 177.576 230.377C177.576 232.407 178.552 233.585 180.028 233.585C181.197 233.585 181.962 232.943 182.182 231.871H184.01C183.808 233.84 182.234 235.176 180.011 235.176C177.365 235.176 175.643 233.365 175.643 230.377C175.643 227.441 177.365 225.587 179.993 225.587C182.375 225.587 183.825 227.116 183.992 228.936ZM185.416 235V225.754H187.314V235H185.416ZM186.365 224.4C185.759 224.4 185.267 223.917 185.267 223.319C185.267 222.713 185.759 222.229 186.365 222.229C186.98 222.229 187.473 222.713 187.473 223.319C187.473 223.917 186.98 224.4 186.365 224.4ZM192.729 235.158C190.391 235.158 188.844 233.295 188.844 230.377C188.844 227.459 190.391 225.604 192.711 225.604C194.038 225.604 195.093 226.272 195.611 227.292H195.646V222.317H197.554V235H195.708V233.427H195.673C195.128 234.481 194.073 235.158 192.729 235.158ZM193.229 227.204C191.727 227.204 190.786 228.435 190.786 230.377C190.786 232.328 191.727 233.55 193.229 233.55C194.688 233.55 195.664 232.311 195.664 230.377C195.664 228.461 194.688 227.204 193.229 227.204ZM203.372 227.116C202.045 227.116 201.113 228.127 201.017 229.524H205.64C205.596 228.109 204.699 227.116 203.372 227.116ZM205.631 232.284H207.433C207.169 233.972 205.569 235.176 203.451 235.176C200.735 235.176 199.092 233.339 199.092 230.421C199.092 227.521 200.762 225.587 203.372 225.587C205.938 225.587 207.538 227.397 207.538 230.201V230.852H201.008V230.966C201.008 232.574 201.975 233.638 203.495 233.638C204.576 233.638 205.376 233.093 205.631 232.284ZM209.015 235V225.754H210.825V227.301H210.869C211.37 226.246 212.354 225.596 213.778 225.596C215.817 225.596 216.986 226.896 216.986 229.015V235H215.079V229.384C215.079 227.995 214.429 227.23 213.11 227.23C211.774 227.23 210.913 228.18 210.913 229.612V235H209.015ZM219.377 223.565H221.284V225.754H223.042V227.257H221.284V232.354C221.284 233.154 221.636 233.515 222.409 233.515C222.603 233.515 222.91 233.497 223.033 233.471V234.974C222.822 235.026 222.4 235.062 221.979 235.062C220.106 235.062 219.377 234.35 219.377 232.565V227.257H218.032V225.754H219.377V223.565ZM230.46 223.97V228.531H233.22C234.74 228.531 235.61 227.696 235.61 226.246C235.61 224.831 234.688 223.97 233.167 223.97H230.46ZM230.46 230.122V235H228.491V222.317H233.404C236.015 222.317 237.641 223.829 237.641 226.193C237.641 227.907 236.727 229.296 235.18 229.814L238.019 235H235.751L233.167 230.122H230.46ZM243.151 227.116C241.824 227.116 240.893 228.127 240.796 229.524H245.419C245.375 228.109 244.479 227.116 243.151 227.116ZM245.41 232.284H247.212C246.948 233.972 245.349 235.176 243.23 235.176C240.515 235.176 238.871 233.339 238.871 230.421C238.871 227.521 240.541 225.587 243.151 225.587C245.718 225.587 247.317 227.397 247.317 230.201V230.852H240.787V230.966C240.787 232.574 241.754 233.638 243.274 233.638C244.355 233.638 245.155 233.093 245.41 232.284ZM248.627 228.373C248.627 226.721 250.086 225.587 252.248 225.587C254.305 225.587 255.746 226.738 255.808 228.382H254.023C253.936 227.547 253.259 227.028 252.195 227.028C251.167 227.028 250.481 227.529 250.481 228.259C250.481 228.83 250.938 229.217 251.896 229.454L253.452 229.814C255.315 230.263 256.019 230.966 256.019 232.328C256.019 234.016 254.445 235.176 252.178 235.176C249.989 235.176 248.539 234.042 248.39 232.346H250.271C250.42 233.233 251.105 233.726 252.266 233.726C253.408 233.726 254.111 233.251 254.111 232.504C254.111 231.915 253.76 231.59 252.793 231.344L251.141 230.939C249.471 230.535 248.627 229.665 248.627 228.373ZM261.468 235.176C258.822 235.176 257.082 233.356 257.082 230.377C257.082 227.406 258.831 225.587 261.468 225.587C264.104 225.587 265.854 227.406 265.854 230.377C265.854 233.356 264.113 235.176 261.468 235.176ZM261.468 233.611C262.962 233.611 263.92 232.434 263.92 230.377C263.92 228.329 262.953 227.151 261.468 227.151C259.982 227.151 259.016 228.329 259.016 230.377C259.016 232.434 259.982 233.611 261.468 233.611ZM267.392 235V222.317H269.29V235H267.392ZM279.169 225.754V235H277.35V233.436H277.306C276.796 234.543 275.855 235.167 274.44 235.167C272.428 235.167 271.197 233.857 271.197 231.739V225.754H273.096V231.37C273.096 232.776 273.764 233.532 275.073 233.532C276.444 233.532 277.271 232.583 277.271 231.142V225.754H279.169ZM281.604 223.565H283.511V225.754H285.269V227.257H283.511V232.354C283.511 233.154 283.862 233.515 284.636 233.515C284.829 233.515 285.137 233.497 285.26 233.471V234.974C285.049 235.026 284.627 235.062 284.205 235.062C282.333 235.062 281.604 234.35 281.604 232.565V227.257H280.259V225.754H281.604V223.565ZM286.895 235V225.754H288.793V235H286.895ZM287.844 224.4C287.237 224.4 286.745 223.917 286.745 223.319C286.745 222.713 287.237 222.229 287.844 222.229C288.459 222.229 288.951 222.713 288.951 223.319C288.951 223.917 288.459 224.4 287.844 224.4ZM294.708 235.176C292.062 235.176 290.322 233.356 290.322 230.377C290.322 227.406 292.071 225.587 294.708 225.587C297.345 225.587 299.094 227.406 299.094 230.377C299.094 233.356 297.354 235.176 294.708 235.176ZM294.708 233.611C296.202 233.611 297.16 232.434 297.16 230.377C297.16 228.329 296.193 227.151 294.708 227.151C293.223 227.151 292.256 228.329 292.256 230.377C292.256 232.434 293.223 233.611 294.708 233.611ZM300.562 235V225.754H302.372V227.301H302.416C302.917 226.246 303.901 225.596 305.325 225.596C307.364 225.596 308.533 226.896 308.533 229.015V235H306.626V229.384C306.626 227.995 305.976 227.23 304.657 227.23C303.321 227.23 302.46 228.18 302.46 229.612V235H300.562ZM314.255 222.317H319.01C321.471 222.317 323.185 224.014 323.185 226.483C323.185 228.962 321.436 230.667 318.948 230.667H316.224V235H314.255V222.317ZM316.224 223.979V229.015H318.482C320.196 229.015 321.172 228.092 321.172 226.492C321.172 224.893 320.196 223.979 318.491 223.979H316.224ZM324.749 235V222.317H326.647V235H324.749ZM331.833 233.655C333.16 233.655 334.197 232.741 334.197 231.537V230.808L331.921 230.948C330.787 231.027 330.146 231.528 330.146 232.319C330.146 233.128 330.813 233.655 331.833 233.655ZM331.306 235.158C329.495 235.158 328.229 234.033 328.229 232.372C328.229 230.755 329.469 229.762 331.666 229.639L334.197 229.489V228.777C334.197 227.749 333.503 227.134 332.343 227.134C331.244 227.134 330.559 227.661 330.392 228.487H328.599C328.704 226.817 330.128 225.587 332.413 225.587C334.654 225.587 336.087 226.773 336.087 228.628V235H334.268V233.479H334.224C333.688 234.508 332.519 235.158 331.306 235.158ZM337.933 235V225.754H339.743V227.301H339.787C340.288 226.246 341.272 225.596 342.696 225.596C344.735 225.596 345.904 226.896 345.904 229.015V235H343.997V229.384C343.997 227.995 343.347 227.23 342.028 227.23C340.692 227.23 339.831 228.18 339.831 229.612V235H337.933Z" fill="#828282"/>
<defs>
<linearGradient id="paint0_linear_1634_4189" x1="0" y1="75" x2="136" y2="75" gradientUnits="userSpaceOnUse">
<stop stop-color="white" stop-opacity="0"/>
<stop offset="1" stop-color="#276BEF"/>
</linearGradient>
<linearGradient id="paint1_linear_1634_4189" x1="0" y1="182" x2="136" y2="182" gradientUnits="userSpaceOnUse">
<stop stop-color="white" stop-opacity="0"/>
<stop offset="1" stop-color="#276BEF"/>
</linearGradient>
</defs>
</svg>
