<svg width="343" height="120" viewBox="0 0 343 120" fill="none" xmlns="http://www.w3.org/2000/svg">
<path opacity="0.5" d="M69 41.7588L71.2477 58.2985C73.2685 73.1692 85.9671 84.2588 100.974 84.2588H164C180.569 84.2588 194 97.6902 194 114.259V119.759" stroke="url(#paint0_linear_1701_4200)" stroke-width="5"/>
<path opacity="0.5" d="M319 41.7588L316.752 58.2985C314.731 73.1692 302.033 84.2588 287.026 84.2588H224C207.431 84.2588 194 97.6902 194 114.259V119.759" stroke="url(#paint1_linear_1701_4200)" stroke-width="5"/>
<rect width="154.267" height="48.6136" rx="1.8267" fill="white"/>
<rect x="0.18267" y="0.18267" width="153.902" height="48.2482" rx="1.64403" stroke="black" stroke-opacity="0.15" stroke-width="0.36534"/>
<path d="M40.6978 20.3066L39.7954 17.6406H36.0356L35.1333 20.3066H33.5405L37.1021 10.4424H38.7563L42.3179 20.3066H40.6978ZM37.895 12.083L36.4253 16.4102H39.4058L37.936 12.083H37.895ZM46.0981 19.1104C47.2534 19.1104 48.0122 18.1738 48.0122 16.6904C48.0122 15.2139 47.2534 14.2432 46.0981 14.2432C44.9634 14.2432 44.2251 15.1934 44.2251 16.6904C44.2251 18.1943 44.9634 19.1104 46.0981 19.1104ZM46.1118 23.0137C44.4165 23.0137 43.1587 22.1113 42.9741 20.8672H44.4575C44.6694 21.4688 45.3257 21.8652 46.1665 21.8652C47.3218 21.8652 48.0054 21.209 48.0054 20.2246V19.042H47.978C47.5747 19.8213 46.7271 20.334 45.7017 20.334C43.897 20.334 42.7144 18.9258 42.7144 16.6836C42.7144 14.4209 43.8901 12.999 45.7358 12.999C46.7544 12.999 47.5884 13.5117 48.0259 14.3457H48.0532V13.1152H49.4888V20.1768C49.4888 21.8926 48.1626 23.0137 46.1118 23.0137ZM50.9995 20.3066V13.1152H52.4761V20.3066H50.9995ZM51.7378 12.0625C51.2661 12.0625 50.8833 11.6865 50.8833 11.2217C50.8833 10.75 51.2661 10.374 51.7378 10.374C52.2163 10.374 52.5991 10.75 52.5991 11.2217C52.5991 11.6865 52.2163 12.0625 51.7378 12.0625ZM54.0415 20.3066V10.4424H55.5181V20.3066H54.0415ZM60.0435 14.1748C59.0112 14.1748 58.2866 14.9609 58.2114 16.0479H61.8071C61.7729 14.9473 61.0757 14.1748 60.0435 14.1748ZM61.8003 18.1943H63.2017C62.9966 19.5068 61.7524 20.4434 60.105 20.4434C57.9927 20.4434 56.7144 19.0146 56.7144 16.7451C56.7144 14.4893 58.0132 12.9854 60.0435 12.9854C62.0396 12.9854 63.2837 14.3936 63.2837 16.5742V17.0801H58.2046V17.1689C58.2046 18.4199 58.9565 19.2471 60.1392 19.2471C60.98 19.2471 61.6021 18.8232 61.8003 18.1943ZM67.0161 17.5586H68.5269C68.6362 18.5361 69.5864 19.1787 70.8853 19.1787C72.1294 19.1787 73.0249 18.5361 73.0249 17.6543C73.0249 16.8887 72.4849 16.4307 71.2065 16.1162L69.9282 15.8086C68.1167 15.3711 67.2759 14.5234 67.2759 13.1494C67.2759 11.4473 68.7593 10.2783 70.8647 10.2783C72.9497 10.2783 74.3784 11.4473 74.4263 13.1494H72.936C72.8472 12.165 72.0337 11.5703 70.8442 11.5703C69.6548 11.5703 68.8413 12.1719 68.8413 13.0469C68.8413 13.7441 69.3608 14.1543 70.6323 14.4688L71.7192 14.7354C73.7427 15.2139 74.5835 16.0273 74.5835 17.4697C74.5835 19.3154 73.1138 20.4707 70.7759 20.4707C68.5884 20.4707 67.1118 19.3428 67.0161 17.5586ZM78.8696 20.4434C76.812 20.4434 75.4585 19.0283 75.4585 16.7109C75.4585 14.4004 76.8188 12.9854 78.8696 12.9854C80.9204 12.9854 82.2808 14.4004 82.2808 16.7109C82.2808 19.0283 80.9272 20.4434 78.8696 20.4434ZM78.8696 19.2266C80.0317 19.2266 80.7769 18.3105 80.7769 16.7109C80.7769 15.1182 80.0249 14.2021 78.8696 14.2021C77.7144 14.2021 76.9624 15.1182 76.9624 16.7109C76.9624 18.3105 77.7144 19.2266 78.8696 19.2266ZM83.853 20.3066V14.2842H82.8618V13.1289H83.853V12.4248C83.853 11.0303 84.5093 10.374 85.9722 10.374C86.2729 10.374 86.6079 10.4082 86.7993 10.4424V11.5361C86.6558 11.5088 86.4575 11.4951 86.2593 11.4951C85.6167 11.4951 85.3159 11.8164 85.3159 12.4521V13.1289H86.772V14.2842H85.3364V20.3066H83.853ZM88.3647 11.4131H89.8481V13.1152H91.2153V14.2842H89.8481V18.249C89.8481 18.8711 90.1216 19.1514 90.7231 19.1514C90.8735 19.1514 91.1128 19.1377 91.2085 19.1172V20.2861C91.0444 20.3271 90.7163 20.3545 90.3882 20.3545C88.9321 20.3545 88.3647 19.8008 88.3647 18.4131V14.2842H87.3188V13.1152H88.3647V11.4131ZM101.92 13.1152L99.9517 20.3066H98.4136L96.9028 14.9199H96.8687L95.3716 20.3066H93.8472L91.8716 13.1152H93.3481L94.6606 18.7754H94.688L96.1851 13.1152H97.6069L99.1108 18.7754H99.145L100.458 13.1152H101.92ZM105.215 19.2607C106.248 19.2607 107.054 18.5498 107.054 17.6133V17.0459L105.284 17.1553C104.402 17.2168 103.903 17.6064 103.903 18.2217C103.903 18.8506 104.422 19.2607 105.215 19.2607ZM104.805 20.4297C103.397 20.4297 102.413 19.5547 102.413 18.2627C102.413 17.0049 103.376 16.2324 105.085 16.1367L107.054 16.0205V15.4668C107.054 14.667 106.514 14.1885 105.612 14.1885C104.757 14.1885 104.224 14.5986 104.094 15.2412H102.7C102.782 13.9424 103.889 12.9854 105.667 12.9854C107.41 12.9854 108.524 13.9082 108.524 15.3506V20.3066H107.109V19.124H107.075C106.658 19.9238 105.749 20.4297 104.805 20.4297ZM109.959 20.3066V13.1152H111.368V14.3389H111.402C111.641 13.498 112.284 12.999 113.131 12.999C113.343 12.999 113.528 13.0332 113.637 13.0537V14.4277C113.521 14.3799 113.261 14.3457 112.974 14.3457C112.024 14.3457 111.436 14.9814 111.436 16V20.3066H109.959ZM117.247 14.1748C116.214 14.1748 115.49 14.9609 115.415 16.0479H119.01C118.976 14.9473 118.279 14.1748 117.247 14.1748ZM119.003 18.1943H120.405C120.2 19.5068 118.956 20.4434 117.308 20.4434C115.196 20.4434 113.917 19.0146 113.917 16.7451C113.917 14.4893 115.216 12.9854 117.247 12.9854C119.243 12.9854 120.487 14.3936 120.487 16.5742V17.0801H115.408V17.1689C115.408 18.4199 116.16 19.2471 117.342 19.2471C118.183 19.2471 118.805 18.8232 119.003 18.1943ZM37.6284 27.4424H41.1079C44.0405 27.4424 45.7769 29.2471 45.7769 32.3574C45.7769 35.4746 44.0474 37.3066 41.1079 37.3066H37.6284V27.4424ZM39.1597 28.7617V35.9805H40.9644C43.0562 35.9805 44.2114 34.7021 44.2114 32.3711C44.2114 30.0469 43.0493 28.7617 40.9644 28.7617H39.1597ZM50.0698 31.1748C49.0376 31.1748 48.313 31.9609 48.2378 33.0479H51.8335C51.7993 31.9473 51.1021 31.1748 50.0698 31.1748ZM51.8267 35.1943H53.228C53.0229 36.5068 51.7788 37.4434 50.1313 37.4434C48.019 37.4434 46.7407 36.0146 46.7407 33.7451C46.7407 31.4893 48.0396 29.9854 50.0698 29.9854C52.0659 29.9854 53.3101 31.3936 53.3101 33.5742V34.0801H48.231V34.1689C48.231 35.4199 48.9829 36.2471 50.1655 36.2471C51.0063 36.2471 51.6284 35.8232 51.8267 35.1943ZM60.5562 30.1152L57.979 37.3066H56.3931L53.8022 30.1152H55.3745L57.1792 35.8643H57.2065L59.0112 30.1152H60.5562ZM64.2065 31.1748C63.1743 31.1748 62.4497 31.9609 62.3745 33.0479H65.9702C65.936 31.9473 65.2388 31.1748 64.2065 31.1748ZM65.9634 35.1943H67.3647C67.1597 36.5068 65.9155 37.4434 64.2681 37.4434C62.1558 37.4434 60.8774 36.0146 60.8774 33.7451C60.8774 31.4893 62.1763 29.9854 64.2065 29.9854C66.2026 29.9854 67.4468 31.3936 67.4468 33.5742V34.0801H62.3677V34.1689C62.3677 35.4199 63.1196 36.2471 64.3022 36.2471C65.1431 36.2471 65.7651 35.8232 65.9634 35.1943ZM68.6499 37.3066V27.4424H70.1265V37.3066H68.6499ZM74.7339 37.4434C72.6763 37.4434 71.3228 36.0283 71.3228 33.7109C71.3228 31.4004 72.6831 29.9854 74.7339 29.9854C76.7847 29.9854 78.145 31.4004 78.145 33.7109C78.145 36.0283 76.7915 37.4434 74.7339 37.4434ZM74.7339 36.2266C75.896 36.2266 76.6411 35.3105 76.6411 33.7109C76.6411 32.1182 75.8892 31.2021 74.7339 31.2021C73.5786 31.2021 72.8267 32.1182 72.8267 33.7109C72.8267 35.3105 73.5786 36.2266 74.7339 36.2266ZM83.0327 29.999C84.8579 29.999 86.061 31.4346 86.061 33.7109C86.061 35.9873 84.8647 37.4297 83.0601 37.4297C82.0278 37.4297 81.2075 36.9238 80.7974 36.124H80.7632V39.6855H79.2866V30.1152H80.7153V31.3525H80.7427C81.1665 30.5254 81.9937 29.999 83.0327 29.999ZM82.6431 36.1787C83.812 36.1787 84.5435 35.2217 84.5435 33.7109C84.5435 32.207 83.812 31.2432 82.6431 31.2432C81.5151 31.2432 80.7563 32.2275 80.7563 33.7109C80.7563 35.208 81.5083 36.1787 82.6431 36.1787ZM87.2026 37.3066V30.1152H88.6108V31.3252H88.645C88.9663 30.5254 89.7183 29.9922 90.689 29.9922C91.687 29.9922 92.4116 30.5049 92.6987 31.4004H92.7329C93.1021 30.5254 93.9497 29.9922 94.9751 29.9922C96.397 29.9922 97.3267 30.9355 97.3267 32.3643V37.3066H95.8433V32.7197C95.8433 31.79 95.3442 31.2568 94.4692 31.2568C93.5942 31.2568 92.9858 31.9062 92.9858 32.8154V37.3066H91.5366V32.6104C91.5366 31.7832 91.0103 31.2568 90.1763 31.2568C89.3013 31.2568 88.6792 31.9404 88.6792 32.8633V37.3066H87.2026ZM101.763 31.1748C100.731 31.1748 100.006 31.9609 99.9312 33.0479H103.527C103.493 31.9473 102.795 31.1748 101.763 31.1748ZM103.52 35.1943H104.921C104.716 36.5068 103.472 37.4434 101.825 37.4434C99.7124 37.4434 98.4341 36.0146 98.4341 33.7451C98.4341 31.4893 99.7329 29.9854 101.763 29.9854C103.759 29.9854 105.003 31.3936 105.003 33.5742V34.0801H99.9243V34.1689C99.9243 35.4199 100.676 36.2471 101.859 36.2471C102.7 36.2471 103.322 35.8232 103.52 35.1943ZM106.152 37.3066V30.1152H107.56V31.3184H107.594C107.984 30.498 108.75 29.9922 109.857 29.9922C111.443 29.9922 112.352 31.0039 112.352 32.6514V37.3066H110.869V32.9385C110.869 31.8584 110.363 31.2637 109.337 31.2637C108.298 31.2637 107.628 32.002 107.628 33.1162V37.3066H106.152ZM114.211 28.4131H115.695V30.1152H117.062V31.2842H115.695V35.249C115.695 35.8711 115.968 36.1514 116.57 36.1514C116.72 36.1514 116.959 36.1377 117.055 36.1172V37.2861C116.891 37.3271 116.563 37.3545 116.235 37.3545C114.779 37.3545 114.211 36.8008 114.211 35.4131V31.2842H113.166V30.1152H114.211V28.4131Z" fill="#828282"/>
<rect x="296" y="8" width="46.267" height="31.6136" rx="1.8267" fill="white"/>
<rect x="296.183" y="8.18267" width="45.9016" height="31.2482" rx="1.64403" stroke="black" stroke-opacity="0.15" stroke-width="0.36534"/>
<path d="M310.308 28.4707C307.464 28.4707 305.687 26.5225 305.687 23.3779C305.687 20.2471 307.464 18.2783 310.308 18.2783C313.145 18.2783 314.929 20.2471 314.929 23.3779C314.929 25.2236 314.314 26.6729 313.213 27.5273L314.499 29.3525H312.899L312.058 28.1768C311.532 28.375 310.944 28.4707 310.308 28.4707ZM310.308 27.1309C310.636 27.1309 310.944 27.083 311.231 26.9941L310.055 25.333H311.607L312.304 26.2764C312.974 25.6543 313.357 24.6494 313.357 23.3779C313.357 21.0742 312.181 19.6182 310.308 19.6182C308.435 19.6182 307.252 21.0742 307.252 23.3779C307.252 25.6748 308.435 27.1309 310.308 27.1309ZM316.214 28.3066V21.1152H317.623V22.3184H317.657C318.046 21.498 318.812 20.9922 319.919 20.9922C321.505 20.9922 322.415 22.0039 322.415 23.6514V28.3066H320.931V23.9385C320.931 22.8584 320.425 22.2637 319.4 22.2637C318.361 22.2637 317.691 23.002 317.691 24.1162V28.3066H316.214ZM330.447 28.3066L329.544 25.6406H325.785L324.882 28.3066H323.29L326.851 18.4424H328.505L332.067 28.3066H330.447ZM327.644 20.083L326.174 24.4102H329.155L327.685 20.083H327.644Z" fill="#828282"/>
<defs>
<linearGradient id="paint0_linear_1701_4200" x1="210.914" y1="146.259" x2="70.6889" y2="73.2459" gradientUnits="userSpaceOnUse">
<stop stop-color="white" stop-opacity="0"/>
<stop offset="1" stop-color="#276BEF"/>
</linearGradient>
<linearGradient id="paint1_linear_1701_4200" x1="177.086" y1="146.259" x2="317.311" y2="73.2459" gradientUnits="userSpaceOnUse">
<stop stop-color="white" stop-opacity="0"/>
<stop offset="1" stop-color="#276BEF"/>
</linearGradient>
</defs>
</svg>
