<svg width="306" height="61" viewBox="0 0 306 61" fill="none" xmlns="http://www.w3.org/2000/svg">
<rect x="136" width="170" height="61" rx="5" fill="white"/>
<rect x="136.5" y="0.5" width="169" height="60" rx="4.5" stroke="black" stroke-opacity="0.15"/>
<path d="M162.169 24.3174H166.643C170.413 24.3174 172.646 26.6377 172.646 30.6367C172.646 34.6445 170.422 37 166.643 37H162.169V24.3174ZM164.138 26.0137V35.2949H166.458C169.147 35.2949 170.633 33.6514 170.633 30.6543C170.633 27.666 169.139 26.0137 166.458 26.0137H164.138ZM178.271 37.1758C175.625 37.1758 173.885 35.3564 173.885 32.377C173.885 29.4062 175.634 27.5869 178.271 27.5869C180.907 27.5869 182.656 29.4062 182.656 32.377C182.656 35.3564 180.916 37.1758 178.271 37.1758ZM178.271 35.6113C179.765 35.6113 180.723 34.4336 180.723 32.377C180.723 30.3291 179.756 29.1514 178.271 29.1514C176.785 29.1514 175.818 30.3291 175.818 32.377C175.818 34.4336 176.785 35.6113 178.271 35.6113ZM192.061 30.9355H190.25C190.057 29.9512 189.318 29.1689 188.079 29.1689C186.611 29.1689 185.645 30.3906 185.645 32.377C185.645 34.4072 186.62 35.585 188.097 35.585C189.266 35.585 190.03 34.9434 190.25 33.8711H192.078C191.876 35.8398 190.303 37.1758 188.079 37.1758C185.434 37.1758 183.711 35.3652 183.711 32.377C183.711 29.4414 185.434 27.5869 188.062 27.5869C190.443 27.5869 191.894 29.1162 192.061 30.9355ZM201.351 27.7539V37H199.531V35.4355H199.487C198.978 36.543 198.037 37.167 196.622 37.167C194.609 37.167 193.379 35.8574 193.379 33.7393V27.7539H195.277V33.3701C195.277 34.7764 195.945 35.5322 197.255 35.5322C198.626 35.5322 199.452 34.583 199.452 33.1416V27.7539H201.351ZM203.231 37V27.7539H205.042V29.3096H205.086C205.499 28.2812 206.466 27.5957 207.714 27.5957C208.997 27.5957 209.929 28.2549 210.298 29.4062H210.342C210.816 28.2812 211.906 27.5957 213.225 27.5957C215.053 27.5957 216.248 28.8086 216.248 30.6455V37H214.341V31.1025C214.341 29.9072 213.699 29.2217 212.574 29.2217C211.449 29.2217 210.667 30.0566 210.667 31.2256V37H208.804V30.9619C208.804 29.8984 208.127 29.2217 207.055 29.2217C205.93 29.2217 205.13 30.1006 205.13 31.2871V37H203.231ZM221.952 29.1162C220.625 29.1162 219.693 30.127 219.597 31.5244H224.22C224.176 30.1094 223.279 29.1162 221.952 29.1162ZM224.211 34.2842H226.013C225.749 35.9717 224.149 37.1758 222.031 37.1758C219.315 37.1758 217.672 35.3389 217.672 32.4209C217.672 29.5205 219.342 27.5869 221.952 27.5869C224.519 27.5869 226.118 29.3975 226.118 32.2012V32.8516H219.588V32.9658C219.588 34.5742 220.555 35.6377 222.075 35.6377C223.156 35.6377 223.956 35.0928 224.211 34.2842ZM227.595 37V27.7539H229.405V29.3008H229.449C229.95 28.2461 230.935 27.5957 232.358 27.5957C234.397 27.5957 235.566 28.8965 235.566 31.0146V37H233.659V31.3838C233.659 29.9951 233.009 29.2305 231.69 29.2305C230.354 29.2305 229.493 30.1797 229.493 31.6123V37H227.595ZM237.957 25.5654H239.864V27.7539H241.622V29.2568H239.864V34.3545C239.864 35.1543 240.216 35.5146 240.989 35.5146C241.183 35.5146 241.49 35.4971 241.613 35.4707V36.9736C241.402 37.0264 240.98 37.0615 240.559 37.0615C238.687 37.0615 237.957 36.3496 237.957 34.5654V29.2568H236.612V27.7539H237.957V25.5654ZM246.28 35.6553C247.607 35.6553 248.645 34.7412 248.645 33.5371V32.8076L246.368 32.9482C245.234 33.0273 244.593 33.5283 244.593 34.3193C244.593 35.1279 245.261 35.6553 246.28 35.6553ZM245.753 37.1582C243.942 37.1582 242.677 36.0332 242.677 34.3721C242.677 32.7549 243.916 31.7617 246.113 31.6387L248.645 31.4893V30.7773C248.645 29.749 247.95 29.1338 246.79 29.1338C245.691 29.1338 245.006 29.6611 244.839 30.4873H243.046C243.151 28.8174 244.575 27.5869 246.86 27.5869C249.102 27.5869 250.534 28.7734 250.534 30.6279V37H248.715V35.4795H248.671C248.135 36.5078 246.966 37.1582 245.753 37.1582ZM252.934 25.5654H254.841V27.7539H256.599V29.2568H254.841V34.3545C254.841 35.1543 255.192 35.5146 255.966 35.5146C256.159 35.5146 256.467 35.4971 256.59 35.4707V36.9736C256.379 37.0264 255.957 37.0615 255.535 37.0615C253.663 37.0615 252.934 36.3496 252.934 34.5654V29.2568H251.589V27.7539H252.934V25.5654ZM258.225 37V27.7539H260.123V37H258.225ZM259.174 26.4004C258.567 26.4004 258.075 25.917 258.075 25.3193C258.075 24.7129 258.567 24.2295 259.174 24.2295C259.789 24.2295 260.281 24.7129 260.281 25.3193C260.281 25.917 259.789 26.4004 259.174 26.4004ZM266.038 37.1758C263.393 37.1758 261.652 35.3564 261.652 32.377C261.652 29.4062 263.401 27.5869 266.038 27.5869C268.675 27.5869 270.424 29.4062 270.424 32.377C270.424 35.3564 268.684 37.1758 266.038 37.1758ZM266.038 35.6113C267.532 35.6113 268.49 34.4336 268.49 32.377C268.49 30.3291 267.523 29.1514 266.038 29.1514C264.553 29.1514 263.586 30.3291 263.586 32.377C263.586 34.4336 264.553 35.6113 266.038 35.6113ZM271.892 37V27.7539H273.702V29.3008H273.746C274.247 28.2461 275.231 27.5957 276.655 27.5957C278.694 27.5957 279.863 28.8965 279.863 31.0146V37H277.956V31.3838C277.956 29.9951 277.306 29.2305 275.987 29.2305C274.651 29.2305 273.79 30.1797 273.79 31.6123V37H271.892Z" fill="#828282"/>
<path d="M129.63 31H0" stroke="url(#paint0_linear_1567_4180)" stroke-width="5"/>
<defs>
<linearGradient id="paint0_linear_1567_4180" x1="0" y1="31.5" x2="129.63" y2="31.5" gradientUnits="userSpaceOnUse">
<stop stop-color="white" stop-opacity="0"/>
<stop offset="1" stop-color="#276BEF"/>
</linearGradient>
</defs>
</svg>
