<svg width="390" height="107" viewBox="0 0 390 107" fill="none" xmlns="http://www.w3.org/2000/svg">
<path opacity="0.5" d="M63 78L65.2477 61.4603C67.2685 46.5896 79.9671 35.5 94.9744 35.5H158C174.569 35.5 188 22.0685 188 5.5V0" stroke="url(#paint0_linear_1701_4222)" stroke-width="5"/>
<path opacity="0.5" d="M313 78L310.752 61.4603C308.731 46.5896 296.033 35.5 281.026 35.5H218C201.431 35.5 188 22.0685 188 5.5V0" stroke="url(#paint1_linear_1701_4222)" stroke-width="5"/>
<rect y="75" width="128.267" height="31.6136" rx="1.8267" fill="white"/>
<rect x="0.18267" y="75.1827" width="127.902" height="31.2482" rx="1.64403" stroke="black" stroke-opacity="0.15" stroke-width="0.36534"/>
<path d="M9.60498 92.5586H11.1157C11.2251 93.5361 12.1753 94.1787 13.4741 94.1787C14.7183 94.1787 15.6138 93.5361 15.6138 92.6543C15.6138 91.8887 15.0737 91.4307 13.7954 91.1162L12.5171 90.8086C10.7056 90.3711 9.86475 89.5234 9.86475 88.1494C9.86475 86.4473 11.3481 85.2783 13.4536 85.2783C15.5386 85.2783 16.9673 86.4473 17.0151 88.1494H15.5249C15.436 87.165 14.6226 86.5703 13.4331 86.5703C12.2437 86.5703 11.4302 87.1719 11.4302 88.0469C11.4302 88.7441 11.9497 89.1543 13.2212 89.4688L14.3081 89.7354C16.3315 90.2139 17.1724 91.0273 17.1724 92.4697C17.1724 94.3154 15.7026 95.4707 13.3647 95.4707C11.1772 95.4707 9.70068 94.3428 9.60498 92.5586ZM24.5415 90.5898H23.1333C22.9829 89.8242 22.4087 89.2158 21.4448 89.2158C20.3032 89.2158 19.5513 90.166 19.5513 91.7109C19.5513 93.29 20.3101 94.2061 21.4585 94.2061C22.3677 94.2061 22.9624 93.707 23.1333 92.873H24.5552C24.3979 94.4043 23.1743 95.4434 21.4448 95.4434C19.3872 95.4434 18.0474 94.0352 18.0474 91.7109C18.0474 89.4277 19.3872 87.9854 21.4312 87.9854C23.2837 87.9854 24.4116 89.1748 24.5415 90.5898ZM28.1167 94.2607C29.1489 94.2607 29.9556 93.5498 29.9556 92.6133V92.0459L28.1851 92.1553C27.3032 92.2168 26.8042 92.6064 26.8042 93.2217C26.8042 93.8506 27.3237 94.2607 28.1167 94.2607ZM27.7065 95.4297C26.2983 95.4297 25.314 94.5547 25.314 93.2627C25.314 92.0049 26.2778 91.2324 27.9868 91.1367L29.9556 91.0205V90.4668C29.9556 89.667 29.4155 89.1885 28.5132 89.1885C27.6587 89.1885 27.1255 89.5986 26.9956 90.2412H25.6011C25.6831 88.9424 26.7905 87.9854 28.5679 87.9854C30.311 87.9854 31.4253 88.9082 31.4253 90.3506V95.3066H30.0103V94.124H29.9761C29.5591 94.9238 28.6499 95.4297 27.7065 95.4297ZM32.9155 95.3066V85.4424H34.3921V95.3066H32.9155ZM35.9575 95.3066V88.1152H37.4341V95.3066H35.9575ZM36.6958 87.0625C36.2241 87.0625 35.8413 86.6865 35.8413 86.2217C35.8413 85.75 36.2241 85.374 36.6958 85.374C37.1743 85.374 37.5571 85.75 37.5571 86.2217C37.5571 86.6865 37.1743 87.0625 36.6958 87.0625ZM38.9448 95.3066V88.1152H40.353V89.3184H40.3872C40.7769 88.498 41.5425 87.9922 42.6499 87.9922C44.2358 87.9922 45.145 89.0039 45.145 90.6514V95.3066H43.6616V90.9385C43.6616 89.8584 43.1558 89.2637 42.1304 89.2637C41.0913 89.2637 40.4214 90.002 40.4214 91.1162V95.3066H38.9448ZM49.6362 94.1104C50.7915 94.1104 51.5503 93.1738 51.5503 91.6904C51.5503 90.2139 50.7915 89.2432 49.6362 89.2432C48.5015 89.2432 47.7632 90.1934 47.7632 91.6904C47.7632 93.1943 48.5015 94.1104 49.6362 94.1104ZM49.6499 98.0137C47.9546 98.0137 46.6968 97.1113 46.5122 95.8672H47.9956C48.2075 96.4688 48.8638 96.8652 49.7046 96.8652C50.8599 96.8652 51.5435 96.209 51.5435 95.2246V94.042H51.5161C51.1128 94.8213 50.2651 95.334 49.2397 95.334C47.4351 95.334 46.2524 93.9258 46.2524 91.6836C46.2524 89.4209 47.4282 87.999 49.2739 87.999C50.2925 87.999 51.1265 88.5117 51.564 89.3457H51.5913V88.1152H53.0269V95.1768C53.0269 96.8926 51.7007 98.0137 49.6499 98.0137ZM64.4565 95.3066L63.6021 94.377C62.8022 95.0742 61.6606 95.4775 60.4849 95.4775C58.4819 95.4775 57.1284 94.3496 57.1284 92.6953C57.1284 91.5537 57.7368 90.6924 59.022 90.002C59.186 89.9199 59.3774 89.8105 59.4253 89.7969C58.5366 88.8604 58.2017 88.2383 58.2017 87.5137C58.2017 86.2422 59.3091 85.292 60.7993 85.292C62.3101 85.292 63.3833 86.2148 63.3833 87.5137C63.3833 88.5186 62.7681 89.2773 61.312 90.0498L63.5542 92.4629C63.8413 91.9297 63.978 91.1982 63.978 90.1182V89.7422H65.3042V90.1592C65.3042 91.5537 65.0239 92.6338 64.4839 93.4404L66.2544 95.3066H64.4565ZM59.8628 90.8018C58.9468 91.3691 58.5776 91.8818 58.5776 92.5859C58.5776 93.6113 59.4048 94.2949 60.6284 94.2949C61.4487 94.2949 62.2896 93.9736 62.7612 93.4678L60.1704 90.6377C60.0884 90.6787 59.9243 90.7676 59.8628 90.8018ZM60.5601 89.2773C61.6401 88.7236 62.0503 88.252 62.0503 87.5889C62.0503 86.8779 61.5513 86.3857 60.8062 86.3857C60.0815 86.3857 59.562 86.8916 59.562 87.5957C59.562 88.1084 59.8286 88.5527 60.5601 89.2773ZM69.4468 92.5586H70.9575C71.0669 93.5361 72.0171 94.1787 73.3159 94.1787C74.5601 94.1787 75.4556 93.5361 75.4556 92.6543C75.4556 91.8887 74.9155 91.4307 73.6372 91.1162L72.3589 90.8086C70.5474 90.3711 69.7065 89.5234 69.7065 88.1494C69.7065 86.4473 71.1899 85.2783 73.2954 85.2783C75.3804 85.2783 76.8091 86.4473 76.8569 88.1494H75.3667C75.2778 87.165 74.4644 86.5703 73.2749 86.5703C72.0854 86.5703 71.272 87.1719 71.272 88.0469C71.272 88.7441 71.7915 89.1543 73.063 89.4688L74.1499 89.7354C76.1733 90.2139 77.0142 91.0273 77.0142 92.4697C77.0142 94.3154 75.5444 95.4707 73.2065 95.4707C71.019 95.4707 69.5425 94.3428 69.4468 92.5586ZM81.2183 89.1748C80.186 89.1748 79.4614 89.9609 79.3862 91.0479H82.9819C82.9478 89.9473 82.2505 89.1748 81.2183 89.1748ZM82.9751 93.1943H84.3765C84.1714 94.5068 82.9272 95.4434 81.2798 95.4434C79.1675 95.4434 77.8892 94.0146 77.8892 91.7451C77.8892 89.4893 79.188 87.9854 81.2183 87.9854C83.2144 87.9854 84.4585 89.3936 84.4585 91.5742V92.0801H79.3794V92.1689C79.3794 93.4199 80.1313 94.2471 81.314 94.2471C82.1548 94.2471 82.7769 93.8232 82.9751 93.1943ZM91.7798 90.5898H90.3716C90.2212 89.8242 89.647 89.2158 88.6831 89.2158C87.5415 89.2158 86.7896 90.166 86.7896 91.7109C86.7896 93.29 87.5483 94.2061 88.6968 94.2061C89.606 94.2061 90.2007 93.707 90.3716 92.873H91.7935C91.6362 94.4043 90.4126 95.4434 88.6831 95.4434C86.6255 95.4434 85.2856 94.0352 85.2856 91.7109C85.2856 89.4277 86.6255 87.9854 88.6694 87.9854C90.522 87.9854 91.6499 89.1748 91.7798 90.5898ZM99.0054 88.1152V95.3066H97.5903V94.0898H97.5562C97.1597 94.9512 96.4282 95.4365 95.3276 95.4365C93.7622 95.4365 92.8052 94.418 92.8052 92.7705V88.1152H94.2817V92.4834C94.2817 93.5771 94.8013 94.165 95.8198 94.165C96.8862 94.165 97.5288 93.4268 97.5288 92.3057V88.1152H99.0054ZM100.468 95.3066V88.1152H101.876V89.3389H101.911C102.15 88.498 102.792 87.999 103.64 87.999C103.852 87.999 104.037 88.0332 104.146 88.0537V89.4277C104.03 89.3799 103.77 89.3457 103.483 89.3457C102.533 89.3457 101.945 89.9814 101.945 91V95.3066H100.468ZM105.11 95.3066V88.1152H106.586V95.3066H105.11ZM105.848 87.0625C105.376 87.0625 104.994 86.6865 104.994 86.2217C104.994 85.75 105.376 85.374 105.848 85.374C106.327 85.374 106.709 85.75 106.709 86.2217C106.709 86.6865 106.327 87.0625 105.848 87.0625ZM108.528 86.4131H110.011V88.1152H111.378V89.2842H110.011V93.249C110.011 93.8711 110.285 94.1514 110.886 94.1514C111.037 94.1514 111.276 94.1377 111.372 94.1172V95.2861C111.208 95.3271 110.879 95.3545 110.551 95.3545C109.095 95.3545 108.528 94.8008 108.528 93.4131V89.2842H107.482V88.1152H108.528V86.4131ZM113.306 97.9863C113.19 97.9863 112.814 97.9727 112.705 97.9521V96.7559C112.814 96.7832 113.06 96.7832 113.183 96.7832C113.874 96.7832 114.236 96.4961 114.461 95.7578C114.461 95.7441 114.591 95.3203 114.591 95.3135L111.994 88.1152H113.593L115.418 93.9668H115.439L117.264 88.1152H118.823L116.123 95.6826C115.507 97.4258 114.803 97.9863 113.306 97.9863Z" fill="#828282"/>
<rect x="226" y="75" width="163.267" height="31.6136" rx="1.8267" fill="white"/>
<rect x="226.183" y="75.1827" width="162.902" height="31.2482" rx="1.64403" stroke="black" stroke-opacity="0.15" stroke-width="0.36534"/>
<path d="M237.574 95.3066H236.042V85.4424H237.574V95.3066ZM239.214 95.3066V88.1152H240.623V89.3184H240.657C241.046 88.498 241.812 87.9922 242.919 87.9922C244.505 87.9922 245.415 89.0039 245.415 90.6514V95.3066H243.931V90.9385C243.931 89.8584 243.425 89.2637 242.4 89.2637C241.361 89.2637 240.691 90.002 240.691 91.1162V95.3066H239.214ZM253.016 90.5898H251.608C251.458 89.8242 250.883 89.2158 249.919 89.2158C248.778 89.2158 248.026 90.166 248.026 91.7109C248.026 93.29 248.785 94.2061 249.933 94.2061C250.842 94.2061 251.437 93.707 251.608 92.873H253.03C252.873 94.4043 251.649 95.4434 249.919 95.4434C247.862 95.4434 246.522 94.0352 246.522 91.7109C246.522 89.4277 247.862 87.9854 249.906 87.9854C251.758 87.9854 252.886 89.1748 253.016 90.5898ZM254.124 95.3066V88.1152H255.6V95.3066H254.124ZM254.862 87.0625C254.39 87.0625 254.007 86.6865 254.007 86.2217C254.007 85.75 254.39 85.374 254.862 85.374C255.34 85.374 255.723 85.75 255.723 86.2217C255.723 86.6865 255.34 87.0625 254.862 87.0625ZM259.811 95.4297C257.993 95.4297 256.79 93.9805 256.79 91.7109C256.79 89.4414 257.993 87.999 259.797 87.999C260.83 87.999 261.65 88.5186 262.053 89.3115H262.081V85.4424H263.564V95.3066H262.128V94.083H262.101C261.677 94.9033 260.857 95.4297 259.811 95.4297ZM260.201 89.2432C259.032 89.2432 258.3 90.2002 258.3 91.7109C258.3 93.2285 259.032 94.1787 260.201 94.1787C261.335 94.1787 262.094 93.2148 262.094 91.7109C262.094 90.2207 261.335 89.2432 260.201 89.2432ZM268.089 89.1748C267.057 89.1748 266.333 89.9609 266.257 91.0479H269.853C269.819 89.9473 269.122 89.1748 268.089 89.1748ZM269.846 93.1943H271.248C271.042 94.5068 269.798 95.4434 268.151 95.4434C266.039 95.4434 264.76 94.0146 264.76 91.7451C264.76 89.4893 266.059 87.9854 268.089 87.9854C270.085 87.9854 271.33 89.3936 271.33 91.5742V92.0801H266.25V92.1689C266.25 93.4199 267.002 94.2471 268.185 94.2471C269.026 94.2471 269.648 93.8232 269.846 93.1943ZM272.478 95.3066V88.1152H273.886V89.3184H273.92C274.31 88.498 275.076 87.9922 276.183 87.9922C277.769 87.9922 278.678 89.0039 278.678 90.6514V95.3066H277.195V90.9385C277.195 89.8584 276.689 89.2637 275.664 89.2637C274.625 89.2637 273.955 90.002 273.955 91.1162V95.3066H272.478ZM280.538 86.4131H282.021V88.1152H283.388V89.2842H282.021V93.249C282.021 93.8711 282.294 94.1514 282.896 94.1514C283.046 94.1514 283.286 94.1377 283.381 94.1172V95.2861C283.217 95.3271 282.889 95.3545 282.561 95.3545C281.105 95.3545 280.538 94.8008 280.538 93.4131V89.2842H279.492V88.1152H280.538V86.4131ZM289.158 86.7275V90.2754H291.304C292.487 90.2754 293.164 89.626 293.164 88.498C293.164 87.3975 292.446 86.7275 291.263 86.7275H289.158ZM289.158 91.5127V95.3066H287.626V85.4424H291.448C293.478 85.4424 294.743 86.6182 294.743 88.457C294.743 89.79 294.032 90.8701 292.829 91.2734L295.037 95.3066H293.273L291.263 91.5127H289.158ZM299.029 89.1748C297.997 89.1748 297.272 89.9609 297.197 91.0479H300.792C300.758 89.9473 300.061 89.1748 299.029 89.1748ZM300.786 93.1943H302.187C301.982 94.5068 300.738 95.4434 299.09 95.4434C296.978 95.4434 295.7 94.0146 295.7 91.7451C295.7 89.4893 296.999 87.9854 299.029 87.9854C301.025 87.9854 302.269 89.3936 302.269 91.5742V92.0801H297.19V92.1689C297.19 93.4199 297.942 94.2471 299.125 94.2471C299.965 94.2471 300.587 93.8232 300.786 93.1943ZM303.288 90.1523C303.288 88.8672 304.422 87.9854 306.104 87.9854C307.704 87.9854 308.825 88.8809 308.873 90.1592H307.485C307.417 89.5098 306.89 89.1064 306.063 89.1064C305.263 89.1064 304.73 89.4961 304.73 90.0635C304.73 90.5078 305.085 90.8086 305.831 90.9932L307.041 91.2734C308.49 91.6221 309.037 92.1689 309.037 93.2285C309.037 94.541 307.813 95.4434 306.049 95.4434C304.347 95.4434 303.219 94.5615 303.103 93.2422H304.566C304.682 93.9326 305.215 94.3154 306.118 94.3154C307.006 94.3154 307.553 93.9463 307.553 93.3652C307.553 92.9072 307.28 92.6543 306.528 92.4629L305.243 92.1484C303.944 91.834 303.288 91.1572 303.288 90.1523ZM313.275 95.4434C311.217 95.4434 309.864 94.0283 309.864 91.7109C309.864 89.4004 311.224 87.9854 313.275 87.9854C315.326 87.9854 316.686 89.4004 316.686 91.7109C316.686 94.0283 315.333 95.4434 313.275 95.4434ZM313.275 94.2266C314.437 94.2266 315.182 93.3105 315.182 91.7109C315.182 90.1182 314.43 89.2021 313.275 89.2021C312.12 89.2021 311.368 90.1182 311.368 91.7109C311.368 93.3105 312.12 94.2266 313.275 94.2266ZM317.882 95.3066V85.4424H319.359V95.3066H317.882ZM327.042 88.1152V95.3066H325.627V94.0898H325.593C325.197 94.9512 324.465 95.4365 323.365 95.4365C321.799 95.4365 320.842 94.418 320.842 92.7705V88.1152H322.319V92.4834C322.319 93.5771 322.838 94.165 323.857 94.165C324.923 94.165 325.566 93.4268 325.566 92.3057V88.1152H327.042ZM328.936 86.4131H330.419V88.1152H331.787V89.2842H330.419V93.249C330.419 93.8711 330.693 94.1514 331.294 94.1514C331.445 94.1514 331.684 94.1377 331.78 94.1172V95.2861C331.616 95.3271 331.288 95.3545 330.959 95.3545C329.503 95.3545 328.936 94.8008 328.936 93.4131V89.2842H327.89V88.1152H328.936V86.4131ZM333.051 95.3066V88.1152H334.528V95.3066H333.051ZM333.79 87.0625C333.318 87.0625 332.935 86.6865 332.935 86.2217C332.935 85.75 333.318 85.374 333.79 85.374C334.268 85.374 334.651 85.75 334.651 86.2217C334.651 86.6865 334.268 87.0625 333.79 87.0625ZM339.128 95.4434C337.071 95.4434 335.717 94.0283 335.717 91.7109C335.717 89.4004 337.078 87.9854 339.128 87.9854C341.179 87.9854 342.54 89.4004 342.54 91.7109C342.54 94.0283 341.186 95.4434 339.128 95.4434ZM339.128 94.2266C340.291 94.2266 341.036 93.3105 341.036 91.7109C341.036 90.1182 340.284 89.2021 339.128 89.2021C337.973 89.2021 337.221 90.1182 337.221 91.7109C337.221 93.3105 337.973 94.2266 339.128 94.2266ZM343.681 95.3066V88.1152H345.089V89.3184H345.124C345.513 88.498 346.279 87.9922 347.386 87.9922C348.972 87.9922 349.881 89.0039 349.881 90.6514V95.3066H348.398V90.9385C348.398 89.8584 347.892 89.2637 346.867 89.2637C345.828 89.2637 345.158 90.002 345.158 91.1162V95.3066H343.681ZM354.332 85.4424H358.03C359.944 85.4424 361.277 86.7617 361.277 88.6826C361.277 90.6104 359.917 91.9365 357.982 91.9365H355.863V95.3066H354.332V85.4424ZM355.863 86.7344V90.6514H357.62C358.953 90.6514 359.711 89.9336 359.711 88.6895C359.711 87.4453 358.953 86.7344 357.626 86.7344H355.863ZM362.494 95.3066V85.4424H363.97V95.3066H362.494ZM368.003 94.2607C369.036 94.2607 369.842 93.5498 369.842 92.6133V92.0459L368.072 92.1553C367.19 92.2168 366.691 92.6064 366.691 93.2217C366.691 93.8506 367.21 94.2607 368.003 94.2607ZM367.593 95.4297C366.185 95.4297 365.201 94.5547 365.201 93.2627C365.201 92.0049 366.165 91.2324 367.874 91.1367L369.842 91.0205V90.4668C369.842 89.667 369.302 89.1885 368.4 89.1885C367.545 89.1885 367.012 89.5986 366.882 90.2412H365.488C365.57 88.9424 366.677 87.9854 368.455 87.9854C370.198 87.9854 371.312 88.9082 371.312 90.3506V95.3066H369.897V94.124H369.863C369.446 94.9238 368.537 95.4297 367.593 95.4297ZM372.748 95.3066V88.1152H374.156V89.3184H374.19C374.58 88.498 375.345 87.9922 376.453 87.9922C378.039 87.9922 378.948 89.0039 378.948 90.6514V95.3066H377.464V90.9385C377.464 89.8584 376.958 89.2637 375.933 89.2637C374.894 89.2637 374.224 90.002 374.224 91.1162V95.3066H372.748Z" fill="#828282"/>
<defs>
<linearGradient id="paint0_linear_1701_4222" x1="204.914" y1="-26.5" x2="64.6889" y2="46.5129" gradientUnits="userSpaceOnUse">
<stop stop-color="white" stop-opacity="0"/>
<stop offset="1" stop-color="#276BEF"/>
</linearGradient>
<linearGradient id="paint1_linear_1701_4222" x1="171.086" y1="-26.5" x2="311.311" y2="46.5129" gradientUnits="userSpaceOnUse">
<stop stop-color="white" stop-opacity="0"/>
<stop offset="1" stop-color="#276BEF"/>
</linearGradient>
</defs>
</svg>
