<svg width="448" height="209" viewBox="0 0 448 209" fill="none" xmlns="http://www.w3.org/2000/svg">
<path d="M448 103H415C398.431 103 385 112.805 385 124.9V154.1C385 166.195 371.569 176 355 176H312" stroke="url(#paint0_linear_1567_4187)" stroke-width="5"/>
<path d="M448 96H415C398.431 96 385 87.2696 385 76.5V50.5C385 39.7304 371.569 31 355 31H312" stroke="url(#paint1_linear_1567_4187)" stroke-width="5"/>
<rect width="271" height="61" rx="5" fill="white"/>
<rect x="0.5" y="0.5" width="270" height="60" rx="4.5" stroke="black" stroke-opacity="0.15"/>
<path d="M34.8652 37L33.7051 33.5723H28.8711L27.7109 37H25.6631L30.2422 24.3174H32.3691L36.9482 37H34.8652ZM31.2617 26.4268L29.3721 31.9902H33.2041L31.3145 26.4268H31.2617ZM41.8086 35.4619C43.2939 35.4619 44.2695 34.2578 44.2695 32.3506C44.2695 30.4521 43.2939 29.2041 41.8086 29.2041C40.3496 29.2041 39.4004 30.4258 39.4004 32.3506C39.4004 34.2842 40.3496 35.4619 41.8086 35.4619ZM41.8262 40.4805C39.6465 40.4805 38.0293 39.3203 37.792 37.7207H39.6992C39.9717 38.4941 40.8154 39.0039 41.8965 39.0039C43.3818 39.0039 44.2607 38.1602 44.2607 36.8945V35.374H44.2256C43.707 36.376 42.6172 37.0352 41.2988 37.0352C38.9785 37.0352 37.458 35.2246 37.458 32.3418C37.458 29.4326 38.9697 27.6045 41.3428 27.6045C42.6523 27.6045 43.7246 28.2637 44.2871 29.3359H44.3223V27.7539H46.168V36.833C46.168 39.0391 44.4629 40.4805 41.8262 40.4805ZM48.1104 37V27.7539H50.0088V37H48.1104ZM49.0596 26.4004C48.4531 26.4004 47.9609 25.917 47.9609 25.3193C47.9609 24.7129 48.4531 24.2295 49.0596 24.2295C49.6748 24.2295 50.167 24.7129 50.167 25.3193C50.167 25.917 49.6748 26.4004 49.0596 26.4004ZM52.0215 37V24.3174H53.9199V37H52.0215ZM59.7383 29.1162C58.4111 29.1162 57.4795 30.127 57.3828 31.5244H62.0059C61.9619 30.1094 61.0654 29.1162 59.7383 29.1162ZM61.9971 34.2842H63.7988C63.5352 35.9717 61.9355 37.1758 59.8174 37.1758C57.1016 37.1758 55.458 35.3389 55.458 32.4209C55.458 29.5205 57.1279 27.5869 59.7383 27.5869C62.3047 27.5869 63.9043 29.3975 63.9043 32.2012V32.8516H57.374V32.9658C57.374 34.5742 58.3408 35.6377 59.8613 35.6377C60.9424 35.6377 61.7422 35.0928 61.9971 34.2842ZM68.7031 33.4668H70.6455C70.7861 34.7236 72.0078 35.5498 73.6777 35.5498C75.2773 35.5498 76.4287 34.7236 76.4287 33.5898C76.4287 32.6055 75.7344 32.0166 74.0908 31.6123L72.4473 31.2168C70.1182 30.6543 69.0371 29.5645 69.0371 27.7979C69.0371 25.6094 70.9443 24.1064 73.6514 24.1064C76.332 24.1064 78.1689 25.6094 78.2305 27.7979H76.3145C76.2002 26.5322 75.1543 25.7676 73.625 25.7676C72.0957 25.7676 71.0498 26.541 71.0498 27.666C71.0498 28.5625 71.7178 29.0898 73.3525 29.4941L74.75 29.8369C77.3516 30.4521 78.4326 31.498 78.4326 33.3525C78.4326 35.7256 76.543 37.2109 73.5371 37.2109C70.7246 37.2109 68.8262 35.7607 68.7031 33.4668ZM83.9434 37.1758C81.2979 37.1758 79.5576 35.3564 79.5576 32.377C79.5576 29.4062 81.3066 27.5869 83.9434 27.5869C86.5801 27.5869 88.3291 29.4062 88.3291 32.377C88.3291 35.3564 86.5889 37.1758 83.9434 37.1758ZM83.9434 35.6113C85.4375 35.6113 86.3955 34.4336 86.3955 32.377C86.3955 30.3291 85.4287 29.1514 83.9434 29.1514C82.458 29.1514 81.4912 30.3291 81.4912 32.377C81.4912 34.4336 82.458 35.6113 83.9434 35.6113ZM90.3506 37V29.2568H89.0762V27.7715H90.3506V26.8662C90.3506 25.0732 91.1943 24.2295 93.0752 24.2295C93.4619 24.2295 93.8926 24.2734 94.1387 24.3174V25.7236C93.9541 25.6885 93.6992 25.6709 93.4443 25.6709C92.6182 25.6709 92.2314 26.084 92.2314 26.9014V27.7715H94.1035V29.2568H92.2578V37H90.3506ZM96.1514 25.5654H98.0586V27.7539H99.8164V29.2568H98.0586V34.3545C98.0586 35.1543 98.4102 35.5146 99.1836 35.5146C99.377 35.5146 99.6846 35.4971 99.8076 35.4707V36.9736C99.5967 37.0264 99.1748 37.0615 98.7529 37.0615C96.8809 37.0615 96.1514 36.3496 96.1514 34.5654V29.2568H94.8066V27.7539H96.1514V25.5654ZM113.58 27.7539L111.049 37H109.071L107.129 30.0742H107.085L105.16 37H103.2L100.66 27.7539H102.559L104.246 35.0312H104.281L106.206 27.7539H108.034L109.968 35.0312H110.012L111.699 27.7539H113.58ZM117.816 35.6553C119.144 35.6553 120.181 34.7412 120.181 33.5371V32.8076L117.904 32.9482C116.771 33.0273 116.129 33.5283 116.129 34.3193C116.129 35.1279 116.797 35.6553 117.816 35.6553ZM117.289 37.1582C115.479 37.1582 114.213 36.0332 114.213 34.3721C114.213 32.7549 115.452 31.7617 117.649 31.6387L120.181 31.4893V30.7773C120.181 29.749 119.486 29.1338 118.326 29.1338C117.228 29.1338 116.542 29.6611 116.375 30.4873H114.582C114.688 28.8174 116.111 27.5869 118.396 27.5869C120.638 27.5869 122.07 28.7734 122.07 30.6279V37H120.251V35.4795H120.207C119.671 36.5078 118.502 37.1582 117.289 37.1582ZM123.916 37V27.7539H125.727V29.3271H125.771C126.078 28.2461 126.904 27.6045 127.994 27.6045C128.267 27.6045 128.504 27.6484 128.645 27.6748V29.4414C128.495 29.3799 128.161 29.3359 127.792 29.3359C126.57 29.3359 125.814 30.1533 125.814 31.4629V37H123.916ZM133.285 29.1162C131.958 29.1162 131.026 30.127 130.93 31.5244H135.553C135.509 30.1094 134.612 29.1162 133.285 29.1162ZM135.544 34.2842H137.346C137.082 35.9717 135.482 37.1758 133.364 37.1758C130.648 37.1758 129.005 35.3389 129.005 32.4209C129.005 29.5205 130.675 27.5869 133.285 27.5869C135.852 27.5869 137.451 29.3975 137.451 32.2012V32.8516H130.921V32.9658C130.921 34.5742 131.888 35.6377 133.408 35.6377C134.489 35.6377 135.289 35.0928 135.544 34.2842ZM142.812 24.3174H147.286C151.057 24.3174 153.289 26.6377 153.289 30.6367C153.289 34.6445 151.065 37 147.286 37H142.812V24.3174ZM144.781 26.0137V35.2949H147.102C149.791 35.2949 151.276 33.6514 151.276 30.6543C151.276 27.666 149.782 26.0137 147.102 26.0137H144.781ZM158.809 29.1162C157.481 29.1162 156.55 30.127 156.453 31.5244H161.076C161.032 30.1094 160.136 29.1162 158.809 29.1162ZM161.067 34.2842H162.869C162.605 35.9717 161.006 37.1758 158.888 37.1758C156.172 37.1758 154.528 35.3389 154.528 32.4209C154.528 29.5205 156.198 27.5869 158.809 27.5869C161.375 27.5869 162.975 29.3975 162.975 32.2012V32.8516H156.444V32.9658C156.444 34.5742 157.411 35.6377 158.932 35.6377C160.013 35.6377 160.812 35.0928 161.067 34.2842ZM172.291 27.7539L168.978 37H166.938L163.607 27.7539H165.629L167.949 35.1455H167.984L170.305 27.7539H172.291ZM176.984 29.1162C175.657 29.1162 174.726 30.127 174.629 31.5244H179.252C179.208 30.1094 178.312 29.1162 176.984 29.1162ZM179.243 34.2842H181.045C180.781 35.9717 179.182 37.1758 177.063 37.1758C174.348 37.1758 172.704 35.3389 172.704 32.4209C172.704 29.5205 174.374 27.5869 176.984 27.5869C179.551 27.5869 181.15 29.3975 181.15 32.2012V32.8516H174.62V32.9658C174.62 34.5742 175.587 35.6377 177.107 35.6377C178.188 35.6377 178.988 35.0928 179.243 34.2842ZM182.697 37V24.3174H184.596V37H182.697ZM190.52 37.1758C187.874 37.1758 186.134 35.3564 186.134 32.377C186.134 29.4062 187.883 27.5869 190.52 27.5869C193.156 27.5869 194.905 29.4062 194.905 32.377C194.905 35.3564 193.165 37.1758 190.52 37.1758ZM190.52 35.6113C192.014 35.6113 192.972 34.4336 192.972 32.377C192.972 30.3291 192.005 29.1514 190.52 29.1514C189.034 29.1514 188.067 30.3291 188.067 32.377C188.067 34.4336 189.034 35.6113 190.52 35.6113ZM201.189 27.6045C203.536 27.6045 205.083 29.4502 205.083 32.377C205.083 35.3037 203.545 37.1582 201.225 37.1582C199.897 37.1582 198.843 36.5078 198.315 35.4795H198.271V40.0586H196.373V27.7539H198.21V29.3447H198.245C198.79 28.2812 199.854 27.6045 201.189 27.6045ZM200.688 35.5498C202.191 35.5498 203.132 34.3193 203.132 32.377C203.132 30.4434 202.191 29.2041 200.688 29.2041C199.238 29.2041 198.263 30.4697 198.263 32.377C198.263 34.3018 199.229 35.5498 200.688 35.5498ZM206.551 37V27.7539H208.361V29.3096H208.405C208.818 28.2812 209.785 27.5957 211.033 27.5957C212.316 27.5957 213.248 28.2549 213.617 29.4062H213.661C214.136 28.2812 215.226 27.5957 216.544 27.5957C218.372 27.5957 219.567 28.8086 219.567 30.6455V37H217.66V31.1025C217.66 29.9072 217.019 29.2217 215.894 29.2217C214.769 29.2217 213.986 30.0566 213.986 31.2256V37H212.123V30.9619C212.123 29.8984 211.446 29.2217 210.374 29.2217C209.249 29.2217 208.449 30.1006 208.449 31.2871V37H206.551ZM225.271 29.1162C223.944 29.1162 223.013 30.127 222.916 31.5244H227.539C227.495 30.1094 226.599 29.1162 225.271 29.1162ZM227.53 34.2842H229.332C229.068 35.9717 227.469 37.1758 225.351 37.1758C222.635 37.1758 220.991 35.3389 220.991 32.4209C220.991 29.5205 222.661 27.5869 225.271 27.5869C227.838 27.5869 229.438 29.3975 229.438 32.2012V32.8516H222.907V32.9658C222.907 34.5742 223.874 35.6377 225.395 35.6377C226.476 35.6377 227.275 35.0928 227.53 34.2842ZM230.914 37V27.7539H232.725V29.3008H232.769C233.27 28.2461 234.254 27.5957 235.678 27.5957C237.717 27.5957 238.886 28.8965 238.886 31.0146V37H236.979V31.3838C236.979 29.9951 236.328 29.2305 235.01 29.2305C233.674 29.2305 232.812 30.1797 232.812 31.6123V37H230.914ZM241.276 25.5654H243.184V27.7539H244.941V29.2568H243.184V34.3545C243.184 35.1543 243.535 35.5146 244.309 35.5146C244.502 35.5146 244.81 35.4971 244.933 35.4707V36.9736C244.722 37.0264 244.3 37.0615 243.878 37.0615C242.006 37.0615 241.276 36.3496 241.276 34.5654V29.2568H239.932V27.7539H241.276V25.5654Z" fill="#828282"/>
<rect x="221" y="148" width="85" height="61" rx="5" fill="white"/>
<rect x="221.5" y="148.5" width="84" height="60" rx="4.5" stroke="black" stroke-opacity="0.15"/>
<path d="M252.796 185.211C249.14 185.211 246.854 182.706 246.854 178.663C246.854 174.638 249.14 172.106 252.796 172.106C256.443 172.106 258.737 174.638 258.737 178.663C258.737 181.036 257.946 182.899 256.531 183.998L258.184 186.345H256.127L255.046 184.833C254.369 185.088 253.613 185.211 252.796 185.211ZM252.796 183.488C253.218 183.488 253.613 183.427 253.982 183.312L252.471 181.177H254.466L255.362 182.39C256.224 181.59 256.716 180.298 256.716 178.663C256.716 175.701 255.204 173.829 252.796 173.829C250.388 173.829 248.867 175.701 248.867 178.663C248.867 181.616 250.388 183.488 252.796 183.488ZM260.39 185V175.754H262.2V177.301H262.244C262.745 176.246 263.729 175.596 265.153 175.596C267.192 175.596 268.361 176.896 268.361 179.015V185H266.454V179.384C266.454 177.995 265.804 177.23 264.485 177.23C263.149 177.23 262.288 178.18 262.288 179.612V185H260.39ZM278.688 185L277.528 181.572H272.694L271.534 185H269.486L274.065 172.317H276.192L280.771 185H278.688ZM275.085 174.427L273.195 179.99H277.027L275.138 174.427H275.085Z" fill="#828282"/>
<defs>
<linearGradient id="paint0_linear_1567_4187" x1="448" y1="139.5" x2="312" y2="139.5" gradientUnits="userSpaceOnUse">
<stop stop-color="white" stop-opacity="0"/>
<stop offset="1" stop-color="#276BEF"/>
</linearGradient>
<linearGradient id="paint1_linear_1567_4187" x1="448" y1="63.5" x2="312" y2="63.5" gradientUnits="userSpaceOnUse">
<stop stop-color="white" stop-opacity="0"/>
<stop offset="1" stop-color="#276BEF"/>
</linearGradient>
</defs>
</svg>
