<svg width="370" height="112" viewBox="0 0 370 112" fill="none" xmlns="http://www.w3.org/2000/svg">
<path opacity="0.5" d="M69 33.7588L71.2477 50.2985C73.2685 65.1692 85.9671 76.2588 100.974 76.2588H164C180.569 76.2588 194 89.6902 194 106.259V111.759" stroke="url(#paint0_linear_1701_4221)" stroke-width="5"/>
<path opacity="0.5" d="M319 33.7588L316.752 50.2985C314.731 65.1692 302.033 76.2588 287.026 76.2588H224C207.431 76.2588 194 89.6902 194 106.259V111.759" stroke="url(#paint1_linear_1701_4221)" stroke-width="5"/>
<rect width="154.267" height="31.6136" rx="1.8267" fill="white"/>
<rect x="0.18267" y="0.18267" width="153.902" height="31.2482" rx="1.64403" stroke="black" stroke-opacity="0.15" stroke-width="0.36534"/>
<path d="M27.0532 20.3066H25.522V15.9385H20.4565V20.3066H18.9253V10.4424H20.4565V14.6123H25.522V10.4424H27.0532V20.3066ZM31.0112 19.2607C32.0435 19.2607 32.8501 18.5498 32.8501 17.6133V17.0459L31.0796 17.1553C30.1978 17.2168 29.6987 17.6064 29.6987 18.2217C29.6987 18.8506 30.2183 19.2607 31.0112 19.2607ZM30.6011 20.4297C29.1929 20.4297 28.2085 19.5547 28.2085 18.2627C28.2085 17.0049 29.1724 16.2324 30.8813 16.1367L32.8501 16.0205V15.4668C32.8501 14.667 32.3101 14.1885 31.4077 14.1885C30.5532 14.1885 30.02 14.5986 29.8901 15.2412H28.4956C28.5776 13.9424 29.6851 12.9854 31.4624 12.9854C33.2056 12.9854 34.3198 13.9082 34.3198 15.3506V20.3066H32.9048V19.124H32.8706C32.4536 19.9238 31.5444 20.4297 30.6011 20.4297ZM35.7554 20.3066V13.1152H37.1636V14.3184H37.1978C37.5874 13.498 38.353 12.9922 39.4604 12.9922C41.0464 12.9922 41.9556 14.0039 41.9556 15.6514V20.3066H40.4722V15.9385C40.4722 14.8584 39.9663 14.2637 38.9409 14.2637C37.9019 14.2637 37.2319 15.002 37.2319 16.1162V20.3066H35.7554ZM46.0845 20.4297C44.2661 20.4297 43.063 18.9805 43.063 16.7109C43.063 14.4414 44.2661 12.999 46.0708 12.999C47.103 12.999 47.9233 13.5186 48.3267 14.3115H48.354V10.4424H49.8374V20.3066H48.4019V19.083H48.3745C47.9507 19.9033 47.1304 20.4297 46.0845 20.4297ZM46.4741 14.2432C45.3052 14.2432 44.5737 15.2002 44.5737 16.7109C44.5737 18.2285 45.3052 19.1787 46.4741 19.1787C47.6089 19.1787 48.3677 18.2148 48.3677 16.7109C48.3677 15.2207 47.6089 14.2432 46.4741 14.2432ZM54.4448 20.4434C52.3872 20.4434 51.0337 19.0283 51.0337 16.7109C51.0337 14.4004 52.394 12.9854 54.4448 12.9854C56.4956 12.9854 57.856 14.4004 57.856 16.7109C57.856 19.0283 56.5024 20.4434 54.4448 20.4434ZM54.4448 19.2266C55.6069 19.2266 56.3521 18.3105 56.3521 16.7109C56.3521 15.1182 55.6001 14.2021 54.4448 14.2021C53.2896 14.2021 52.5376 15.1182 52.5376 16.7109C52.5376 18.3105 53.2896 19.2266 54.4448 19.2266ZM64.9448 13.1152L62.3677 20.3066H60.7817L58.1909 13.1152H59.7632L61.5679 18.8643H61.5952L63.3999 13.1152H64.9448ZM68.5952 14.1748C67.563 14.1748 66.8384 14.9609 66.7632 16.0479H70.3589C70.3247 14.9473 69.6274 14.1748 68.5952 14.1748ZM70.3521 18.1943H71.7534C71.5483 19.5068 70.3042 20.4434 68.6567 20.4434C66.5444 20.4434 65.2661 19.0146 65.2661 16.7451C65.2661 14.4893 66.5649 12.9854 68.5952 12.9854C70.5913 12.9854 71.8354 14.3936 71.8354 16.5742V17.0801H66.7563V17.1689C66.7563 18.4199 67.5083 19.2471 68.6909 19.2471C69.5317 19.2471 70.1538 18.8232 70.3521 18.1943ZM72.9839 20.3066V13.1152H74.3921V14.3389H74.4263C74.6655 13.498 75.3081 12.999 76.1558 12.999C76.3677 12.999 76.5522 13.0332 76.6616 13.0537V14.4277C76.5454 14.3799 76.2856 14.3457 75.9985 14.3457C75.0483 14.3457 74.4604 14.9814 74.4604 16V20.3066H72.9839ZM84.7622 20.4707C81.9937 20.4707 80.2437 18.5156 80.2437 15.3711C80.2437 12.2471 82.0073 10.2783 84.7622 10.2783C86.9976 10.2783 88.686 11.6523 88.9458 13.71H87.4282C87.1548 12.4453 86.1021 11.6182 84.7622 11.6182C82.9712 11.6182 81.8091 13.0879 81.8091 15.3711C81.8091 17.6748 82.9575 19.1309 84.769 19.1309C86.1431 19.1309 87.1206 18.4268 87.4282 17.2373H88.9526C88.5767 19.2744 87.0317 20.4707 84.7622 20.4707ZM90.2104 20.3066V10.4424H91.6733V14.3184H91.7075C92.104 13.4775 92.8901 12.9922 93.9839 12.9922C95.563 12.9922 96.5063 14.0449 96.5063 15.6719V20.3066H95.0229V15.959C95.0229 14.8994 94.4897 14.2637 93.4507 14.2637C92.3569 14.2637 91.687 15.0156 91.687 16.1504V20.3066H90.2104ZM100.943 14.1748C99.9106 14.1748 99.186 14.9609 99.1108 16.0479H102.707C102.672 14.9473 101.975 14.1748 100.943 14.1748ZM102.7 18.1943H104.101C103.896 19.5068 102.652 20.4434 101.004 20.4434C98.8921 20.4434 97.6138 19.0146 97.6138 16.7451C97.6138 14.4893 98.9126 12.9854 100.943 12.9854C102.939 12.9854 104.183 14.3936 104.183 16.5742V17.0801H99.104V17.1689C99.104 18.4199 99.856 19.2471 101.039 19.2471C101.879 19.2471 102.501 18.8232 102.7 18.1943ZM111.504 15.5898H110.096C109.946 14.8242 109.372 14.2158 108.408 14.2158C107.266 14.2158 106.514 15.166 106.514 16.7109C106.514 18.29 107.273 19.2061 108.421 19.2061C109.331 19.2061 109.925 18.707 110.096 17.873H111.518C111.361 19.4043 110.137 20.4434 108.408 20.4434C106.35 20.4434 105.01 19.0352 105.01 16.7109C105.01 14.4277 106.35 12.9854 108.394 12.9854C110.247 12.9854 111.375 14.1748 111.504 15.5898ZM114.109 16.1982L117.014 13.1152H118.75L115.77 16.2119L118.867 20.3066H117.151L114.71 17.1143L114.095 17.7227V20.3066H112.619V10.4424H114.095V16.1982H114.109ZM119.687 20.3066V10.4424H121.164V20.3066H119.687ZM122.729 20.3066V13.1152H124.206V20.3066H122.729ZM123.467 12.0625C122.996 12.0625 122.613 11.6865 122.613 11.2217C122.613 10.75 122.996 10.374 123.467 10.374C123.946 10.374 124.329 10.75 124.329 11.2217C124.329 11.6865 123.946 12.0625 123.467 12.0625ZM125.586 15.1523C125.586 13.8672 126.721 12.9854 128.403 12.9854C130.002 12.9854 131.124 13.8809 131.171 15.1592H129.784C129.715 14.5098 129.189 14.1064 128.362 14.1064C127.562 14.1064 127.029 14.4961 127.029 15.0635C127.029 15.5078 127.384 15.8086 128.129 15.9932L129.339 16.2734C130.789 16.6221 131.335 17.1689 131.335 18.2285C131.335 19.541 130.112 20.4434 128.348 20.4434C126.646 20.4434 125.518 19.5615 125.402 18.2422H126.865C126.981 18.9326 127.514 19.3154 128.417 19.3154C129.305 19.3154 129.852 18.9463 129.852 18.3652C129.852 17.9072 129.579 17.6543 128.827 17.4629L127.542 17.1484C126.243 16.834 125.586 16.1572 125.586 15.1523ZM132.915 11.4131H134.398V13.1152H135.765V14.2842H134.398V18.249C134.398 18.8711 134.671 19.1514 135.273 19.1514C135.423 19.1514 135.663 19.1377 135.758 19.1172V20.2861C135.594 20.3271 135.266 20.3545 134.938 20.3545C133.482 20.3545 132.915 19.8008 132.915 18.4131V14.2842H131.869V13.1152H132.915V11.4131Z" fill="#828282"/>
<rect x="272" width="97.267" height="31.6136" rx="1.8267" fill="white"/>
<rect x="272.183" y="0.18267" width="96.9016" height="31.2482" rx="1.64403" stroke="black" stroke-opacity="0.15" stroke-width="0.36534"/>
<path d="M292.023 20.3066H290.622V13.0469H290.574L287.6 20.2314H286.465L283.485 13.0469H283.437V20.3066H282.042V10.4424H283.813L287.005 18.2285H287.06L290.246 10.4424H292.023V20.3066ZM295.988 19.2607C297.02 19.2607 297.827 18.5498 297.827 17.6133V17.0459L296.056 17.1553C295.174 17.2168 294.675 17.6064 294.675 18.2217C294.675 18.8506 295.195 19.2607 295.988 19.2607ZM295.578 20.4297C294.169 20.4297 293.185 19.5547 293.185 18.2627C293.185 17.0049 294.149 16.2324 295.858 16.1367L297.827 16.0205V15.4668C297.827 14.667 297.287 14.1885 296.384 14.1885C295.53 14.1885 294.997 14.5986 294.867 15.2412H293.472C293.554 13.9424 294.662 12.9854 296.439 12.9854C298.182 12.9854 299.296 13.9082 299.296 15.3506V20.3066H297.881V19.124H297.847C297.43 19.9238 296.521 20.4297 295.578 20.4297ZM300.78 20.3066V13.1152H302.256V20.3066H300.78ZM301.518 12.0625C301.046 12.0625 300.664 11.6865 300.664 11.2217C300.664 10.75 301.046 10.374 301.518 10.374C301.997 10.374 302.379 10.75 302.379 11.2217C302.379 11.6865 301.997 12.0625 301.518 12.0625ZM303.767 20.3066V13.1152H305.175V14.3184H305.209C305.599 13.498 306.365 12.9922 307.472 12.9922C309.058 12.9922 309.967 14.0039 309.967 15.6514V20.3066H308.484V15.9385C308.484 14.8584 307.978 14.2637 306.953 14.2637C305.914 14.2637 305.244 15.002 305.244 16.1162V20.3066H303.767ZM311.827 11.4131H313.31V13.1152H314.677V14.2842H313.31V18.249C313.31 18.8711 313.583 19.1514 314.185 19.1514C314.335 19.1514 314.575 19.1377 314.67 19.1172V20.2861C314.506 20.3271 314.178 20.3545 313.85 20.3545C312.394 20.3545 311.827 19.8008 311.827 18.4131V14.2842H310.781V13.1152H311.827V11.4131ZM318.724 14.1748C317.692 14.1748 316.967 14.9609 316.892 16.0479H320.488C320.454 14.9473 319.756 14.1748 318.724 14.1748ZM320.481 18.1943H321.882C321.677 19.5068 320.433 20.4434 318.786 20.4434C316.673 20.4434 315.395 19.0146 315.395 16.7451C315.395 14.4893 316.694 12.9854 318.724 12.9854C320.72 12.9854 321.964 14.3936 321.964 16.5742V17.0801H316.885V17.1689C316.885 18.4199 317.637 19.2471 318.82 19.2471C319.661 19.2471 320.283 18.8232 320.481 18.1943ZM323.113 20.3066V13.1152H324.521V14.3184H324.555C324.945 13.498 325.71 12.9922 326.818 12.9922C328.404 12.9922 329.313 14.0039 329.313 15.6514V20.3066H327.83V15.9385C327.83 14.8584 327.324 14.2637 326.298 14.2637C325.259 14.2637 324.589 15.002 324.589 16.1162V20.3066H323.113ZM333.257 19.2607C334.29 19.2607 335.096 18.5498 335.096 17.6133V17.0459L333.326 17.1553C332.444 17.2168 331.945 17.6064 331.945 18.2217C331.945 18.8506 332.464 19.2607 333.257 19.2607ZM332.847 20.4297C331.439 20.4297 330.455 19.5547 330.455 18.2627C330.455 17.0049 331.418 16.2324 333.127 16.1367L335.096 16.0205V15.4668C335.096 14.667 334.556 14.1885 333.654 14.1885C332.799 14.1885 332.266 14.5986 332.136 15.2412H330.742C330.824 13.9424 331.931 12.9854 333.708 12.9854C335.452 12.9854 336.566 13.9082 336.566 15.3506V20.3066H335.151V19.124H335.117C334.7 19.9238 333.791 20.4297 332.847 20.4297ZM338.001 20.3066V13.1152H339.41V14.3184H339.444C339.833 13.498 340.599 12.9922 341.707 12.9922C343.292 12.9922 344.202 14.0039 344.202 15.6514V20.3066H342.718V15.9385C342.718 14.8584 342.212 14.2637 341.187 14.2637C340.148 14.2637 339.478 15.002 339.478 16.1162V20.3066H338.001ZM351.803 15.5898H350.395C350.245 14.8242 349.67 14.2158 348.707 14.2158C347.565 14.2158 346.813 15.166 346.813 16.7109C346.813 18.29 347.572 19.2061 348.72 19.2061C349.629 19.2061 350.224 18.707 350.395 17.873H351.817C351.66 19.4043 350.436 20.4434 348.707 20.4434C346.649 20.4434 345.309 19.0352 345.309 16.7109C345.309 14.4277 346.649 12.9854 348.693 12.9854C350.545 12.9854 351.673 14.1748 351.803 15.5898ZM355.871 14.1748C354.838 14.1748 354.114 14.9609 354.039 16.0479H357.634C357.6 14.9473 356.903 14.1748 355.871 14.1748ZM357.627 18.1943H359.029C358.824 19.5068 357.58 20.4434 355.932 20.4434C353.82 20.4434 352.542 19.0146 352.542 16.7451C352.542 14.4893 353.84 12.9854 355.871 12.9854C357.867 12.9854 359.111 14.3936 359.111 16.5742V17.0801H354.032V17.1689C354.032 18.4199 354.784 19.2471 355.966 19.2471C356.807 19.2471 357.429 18.8232 357.627 18.1943Z" fill="#828282"/>
<defs>
<linearGradient id="paint0_linear_1701_4221" x1="210.914" y1="138.259" x2="70.6889" y2="65.2459" gradientUnits="userSpaceOnUse">
<stop stop-color="white" stop-opacity="0"/>
<stop offset="1" stop-color="#276BEF"/>
</linearGradient>
<linearGradient id="paint1_linear_1701_4221" x1="177.086" y1="138.259" x2="317.311" y2="65.2459" gradientUnits="userSpaceOnUse">
<stop stop-color="white" stop-opacity="0"/>
<stop offset="1" stop-color="#276BEF"/>
</linearGradient>
</defs>
</svg>
