<svg width="344" height="259" viewBox="0 0 344 259" fill="none" xmlns="http://www.w3.org/2000/svg">
<path d="M0 132H33C49.5685 132 63 145.431 63 162V202C63 218.569 76.4315 232 93 232H136" stroke="url(#paint0_linear_1567_4166)" stroke-width="5"/>
<path d="M0 125H33C49.5685 125 63 111.569 63 95V55C63 38.4315 76.4315 25 93 25H136" stroke="url(#paint1_linear_1567_4166)" stroke-width="5"/>
<rect x="136" y="198" width="208" height="61" rx="5" fill="white"/>
<rect x="136.5" y="198.5" width="207" height="60" rx="4.5" stroke="black" stroke-opacity="0.15"/>
<path d="M165.746 235L161.229 222.317H163.347L166.81 232.812H166.854L170.316 222.317H172.435L167.917 235H165.746ZM176.328 235.185C173.612 235.185 171.969 233.33 171.969 230.412V230.403C171.969 227.512 173.639 225.578 176.231 225.578C178.824 225.578 180.415 227.441 180.415 230.219V230.86H173.867C173.902 232.609 174.86 233.629 176.372 233.629C177.497 233.629 178.244 233.049 178.481 232.354L178.508 232.284H180.31L180.292 232.381C179.993 233.849 178.569 235.185 176.328 235.185ZM176.24 227.134C175.01 227.134 174.061 227.969 173.894 229.516H178.534C178.376 227.916 177.479 227.134 176.24 227.134ZM181.892 235V225.754H183.79V227.336H183.834C184.133 226.255 184.906 225.578 185.961 225.578C186.233 225.578 186.471 225.622 186.62 225.648V227.415C186.471 227.354 186.137 227.31 185.768 227.31C184.546 227.31 183.79 228.109 183.79 229.489V235H181.892ZM188.826 224.33C188.211 224.33 187.719 223.838 187.719 223.24C187.719 222.634 188.211 222.142 188.826 222.142C189.45 222.142 189.934 222.634 189.934 223.24C189.934 223.838 189.45 224.33 188.826 224.33ZM187.877 235V225.754H189.775V235H187.877ZM192.289 235V227.266H191.015V225.754H192.289V224.77C192.289 222.977 193.133 222.133 195.014 222.133C195.4 222.133 195.822 222.168 196.077 222.212V223.618C195.893 223.592 195.655 223.574 195.418 223.574C194.565 223.574 194.161 223.987 194.161 224.805V225.754H196.042V227.266H194.196V235H192.289ZM198.564 224.33C197.949 224.33 197.457 223.838 197.457 223.24C197.457 222.634 197.949 222.142 198.564 222.142C199.188 222.142 199.672 222.634 199.672 223.24C199.672 223.838 199.188 224.33 198.564 224.33ZM197.615 235V225.754H199.514V235H197.615ZM204.189 235.167C202.344 235.167 201.104 234.033 201.104 232.372V232.354C201.104 230.746 202.353 229.762 204.541 229.63L207.055 229.48V228.786C207.055 227.767 206.396 227.151 205.218 227.151C204.119 227.151 203.442 227.67 203.284 228.408L203.267 228.487H201.474L201.482 228.391C201.614 226.8 202.994 225.578 205.271 225.578C207.529 225.578 208.962 226.773 208.962 228.628V235H207.055V233.541H207.02C206.483 234.534 205.411 235.167 204.189 235.167ZM203.021 232.328C203.021 233.137 203.688 233.646 204.708 233.646C206.044 233.646 207.055 232.741 207.055 231.537V230.816L204.796 230.957C203.653 231.027 203.021 231.528 203.021 232.311V232.328ZM215.721 235.185C214.394 235.185 213.365 234.517 212.82 233.436H212.776V235H210.878V222.317H212.776V227.327H212.82C213.374 226.237 214.429 225.578 215.738 225.578C218.059 225.578 219.588 227.424 219.588 230.368V230.377C219.588 233.321 218.067 235.185 215.721 235.185ZM215.22 233.55C216.714 233.55 217.646 232.346 217.646 230.377V230.368C217.646 228.417 216.714 227.204 215.22 227.204C213.787 227.204 212.768 228.452 212.768 230.368V230.377C212.768 232.302 213.778 233.55 215.22 233.55ZM221.126 235V222.317H223.024V235H221.126ZM228.922 235.185C226.206 235.185 224.562 233.33 224.562 230.412V230.403C224.562 227.512 226.232 225.578 228.825 225.578C231.418 225.578 233.009 227.441 233.009 230.219V230.86H226.461C226.496 232.609 227.454 233.629 228.966 233.629C230.091 233.629 230.838 233.049 231.075 232.354L231.102 232.284H232.903L232.886 232.381C232.587 233.849 231.163 235.185 228.922 235.185ZM228.834 227.134C227.604 227.134 226.654 227.969 226.487 229.516H231.128C230.97 227.916 230.073 227.134 228.834 227.134ZM243.854 235.211C240.198 235.211 237.913 232.697 237.913 228.663V228.646C237.913 224.62 240.207 222.106 243.854 222.106C247.511 222.106 249.796 224.629 249.796 228.646V228.663C249.796 232.688 247.52 235.211 243.854 235.211ZM243.854 233.471C246.289 233.471 247.783 231.59 247.783 228.663V228.646C247.783 225.701 246.263 223.847 243.854 223.847C241.455 223.847 239.917 225.692 239.917 228.646V228.663C239.917 231.616 241.446 233.471 243.854 233.471ZM254.595 235.185C252.564 235.185 251.404 233.875 251.404 231.748V225.754H253.303V231.379C253.303 232.776 253.953 233.55 255.271 233.55C256.607 233.55 257.469 232.592 257.469 231.15V225.754H259.376V235H257.469V233.611H257.425C256.941 234.543 256.001 235.185 254.595 235.185ZM264.5 235.185C262.672 235.185 261.793 234.411 261.793 232.565V227.266H260.466V225.754H261.793V223.346H263.735V225.754H265.467V227.266H263.735V232.451C263.735 233.392 264.157 233.673 264.957 233.673C265.159 233.673 265.326 233.655 265.467 233.638V235.105C265.247 235.141 264.887 235.185 264.5 235.185ZM270.784 235.185C268.086 235.185 266.398 233.33 266.398 230.368V230.359C266.398 227.433 268.121 225.578 270.758 225.578C273.14 225.578 274.581 227.107 274.739 228.848L274.748 228.909H272.938L272.92 228.839C272.718 227.934 272.015 227.169 270.775 227.169C269.299 227.169 268.341 228.399 268.341 230.377V230.386C268.341 232.407 269.316 233.594 270.784 233.594C271.953 233.594 272.7 232.917 272.929 231.915L272.938 231.845H274.766L274.757 231.906C274.555 233.761 273.008 235.185 270.784 235.185ZM280.083 235.185C277.429 235.185 275.697 233.348 275.697 230.377V230.359C275.697 227.406 277.446 225.578 280.074 225.578C282.711 225.578 284.469 227.397 284.469 230.359V230.377C284.469 233.356 282.729 235.185 280.083 235.185ZM280.092 233.594C281.577 233.594 282.526 232.416 282.526 230.377V230.359C282.526 228.338 281.56 227.169 280.074 227.169C278.615 227.169 277.64 228.338 277.64 230.359V230.377C277.64 232.425 278.606 233.594 280.092 233.594ZM285.937 235V225.754H287.835V227.187H287.879C288.274 226.22 289.215 225.578 290.428 225.578C291.702 225.578 292.634 226.237 293.003 227.397H293.047C293.521 226.272 294.611 225.578 295.93 225.578C297.758 225.578 298.953 226.791 298.953 228.646V235H297.046V229.103C297.046 227.898 296.404 227.204 295.279 227.204C294.154 227.204 293.372 228.048 293.372 229.217V235H291.509V228.962C291.509 227.89 290.832 227.204 289.76 227.204C288.635 227.204 287.835 228.092 287.835 229.287V235H285.937ZM304.736 235.185C302.021 235.185 300.377 233.33 300.377 230.412V230.403C300.377 227.512 302.047 225.578 304.64 225.578C307.232 225.578 308.823 227.441 308.823 230.219V230.86H302.275C302.311 232.609 303.269 233.629 304.78 233.629C305.905 233.629 306.652 233.049 306.89 232.354L306.916 232.284H308.718L308.7 232.381C308.401 233.849 306.978 235.185 304.736 235.185ZM304.648 227.134C303.418 227.134 302.469 227.969 302.302 229.516H306.942C306.784 227.916 305.888 227.134 304.648 227.134ZM313.763 235.185C311.451 235.185 310.098 234.042 309.904 232.354L309.896 232.275H311.776L311.794 232.363C311.97 233.216 312.603 233.717 313.771 233.717C314.914 233.717 315.6 233.242 315.6 232.495V232.486C315.6 231.889 315.266 231.546 314.272 231.309L312.761 230.966C311.003 230.562 310.133 229.718 310.133 228.373V228.364C310.133 226.712 311.574 225.578 313.701 225.578C315.89 225.578 317.208 226.8 317.305 228.373L317.313 228.479H315.529L315.521 228.417C315.406 227.608 314.773 227.046 313.701 227.046C312.682 227.046 312.04 227.529 312.04 228.268V228.276C312.04 228.848 312.418 229.234 313.411 229.472L314.914 229.814C316.804 230.254 317.524 231.001 317.524 232.328V232.337C317.524 234.024 315.942 235.185 313.763 235.185Z" fill="#828282"/>
<rect x="136" width="171" height="61" rx="5" fill="white"/>
<rect x="136.5" y="0.5" width="170" height="60" rx="4.5" stroke="black" stroke-opacity="0.15"/>
<path d="M171.248 37.2109C167.653 37.2109 165.368 34.6797 165.368 30.6543V30.6455C165.368 26.6201 167.653 24.1064 171.248 24.1064C174.043 24.1064 176.144 25.8291 176.539 28.334L176.557 28.4131H174.605L174.553 28.2373C174.131 26.752 172.953 25.8467 171.248 25.8467C168.893 25.8467 167.381 27.71 167.381 30.6455V30.6543C167.381 33.5898 168.901 35.4707 171.248 35.4707C172.936 35.4707 174.104 34.5918 174.579 32.9834L174.605 32.9043H176.557L176.548 32.9922C176.152 35.5146 174.052 37.2109 171.248 37.2109ZM182.085 37.1846C179.431 37.1846 177.699 35.3477 177.699 32.377V32.3594C177.699 29.4062 179.448 27.5781 182.076 27.5781C184.713 27.5781 186.471 29.3975 186.471 32.3594V32.377C186.471 35.3564 184.73 37.1846 182.085 37.1846ZM182.094 35.5938C183.579 35.5938 184.528 34.416 184.528 32.377V32.3594C184.528 30.3379 183.562 29.1689 182.076 29.1689C180.617 29.1689 179.642 30.3379 179.642 32.3594V32.377C179.642 34.4248 180.608 35.5938 182.094 35.5938ZM187.938 37V27.7539H189.837V29.1514H189.881C190.364 28.2109 191.313 27.5781 192.711 27.5781C194.741 27.5781 195.91 28.8877 195.91 31.0146V37H194.003V31.375C194.003 29.9863 193.353 29.2041 192.034 29.2041C190.698 29.2041 189.837 30.1709 189.837 31.6123V37H187.938ZM201.72 37.1846C199.021 37.1846 197.334 35.3301 197.334 32.3682V32.3594C197.334 29.4326 199.057 27.5781 201.693 27.5781C204.075 27.5781 205.517 29.1074 205.675 30.8477L205.684 30.9092H203.873L203.855 30.8389C203.653 29.9336 202.95 29.1689 201.711 29.1689C200.234 29.1689 199.276 30.3994 199.276 32.377V32.3857C199.276 34.4072 200.252 35.5938 201.72 35.5938C202.889 35.5938 203.636 34.917 203.864 33.915L203.873 33.8447H205.701L205.692 33.9062C205.49 35.7607 203.943 37.1846 201.72 37.1846ZM210.992 37.1846C208.276 37.1846 206.633 35.3301 206.633 32.4121V32.4033C206.633 29.5117 208.303 27.5781 210.896 27.5781C213.488 27.5781 215.079 29.4414 215.079 32.2188V32.8604H208.531C208.566 34.6094 209.524 35.6289 211.036 35.6289C212.161 35.6289 212.908 35.0488 213.146 34.3545L213.172 34.2842H214.974L214.956 34.3809C214.657 35.8486 213.233 37.1846 210.992 37.1846ZM210.904 29.1338C209.674 29.1338 208.725 29.9688 208.558 31.5156H213.198C213.04 29.916 212.144 29.1338 210.904 29.1338ZM216.556 40.0762V27.7539H218.454V29.3447H218.498C219.052 28.2461 220.071 27.5781 221.39 27.5781C223.745 27.5781 225.257 29.4238 225.257 32.377V32.3857C225.257 35.3301 223.736 37.1846 221.416 37.1846C220.106 37.1846 219.043 36.5166 218.498 35.4443H218.454V40.0762H216.556ZM220.897 35.5498C222.392 35.5498 223.323 34.3369 223.323 32.3857V32.377C223.323 30.4082 222.383 29.2041 220.897 29.2041C219.456 29.2041 218.445 30.4521 218.445 32.377V32.3857C218.445 34.3018 219.465 35.5498 220.897 35.5498ZM229.977 37.1846C228.148 37.1846 227.27 36.4111 227.27 34.5654V29.2656H225.942V27.7539H227.27V25.3457H229.212V27.7539H230.943V29.2656H229.212V34.4512C229.212 35.3916 229.634 35.6729 230.434 35.6729C230.636 35.6729 230.803 35.6553 230.943 35.6377V37.1055C230.724 37.1406 230.363 37.1846 229.977 37.1846ZM236.401 37V24.3174H240.875C244.637 24.3174 246.878 26.6289 246.878 30.6191V30.6367C246.878 34.6445 244.654 37 240.875 37H236.401ZM238.37 35.2949H240.69C243.38 35.2949 244.865 33.6514 244.865 30.6543V30.6367C244.865 27.6572 243.362 26.0137 240.69 26.0137H238.37V35.2949ZM252.477 37.1846C249.761 37.1846 248.117 35.3301 248.117 32.4121V32.4033C248.117 29.5117 249.787 27.5781 252.38 27.5781C254.973 27.5781 256.563 29.4414 256.563 32.2188V32.8604H250.016C250.051 34.6094 251.009 35.6289 252.521 35.6289C253.646 35.6289 254.393 35.0488 254.63 34.3545L254.656 34.2842H256.458L256.44 34.3809C256.142 35.8486 254.718 37.1846 252.477 37.1846ZM252.389 29.1338C251.158 29.1338 250.209 29.9688 250.042 31.5156H254.683C254.524 29.916 253.628 29.1338 252.389 29.1338ZM258.04 37V27.7539H259.938V29.1865H259.982C260.378 28.2197 261.318 27.5781 262.531 27.5781C263.806 27.5781 264.737 28.2373 265.106 29.3975H265.15C265.625 28.2725 266.715 27.5781 268.033 27.5781C269.861 27.5781 271.057 28.791 271.057 30.6455V37H269.149V31.1025C269.149 29.8984 268.508 29.2041 267.383 29.2041C266.258 29.2041 265.476 30.0479 265.476 31.2168V37H263.612V30.9619C263.612 29.8896 262.936 29.2041 261.863 29.2041C260.738 29.2041 259.938 30.0918 259.938 31.2871V37H258.04ZM276.866 37.1846C274.212 37.1846 272.48 35.3477 272.48 32.377V32.3594C272.48 29.4062 274.229 27.5781 276.857 27.5781C279.494 27.5781 281.252 29.3975 281.252 32.3594V32.377C281.252 35.3564 279.512 37.1846 276.866 37.1846ZM276.875 35.5938C278.36 35.5938 279.31 34.416 279.31 32.377V32.3594C279.31 30.3379 278.343 29.1689 276.857 29.1689C275.398 29.1689 274.423 30.3379 274.423 32.3594V32.377C274.423 34.4248 275.39 35.5938 276.875 35.5938Z" fill="#828282"/>
<defs>
<linearGradient id="paint0_linear_1567_4166" x1="0" y1="182" x2="136" y2="182" gradientUnits="userSpaceOnUse">
<stop stop-color="white" stop-opacity="0"/>
<stop offset="1" stop-color="#276BEF"/>
</linearGradient>
<linearGradient id="paint1_linear_1567_4166" x1="0" y1="75" x2="136" y2="75" gradientUnits="userSpaceOnUse">
<stop stop-color="white" stop-opacity="0"/>
<stop offset="1" stop-color="#276BEF"/>
</linearGradient>
</defs>
</svg>
