<?xml version="1.0" encoding="utf-8"?>
<!-- Generator: Adobe Illustrator 27.5.0, SVG Export Plug-In . SVG Version: 6.00 Build 0)  -->
<svg version="1.1" xmlns="http://www.w3.org/2000/svg" xmlns:xlink="http://www.w3.org/1999/xlink" x="0px" y="0px"
	 viewBox="0 0 500 500" style="enable-background:new 0 0 500 500;" xml:space="preserve">
<g id="Background">
</g>
<g id="Objects">
	<g>
		<g>
			<path style="fill:#D7EFF9;" d="M348.46,144.994c-28.04-8.919-61.13-13.167-90.499-14.613
				c-53.33-2.627-107.359,11.309-152.766,39.401c-24.335,15.056-46.732,34.743-59.452,60.376
				c-31.92,64.325,18.253,123.278,81.202,135.807c31.744,6.318,64.488,3.684,96.789,1.638c41.977-2.659,84.119-4.28,126.082-1.414
				c16.005,1.093,32.28,2.82,47.939-0.666c36.667-8.163,62.348-44.857,65.9-82.252c2.957-31.138-7.442-63.32-28.061-86.84
				c-8.901-10.152-19.541-18.641-31.033-25.683C386.592,159.739,367.88,151.172,348.46,144.994z"/>
			<g>
				<g>
					<polygon style="fill:#A7A9AC;" points="396.873,195.897 389.238,201.091 401.114,204.239 401.114,214.278 406.911,207.208 
						420.061,210.551 433.069,181.758 					"/>
					<g>
						<g>
							<g>
								<polygon style="fill:#FFFFFF;" points="399.832,201.091 399.832,210.551 407.951,201.959 								"/>
								<polygon style="fill:#FFFFFF;" points="401.868,201.959 433.841,176.197 418.602,206.253 								"/>
								<polygon style="fill:#FFFFFF;" points="433.841,176.197 388.703,196.35 401.868,201.959 								"/>
								<polygon style="fill:#19365A;" points="401.868,201.959 399.832,201.091 433.841,176.197 								"/>
							</g>
						</g>
					</g>
				</g>
				
					<path style="fill:none;stroke:#244E80;stroke-width:0.8504;stroke-linecap:round;stroke-linejoin:round;stroke-miterlimit:10;stroke-dasharray:2.8347;" d="
					M397.727,216.998c-9.561,8.538-22.935,11.738-35.751,11.53c-5.586-0.091-11.269-0.8-16.328-3.17
					c-2.624-1.229-5.102-2.953-6.681-5.382c-1.579-2.429-2.13-5.647-0.911-8.275c1.22-2.628,4.427-4.336,7.168-3.399
					c2.944,1.007,4.378,4.627,3.749,7.674c-0.629,3.048-2.836,5.536-5.275,7.469c-6.122,4.85-14.067,7.035-21.877,7.129
					c-7.81,0.093-15.527-1.782-22.898-4.364"/>
			</g>
			<path style="fill:#FFFFFF;" d="M177.884,206.299c1.1-0.029,2.231-0.065,3.242-0.5c0.756-0.326,1.407-0.861,1.966-1.466
				c3.896-4.21,2.451-12.049-2.691-14.592c-5.142-2.543-12.25,1.064-13.232,6.716c-0.42-1.765-2.029-3.182-3.833-3.375
				c-1.804-0.194-3.676,0.849-4.462,2.485c-1.194-4.54-3.23-9.054-6.859-12.032c-3.629-2.978-9.12-4.026-13.093-1.525
				c-5.036,3.17-5.699,10.179-5.306,16.117c-0.26-3.931-8.056,0.323-8.828,2.255c-3.201-2.347-9.267,0.172-6.359,4.071
				c2.448,3.282,10.897,2.655,14.353,2.643C147.816,207.047,162.856,206.691,177.884,206.299z"/>
			<path style="fill:#D7EFF9;" d="M381.2,130.981c1.1-0.029,2.231-0.065,3.242-0.5c0.756-0.326,1.407-0.861,1.966-1.466
				c3.896-4.21,2.451-12.049-2.691-14.592c-5.142-2.543-12.249,1.064-13.231,6.716c-0.42-1.765-2.029-3.182-3.833-3.375
				c-1.804-0.194-3.677,0.849-4.462,2.485c-1.193-4.54-3.23-9.054-6.859-12.032c-3.629-2.978-9.121-4.026-13.093-1.525
				c-5.036,3.17-5.698,10.179-5.306,16.117c-0.259-3.931-8.056,0.323-8.828,2.256c-3.201-2.347-9.267,0.172-6.358,4.071
				c2.448,3.282,10.897,2.654,14.353,2.643C351.131,131.729,366.171,131.373,381.2,130.981z"/>
		</g>
		<g>
			<g>
				<path style="fill:#19365A;" d="M316.839,366.891l-31.686-3.466l4.192-38.323c0.482-4.407,4.483-7.619,8.89-7.137l15.66,1.713
					c4.407,0.482,7.619,4.482,7.137,8.89L316.839,366.891z"/>
				<path style="fill:#A05E47;" d="M281.676,317.084c-0.041-0.01-4.161-0.99-8.033-4.922c-5.273-5.355-7.74-13.517-7.332-24.26
					c0-0.011-0.001-0.022,0-0.034c-4.014-0.66-11.226-0.401-11.226-0.401c-0.683,17.942,5.619,28.001,11.114,33.278
					c6.113,5.87,12.449,7.293,13.151,7.436c0.382,0.077,0.764,0.115,1.14,0.115c2.645,0,5.032-1.848,5.579-4.533
					C286.692,320.694,284.744,317.708,281.676,317.084z"/>
				<path style="fill:#E59B39;" d="M279.502,328.484c0.394,0.08,0.788,0.119,1.176,0.119c2.73,0,5.194-1.907,5.759-4.679
					c0.644-3.167-1.367-6.249-4.534-6.894c-0.042-0.01-4.295-1.022-8.292-5.08c-0.928-0.943-1.766-1.976-2.525-3.086l-8.409,8.318
					c1.08,1.398,2.182,2.601,3.251,3.627C272.237,326.868,278.777,328.337,279.502,328.484z"/>
				<path style="fill:#A05E47;" d="M266.01,281.855c-0.069-0.478-0.159-0.977-0.461-1.353c-0.302-0.377-0.883-0.574-1.28-0.3
					c-0.609,0.42-0.283,1.4-0.59,2.074c-0.23,0.505-0.803,0.774-1.355,0.837c-0.552,0.063-1.108-0.036-1.663-0.053
					c-2.663-0.077-5.214,2.042-5.627,4.673c-0.078,0.496-0.076,1.043,0.215,1.451c0.368,0.516,1.065,0.649,1.692,0.741
					c1.684,0.247,3.386,0.495,5.083,0.356c1.529-0.125,4.058-0.549,4.304-2.32C266.595,286.034,266.288,283.769,266.01,281.855z"/>
				<path style="fill:#632A1A;" d="M257.526,289.029c-0.071-0.078-0.139-0.168-0.202-0.271c-0.057-0.092-0.028-0.213,0.064-0.27
					c0.093-0.057,0.214-0.031,0.27,0.064c0.174,0.282,0.373,0.43,0.593,0.44c0.432,0.024,0.91-0.462,1.058-0.651
					c0.034-0.043,0.083-0.07,0.137-0.075c0.054-0.005,0.108,0.014,0.149,0.05c0.335,0.303,0.631,0.425,0.881,0.364
					c0.381-0.093,0.57-0.589,0.572-0.594c0.026-0.071,0.091-0.12,0.165-0.127c0.075-0.007,0.147,0.029,0.186,0.093
					c0.17,0.282,0.355,0.444,0.549,0.478c0.211,0.04,0.371-0.083,0.378-0.088c1.6-1.149-0.351-4.891-0.371-4.928
					c-0.051-0.096-0.013-0.214,0.082-0.265c0.096-0.051,0.21-0.016,0.265,0.082c0.088,0.166,2.129,4.083,0.259,5.425
					c-0.003,0.003-0.289,0.23-0.677,0.162c-0.229-0.04-0.436-0.169-0.629-0.392c-0.134,0.206-0.357,0.453-0.686,0.535
					c-0.339,0.084-0.704-0.025-1.087-0.324c-0.227,0.241-0.715,0.677-1.254,0.648C257.966,289.37,257.73,289.251,257.526,289.029z"
					/>
				<path style="fill:#632A1A;" d="M261.086,288.287c-0.025-0.027-0.043-0.062-0.049-0.102c-0.006-0.038-0.602-3.767-1.135-4.786
					c-0.051-0.096-0.013-0.214,0.083-0.264c0.096-0.051,0.218-0.013,0.264,0.083c0.562,1.076,1.15,4.75,1.175,4.906
					c0.017,0.107-0.056,0.208-0.163,0.224C261.194,288.359,261.129,288.333,261.086,288.287z"/>
				<path style="fill:#632A1A;" d="M259.318,288.594c-0.024-0.026-0.042-0.06-0.048-0.098c-0.007-0.037-0.677-3.717-1.205-4.648
					c-0.053-0.094-0.02-0.214,0.074-0.268c0.094-0.053,0.211-0.022,0.268,0.074c0.56,0.989,1.221,4.618,1.248,4.772
					c0.02,0.106-0.051,0.209-0.158,0.228C259.429,288.667,259.362,288.642,259.318,288.594z"/>
				<path style="fill:#632A1A;" d="M263.005,287.648c-0.044-0.048-0.063-0.118-0.045-0.186c0.076-0.268,0.278-0.5,0.533-0.611
					c-0.23-0.546-0.421-1.025-0.531-1.536c-0.137-0.634-0.118-1.212,0.055-1.715c0.093-0.273,0.222-0.468,0.394-0.598
					c0.28-0.211,0.7-0.237,1.07-0.069c0.326,0.151,0.566,0.411,0.758,0.647c0.574,0.704,0.985,1.518,1.187,2.352
					c0.025,0.105-0.039,0.211-0.145,0.237c-0.105,0.025-0.211-0.04-0.237-0.145c-0.189-0.778-0.572-1.537-1.109-2.196
					c-0.162-0.203-0.364-0.422-0.617-0.538c-0.24-0.11-0.503-0.1-0.67,0.025c-0.107,0.08-0.192,0.215-0.258,0.411
					c-0.149,0.435-0.164,0.941-0.042,1.505c0.107,0.497,0.301,0.974,0.526,1.501c0.023,0.056,0.069,0.168,0.015,0.288
					c-0.05,0.113-0.155,0.156-0.212,0.178c-0.166,0.066-0.291,0.206-0.336,0.368c-0.03,0.104-0.138,0.165-0.242,0.136
					C263.06,287.694,263.029,287.674,263.005,287.648z"/>
				<path style="fill:#FBB040;" d="M272.22,325.298l2.738,35.431c0,0,8.001,4.357,19.294,3.044
					c11.293-1.313,13.767-6.303,13.767-6.303s-1.951-34.765-2.279-35.109c-0.328-0.344-1.664-11.768-18.004-9.434
					C271.395,315.259,272.22,325.298,272.22,325.298z"/>
				<path style="fill:#D38E33;" d="M295.808,326.687c0,0,9.061,15.283,3.233,32.252c0,0,9.324-13.428,8.978-17.854
					C307.673,336.658,295.808,326.687,295.808,326.687z"/>
				<path style="fill:#A05E47;" d="M316.822,338.773l-13.334-21.166c-1.669-2.648-5.17-3.445-7.818-1.775
					c-2.65,1.669-3.444,5.17-1.775,7.818l11.697,18.567l-8.218,17.876c0,0,4.036,4.872,10.303,4.736l9.5-20.667
					C317.977,342.422,317.844,340.394,316.822,338.773z"/>
				<g>
					<polygon style="fill:#A05E47;" points="295.141,306.684 291.602,315.856 285.891,318.073 282.752,313.988 284.88,308.473 					
						"/>
				</g>
				<path style="fill:#774031;" d="M292.211,310.867l-8.104-0.392l-1.133,2.936C287.19,314.423,292.211,310.867,292.211,310.867z"/>
				<path style="fill:#A05E47;" d="M286.025,312.772l-3.789-1.462c-3.24-1.25-4.867-4.923-3.617-8.163l4.044-10.48
					c1.25-3.239,4.923-4.867,8.163-3.617l3.789,1.462c3.24,1.25,4.867,4.923,3.617,8.163l-4.044,10.48
					C292.937,312.394,289.264,314.022,286.025,312.772z"/>
				<path style="opacity:0.3;fill:#171E26;" d="M294.614,290.512l-3.789-1.462c-2.829-1.092-5.989,0.012-7.577,2.468
					c0.546,0.89,1.302,1.651,2.216,2.133c1.726,0.911,3.779,0.988,5.716,0.743c0.754-0.095,1.528-0.235,2.265-0.051
					c0.737,0.184,1.433,0.804,1.415,1.564c-0.015,0.629-0.499,1.15-1.023,1.5c-0.325,0.217-0.684,0.401-0.93,0.704
					c-0.316,0.389-0.399,0.912-0.456,1.409c-0.185,1.606-0.198,3.329,0.623,4.721c0.447,0.758,1.111,1.361,1.789,1.921
					c0.119,0.099,0.242,0.195,0.367,0.288l3.001-7.777C299.481,295.435,297.853,291.762,294.614,290.512z"/>
				<path style="fill:#A05E47;" d="M298.082,306.606c-0.407,1.054-1.59,1.579-2.644,1.172c-1.054-0.407-1.579-1.591-1.172-2.644
					c0.407-1.054,1.591-1.578,2.644-1.172C297.964,304.368,298.489,305.552,298.082,306.606z"/>
				<path style="fill:#FBB040;" d="M303.488,317.607c-1.669-2.648-5.17-3.445-7.818-1.775c-2.65,1.669-3.444,5.17-1.775,7.818
					l6.009,9.538c1.906-0.739,6.855-2.785,10.091-5.254L303.488,317.607z"/>
				<path style="fill:#A05E47;" d="M306.908,366.85c-0.302,0.621-0.628,1.266-1.186,1.673c-0.558,0.407-1.42,0.487-1.897-0.013
					c-0.248-0.259-0.382-0.652-0.715-0.785c-0.419-0.167-0.851,0.178-1.285,0.303c-0.796,0.229-1.659-0.365-1.953-1.14
					c-0.097-0.256-0.163-0.552-0.388-0.708c-0.5-0.344-1.265,0.313-1.759-0.04c-0.378-0.27-0.271-0.927-0.643-1.207
					c-0.201-0.152-0.48-0.141-0.712-0.241c-0.388-0.168-0.58-0.63-0.56-1.053c0.02-0.422,0.209-0.816,0.393-1.197
					c0.29-0.599,0.581-1.197,0.871-1.796c0.171-0.353,0.349-0.715,0.639-0.979c0.625-0.569,1.577-0.533,2.415-0.427
					c1.605,0.204,3.215,0.553,4.644,1.312c1.165,0.619,2.291,1.568,2.887,2.767C308.203,364.419,307.399,365.838,306.908,366.85z"/>
			</g>
			<g>
				<path style="fill:#19365A;" d="M105.763,366.852H73.888V328.3c0-4.434,3.627-8.061,8.061-8.061h15.754
					c4.433,0,8.061,3.627,8.061,8.061V366.852z"/>
				<g>
					<g>
						<path style="fill:#A05E47;" d="M106.054,320.2c2.82-1.363,6.212-0.184,7.577,2.638l8.814,18.225l20.702-7.702
							c1.087,6.973,3.985,10.11,3.985,10.11l-25.489,10.054c-1.316,0.505-2.712,0.488-3.951,0.043
							c-1.353-0.486-2.52-1.483-3.19-2.87l-11.085-22.922C102.052,324.956,103.233,321.564,106.054,320.2z"/>
						<path style="fill:#7F4637;" d="M117.692,353.568c1.239,0.445,2.635,0.462,3.951-0.043l9.441-3.724
							c-3.755-3.022-6.23-6.478-7.724-9.079l-0.915,0.34l-3.412-7.055c-3.344-1.158-9.302-1.327-13.23-1.295l8.698,17.986
							C115.172,352.085,116.339,353.082,117.692,353.568z"/>
						<path style="fill:#D3AFA5;" d="M107.361,335.933l5.067,6.54l8.409-4.735l-7.206-14.9c-1.161-2.399-3.785-3.593-6.279-3.064
							l-0.263,0.143L107.361,335.933z"/>
						<path style="fill:#A05E47;" d="M148.896,331.216c0.45-0.117,0.927-0.224,1.375-0.097c0.447,0.127,0.84,0.57,0.745,1.025
							c-0.145,0.698-1.138,0.775-1.622,1.3c-0.363,0.394-0.387,1.003-0.236,1.516c0.15,0.514,0.447,0.97,0.669,1.458
							c1.064,2.337,0.136,5.396-2.047,6.747c-0.411,0.255-0.898,0.458-1.37,0.352c-0.596-0.134-0.975-0.703-1.291-1.226
							c-0.849-1.404-1.706-2.823-2.217-4.382c-0.461-1.405-1.03-3.81,0.452-4.691C144.965,332.259,147.093,331.685,148.896,331.216z
							"/>
						<path style="fill:#7F4637;" d="M145.844,341.187c0.096,0.034,0.201,0.06,0.317,0.078c0.103,0.016,0.199-0.054,0.216-0.158
							c0.016-0.104-0.052-0.202-0.158-0.216c-0.316-0.049-0.522-0.171-0.613-0.362c-0.183-0.375,0.07-0.981,0.183-1.183
							c0.026-0.046,0.031-0.1,0.015-0.15c-0.016-0.05-0.053-0.091-0.1-0.113c-0.394-0.185-0.614-0.402-0.653-0.646
							c-0.06-0.373,0.31-0.727,0.314-0.73c0.053-0.05,0.073-0.125,0.051-0.194c-0.021-0.069-0.08-0.12-0.152-0.131
							c-0.314-0.046-0.527-0.149-0.63-0.309c-0.114-0.172-0.065-0.361-0.063-0.369c0.423-1.852,4.476-1.517,4.517-1.514
							c0.104,0.009,0.196-0.068,0.205-0.172c0.009-0.104-0.064-0.193-0.172-0.205c-0.18-0.016-4.423-0.365-4.916,1.798
							c-0.001,0.004-0.096,0.343,0.109,0.662c0.121,0.189,0.313,0.324,0.583,0.412c-0.133,0.196-0.269,0.487-0.218,0.81
							c0.052,0.332,0.286,0.616,0.695,0.844c-0.129,0.292-0.334,0.889-0.107,1.357C145.377,340.924,145.571,341.089,145.844,341.187
							z"/>
						<path style="fill:#7F4637;" d="M145.172,337.746c0.034,0.012,0.072,0.015,0.109,0.006c0.036-0.009,3.571-0.874,4.676-0.782
							c0.104,0.009,0.196-0.068,0.204-0.173c0.01-0.104-0.07-0.198-0.173-0.204c-1.166-0.097-4.65,0.755-4.798,0.791
							c-0.101,0.025-0.163,0.128-0.138,0.229C145.068,337.678,145.115,337.726,145.172,337.746z"/>
						<path style="fill:#7F4637;" d="M145.56,339.432c0.033,0.012,0.069,0.015,0.105,0.007c0.036-0.008,3.556-0.789,4.58-0.668
							c0.104,0.012,0.197-0.062,0.21-0.166c0.012-0.103-0.06-0.196-0.166-0.21c-1.088-0.128-4.559,0.642-4.706,0.676
							c-0.102,0.022-0.166,0.124-0.143,0.225C145.454,339.361,145.501,339.411,145.56,339.432z"/>
						<path style="fill:#7F4637;" d="M146.126,341.257c0.042,0.015,0.089,0.016,0.133-0.001c0.019-0.008,1.973-0.76,3.682-0.717
							c0.104,0.002,0.191-0.08,0.194-0.184c0.002-0.105-0.082-0.191-0.184-0.194c-1.786-0.044-3.746,0.711-3.829,0.743
							c-0.097,0.038-0.145,0.148-0.107,0.245C146.035,341.2,146.076,341.239,146.126,341.257z"/>
						<path style="fill:#7F4637;" d="M144.824,335.922c0.06,0.021,0.128,0.012,0.182-0.03c0.21-0.167,0.34-0.434,0.344-0.702
							c0.572,0,1.068-0.009,1.563-0.103c0.615-0.116,1.12-0.348,1.503-0.69c0.207-0.184,0.333-0.372,0.384-0.573
							c0.082-0.328-0.051-0.711-0.339-0.976c-0.256-0.233-0.577-0.349-0.858-0.431c-0.84-0.246-1.717-0.307-2.534-0.175
							c-0.103,0.017-0.173,0.114-0.156,0.217c0.017,0.102,0.115,0.173,0.217,0.156c0.761-0.123,1.579-0.067,2.366,0.164
							c0.241,0.068,0.511,0.165,0.709,0.347c0.188,0.172,0.277,0.41,0.228,0.605c-0.031,0.125-0.119,0.251-0.268,0.383
							c-0.33,0.295-0.775,0.498-1.321,0.6c-0.482,0.091-0.978,0.097-1.53,0.094c-0.058,0.001-0.175,0.002-0.262,0.094
							c-0.081,0.086-0.08,0.196-0.079,0.255c0.003,0.172-0.074,0.335-0.201,0.437c-0.082,0.065-0.095,0.185-0.03,0.266
							C144.762,335.89,144.792,335.91,144.824,335.922z"/>
					</g>
					<path style="fill:#EACFC5;" d="M115.621,328.499l-2.764,35.77c0,0-8.078,4.398-19.479,3.073
						c-11.401-1.326-13.898-6.364-13.898-6.364s1.97-35.097,2.301-35.445c0.331-0.348,1.68-11.88,18.177-9.524
						C116.454,318.364,115.621,328.499,115.621,328.499z"/>
					<g>
						<polygon style="fill:#A05E47;" points="96.145,305.763 96.145,315.688 102.084,320.451 105.16,317.145 105.16,311.177 						
							"/>
					</g>
					<path style="fill:#7F4637;" d="M97.384,310.969l7.775,2.576v3.177C100.821,316.143,97.384,310.969,97.384,310.969z"/>
					<path style="fill:#A05E47;" d="M103.501,315.012h2.135c4.046,0,7.356-3.31,7.356-7.356v-9.376c0-4.046-3.31-7.356-7.356-7.356
						h-2.135c-4.046,0-7.356,3.31-7.356,7.356v9.376C96.145,311.702,99.455,315.012,103.501,315.012z"/>
					<path style="fill:#171C27;" d="M96.45,304.305c0.273,0.672,1.172,1.21,1.701,0.715c0.193-0.181,0.274-0.449,0.338-0.706
						c0.348-1.405,0.409-2.88,0.177-4.31c-0.272-1.679-0.901-3.555,0.058-4.96c0.628-0.92,1.9-1.34,2.953-0.976
						c0.547,0.189,1.019,0.56,1.57,0.736c1.099,0.352,2.269-0.117,3.413-0.265c2.105-0.271,4.396,0.536,6.286-0.429
						c1.051-0.537,1.811-1.608,1.97-2.778c0.045-0.333,0.043-0.682-0.081-0.994c-0.24-0.604-0.888-0.956-1.528-1.074
						c-1.465-0.269-3.002,0.43-4.445,0.06c-0.9-0.23-1.673-0.858-2.591-1.002c-1.281-0.201-2.49,0.572-3.753,0.864
						c-1.288,0.298-2.65,0.091-3.941,0.374c-2.696,0.59-4.543,3.25-5.042,5.964c-0.499,2.715,0.076,5.499,0.649,8.198
						c0.206,0.968,0.411,1.937,0.617,2.905c0.171,0.806,0.399,1.698,1.095,2.14c0.112,0.071,0.242,0.13,0.374,0.116
						c0.361-0.036,0.46-0.511,0.455-0.874c-0.026-1.797-0.315-3.54-0.706-5.288C96.233,303.231,96.242,303.793,96.45,304.305z"/>
					<path style="fill:#A05E47;" d="M94.181,304.822c0,1.14,0.924,2.065,2.065,2.065c1.14,0,2.065-0.924,2.065-2.065
						c0-1.14-0.924-2.065-2.065-2.065C95.106,302.757,94.181,303.682,94.181,304.822z"/>
					<g>
						<path style="fill:#A05E47;" d="M121.515,353.41c0.129-0.064,0.285-0.129,0.41-0.056c0.095,0.055,0.135,0.169,0.173,0.273
							c0.264,0.71,0.89,1.325,1.644,1.394c0.755,0.069,1.555-0.554,1.519-1.311c-0.024-0.514-0.385-0.942-0.727-1.327
							c0.674,0.759,1.448,1.57,2.458,1.663c0.12,0.011,0.249,0.009,0.352-0.054c0.116-0.071,0.177-0.205,0.219-0.334
							c0.206-0.63,0.124-1.348-0.218-1.916c0.278,0.271,0.566,0.548,0.926,0.695c0.36,0.147,0.813,0.134,1.094-0.135
							c0.447-0.429,0.225-1.172-0.027-1.739c-0.273-0.614-0.547-1.228-0.82-1.842c-0.313-0.702-0.63-1.412-1.103-2.017
							c-0.792-1.012-1.964-1.657-3.16-2.128c-2.52-0.993-5.297-1.326-7.98-0.956c-0.175,0.024-0.354,0.053-0.507,0.14
							c-0.328,0.187-0.455,0.589-0.544,0.956c-0.691,2.869-0.671,5.961,0.12,8.809c0.319,1.147,0.737,1.47,1.97,1.357
							C118.801,354.743,120.198,354.067,121.515,353.41z"/>
						<g>
							<path style="fill:#A05E47;" d="M88.601,318.294c3.119-0.284,5.879,2.013,6.165,5.134l1.84,20.161l22.086-0.16
								c-1.435,6.91-1.513,11.461-1.513,11.461l-25.708,0.083c-1.409,0.01-2.71-0.497-3.713-1.349
								c-1.096-0.931-1.837-2.275-1.977-3.809l-2.313-25.356C83.182,321.338,85.481,318.578,88.601,318.294z"/>
						</g>
						
							<path style="fill:none;stroke:#7F4637;stroke-width:0.5669;stroke-linecap:round;stroke-linejoin:round;stroke-miterlimit:10;" d="
							M124.751,352.621c0,0-1.249-2.684-2.03-3.675c-0.781-0.991-1.922-0.875-1.922-0.875"/>
						
							<path style="fill:none;stroke:#7F4637;stroke-width:0.5669;stroke-linecap:round;stroke-linejoin:round;stroke-miterlimit:10;" d="
							M127.346,351.74l-1.772-3.906c0,0-0.811-1.472-2.283-1.712"/>
						<path style="fill:#EACFC5;" d="M94.943,323.212c-0.296-3.233-3.155-5.612-6.385-5.318c-3.232,0.295-5.613,3.153-5.318,6.385
							l1.531,16.783l11.664-1.493L94.943,323.212z"/>
						
							<path style="fill:none;stroke:#A5867C;stroke-width:0.2835;stroke-linecap:round;stroke-linejoin:round;stroke-miterlimit:10;" d="
							M83.443,326.507l1.328,14.556c0,0,8.927-1.14,11.664-1.493l-1.444-15.82"/>
					</g>
					
						<path style="fill:none;stroke:#A5867C;stroke-width:0.2835;stroke-linecap:round;stroke-linejoin:round;stroke-miterlimit:10;" d="
						M93.826,316.142l3.999,7.917l4.285-3.264l4.121,2.955c0,0,1.469-3.363,1.469-5.077"/>
					
						<polyline style="fill:none;stroke:#A5867C;stroke-width:0.2835;stroke-linecap:round;stroke-linejoin:round;stroke-miterlimit:10;" points="
						101.513,321.25 101.272,334.097 104.069,334.097 					"/>
				</g>
			</g>
			<g>
				<path style="fill:#19365A;" d="M204.634,363.818l-31.572,4.387l-5.305-38.185c-0.61-4.391,2.483-8.484,6.875-9.094l15.604-2.168
					c4.391-0.61,8.483,2.484,9.094,6.875L204.634,363.818z"/>
				<g>
					<path style="fill:#503972;" d="M203.909,291.041c-1.47-0.602-3.043-0.922-4.631-0.957c-1.543-0.034-3.107-0.221-4.611,0.242
						c-2.105,0.649-3.701,2.446-4.625,4.445c-0.658,1.423-1.023,2.958-1.298,4.496c-0.263,1.464-0.6,2.887-0.778,4.368
						c-0.385,3.189-0.415,6.415-0.931,9.59c-0.946,5.824-3.486,11.251-5.201,16.897c-1.715,5.646-2.562,11.928-0.164,17.319
						c0.203,0.456,0.443,0.921,0.847,1.214c0.371,0.269,0.838,0.362,1.289,0.442c2.819,0.498,5.684,0.74,8.547,0.723
						c1.033-0.006,2.093-0.052,3.042-0.458c0.838-0.359,1.539-0.979,2.14-1.663c2.282-2.595,3.228-6.069,4.106-9.411
						c0.842-3.204,1.684-6.407,2.525-9.611c2.35-8.942,4.714-17.98,4.979-27.223c0.09-3.15-0.22-6.662-2.538-8.798
						C205.832,291.942,204.884,291.44,203.909,291.041z"/>
					<g>
						<path style="fill:#DBA38D;" d="M237.919,333.444c-23.223,3.362-30.142-13.151-30.444-13.912
							c-0.925-2.385-3.604-3.58-5.997-2.667c-2.402,0.915-3.607,3.604-2.692,6.007c0.245,0.643,2.573,6.445,8.701,11.762
							c5.526,4.795,15.255,10.03,30.476,8.194c0.422-0.051,0.85-0.108,1.282-0.17C239.519,337.809,237.919,333.444,237.919,333.444z
							"/>
						<path style="fill:#DBA38D;" d="M242.264,331.324c0.607-0.233,1.26-0.47,1.894-0.324c0.634,0.146,1.178,0.852,0.906,1.443
							c-0.233,0.504-0.971,0.85-0.799,1.378c0.054,0.165,0.192,0.287,0.329,0.393c1.708,1.329,3.994,1.584,5.987,2.427
							c0.9,0.381,1.826,0.987,2.053,1.938c0.173,0.724-0.117,1.5-0.604,2.063c-0.487,0.562-1.15,0.942-1.823,1.26
							c-3.566,1.689-7.804,1.903-11.523,0.583c-0.415-0.147-0.836-0.321-1.148-0.632c-0.304-0.304-0.477-0.711-0.643-1.108
							c-0.328-0.786-0.656-1.583-0.784-2.425c-0.266-1.743,0.436-3.495,1.602-4.776C239.06,332.063,240.523,331.992,242.264,331.324
							z"/>
						<path style="fill:#F75454;" d="M211.944,326.047c-3.079-3.186-4.344-6.2-4.469-6.515c-0.925-2.385-3.604-3.58-5.997-2.667
							c-2.402,0.915-3.607,3.604-2.692,6.007c0.213,0.557,1.992,4.985,6.446,9.615C206.589,331.513,209.573,329.184,211.944,326.047
							z"/>
						<path style="fill:#BF4040;" d="M205.25,332.641c-0.047,0.006-0.095-0.01-0.13-0.046c-4.495-4.673-6.289-9.17-6.479-9.668
							c-0.03-0.08,0.01-0.17,0.09-0.2c0.079-0.033,0.17,0.01,0.2,0.09c0.186,0.488,1.936,4.871,6.319,9.465
							c1.259-0.914,4.165-3.184,6.489-6.224c-3.117-3.26-4.357-6.339-4.409-6.469c-0.031-0.08,0.007-0.17,0.087-0.202
							c0.081-0.031,0.17,0.008,0.202,0.087c0.051,0.13,1.292,3.212,4.435,6.465c0.053,0.055,0.058,0.14,0.012,0.201
							c-2.432,3.218-5.527,5.598-6.745,6.473C205.301,332.629,205.276,332.638,205.25,332.641z"/>
					</g>
					<path style="fill:#F75454;" d="M209.626,325.125c0.476,3.125,0.222,6.324,0.147,9.491c-0.166,6.993,0.063,14.153,2.379,20.789
						c0.785,2.25,1.514,4.263-0.261,6.236c-3.528,3.922-11.869,4.83-16.723,4.974c-3.099,0.092-13.435-0.086-14.753-4.419
						c-0.428-1.405,1.131-4.594,1.4-6.097c0.577-3.225,0.256-6.934,0.258-10.236c0.003-4.297-0.065-8.928-1.075-13.118
						c-0.946-3.924-0.818-7.761,0.905-11.53c0.881-1.928,2.182-3.756,4.051-4.757c2.491-1.335,5.504-1.747,8.279-1.757
						c3.257-0.012,7.537,0.158,10.467,1.729c2.762,1.48,4.27,5.135,4.814,8.036C209.555,324.686,209.592,324.905,209.626,325.125z"
						/>
					<g>
						<g>
							<path style="fill:#EEB399;" d="M199.64,311.126l0.168,5.986c0,0,0.04,2.876-4.378,2.84c-4.418-0.036-4.703-4.047-4.703-4.047
								l-0.28-9.953L199.64,311.126z"/>
							<path style="fill:#C18B76;" d="M191.83,310.936l7.87,2.364l0.09,3.186C195.423,316.027,191.83,310.936,191.83,310.936z"/>
							<path style="fill:#EEB399;" d="M197.013,314.847l4.274-0.12c3.471-0.098,6.231-3.017,6.133-6.488l-0.325-11.535
								c-0.098-3.471-3.017-6.231-6.488-6.133l-4.274,0.12c-3.471,0.098-6.231,3.017-6.133,6.488l0.325,11.535
								C190.622,312.185,193.542,314.945,197.013,314.847z"/>
							<path style="fill:#EEB399;" d="M188.445,304.861c0.032,1.144,0.985,2.045,2.129,2.012c1.144-0.032,2.045-0.985,2.012-2.129
								c-0.032-1.144-0.986-2.045-2.129-2.013C189.314,302.765,188.413,303.718,188.445,304.861z"/>
						</g>
						<path style="fill:#503972;" d="M207.567,293.738c0,0-7.132,9.676-17.819,9.015c0,0-2.365-12.772,8.033-13.151
							C197.781,289.601,203.169,288.907,207.567,293.738z"/>
					</g>
					<g>
						<path style="fill:#EEB399;" d="M213.613,347.488c-22.416-6.936-21.574-24.821-21.519-25.638
							c0.189-2.55-1.717-4.78-4.271-4.983c-2.562-0.205-4.806,1.705-5.011,4.268c-0.055,0.686-0.444,6.926,2.807,14.359
							c2.931,6.703,9.469,15.608,24.004,20.488c0.403,0.135,0.814,0.268,1.231,0.397
							C213.184,352.117,213.613,347.488,213.613,347.488z"/>
						<path style="fill:#F75454;" d="M193.332,329.653c-1.413-4.2-1.26-7.465-1.238-7.803c0.189-2.55-1.717-4.78-4.271-4.983
							c-2.562-0.205-4.806,1.705-5.011,4.268c-0.047,0.595-0.341,5.358,1.692,11.452
							C186.148,332.29,189.843,331.467,193.332,329.653z"/>
						<path style="fill:#BF4040;" d="M184.455,332.733c-0.045-0.015-0.082-0.05-0.098-0.098c-2.053-6.153-1.742-10.983-1.699-11.513
							c0.007-0.085,0.082-0.149,0.167-0.142c0.085,0.005,0.149,0.082,0.142,0.167c-0.042,0.52-0.345,5.229,1.642,11.262
							c1.53-0.284,5.13-1.087,8.533-2.834c-1.415-4.283-1.213-7.596-1.203-7.736c0.006-0.085,0.08-0.15,0.165-0.145
							c0.086,0.005,0.151,0.08,0.145,0.165c-0.01,0.139-0.212,3.456,1.229,7.743c0.025,0.073-0.008,0.152-0.075,0.187
							c-3.577,1.862-7.396,2.682-8.871,2.949C184.506,332.744,184.48,332.742,184.455,332.733z"/>
						<path style="fill:#EEB399;" d="M218.313,347.539c0.649,0.05,1.34,0.117,1.85,0.52c0.51,0.404,0.698,1.275,0.199,1.692
							c-0.427,0.356-1.242,0.351-1.314,0.902c-0.022,0.172,0.05,0.341,0.128,0.496c0.972,1.934,2.927,3.146,4.365,4.763
							c0.65,0.731,1.225,1.676,1.022,2.632c-0.155,0.728-0.75,1.305-1.432,1.603c-0.682,0.299-1.443,0.357-2.187,0.355
							c-3.946-0.007-7.865-1.633-10.657-4.422c-0.312-0.311-0.618-0.649-0.766-1.064c-0.144-0.405-0.126-0.847-0.105-1.276
							c0.041-0.851,0.088-1.711,0.333-2.527c0.509-1.688,1.894-2.97,3.498-3.625C215.103,346.83,216.454,347.394,218.313,347.539z"
							/>
					</g>
				</g>
			</g>
			<g>
				<path style="fill:#19365A;" d="M427.385,365.296H395.51v-38.552c0-4.434,3.627-8.061,8.061-8.061h15.753
					c4.434,0,8.061,3.628,8.061,8.061V365.296z"/>
				<path style="fill:#EEB399;" d="M391.735,321.039c-2.172-2.215-5.729-2.251-7.946-0.078l-14.318,14.04l-16.861-13.873
					c-3.348,6.137-7.048,8.102-7.048,8.102l20.485,17.658c1.058,0.911,2.364,1.363,3.669,1.363c1.424,0,2.846-0.539,3.935-1.607
					l18.007-17.658C393.873,326.813,393.908,323.255,391.735,321.039z"/>
				<path style="fill:#638DCE;" d="M391.735,321.039c-2.172-2.215-5.729-2.251-7.946-0.078l-13.532,13.269
					c1.067,2.691,3.165,7.179,6.105,9.755l15.297-15C393.873,326.813,393.908,323.255,391.735,321.039z"/>
				<path style="fill:#EEB399;" d="M347.935,317.149c-0.38-0.26-0.79-0.519-1.249-0.55c-0.46-0.031-0.974,0.25-1.038,0.706
					c-0.098,0.7,0.801,1.104,1.077,1.755c0.207,0.488,0.025,1.064-0.287,1.493c-0.312,0.429-0.741,0.755-1.111,1.135
					c-1.774,1.822-1.933,4.984-0.35,6.975c0.298,0.375,0.684,0.727,1.159,0.787c0.6,0.075,1.144-0.329,1.614-0.711
					c1.262-1.024,2.535-2.061,3.534-3.343c0.9-1.155,2.236-3.207,1.149-4.524C351.25,319.438,349.46,318.19,347.935,317.149z"/>
				<path style="fill:#B57359;" d="M347.615,327.284c-0.101,0-0.208-0.011-0.321-0.033c-0.101-0.019-0.168-0.117-0.148-0.219
					c0.02-0.102,0.116-0.17,0.219-0.148c0.311,0.06,0.543,0.016,0.692-0.132c0.296-0.288,0.263-0.938,0.226-1.164
					c-0.008-0.052,0.004-0.104,0.036-0.145c0.032-0.041,0.079-0.067,0.131-0.072c0.429-0.04,0.707-0.169,0.825-0.384
					c0.181-0.328-0.046-0.781-0.048-0.786c-0.033-0.064-0.026-0.141,0.017-0.198c0.043-0.057,0.115-0.084,0.186-0.071
					c0.308,0.063,0.541,0.038,0.691-0.077c0.164-0.123,0.181-0.315,0.183-0.323c0.226-1.867-3.665-2.913-3.704-2.923
					c-0.1-0.026-0.159-0.129-0.134-0.229c0.027-0.1,0.125-0.158,0.229-0.134c0.174,0.046,4.246,1.141,3.981,3.322
					c0,0.004-0.025,0.352-0.323,0.581c-0.176,0.135-0.4,0.197-0.681,0.189c0.058,0.227,0.088,0.544-0.068,0.828
					c-0.16,0.292-0.472,0.478-0.93,0.554c0.023,0.316,0.014,0.94-0.354,1.3C348.139,327.195,347.903,327.284,347.615,327.284z"/>
				<path style="fill:#B57359;" d="M349.393,324.302c-0.035,0-0.072-0.01-0.103-0.031c-0.03-0.02-3.037-2.01-4.098-2.295
					c-0.1-0.027-0.159-0.129-0.132-0.229c0.026-0.101,0.132-0.161,0.229-0.132c1.12,0.3,4.082,2.26,4.208,2.344
					c0.086,0.057,0.11,0.174,0.052,0.259C349.513,324.273,349.454,324.302,349.393,324.302z"/>
				<path style="fill:#B57359;" d="M348.467,325.743c-0.034,0-0.069-0.009-0.1-0.029c-0.03-0.019-3.05-1.926-4.046-2.156
					c-0.101-0.023-0.163-0.124-0.14-0.225c0.023-0.1,0.121-0.163,0.225-0.14c1.057,0.245,4.035,2.125,4.161,2.205
					c0.088,0.055,0.113,0.171,0.058,0.258C348.59,325.713,348.529,325.743,348.467,325.743z"/>
				<path style="fill:#B57359;" d="M347.329,327.255c-0.044,0-0.088-0.015-0.123-0.046c-0.016-0.014-1.585-1.369-3.192-1.901
					c-0.098-0.033-0.152-0.139-0.119-0.237c0.034-0.098,0.14-0.15,0.237-0.119c1.68,0.557,3.254,1.917,3.321,1.975
					c0.077,0.068,0.086,0.186,0.018,0.265C347.434,327.233,347.381,327.255,347.329,327.255z"/>
				<path style="fill:#B57359;" d="M350.329,322.717c-0.063,0-0.124-0.032-0.159-0.088c-0.14-0.227-0.172-0.519-0.085-0.77
					c-0.533-0.191-0.992-0.366-1.423-0.619c-0.534-0.314-0.928-0.699-1.17-1.146c-0.132-0.241-0.186-0.458-0.166-0.663
					c0.033-0.333,0.285-0.645,0.643-0.796c0.317-0.132,0.654-0.132,0.944-0.115c0.866,0.052,1.703,0.288,2.421,0.685
					c0.09,0.05,0.123,0.164,0.073,0.255c-0.05,0.09-0.164,0.123-0.255,0.073c-0.669-0.37-1.45-0.591-2.261-0.639
					c-0.247-0.017-0.532-0.017-0.777,0.086c-0.232,0.098-0.396,0.289-0.415,0.487c-0.013,0.127,0.027,0.274,0.122,0.447
					c0.209,0.386,0.556,0.723,1.031,1.002c0.419,0.246,0.88,0.418,1.395,0.6c0.054,0.02,0.163,0.06,0.212,0.176
					c0.047,0.108,0.009,0.21-0.012,0.264c-0.061,0.159-0.043,0.337,0.041,0.474c0.054,0.088,0.027,0.204-0.061,0.258
					C350.397,322.708,350.363,322.717,350.329,322.717z"/>
				<path style="fill:#7298E2;" d="M379.452,328.88l2.738,35.431c0,0,8.001,4.357,19.294,3.044
					c11.293-1.313,13.767-6.303,13.767-6.303s-1.951-34.765-2.28-35.109c-0.328-0.344-1.664-11.767-18.004-9.434
					C378.627,318.841,379.452,328.88,379.452,328.88z"/>
				<rect x="64.667" y="360.453" style="fill:#5F87DF;" width="370.667" height="8.784"/>
				<g>
					<g>
						<path style="fill:#0D2638;" d="M96.746,362.197h48.916c0.275,0,0.5-0.225,0.5-0.5v-1.431c0-0.275-0.225-0.5-0.5-0.5H96.746
							c-0.275,0-0.5,0.225-0.5,0.5v1.431C96.246,361.972,96.471,362.197,96.746,362.197z"/>
						<path style="fill:#224CB3;" d="M122.623,362.16h40.734c1.659,0,3.231-1.357,3.493-3.016l3.515-22.194
							c0.263-1.659-0.879-3.016-2.538-3.016h-40.734c-1.659,0-3.231,1.357-3.493,3.016l-3.515,22.194
							C119.822,360.803,120.965,362.16,122.623,362.16z"/>
					</g>
					<circle style="fill:#FFFFFF;" cx="146.107" cy="347.988" r="3.753"/>
				</g>
				<path style="fill:#3F649E;" d="M411.171,331.276c0,0,2.499,29.919-4.832,30.505c-7.331,0.587-19.696,0-19.696,0
					s14.923-2.858,16.559-11.16C404.838,342.319,411.171,331.276,411.171,331.276z"/>
				<path style="fill:#EEB399;" d="M395.084,325.133c5.707-0.802,6.512-5.926,6.507-8.805c-1.876-0.214-4.066-0.186-6.624,0.18
					c-2.962,0.423-5.354,1.102-7.296,1.926C387.846,320.859,388.935,325.998,395.084,325.133z"/>
				<g>
					<polygon style="fill:#EEB399;" points="398.743,306.559 398.743,316.39 394.214,320.514 389.814,317.833 389.814,311.921 					
						"/>
				</g>
				<path style="fill:#CC957F;" d="M397.516,311.516l-7.702,2.552v3.147C394.112,316.641,397.516,311.516,397.516,311.516z"/>
				<path style="fill:#EEB399;" d="M392.43,315.521h-4.061c-3.472,0-6.313-2.841-6.313-6.313v-11.233
					c0-3.472,2.841-6.313,6.313-6.313h4.061c3.472,0,6.313,2.841,6.313,6.313v11.233C398.743,312.68,395.902,315.521,392.43,315.521
					z"/>
				<path style="fill:#171E26;" d="M380.97,294.114c-0.428,0.486-0.765,1.177-0.499,1.768c0.138,0.307,0.417,0.527,0.709,0.696
					c1.022,0.59,2.329,0.659,3.408,0.179c-0.336,0.326-0.299,0.912-0.012,1.282c0.287,0.37,0.756,0.553,1.218,0.627
					c1.447,0.231,2.912-0.473,3.973-1.483c-0.04,0.919,0.767,1.789,1.686,1.818c0.83,0.026,1.631-0.536,2.443-0.361
					c0.238,0.401-0.139,1.057,0.243,1.323c0.093,0.065,0.21,0.083,0.323,0.094c0.77,0.074,1.689-0.064,2.186,0.528
					c0.48,0.572,0.222,1.425,0.024,2.144c-0.181,0.657-0.28,1.405,0.078,1.985c0.358,0.58,1.341,0.765,1.698,0.183
					c0.101-0.165,0.138-0.363,0.245-0.524c0.107-0.161,0.336-0.274,0.492-0.16c0.116,0.084,0.134,0.249,0.128,0.392
					c-0.039,0.859-0.569,1.607-0.868,2.414c-0.299,0.807-0.266,1.9,0.49,2.311c0.226,0.123,0.486,0.165,0.741,0.198
					c0.802,0.106,1.689,0.129,2.338-0.355c0.619-0.462,0.86-1.263,1.063-2.008c0.079-0.29,0.159-0.591,0.115-0.888
					c-0.044-0.298-0.247-0.593-0.543-0.647c-0.355-0.992,0.72-2.224,0.082-3.063c-0.14-0.185-0.344-0.308-0.519-0.46
					c-0.511-0.442-0.771-1.116-0.865-1.786c-0.094-0.669-0.04-1.349-0.028-2.025c0.023-1.313-0.112-2.629-0.401-3.911
					c-0.119-0.528-0.272-1.064-0.597-1.498c-0.325-0.433-0.858-0.747-1.395-0.672c-0.235-0.981-0.754-1.934-1.603-2.478
					c-0.849-0.544-2.058-0.583-2.82,0.078c-0.17,0.147-0.33,0.332-0.551,0.371c-0.176,0.031-0.353-0.039-0.518-0.106
					c-1.551-0.63-3.347-1.162-4.849-0.423c-0.226,0.111-0.445,0.251-0.695,0.281c-0.253,0.031-0.503-0.055-0.749-0.119
					c-0.59-0.154-1.268-0.172-1.756,0.193c-0.544,0.408-0.307,0.856-0.352,1.395c-0.051,0.612-0.391,0.575-0.972,0.793
					C382.918,292.628,381.787,293.186,380.97,294.114z"/>
				<path style="fill:#EEB399;" d="M401.459,305.427c0,1.13-0.916,2.045-2.045,2.045c-1.13,0-2.045-0.916-2.045-2.045
					c0-1.13,0.916-2.045,2.045-2.045C400.544,303.382,401.459,304.298,401.459,305.427z"/>
				<g>
					<g>
						<path style="fill:#EEB399;" d="M406.276,319.295c-3.107-0.272-5.87,2.03-6.146,5.149l-2.148,24.339l-22.827,1.468
							c0,0-0.749,6.017,0.727,11.314l27.684-1.779c2.794-0.179,5.038-2.37,5.284-5.159l2.576-29.187
							C411.701,322.323,409.395,319.571,406.276,319.295z"/>
						<path style="fill:#EEB399;" d="M372.861,361.641c-0.687-0.075-1.403-0.165-1.975-0.553c-0.571-0.388-0.936-1.173-0.627-1.791
							c0.161-0.321,0.485-0.579,0.498-0.938c0.016-0.451-0.454-0.741-0.717-1.108c-0.484-0.673-0.215-1.686,0.416-2.223
							c0.208-0.178,0.465-0.339,0.536-0.604c0.156-0.587-0.72-1.086-0.554-1.67c0.127-0.447,0.781-0.568,0.92-1.011
							c0.075-0.241-0.029-0.5-0.013-0.751c0.027-0.422,0.398-0.758,0.803-0.881c0.405-0.123,0.839-0.078,1.259-0.033
							c0.661,0.072,1.323,0.144,1.984,0.216c0.39,0.043,0.791,0.088,1.137,0.273c0.746,0.397,1.033,1.305,1.215,2.13
							c0.348,1.58,0.561,3.214,0.327,4.815c-0.191,1.305-0.705,2.685-1.634,3.65C375.587,362.043,373.98,361.763,372.861,361.641z"
							/>
					</g>
					<path style="fill:#7298E2;" d="M406.305,319.002c-3.172-0.277-5.992,2.073-6.274,5.257l-1.803,20.43
						c2.027,0.902,6.744,2.782,11.348,3.086l1.986-22.499C411.842,322.092,409.489,319.283,406.305,319.002z"/>
					
						<path style="fill:none;stroke:#3C62A0;stroke-width:0.2835;stroke-linecap:round;stroke-linejoin:round;stroke-miterlimit:10;" d="
						M399.888,325.883l-1.66,18.806c0,0,6.956,2.983,11.348,3.086l1.872-19.361"/>
				</g>
				<g>
					<g>
						<path style="fill:#0D2638;" d="M395.01,362.197h-48.917c-0.275,0-0.5-0.225-0.5-0.5v-1.431c0-0.275,0.225-0.5,0.5-0.5h48.917
							c0.275,0,0.5,0.225,0.5,0.5v1.431C395.51,361.972,395.285,362.197,395.01,362.197z"/>
						<path style="fill:#173658;" d="M369.133,362.16h-40.734c-1.659,0-3.231-1.357-3.493-3.016l-3.515-22.194
							c-0.263-1.659,0.879-3.016,2.538-3.016h40.734c1.659,0,3.231,1.357,3.493,3.016l3.515,22.194
							C371.934,360.803,370.791,362.16,369.133,362.16z"/>
					</g>
					<g>
						<path style="fill:#FFFFFF;" d="M343.404,348.617c-0.195,0.373-0.449,0.719-0.588,1.116c-0.139,0.398-0.142,0.879,0.133,1.199
							c0.129,0.15,0.306,0.25,0.49,0.323c0.963,0.379,2.117-0.002,2.82-0.761c0.703-0.759,1.001-1.826,1.01-2.86
							c0.008-0.829-0.209-1.745-0.893-2.215c-0.212-0.146-0.458-0.239-0.71-0.292c-0.401-0.084-0.84-0.06-1.19,0.153
							c-0.509,0.31-0.546,0.891-0.597,1.422C343.815,347.383,343.728,348,343.404,348.617z"/>
						<path style="fill:#FFFFFF;" d="M345.137,344.191c-0.026-0.212-0.032-0.431,0.035-0.633c0.067-0.202,0.219-0.386,0.424-0.444
							c0.073-0.021,0.148-0.025,0.224-0.026c0.169-0.001,0.352,0.022,0.475,0.138c0.101,0.095,0.144,0.241,0.138,0.379
							c-0.006,0.139-0.058,0.271-0.122,0.394c-0.144,0.273-0.376,0.517-0.665,0.635
							C345.235,344.802,345.183,344.566,345.137,344.191z"/>
					</g>
				</g>
			</g>
			<g>
				<path style="fill:#FFFFFF;stroke:#1F74C2;stroke-linecap:round;stroke-linejoin:round;stroke-miterlimit:10;" d="
					M122.37,251.899c0-11.995-9.724-21.718-21.718-21.718s-21.718,9.724-21.718,21.718c0,11.614,9.116,21.098,20.582,21.689
					l3.154,7.738l3.751-8.489C115.615,270.309,122.37,261.895,122.37,251.899z"/>
				<path style="fill:#5F87DF;" d="M108.304,248.079v-5.111h-5.111c0-2.122-1.72-3.841-3.841-3.841s-3.841,1.72-3.841,3.841h-5.111
					v17.905h5.111c0-2.122,1.72-3.842,3.841-3.842s3.841,1.72,3.841,3.842h5.111v-5.111c2.122,0,3.841-1.72,3.841-3.842
					C112.145,249.799,110.425,248.079,108.304,248.079z"/>
			</g>
			<g>
				<path style="fill:#FFFFFF;stroke:#1F74C2;stroke-linecap:round;stroke-linejoin:round;stroke-miterlimit:10;" d="
					M434.952,264.293c5.048-10.881,0.319-23.793-10.562-28.841c-10.881-5.048-23.793-0.319-28.841,10.562
					c-4.887,10.535-0.609,22.975,9.544,28.336l-0.395,8.347l6.975-6.122C421.076,278.15,430.746,273.361,434.952,264.293z"/>
				<path style="fill:#5F87DF;" d="M424.675,251.208c-0.328,0-0.64,0.054-0.944,0.131v-5.242h-5.111c0,2.122-1.72,3.841-3.842,3.841
					c-2.122,0-3.841-1.72-3.841-3.841h-5.111v5.111c-2.122,0-3.841,1.72-3.841,3.841s1.72,3.842,3.841,3.842v5.111h5.216
					c0-2.122,1.72-3.841,3.841-3.841c2.122,0,3.841,1.72,3.841,3.841h5.007v-5.242c0.304,0.077,0.616,0.131,0.944,0.131
					c2.122,0,3.842-1.72,3.842-3.842S426.797,251.208,424.675,251.208z"/>
			</g>
			<g>
				<path style="fill:#FFFFFF;stroke:#1F74C2;stroke-linecap:round;stroke-linejoin:round;stroke-miterlimit:10;" d="
					M163.023,265.822c-5.048-10.881-0.319-23.793,10.562-28.841c10.881-5.048,23.793-0.319,28.841,10.562
					c4.887,10.535,0.609,22.975-9.544,28.336l0.395,8.347l-6.975-6.122C176.899,279.679,167.23,274.89,163.023,265.822z"/>
				<path style="fill:#5F87DF;" d="M186.694,248.58c0-2.122-1.72-3.842-3.841-3.842c-2.122,0-3.842,1.72-3.842,3.842H173.9v17.905
					h5.111c0-2.122,1.72-3.841,3.842-3.841s3.841,1.72,3.841,3.841h5.111V248.58H186.694z"/>
			</g>
			<g>
				<path style="fill:#FFFFFF;stroke:#1F74C2;stroke-linecap:round;stroke-linejoin:round;stroke-miterlimit:10;" d="
					M344.241,277.474c9.168-7.734,10.329-21.437,2.595-30.604c-7.735-9.168-21.437-10.33-30.604-2.595
					c-8.876,7.489-10.247,20.572-3.305,29.717l-3.88,7.401l8.907-2.607C325.814,284.182,336.601,283.921,344.241,277.474z"/>
				<path style="fill:#5F87DF;" d="M338.883,257.672v-5.111h-5.111c0-2.122-1.72-3.841-3.841-3.841s-3.841,1.72-3.841,3.841h-5.111
					v5.111c2.122,0,3.841,1.72,3.841,3.842c0,2.122-1.72,3.841-3.841,3.841v5.111h5.111c0-2.122,1.72-3.841,3.841-3.841
					s3.841,1.72,3.841,3.841h5.111v-5.111c2.122,0,3.841-1.72,3.841-3.841C342.724,259.392,341.004,257.672,338.883,257.672z"/>
			</g>
		</g>
		<g>
			<g>
				<g>
					<path style="fill:#224CB3;" d="M230.72,265.86c0,0-0.227,8.821,19.28,8.821s18.599-8.821,18.599-8.821H230.72z"/>
					<path style="fill:#19365A;" d="M269.598,268.325H230.24c-2.601,0-4.709-2.108-4.709-4.709v-16.008
						c0-2.601,2.108-4.709,4.709-4.709h39.359c2.601,0,4.709,2.108,4.709,4.709v16.008
						C274.307,266.217,272.199,268.325,269.598,268.325z"/>
					<path style="fill:#5F87DF;" d="M311.166,148.877c-1.352-19.077-13.131-56.289-58.971-58.524v-0.107
						c-0.74,0-1.471,0.01-2.195,0.027c-0.724-0.017-1.455-0.027-2.195-0.027v0.107c-45.84,2.234-57.619,39.446-58.971,58.524
						c-1.394,19.673,8.829,35.008,17.349,50.343c8.52,15.336,11.618,35.86,12.934,43.295c1.317,7.435,8.055,7.203,8.055,7.203
						h20.632v0.001l2.195-0.001l2.195,0.001v-0.001h20.632c0,0,6.738,0.232,8.055-7.203c1.317-7.435,4.415-27.96,12.935-43.295
						C302.336,183.885,312.56,168.55,311.166,148.877z"/>
				</g>
				<path style="fill:none;stroke:#19365A;stroke-miterlimit:10;" d="M234.447,251.537c5.27-16.446,7.867-33.744,7.661-51.012
					c-0.081-6.815-0.633-13.779-3.344-20.032c-0.489-1.128-1.334-2.402-2.559-2.304c-1.082,0.086-1.747,1.212-2.097,2.24
					c-1.296,3.807-0.77,8.192,1.392,11.584c2.161,3.392,5.912,5.722,9.911,6.156c1.063,0.115,2.165,0.099,3.168-0.272
					c2.082-0.77,3.335-2.89,4.126-4.964c1.722-4.517,2.032-9.562,0.875-14.256c-0.288-1.169-0.997-2.561-2.199-2.476
					c-0.847,0.06-1.43,0.862-1.813,1.62c-2.052,4.068-1.816,8.968-0.495,13.328c0.579,1.912,1.39,3.819,2.815,5.219
					c3.484,3.425,9.689,2.54,13.216-0.84c3.526-3.381,4.843-8.477,5.179-13.35c0.161-2.341-0.443-5.412-2.768-5.734
					c-2.394-0.332-3.776,2.596-4.314,4.952c-4.671,20.435-5.706,41.696-3.042,62.489c0.502,3.921,1.205,8,3.573,11.165"/>
				<path style="fill:#709CE8;" d="M206.375,115.343c-1.713,2.02-3.388,4.16-4.215,6.676c-0.828,2.516-0.666,5.508,1.038,7.536
					c2.403,2.862,7.012,2.816,10.297,1.035c3.286-1.781,5.627-4.855,8.1-7.657c3.893-4.411,8.51-8.437,14.108-10.247
					c2.124-0.687,4.352-1.042,6.428-1.861c2.076-0.819,4.067-2.215,4.902-4.285c1.123-2.782-0.246-6.154-2.678-7.911
					c-5.877-4.247-13.505-0.219-19.264,2.229C217.557,104.059,211.641,109.133,206.375,115.343z"/>
			</g>
			<path style="fill:#D7EFF9;" d="M205.841,150.672v-5.111h-5.111c0-2.122-1.72-3.841-3.841-3.841c-2.122,0-3.841,1.72-3.841,3.841
				h-5.111v17.905h5.111c0-2.122,1.72-3.841,3.841-3.841c2.122,0,3.841,1.72,3.841,3.841h5.111v-5.111
				c2.122,0,3.841-1.72,3.841-3.841C209.683,152.392,207.963,150.672,205.841,150.672z"/>
			<path style="fill:#D7EFF9;" d="M309.034,144.131c-0.328,0-0.641,0.054-0.944,0.131v-5.242h-5.111c0,2.122-1.72,3.842-3.841,3.842
				s-3.841-1.72-3.841-3.842h-5.111v5.111c-2.122,0-3.841,1.72-3.841,3.842s1.72,3.841,3.841,3.841v5.111h5.216
				c0-2.122,1.72-3.842,3.841-3.842s3.841,1.72,3.841,3.842h5.007v-5.242c0.304,0.077,0.616,0.131,0.944,0.131
				c2.122,0,3.841-1.72,3.841-3.841S311.155,144.131,309.034,144.131z"/>
			<path style="fill:#D7EFF9;" d="M223.864,211.35c0-2.122-1.72-3.841-3.842-3.841s-3.841,1.72-3.841,3.841h-5.111v17.905h5.111
				c0-2.122,1.72-3.842,3.841-3.842s3.842,1.72,3.842,3.842h5.111V211.35H223.864z"/>
			<path style="fill:#D7EFF9;" d="M286.923,208.982v-5.111h-5.111c0-2.122-1.72-3.842-3.841-3.842c-2.122,0-3.841,1.72-3.841,3.842
				h-5.111v5.111c2.122,0,3.841,1.72,3.841,3.842s-1.72,3.841-3.841,3.841v5.111h5.111c0-2.122,1.72-3.841,3.841-3.841
				c2.122,0,3.841,1.72,3.841,3.841h5.111v-5.111c2.122,0,3.842-1.72,3.842-3.841S289.045,208.982,286.923,208.982z"/>
		</g>
	</g>
</g>
<g id="Designed_by_freepik">
	<g>
		<g id="XMLID_1_">
			<g id="XMLID_20_">
				<path id="XMLID_28_" style="fill:#112129;" d="M260.104,466.12c-0.432,0.443-0.803,0.931-1.108,1.453l-0.465-0.241
					c-0.067-0.298-0.349-0.503-0.659-0.466c-0.331,0.039-0.568,0.339-0.529,0.67c0.039,0.331,0.339,0.568,0.67,0.529
					c0.066-0.008,0.127-0.026,0.184-0.052l0.451,0.234c-0.251,0.554-0.433,1.139-0.539,1.744l0.747,0.132
					c0.23-1.306,0.85-2.507,1.792-3.473L260.104,466.12z"/>
				<path id="XMLID_27_" style="fill:#112129;" d="M265.592,463.818c-0.171,0-0.341,0.006-0.51,0.017l-0.074-0.626
					c0.188-0.149,0.296-0.389,0.266-0.645c-0.046-0.393-0.402-0.674-0.795-0.628c-0.393,0.046-0.674,0.402-0.628,0.795
					c0.03,0.254,0.189,0.461,0.404,0.564l0.074,0.624c-0.714,0.116-1.403,0.332-2.06,0.646l0.327,0.684
					c0.934-0.447,1.942-0.673,2.995-0.673c0.496,0,0.993,0.053,1.475,0.158l0.161-0.741
					C266.692,463.877,266.142,463.818,265.592,463.818z"/>
				<path id="XMLID_26_" style="fill:#112129;" d="M272.194,466.366c0.331-0.04,0.566-0.342,0.526-0.672
					c-0.04-0.331-0.341-0.566-0.672-0.526c-0.309,0.038-0.535,0.304-0.53,0.609l-0.416,0.363c-0.418-0.43-0.889-0.813-1.408-1.139
					l-0.404,0.641c1.134,0.715,2.021,1.726,2.563,2.925l0.69-0.313c-0.251-0.554-0.567-1.072-0.942-1.545l0.402-0.351
					C272.065,466.37,272.129,466.374,272.194,466.366z"/>
				<path id="XMLID_25_" style="fill:#112129;" d="M265.044,474.027c-0.386,0.023-0.775,0.035-1.157,0.035
					c-0.88,0-1.733-0.061-2.478-0.179c-0.39-0.062-0.846-0.155-1.27-0.292c1.046,1.861,3.069,3.125,5.388,3.125
					c2.855,0,5.262-1.916,5.95-4.504c-0.682,0.449-1.505,0.825-2.459,1.123C267.839,473.702,266.463,473.941,265.044,474.027z"/>
				<path id="XMLID_21_" style="fill:#112129;" d="M265.592,465.334c-3.352,0-6.08,2.666-6.08,5.943
					c0,0.426,0.046,0.849,0.137,1.261c0.673,0.483,2.706,0.89,5.348,0.731c2.879-0.173,5.297-0.957,6.672-2.159
					c-0.006-0.195-0.021-0.39-0.045-0.582C271.244,467.568,268.65,465.334,265.592,465.334z M263.432,471.849
					c-1.02,0-1.85-0.83-1.85-1.85c0-1.02,0.83-1.85,1.85-1.85c1.02,0,1.85,0.83,1.85,1.85
					C265.282,471.02,264.452,471.849,263.432,471.849z M268.17,470.941c-0.75,0-1.36-0.61-1.36-1.36c0-0.75,0.61-1.361,1.36-1.361
					c0.75,0,1.361,0.61,1.361,1.361C269.53,470.331,268.92,470.941,268.17,470.941z"/>
			</g>
			<path id="XMLID_18_" style="fill:#112129;" d="M281.595,467.202c-0.295-0.116-0.805-0.309-1.382-0.237
				c-0.551,0.069-0.844,0.341-0.844,1.007v0.866h2.228v1.717h-2.228v5.455h-1.932v-5.455h-1.34v-1.717h1.34v-0.888
				c0-1.68,0.896-2.783,2.568-2.783c0.643,0,1.157,0.122,1.59,0.308L281.595,467.202z"/>
			<path id="XMLID_16_" style="fill:#112129;" d="M286.298,470.534c-0.177-0.03-0.358-0.046-0.526-0.046
				c-0.896,0-1.51,0.548-1.51,1.613v3.908h-1.932v-7.172h1.873v0.785c0.451-0.673,1.14-0.977,2.021-0.977
				c0.414,0,0.848,0.128,1.094,0.337L286.298,470.534z"/>
			<path id="XMLID_13_" style="fill:#112129;" d="M293.965,472.412c0,0.222-0.015,0.489-0.037,0.651h-5.085
				c0.207,1.036,0.933,1.488,1.843,1.488c0.622,0,1.295-0.252,1.813-0.688l1.133,1.243c-0.814,0.748-1.85,1.088-3.057,1.088
				c-2.198,0-3.723-1.495-3.723-3.753c0-2.258,1.48-3.797,3.627-3.797C292.544,468.644,293.958,470.177,293.965,472.412z
				 M288.851,471.746h3.175c-0.177-0.918-0.733-1.436-1.562-1.436C289.554,470.31,289.021,470.858,288.851,471.746z"/>
			<path id="XMLID_10_" style="fill:#112129;" d="M301.618,472.412c0,0.222-0.015,0.489-0.037,0.651h-5.085
				c0.207,1.036,0.933,1.488,1.843,1.488c0.622,0,1.295-0.252,1.814-0.688l1.132,1.243c-0.814,0.748-1.85,1.088-3.057,1.088
				c-2.198,0-3.723-1.495-3.723-3.753c0-2.258,1.48-3.797,3.627-3.797C300.197,468.644,301.611,470.177,301.618,472.412z
				 M296.504,471.746h3.175c-0.178-0.918-0.733-1.436-1.562-1.436C297.207,470.31,296.674,470.858,296.504,471.746z"/>
			<path id="XMLID_7_" style="fill:#112129;" d="M309.964,472.419c0,2.154-1.495,3.775-3.471,3.775
				c-0.962,0-1.643-0.378-2.109-0.933v3.708h-1.924v-10.133h1.887v0.792c0.466-0.585,1.155-0.984,2.139-0.984
				C308.469,468.644,309.964,470.265,309.964,472.419z M304.287,472.419c0,1.132,0.748,1.976,1.843,1.976
				c1.14,0,1.85-0.881,1.85-1.976c0-1.095-0.71-1.976-1.85-1.976C305.035,470.443,304.287,471.287,304.287,472.419z"/>
			<path id="XMLID_4_" style="fill:#112129;" d="M313.068,466.491c0,0.696-0.54,1.229-1.236,1.229c-0.696,0-1.229-0.533-1.229-1.229
				c0-0.696,0.533-1.243,1.229-1.243C312.527,465.247,313.068,465.795,313.068,466.491z M312.809,476.009h-1.932v-7.172h1.932
				V476.009z"/>
			<path id="XMLID_2_" style="fill:#112129;" d="M316.032,471.39l2.701-2.554h2.368l-3.479,3.375l3.501,3.797h-2.376l-2.716-2.901
				v2.901H314.1v-10.658h1.932V471.39z"/>
		</g>
		<g>
			<path style="fill:#112129;" d="M184.412,475.944v-1.055c-0.527,0.718-1.391,1.23-2.387,1.23c-1.846,0-3.149-1.406-3.149-3.706
				c0-2.256,1.289-3.721,3.149-3.721c0.952,0,1.816,0.469,2.387,1.245v-3.765h1.099v9.77H184.412z M184.412,474.025v-3.208
				c-0.395-0.615-1.245-1.143-2.124-1.143c-1.421,0-2.27,1.172-2.27,2.739c0,1.567,0.85,2.724,2.27,2.724
				C183.168,475.138,184.017,474.64,184.412,474.025z"/>
			<path style="fill:#112129;" d="M186.932,472.399c0-2.051,1.465-3.706,3.486-3.706c2.139,0,3.398,1.67,3.398,3.794v0.279h-5.727
				c0.088,1.333,1.025,2.446,2.549,2.446c0.805,0,1.626-0.322,2.182-0.893l0.527,0.718c-0.703,0.703-1.655,1.084-2.812,1.084
				C188.44,476.12,186.932,474.611,186.932,472.399z M190.403,469.602c-1.509,0-2.256,1.274-2.314,2.358h4.643
				C192.718,470.905,192.015,469.602,190.403,469.602z"/>
			<path style="fill:#112129;" d="M194.607,475.006l0.571-0.791c0.469,0.542,1.362,1.011,2.329,1.011c1.084,0,1.67-0.513,1.67-1.216
				c0-1.714-4.38-0.659-4.38-3.281c0-1.098,0.952-2.036,2.636-2.036c1.201,0,2.051,0.454,2.622,1.025l-0.513,0.762
				c-0.424-0.513-1.201-0.894-2.109-0.894c-0.967,0-1.567,0.483-1.567,1.113c0,1.552,4.38,0.527,4.38,3.281
				c0,1.187-0.952,2.138-2.783,2.138C196.306,476.12,195.325,475.768,194.607,475.006z"/>
			<path style="fill:#112129;" d="M201.477,467.126c0-0.41,0.337-0.747,0.732-0.747c0.41,0,0.747,0.337,0.747,0.747
				c0,0.41-0.337,0.732-0.747,0.732C201.814,467.858,201.477,467.536,201.477,467.126z M201.667,475.944v-7.075h1.099v7.075H201.667
				z"/>
			<path style="fill:#112129;" d="M204.582,477.76l0.556-0.82c0.586,0.703,1.289,0.967,2.3,0.967c1.172,0,2.27-0.571,2.27-2.124
				v-1.011c-0.513,0.718-1.377,1.26-2.373,1.26c-1.845,0-3.149-1.377-3.149-3.662c0-2.27,1.289-3.676,3.149-3.676
				c0.952,0,1.802,0.469,2.373,1.245v-1.069h1.098v6.87c0,2.344-1.641,3.076-3.369,3.076
				C206.237,478.815,205.417,478.58,204.582,477.76z M209.709,473.908v-3.091c-0.381-0.615-1.23-1.143-2.109-1.143
				c-1.421,0-2.27,1.128-2.27,2.695c0,1.553,0.849,2.695,2.27,2.695C208.478,475.065,209.328,474.523,209.709,473.908z"/>
			<path style="fill:#112129;" d="M217.413,475.944v-4.629c0-1.245-0.63-1.641-1.582-1.641c-0.865,0-1.685,0.527-2.095,1.099v5.17
				h-1.099v-7.075h1.099v1.025c0.498-0.586,1.464-1.201,2.519-1.201c1.48,0,2.256,0.747,2.256,2.285v4.966H217.413z"/>
			<path style="fill:#112129;" d="M219.932,472.399c0-2.051,1.465-3.706,3.486-3.706c2.139,0,3.398,1.67,3.398,3.794v0.279h-5.727
				c0.088,1.333,1.025,2.446,2.549,2.446c0.806,0,1.626-0.322,2.183-0.893l0.527,0.718c-0.703,0.703-1.655,1.084-2.812,1.084
				C221.441,476.12,219.932,474.611,219.932,472.399z M223.404,469.602c-1.509,0-2.256,1.274-2.314,2.358h4.643
				C225.718,470.905,225.015,469.602,223.404,469.602z"/>
			<path style="fill:#112129;" d="M233.35,475.944v-1.055c-0.527,0.718-1.392,1.23-2.388,1.23c-1.846,0-3.149-1.406-3.149-3.706
				c0-2.256,1.289-3.721,3.149-3.721c0.952,0,1.817,0.469,2.388,1.245v-3.765h1.098v9.77H233.35z M233.35,474.025v-3.208
				c-0.396-0.615-1.245-1.143-2.124-1.143c-1.421,0-2.27,1.172-2.27,2.739c0,1.567,0.849,2.724,2.27,2.724
				C232.105,475.138,232.954,474.64,233.35,474.025z"/>
			<path style="fill:#112129;" d="M239.692,475.944v-9.77h1.098v3.765c0.572-0.776,1.421-1.245,2.388-1.245
				c1.845,0,3.149,1.465,3.149,3.721c0,2.299-1.304,3.706-3.149,3.706c-0.996,0-1.86-0.513-2.388-1.23v1.055H239.692z
				 M242.9,475.138c1.436,0,2.285-1.157,2.285-2.724c0-1.568-0.85-2.739-2.285-2.739c-0.864,0-1.728,0.527-2.109,1.143v3.208
				C241.171,474.64,242.036,475.138,242.9,475.138z"/>
			<path style="fill:#112129;" d="M247.528,477.716c0.161,0.073,0.425,0.117,0.601,0.117c0.483,0,0.805-0.161,1.055-0.747
				l0.469-1.069l-2.959-7.148h1.187l2.358,5.801l2.344-5.801h1.201l-3.545,8.51c-0.425,1.025-1.143,1.421-2.08,1.435
				c-0.234,0-0.601-0.044-0.805-0.103L247.528,477.716z"/>
		</g>
	</g>
</g>
</svg>
